<?xml version="1.0" encoding="UTF-8" standalone="no"?>
<svg
   viewBox="0 0 11.490581 10.185479"
   height="10.185479mm"
   width="11.490581mm">
  <path
     style="opacity:1;fill-opacity:1;fill-rule:nonzero;stroke:none;stroke-width:0.16499999;stroke-linecap:round;stroke-linejoin:bevel;stroke-miterlimit:4;stroke-dasharray:none;stroke-dashoffset:0;stroke-opacity:1"
     d="M 10.4496,5.0927393 A 4.7043103,4.7043103 0 0 1 5.74529,9.7970496 4.7043103,4.7043103 0 0 1 1.0409798,5.0927393 4.7043103,4.7043103 0 0 1 5.74529,0.38842908 4.7043103,4.7043103 0 0 1 10.4496,5.0927393 Z"
     id="path4"/>
  <g
     transform="matrix(0.05470816,0,0,0.05470816,1.5743951,1.8941022)"
     id="layer1"
     style="fill:#ffffff;stroke-width:18.27880859" />
  <path
     style="fill:#ffffff;stroke-width:0.99999994"
     d="M 5.3929114,7.8641806 C 4.8327142,7.7571349 4.3259188,7.4678428 3.8757711,6.9981572 3.4104868,6.5126781 3.1125464,5.9310022 3.0010584,5.290436 2.9374637,4.9250438 2.9595747,4.4389344 3.0529348,4.1499639 3.168859,3.7911519 3.3777604,3.4947008 3.6453621,3.3092527 L 3.7503377,3.236505 3.5971855,3.0973237 3.4440335,2.9581425 3.6540334,2.8777182 c 0.3394553,-0.1300022 0.5950122,-0.1757099 0.892465,-0.159622 0.2585648,0.013984 0.6220482,0.1044306 0.6220482,0.1547857 0,0.013899 -0.05144,0.051459 -0.1143135,0.083467 C 4.6808113,3.1464624 4.3375842,3.4565275 4.1849517,3.7416432 L 4.1024123,3.8958259 4.0053295,3.6799558 c -0.053396,-0.1187285 -0.1099808,-0.21587 -0.1257449,-0.21587 -0.044874,0 -0.1888214,0.2100564 -0.2856992,0.4169063 C 3.2382626,4.6403035 3.3855486,5.4013988 4.002843,5.9942662 4.2408063,6.2228129 4.4577676,6.3676846 4.8304825,6.5469067 5.2395259,6.7435977 5.5046771,6.8085808 5.8383943,6.793925 6.0514758,6.7845672 6.1208407,6.7700432 6.2360417,6.7106638 6.5443853,6.5517296 6.6366362,6.2385072 6.4595107,5.951912 6.4178804,5.8845526 6.281594,5.776889 6.0192318,5.6041006 5.3777369,5.1816193 5.0752463,4.8872288 4.8843697,4.4996272 4.6562941,4.036488 4.7181872,3.6395235 5.0731631,3.2887623 5.375105,2.9904055 5.7825072,2.8384631 6.2914138,2.8344108 6.4577906,2.8330937 6.5939576,2.8257328 6.5940071,2.8180727 6.5940609,2.8104165 6.5652194,2.7616459 6.5299251,2.7097059 6.4391734,2.5761529 6.2389618,2.4757501 5.989374,2.4386286 5.7484582,2.4027968 5.7615113,2.3805842 6.0600649,2.3183341 6.4525051,2.2365082 6.8379736,2.3650224 7.1767636,2.6906373 l 0.1119661,0.1076112 0.0157,-0.1445066 c 0.00865,-0.079478 0.018769,-0.1807722 0.02252,-0.2250968 0.00665,-0.078538 0.00954,-0.076488 0.1134357,0.080467 0.1462023,0.2208558 0.2341884,0.4508327 0.2505725,0.6549416 L 7.704731,3.335638 7.8823621,3.4670505 c 0.097697,0.072277 0.2842459,0.1868388 0.4145535,0.254582 0.1304052,0.067795 0.2331925,0.1379484 0.2286256,0.1560423 C 8.4830117,4.0461901 8.2963505,4.5398749 8.2752949,4.5395291 8.2604335,4.539285 7.8851619,4.4379902 7.4413583,4.3144295 L 6.6344429,4.0897735 6.6278982,3.9719342 c -0.0036,-0.064812 -0.013549,-0.181384 -0.022108,-0.2590497 L 6.5902274,3.5716743 H 6.4087057 c -0.252783,0 -0.4485022,0.098187 -0.5341071,0.2679468 -0.081091,0.1608074 -0.076487,0.23445 0.027173,0.4346942 0.1510409,0.2917703 0.5413681,0.5660999 1.1561429,0.8125589 0.6988432,0.2801619 1.0343282,0.7338152 0.941864,1.2736182 C 7.8903654,6.9992344 7.2063209,7.6247368 6.4009187,7.8225166 6.1113326,7.8936293 5.6473791,7.9128058 5.3929114,7.8641806 Z M 7.407737,3.6240546 c 0.055476,-0.015406 0.1008645,-0.038159 0.1008645,-0.05056 0,-0.056465 -0.3632448,-0.3552167 -0.5268164,-0.4332824 C 6.7759124,3.0419583 6.7437002,3.0565707 6.7718241,3.23546 6.8217749,3.5531769 7.0846109,3.7137915 7.407737,3.6240546 Z"
     id="path830"/>
</svg>
