<?xml version="1.0" encoding="UTF-8" standalone="no"?>
<!-- Created with Inkscape (http://www.inkscape.org/) -->

<svg
   xmlns:dc="http://purl.org/dc/elements/1.1/"
   xmlns:cc="http://creativecommons.org/ns#"
   xmlns:rdf="http://www.w3.org/1999/02/22-rdf-syntax-ns#"
   xmlns:svg="http://www.w3.org/2000/svg"
   xmlns="http://www.w3.org/2000/svg"
   xmlns:sodipodi="http://sodipodi.sourceforge.net/DTD/sodipodi-0.dtd"
   xmlns:inkscape="http://www.inkscape.org/namespaces/inkscape"
   width="98.412254mm"
   height="101.73002mm"
   viewBox="0 0 98.412254 101.73002"
   version="1.1"
   id="svg8"
   inkscape:version="0.92.4 (unknown)"
   sodipodi:docname="dragonair.svg">
  <defs
     id="defs2" />
  <sodipodi:namedview
     id="base"
     pagecolor="#ffffff"
     bordercolor="#666666"
     borderopacity="1.0"
     inkscape:pageopacity="0.0"
     inkscape:pageshadow="2"
     inkscape:zoom="0.35"
     inkscape:cx="-350.60283"
     inkscape:cy="-167.15125"
     inkscape:document-units="mm"
     inkscape:current-layer="layer1"
     showgrid="false"
     fit-margin-top="0"
     fit-margin-left="0"
     fit-margin-right="0"
     fit-margin-bottom="0"
     inkscape:window-width="1920"
     inkscape:window-height="1021"
     inkscape:window-x="0"
     inkscape:window-y="28"
     inkscape:window-maximized="1" />
  <metadata
     id="metadata5">
    <rdf:RDF>
      <cc:Work
         rdf:about="">
        <dc:format>image/svg+xml</dc:format>
        <dc:type
           rdf:resource="http://purl.org/dc/dcmitype/StillImage" />
        <dc:title></dc:title>
      </cc:Work>
    </rdf:RDF>
  </metadata>
  <g
     inkscape:label="Layer 1"
     inkscape:groupmode="layer"
     id="layer1"
     transform="translate(-23.594022,-2.8778797)">
    <path
       style="fill:#000000;stroke-width:1"
       d="m 72.439137,104.31665 c -3.855098,-0.55594 -8.449244,-2.53726 -11.892976,-5.129085 -2.29503,-1.72729 -3.698695,-3.28059 -5.045225,-5.58305 -0.934387,-1.59773 -0.972101,-1.62676 -2.324548,-1.78923 -0.756113,-0.0908 -1.865169,-0.16618 -2.464572,-0.16745 -2.75899,-0.006 -8.44019,-1.38738 -12.12577,-2.94875 -3.9447,-1.671154 -8.4042,-5.266223 -10.65351,-8.588432 -1.33625,-1.973638 -1.72459,-2.734709 -2.48461,-4.869283 -0.55601,-1.561586 -0.61477,-2.196306 -0.6388,-6.899827 -0.025,-4.883526 -0.0596,-5.22663 -0.60604,-5.993969 -0.84834,-1.191376 -0.80429,-3.202712 0.0935,-4.269679 0.37019,-0.439949 0.90597,-0.873826 1.19062,-0.964171 0.39912,-0.126674 0.51755,-0.404492 0.51755,-1.214075 0,-1.426728 0.62652,-2.288685 1.91591,-2.635882 0.78648,-0.211778 1.58311,-0.817033 3.05032,-2.317538 1.14277,-1.16871 2.03533,-1.892131 2.10244,-1.704028 0.0641,0.179782 -0.11705,0.656031 -0.40263,1.058333 -0.28558,0.402304 -0.88503,1.352958 -1.33212,2.112563 -0.76019,1.291564 -0.78801,1.428784 -0.4292,2.116667 0.56631,1.085683 0.47182,2.049298 -0.28969,2.954305 -0.59706,0.709563 -0.64607,0.914802 -0.4168,1.745171 0.49426,1.790041 -0.65825,3.769749 -2.55998,4.397375 l -0.92029,0.303723 0.1627,2.811245 c 0.29748,5.140211 1.56934,8.312214 4.53354,11.30667 1.48812,1.503309 2.36637,2.124522 4.37538,3.094855 3.72024,1.796838 6.01441,2.335067 10.63477,2.495 2.13834,0.07402 4.54923,0.05195 5.35754,-0.04904 1.317141,-0.164565 1.485254,-0.257153 1.620017,-0.89222 1.146067,-5.400796 4.689909,-12.153066 14.435574,-27.504857 l 3.909719,-6.158759 -0.648602,-0.955768 c -1.28179,-1.888823 -0.549362,-4.307435 1.469009,-4.850926 0.595873,-0.160452 1.316458,-0.217766 1.601295,-0.12736 0.382757,0.121483 0.578422,0.0042 0.749901,-0.449321 0.127608,-0.337529 0.204679,-0.644983 0.17127,-0.683228 -0.03341,-0.03825 -0.823206,0.129072 -1.755098,0.371816 -1.583526,0.412488 -1.793544,0.412319 -3.210851,-0.0026 -1.005454,-0.294338 -1.874784,-0.78477 -2.579687,-1.455327 -1.179814,-1.122331 -1.22369,-1.365623 -0.788842,-4.374007 0.225195,-1.557941 0.199141,-1.924259 -0.177779,-2.499511 -0.245216,-0.374247 -0.528534,-1.561436 -0.637,-2.669233 -0.189397,-1.934372 -0.230516,-2.02568 -1.348814,-2.995105 -1.136934,-0.985581 -1.160466,-1.227794 -0.153927,-1.584344 0.113181,-0.04009 -0.08148,-0.786169 -0.432591,-1.657948 -0.895686,-2.223947 -1.051812,-3.162569 -0.702226,-4.221821 0.273503,-0.828722 0.171776,-1.319686 -1.037513,-5.007282 -0.737409,-2.248601 -1.340747,-4.230989 -1.340747,-4.405248 0,-0.17426 -0.416719,-1.002829 -0.926041,-1.8412643 -0.509323,-0.838435 -0.926042,-1.657683 -0.926042,-1.820548 0,-1.129934 3.908062,1.025734 5.315781,2.9321603 1.458359,1.975006 2.814455,5.231529 3.527623,8.471227 l 0.158343,0.719299 1.808067,-0.944454 c 2.446848,-1.278122 5.379056,-1.513631 8.195281,-0.65823 1.02857,0.31242 1.942732,0.685506 2.031465,0.829082 0.378802,0.612913 0.909016,0.152178 1.678358,-1.458428 1.199526,-2.511187 2.831023,-7.528538 3.484515,-10.7159413 0.634574,-3.095129 1.016437,-4.101042 1.556827,-4.101042 0.638321,0 1.342406,1.270625 1.639451,2.958623 0.200226,1.137812 0.39062,1.596266 0.625493,1.506139 0.185706,-0.07126 0.531593,0.06438 0.768639,0.301421 0.334775,0.334775 0.43099,0.965602 0.43099,2.8257373 0,2.098666 0.04907,2.354023 0.396875,2.065371 0.318045,-0.263954 0.482394,-0.258403 0.827421,0.02794 0.616246,0.511439 0.347078,3.785058 -0.512844,6.237168 -0.462368,1.318456 -0.623533,2.217034 -0.526884,2.937605 0.192093,1.432169 -0.542599,2.964956 -2.458852,5.129906 -1.942378,2.194467 -2.680443,3.378351 -2.89995,4.651635 -0.601861,3.491172 -2.290844,8.529733 -4.678336,13.956366 -2.250855,5.116073 -5.068448,12.361455 -6.680636,17.17912 -2.192999,6.553293 -3.04596,10.603601 -3.04596,14.463821 v 2.927183 l 0.859895,-0.183668 c 1.417881,-0.302853 5.596761,-2.037829 10.654501,-4.423511 4.730999,-2.231562 10.582892,-4.639103 13.885604,-5.712711 2.737143,-0.889762 5.399772,-1.359932 8.702602,-1.536716 2.62331,-0.140414 3.39595,-0.0822 5.29642,0.399071 6.47819,1.640512 10.40912,5.560592 11.53674,11.504912 1.40711,7.417585 -1.48368,14.055233 -7.42768,17.055003 -1.50712,0.7606 -3.21698,1.16669 -11.36121,2.69829 -3.92906,0.738895 -9.728237,1.936515 -12.88706,2.661375 -8.980403,2.06075 -12.95217,2.47031 -17.540021,1.80869 z"
       id="path826"
       inkscape:connector-curvature="0" />
  </g>
</svg>
