<svg
   width="10mm"
   height="10mm"
   viewBox="0 0 10 10"
   version="1.1">
  <g
     id="layer1"
     transform="translate(-33.082706,-112.99575)">
    <g
       id="g832"
       transform="matrix(3.3029168,0,0,3.3029168,-87.562299,-271.40861)">
      <path
         id="path869"
         d="m 37.237933,118.86516 c 0.249361,-0.4287 -0.774019,-0.58531 -0.640434,-0.98607 0.772387,-2.31717 3.28727,-0.74966 2.77521,0.27447 -0.09475,0.18951 -0.312019,0.11732 -0.416789,0.27447 -0.05967,0.0895 -0.09149,0.36597 -0.152485,0.42695 -0.11524,0.11524 -0.487488,-0.0212 -0.548943,0.10166 -0.08957,0.17915 -0.818831,-0.0751 -1.016559,-0.0915 z"
         style="fill:#abd0ff;fill-opacity:0.5;stroke:none;stroke-width:0.08050748px;stroke-linecap:butt;stroke-linejoin:miter;stroke-opacity:1" />
      <path
         transform="matrix(0.30222794,0,0,0.30222794,26.529834,82.245754)"
         style="fill:#00a1ff;fill-opacity:1;stroke-width:0.06916786"
         d="m 37.382812,113.80664 c -0.0596,-0.002 -0.108332,0.001 -0.154296,0.0117 -0.09193,0.0214 -0.162516,0.0711 -0.263672,0.15625 -0.07619,0.0643 -0.139142,0.10491 -0.191406,0.125 -0.05226,0.0201 -0.09173,0.0214 -0.134766,0.008 -0.132947,-0.0422 -0.321745,0.004 -0.5,0.082 -0.178255,0.0783 -0.34548,0.19098 -0.421875,0.32032 -0.05757,0.0975 -0.188252,0.20175 -0.263672,0.2207 -0.301165,0.0756 -0.572869,0.31215 -0.671875,0.58594 -0.05262,0.1455 -0.136022,0.23413 -0.214844,0.2539 -0.147061,0.0369 -0.293371,0.16294 -0.408203,0.31446 -0.114832,0.15151 -0.199219,0.32887 -0.199219,0.48437 0,0.17761 -0.03859,0.25751 -0.1875,0.38281 -0.258234,0.2173 -0.397386,0.6002 -0.335937,0.92774 0.01442,0.0768 0.01573,0.13639 0.0078,0.17969 -0.0079,0.0433 -0.02391,0.0698 -0.05273,0.0937 -0.08004,0.0664 -0.12865,0.19523 -0.158203,0.33985 -0.02955,0.14462 -0.03579,0.30459 -0.0039,0.43164 0.04037,0.16086 0.170261,0.33971 0.378906,0.53711 0.208645,0.19739 0.49669,0.41232 0.859375,0.64258 l 0.667969,0.42382 0.002,0.39258 c 6.61e-4,0.17853 0.01521,0.32457 0.05469,0.44532 0.03947,0.12074 0.10663,0.21606 0.205078,0.28515 0.196897,0.13818 0.510084,0.17578 1.011719,0.17578 0.306474,0 0.479946,0.004 0.585938,0.0234 0.105991,0.0193 0.143036,0.0462 0.199218,0.10938 0.07785,0.0876 0.230811,0.21177 0.34961,0.28515 0.421691,0.26047 1.021865,0.14904 1.396484,-0.25195 0.07822,-0.0836 0.116597,-0.11859 0.220703,-0.14063 0.104107,-0.022 0.276197,-0.0254 0.59961,-0.0254 0.500925,0 0.813179,-0.0375 1.009765,-0.17578 0.09829,-0.0691 0.165682,-0.16443 0.205078,-0.28515 0.0394,-0.12073 0.05403,-0.26686 0.05469,-0.44532 l 0.002,-0.39258 0.667969,-0.42382 c 0.362684,-0.23026 0.650729,-0.44519 0.859375,-0.64258 0.208646,-0.1974 0.338535,-0.37625 0.378906,-0.53711 0.03189,-0.12705 0.02565,-0.28702 -0.0039,-0.43164 -0.02955,-0.14462 -0.07817,-0.27342 -0.158203,-0.33985 -0.02897,-0.024 -0.04636,-0.0505 -0.05469,-0.0937 -0.0083,-0.0433 -0.0066,-0.10303 0.0078,-0.17969 0.06141,-0.32737 -0.07567,-0.71037 -0.333985,-0.92774 -0.148914,-0.1253 -0.1875,-0.2052 -0.1875,-0.38281 0,-0.1555 -0.08439,-0.33286 -0.199219,-0.48437 -0.114831,-0.15152 -0.261138,-0.27757 -0.408203,-0.31446 -0.07895,-0.0198 -0.164285,-0.1087 -0.216797,-0.2539 -0.099,-0.2738 -0.370712,-0.51035 -0.671874,-0.58594 -0.07526,-0.0189 -0.203955,-0.12292 -0.261719,-0.2207 -0.0764,-0.12934 -0.243621,-0.24201 -0.421875,-0.32032 -0.178254,-0.0783 -0.367057,-0.12421 -0.5,-0.082 -0.04298,0.0136 -0.08248,0.0123 -0.134766,-0.008 -0.05229,-0.0202 -0.11519,-0.0609 -0.191406,-0.125 -0.101156,-0.0851 -0.171744,-0.13487 -0.263672,-0.15625 -0.09193,-0.0214 -0.196059,-0.0144 -0.371094,0.006 -0.47317,0.0547 -0.493624,0.0547 -0.966797,0 -0.08752,-0.0101 -0.1572,-0.0156 -0.216797,-0.0176 z m 0.06445,0.49024 c 0.12069,-0.0151 0.258745,0.0207 0.412109,0.11132 0.09553,0.0564 0.154618,0.0899 0.222656,0.0899 0.06804,0 0.127125,-0.0334 0.222657,-0.0899 0.153363,-0.0906 0.291419,-0.12638 0.412109,-0.11132 0.12069,0.0151 0.227434,0.0786 0.320312,0.19726 0.08173,0.10443 0.129061,0.16748 0.201172,0.18945 0.07211,0.022 0.142569,-0.006 0.261719,-0.0488 0.105617,-0.0382 0.168845,-0.0524 0.21875,-0.0488 0.04991,0.004 0.09537,0.0248 0.173828,0.0762 0.08985,0.0589 0.204205,0.20302 0.238281,0.30078 0.02862,0.0821 0.05943,0.14082 0.109375,0.17969 0.04994,0.0389 0.112434,0.0527 0.191407,0.0527 0.122957,0 0.255105,0.0548 0.353515,0.13867 0.09841,0.0838 0.160156,0.1944 0.160156,0.29297 0,0.12092 0.03132,0.2207 0.09375,0.29102 0.06243,0.0703 0.154807,0.10742 0.265626,0.10742 0.06328,0 0.204594,0.0558 0.285156,0.12109 0.06471,0.0524 0.09671,0.0903 0.115234,0.1504 0.01853,0.0601 0.02188,0.14721 0.01563,0.29101 -0.0072,0.16475 -0.01143,0.25698 0.02148,0.32813 0.01646,0.0356 0.04462,0.0621 0.07812,0.082 0.0335,0.0199 0.07346,0.0335 0.123047,0.0508 0.134165,0.0468 0.22146,0.12946 0.265625,0.23437 0.04417,0.10492 0.04577,0.23658 -0.0078,0.38477 -0.04047,0.11192 -0.06406,0.18347 -0.04883,0.25781 0.01524,0.0743 0.06376,0.13606 0.146484,0.23438 0.09005,0.10702 0.145817,0.19683 0.164063,0.27929 0.01825,0.0825 0.0038,0.1599 -0.05859,0.25586 -0.124843,0.19193 -0.446354,0.44209 -1.025391,0.83203 l -0.794922,0.53516 a 0.04237462,0.04237462 0 0 0 -0.01953,0.0332 l -0.02148,0.44727 c -0.0057,0.12118 -0.01863,0.24121 -0.03516,0.33594 -0.0083,0.0474 -0.01628,0.0882 -0.02539,0.11914 -0.0091,0.0309 -0.02188,0.0528 -0.02344,0.0547 0.0044,-0.005 -0.01808,0.0119 -0.05469,0.0215 -0.03661,0.01 -0.08775,0.0178 -0.146485,0.0254 -0.11747,0.0151 -0.268141,0.0255 -0.416015,0.0293 -0.147874,0.004 -0.291945,0.002 -0.398438,-0.008 -0.05325,-0.005 -0.09786,-0.0122 -0.125,-0.0195 -0.0031,-8.2e-4 -0.0032,-0.001 -0.0059,-0.002 0.0038,-0.005 0.0064,-0.009 0.01172,-0.0156 0.01983,-0.0252 0.04888,-0.0596 0.08594,-0.0996 0.07412,-0.08 0.17788,-0.18285 0.291016,-0.28907 0.21592,-0.20272 0.341957,-0.35119 0.376953,-0.4707 0.0175,-0.0598 0.0038,-0.12269 -0.04102,-0.1582 -0.04485,-0.0355 -0.10713,-0.0469 -0.189453,-0.0469 -0.07696,0 -0.16084,0.0438 -0.255859,0.10938 -0.09502,0.0656 -0.200201,0.15709 -0.304688,0.26367 -0.208973,0.21315 -0.416679,0.48552 -0.542968,0.73828 -0.05811,0.11629 -0.125956,0.22984 -0.1875,0.31836 -0.06155,0.0885 -0.124159,0.1542 -0.142579,0.16406 a 0.04237462,0.04237462 0 0 0 -0.0039,0.002 0.04237462,0.04237462 0 0 0 -0.0039,0.002 c -0.07443,0.0372 -0.204584,0.0593 -0.333984,0.0586 -0.132846,-6.9e-4 -0.265214,-0.0255 -0.332032,-0.0645 -0.0075,-0.004 -0.02871,-0.0222 -0.05273,-0.0508 -0.02402,-0.0286 -0.0522,-0.0669 -0.08203,-0.11133 -0.05966,-0.0889 -0.127526,-0.20419 -0.185547,-0.32031 -0.125942,-0.25207 -0.334355,-0.52545 -0.542969,-0.73829 -0.104307,-0.10641 -0.207861,-0.19616 -0.302734,-0.26171 -0.09487,-0.0656 -0.178978,-0.10938 -0.25586,-0.10938 -0.08232,0 -0.146429,0.0115 -0.191406,0.0469 -0.04498,0.0354 -0.05629,0.0984 -0.03906,0.1582 0.03445,0.11965 0.159056,0.26796 0.375,0.4707 0.113135,0.10622 0.216892,0.20903 0.291015,0.28907 0.03706,0.04 0.06611,0.0744 0.08594,0.0996 0.0053,0.007 0.008,0.0104 0.01172,0.0156 -0.0026,8.4e-4 -0.0028,0.001 -0.0059,0.002 -0.02708,0.007 -0.06989,0.0148 -0.123047,0.0195 -0.106305,0.009 -0.252762,0.0116 -0.40039,0.008 -0.147629,-0.004 -0.296778,-0.0142 -0.414063,-0.0293 -0.05864,-0.008 -0.109929,-0.0159 -0.146484,-0.0254 -0.03656,-0.01 -0.05902,-0.0267 -0.05469,-0.0215 -0.0017,-0.002 -0.01415,-0.0237 -0.02344,-0.0547 -0.0093,-0.031 -0.01884,-0.0718 -0.02734,-0.11914 -0.017,-0.0947 -0.02948,-0.21488 -0.03516,-0.33594 l -0.01953,-0.44727 a 0.04237462,0.04237462 0 0 0 -0.01953,-0.0332 l -0.796875,-0.53516 c -0.579027,-0.38993 -0.901037,-0.64015 -1.02539,-0.83203 -0.06218,-0.0959 -0.07701,-0.17336 -0.05859,-0.25586 0.01841,-0.0825 0.07595,-0.17226 0.166016,-0.27929 0.08273,-0.0983 0.131249,-0.16004 0.146484,-0.23438 0.01523,-0.0743 -0.0084,-0.14589 -0.04883,-0.25781 -0.05358,-0.14819 -0.05197,-0.27985 -0.0078,-0.38477 0.04416,-0.10491 0.131446,-0.18758 0.265625,-0.23437 0.04961,-0.0173 0.08968,-0.0308 0.123047,-0.0508 0.03337,-0.02 0.06002,-0.0484 0.07617,-0.084 0.0323,-0.0712 0.02865,-0.16151 0.02148,-0.32617 -0.0063,-0.1438 -0.0029,-0.23089 0.01563,-0.29101 0.01853,-0.0601 0.05053,-0.098 0.115235,-0.1504 0.08058,-0.0652 0.221884,-0.12109 0.285156,-0.12109 0.110818,0 0.20465,-0.0372 0.267578,-0.10742 0.06293,-0.0702 0.09375,-0.16998 0.09375,-0.29102 0,-0.0986 0.06175,-0.20914 0.160156,-0.29297 0.09841,-0.0838 0.230559,-0.13867 0.353516,-0.13867 0.07897,0 0.141466,-0.0139 0.191406,-0.0527 0.04994,-0.0389 0.08075,-0.0976 0.109375,-0.17969 0.03408,-0.0978 0.148411,-0.24186 0.238282,-0.30078 0.07845,-0.0514 0.123929,-0.0726 0.173828,-0.0762 0.0499,-0.004 0.113131,0.0106 0.21875,0.0488 0.119114,0.0431 0.189962,0.0709 0.261718,0.0488 0.07176,-0.0221 0.117544,-0.0851 0.199219,-0.18945 0.09288,-0.11868 0.199622,-0.18221 0.320313,-0.19726 z m 0.458984,0.77734 a 0.04237462,0.04237462 0 0 0 -0.03125,0.0195 0.04237462,0.04237462 0 0 0 -0.0078,0.0234 l -0.01953,1.0625 c -0.0065,0.36296 -0.0042,0.63694 0.0059,0.83008 0.005,0.0966 0.0118,0.17259 0.02148,0.23046 0.0097,0.0579 0.01765,0.0965 0.04297,0.12696 0.02416,0.0291 0.05315,0.0545 0.08008,0.0742 0.02693,0.0197 0.04847,0.0371 0.08398,0.0371 0.05323,0 0.106181,-0.0243 0.140625,-0.0723 0.03444,-0.048 0.05535,-0.11606 0.07031,-0.21289 0.02993,-0.19366 0.03452,-0.50651 0.02539,-1.01367 l -0.01953,-1.0625 a 0.04237462,0.04237462 0 0 0 -0.04297,-0.043 h -0.173828 -0.171875 a 0.04237462,0.04237462 0 0 0 -0.0039,0 z m 1.234375,0.19726 c -0.02842,-4e-4 -0.05634,0.007 -0.08203,0.0215 -0.05138,0.0289 -0.08927,0.0842 -0.123047,0.16601 -0.06755,0.16372 -0.123397,0.44487 -0.201172,0.91602 -0.06015,0.36438 -0.09484,0.60072 -0.105469,0.75781 -0.01062,0.15709 -10e-4,0.24146 0.04492,0.29688 0.05559,0.067 0.106171,0.11431 0.169922,0.11914 0.03188,0.002 0.06463,-0.01 0.08984,-0.0312 0.02521,-0.0216 0.04523,-0.0516 0.06445,-0.0898 0.0769,-0.15294 0.139044,-0.45171 0.224609,-0.96289 0.08818,-0.52673 0.132959,-0.79297 0.136719,-0.94336 0.0019,-0.0752 -0.0052,-0.12623 -0.03125,-0.16406 -0.02604,-0.0378 -0.0643,-0.0521 -0.101563,-0.0664 -0.02849,-0.0109 -0.05752,-0.0191 -0.08594,-0.0195 z m -2.068359,0.0137 c -0.04196,-0.008 -0.08523,-0.006 -0.125,0.006 -0.07953,0.0233 -0.152344,0.0873 -0.152344,0.17773 0,0.074 0.01994,0.22245 0.04883,0.41211 0.02889,0.18966 0.06831,0.41809 0.109375,0.64062 0.04107,0.22254 0.08429,0.43924 0.121094,0.60547 0.0184,0.0831 0.03439,0.15221 0.04883,0.20508 0.0072,0.0264 0.01335,0.0488 0.01953,0.0664 0.0062,0.0176 0.0084,0.0292 0.02148,0.0449 0.04996,0.0602 0.101467,0.0999 0.16211,0.0977 0.06064,-0.002 0.109417,-0.0439 0.162109,-0.10743 0.01588,-0.0191 0.01939,-0.0378 0.02344,-0.0605 0.004,-0.0227 0.0048,-0.0488 0.0059,-0.0801 0.0021,-0.0626 5.35e-4,-0.14303 -0.0059,-0.23633 -0.01279,-0.18659 -0.0411,-0.42566 -0.07617,-0.66406 -0.03507,-0.23841 -0.07664,-0.47664 -0.119141,-0.66602 -0.02125,-0.0947 -0.04375,-0.17791 -0.06445,-0.24218 -0.0207,-0.0643 -0.03443,-0.10749 -0.06445,-0.13868 -0.03206,-0.0333 -0.07327,-0.0523 -0.115234,-0.0605 z m 2.982422,0.41406 c -0.05872,6e-4 -0.109027,0.0381 -0.154297,0.0996 -0.09054,0.12304 -0.180058,0.35477 -0.302735,0.74219 -0.123447,0.38984 -0.193544,0.63001 -0.222656,0.7871 -0.01456,0.0786 -0.01781,0.13742 -0.01172,0.18555 0.0061,0.0481 0.02509,0.0856 0.05273,0.11328 0.04327,0.0433 0.09727,0.07 0.152343,0.0566 0.05508,-0.0133 0.09735,-0.0567 0.142579,-0.125 0.09045,-0.13665 0.191536,-0.38467 0.328124,-0.7832 0.127732,-0.3727 0.197378,-0.58815 0.22461,-0.72656 0.01362,-0.0692 0.01595,-0.11873 0.0078,-0.16211 -0.0081,-0.0434 -0.03043,-0.0773 -0.05664,-0.10352 -0.05049,-0.0505 -0.101433,-0.0846 -0.160156,-0.084 z m -3.921876,0.002 c -0.02166,6.7e-4 -0.04302,0.005 -0.06445,0.0117 -0.04286,0.0134 -0.08391,0.037 -0.117187,0.0703 -0.02579,0.0258 -0.0479,0.0577 -0.05664,0.0996 -0.0087,0.042 -0.0061,0.0906 0.0059,0.15625 0.02392,0.13133 0.08624,0.33372 0.203125,0.68164 0.07337,0.21839 0.145872,0.42451 0.203125,0.58203 0.02863,0.0788 0.05478,0.14563 0.07422,0.19532 0.01944,0.0497 0.03019,0.077 0.04297,0.0976 0.04562,0.0738 0.135519,0.0902 0.210938,0.0684 0.07542,-0.0218 0.1453,-0.0807 0.162109,-0.16797 0.0072,-0.0375 8.98e-4,-0.0815 -0.0098,-0.14257 -0.01066,-0.0611 -0.02699,-0.13581 -0.04883,-0.22071 -0.04367,-0.1698 -0.106585,-0.37851 -0.173828,-0.58203 -0.06724,-0.20352 -0.138595,-0.40099 -0.201172,-0.55273 -0.03129,-0.0759 -0.06046,-0.14161 -0.08594,-0.18946 -0.01274,-0.0239 -0.02339,-0.0425 -0.03516,-0.0586 -0.01177,-0.0161 -0.02112,-0.0299 -0.04492,-0.0391 -0.02043,-0.008 -0.04279,-0.0104 -0.06445,-0.01 z m -0.699218,0.74414 c -0.04684,0.009 -0.08556,0.0387 -0.13086,0.084 -0.02794,0.0279 -0.05172,0.0538 -0.06641,0.0879 -0.01469,0.034 -0.01841,0.0729 -0.0098,0.11719 0.01729,0.0887 0.07512,0.20778 0.181641,0.42578 0.12589,0.25763 0.271322,0.5351 0.330078,0.62695 0.06278,0.0982 0.141749,0.15728 0.22461,0.16797 0.08286,0.0107 0.163671,-0.0382 0.199218,-0.13086 0.01381,-0.036 0.0056,-0.0668 -0.0039,-0.10938 -0.0095,-0.0426 -0.02443,-0.0933 -0.04492,-0.15234 -0.04098,-0.11801 -0.101608,-0.26363 -0.167969,-0.41016 -0.06636,-0.14652 -0.138613,-0.29478 -0.205078,-0.41406 -0.06646,-0.11928 -0.121141,-0.20823 -0.173828,-0.25195 -0.03892,-0.0323 -0.08597,-0.0497 -0.132812,-0.041 z m 5.298828,0 c -0.04707,-0.009 -0.0938,0.009 -0.132813,0.041 -0.05355,0.0444 -0.108884,0.1344 -0.175781,0.2539 -0.0669,0.11951 -0.140874,0.26761 -0.207031,0.41407 -0.06616,0.14645 -0.125541,0.29182 -0.166016,0.41015 -0.02024,0.0592 -0.03572,0.11131 -0.04492,0.1543 -0.0092,0.043 -0.01562,0.0738 -0.002,0.10937 0.02555,0.0666 0.06286,0.11632 0.119141,0.12891 0.05628,0.0126 0.111511,-0.016 0.166015,-0.0645 0.10901,-0.0969 0.234003,-0.29155 0.388672,-0.5918 0.146056,-0.28352 0.22336,-0.43428 0.251954,-0.53906 0.0143,-0.0524 0.01695,-0.0963 0.0039,-0.13477 -0.01305,-0.0384 -0.03956,-0.0669 -0.06836,-0.0957 -0.04601,-0.0461 -0.08574,-0.0768 -0.132812,-0.0859 z m 0.636719,0.89258 c -0.06675,-0.01 -0.134484,0.0182 -0.203125,0.0801 -0.06864,0.0618 -0.144207,0.15851 -0.242188,0.30078 -0.07636,0.11087 -0.138538,0.21869 -0.179687,0.30859 -0.02058,0.045 -0.0359,0.0841 -0.04492,0.11914 -0.009,0.0351 -0.01414,0.0659 -0.002,0.0977 0.02195,0.0572 0.05706,0.10005 0.105468,0.11914 0.04841,0.0191 0.103625,0.0123 0.158204,-0.0117 0.109156,-0.0481 0.22853,-0.16391 0.361328,-0.34179 0.141308,-0.18928 0.222151,-0.33463 0.236328,-0.45118 0.0071,-0.0583 -0.0045,-0.11292 -0.03906,-0.15234 -0.03459,-0.0394 -0.08723,-0.0593 -0.15039,-0.0684 z m -6.576172,0.002 c -0.06258,0.008 -0.114333,0.029 -0.148438,0.0684 -0.03411,0.0394 -0.04479,0.0942 -0.03711,0.15235 0.01535,0.11622 0.09684,0.26172 0.238281,0.45117 0.09418,0.12613 0.170471,0.21398 0.240235,0.27148 0.06976,0.0575 0.136193,0.0855 0.201171,0.0762 0.05803,-0.008 0.106627,-0.0299 0.136719,-0.0703 0.03009,-0.0404 0.0371,-0.0927 0.02734,-0.15039 -0.01952,-0.11538 -0.09933,-0.26379 -0.238281,-0.45898 -0.08566,-0.12033 -0.158313,-0.20529 -0.22461,-0.26172 -0.0663,-0.0564 -0.131255,-0.0863 -0.195312,-0.0781 z m 6.83789,1.03321 c -0.101588,0.003 -0.197519,0.0627 -0.261718,0.14062 -0.0428,0.0519 -0.07243,0.11435 -0.08008,0.17774 -0.0076,0.0634 0.01024,0.12938 0.06055,0.17968 0.05111,0.0511 0.128461,0.0647 0.205079,0.0566 0.07662,-0.008 0.154297,-0.0391 0.208984,-0.0937 0.06658,-0.0666 0.09536,-0.15906 0.0918,-0.24414 -0.0036,-0.0851 -0.04082,-0.16836 -0.121094,-0.19922 -0.034,-0.013 -0.06965,-0.0187 -0.103516,-0.0176 z m -7.072265,0.002 c -0.02347,-0.004 -0.04658,-0.003 -0.07031,0.002 -0.0906,0.0175 -0.148934,0.0941 -0.166015,0.17969 -0.01708,0.0856 0.002,0.18416 0.06641,0.26172 0.06608,0.0796 0.171877,0.10584 0.265625,0.0937 0.09375,-0.0121 0.184661,-0.0671 0.203125,-0.16406 0.01808,-0.095 -0.03543,-0.19118 -0.107422,-0.26367 -0.05399,-0.0544 -0.120993,-0.0986 -0.191406,-0.10938 z"
         id="path827"/>
    </g>
  </g>
</svg>
