<svg
   width="96.016563mm"
   height="47.351604mm"
   viewBox="0 0 96.016563 47.351604"
   version="1.1"
   id="svg8">
  <defs
     id="defs2">
    <linearGradient
       id="linearGradient861"
       x1="50%" y1="-150%" x2="50%" y2="80%"
       >
      <stop
         style="stop-color:#cccccc;stop-opacity:60%"
         offset="0"
         
         id="stop857" />
      <stop
         style="stop-color:#49453a;stop-opacity:0%"
         offset="1"
         id="stop859" />
    </linearGradient>
  </defs>
  <g
     id="layer1"
     transform="translate(-54.574574,-5.6284509)">
    <path
       style="fill:url(#linearGradient861);fill-opacity:1;stroke:none;stroke-width:0.26458332px;stroke-linecap:butt;stroke-linejoin:miter;stroke-opacity:1"
       d="m 54.574574,52.980055 c 27.09531,-23.779155 70.432936,-22.407485 96.016566,0"
       id="path855"/>
    <path
       style="fill:#d3d3d3;fill-opacity:1;stroke:none;stroke-width:0.26458332px;stroke-linecap:butt;stroke-linejoin:miter;stroke-opacity:1"
       d="m 68.680634,43.497472 v -1.647043 h -1.55329 l 2.14583,-7.891773 2.11461,7.891773 h -1.42016 v 1.099967 z"
       id="path865"/>
    <path
       style="fill:#d3d3d3;fill-opacity:1;stroke:none;stroke-width:0.26458332px;stroke-linecap:butt;stroke-linejoin:miter;stroke-opacity:1"
       d="M 129.95531,40.846679 V 39.34811 h -1.98162 l 2.73755,-10.067967 2.69772,10.067967 h -1.81176 v 2.254086 z"
       id="path865-5"/>
    <path
       style="fill:#554949;fill-opacity:0.08235294;stroke-width:1;opacity:0.619"
       d="m 76.539534,30.637716 c -0.44292,-0.225813 -1.20608,-0.410573 -1.69589,-0.410573 -2.26319,0 -3.02507,-1.556445 -1.13278,-2.31413 0.42669,-0.170852 0.95179,-0.505287 1.16689,-0.74319 0.27205,-0.300937 0.63791,-0.432547 1.20234,-0.432547 0.6339,0 0.37326,-0.05764 0.69409,-0.305467 0,0 0.54396,-0.423712 0.83289,-0.576116 1.03897,-0.553713 2.03854,-0.457542 2.76182,0.265724 0.5007,0.500699 0.78755,0.615859 1.53404,0.615859 0.50501,0 0.86319,0.314301 1.20783,0.492517 0.5253,0.271649 0.83666,0.79418 0.83666,0.79418 0.18467,0.35042 0.29888,0.57384 0.47279,0.57384 0.53281,0 1.04925,0.473808 1.04925,0.808186 0,0.494459 -0.82493,0.802016 -2.52295,0.940619 -0.81407,0.06646 -1.82842,0.25151 -2.25413,0.411247 -1.15346,0.432823 -3.18345,0.374094 -4.15289,-0.120155 z"
       id="path926"/>
    <path
       style="fill:#554949;fill-opacity:0.08235294;stroke-width:1;opacity:0.619"
       d="m 121.11827,29.31089 c 0.39176,-0.199729 1.06676,-0.363147 1.49999,-0.363147 2.00176,0 2.67565,-1.376658 1.00194,-2.046822 -0.3774,-0.15111 -0.84185,-0.44692 -1.03211,-0.657342 -0.24062,-0.266176 -0.56421,-0.382583 -1.06344,-0.382583 -0.56068,0 -0.33015,-0.05097 -0.61393,-0.270183 0,0 -0.48113,-0.374767 -0.73667,-0.509567 -0.91896,-0.489754 -1.80307,-0.404691 -2.4428,0.235029 -0.44287,0.442863 -0.69659,0.544721 -1.35684,0.544721 -0.44669,0 -0.76347,0.277996 -1.06832,0.435625 -0.46462,0.240271 -0.74001,0.702444 -0.74001,0.702444 -0.1633,0.309943 -0.26436,0.507555 -0.41818,0.507555 -0.47127,0 -0.92805,0.419077 -0.92805,0.71483 0,0.437344 0.72964,0.709374 2.23151,0.831968 0.72005,0.05877 1.61722,0.222457 1.99376,0.363743 1.02021,0.382827 2.81574,0.330881 3.67317,-0.106275 z"
       id="path926-5"/>
    <path
       style="fill:#554949;fill-opacity:0.08235294;stroke-width:1;opacity:0.619"
       d="m 96.603664,22.900311 c 0.31822,-0.162226 0.86649,-0.294973 1.21841,-0.294973 1.62597,0 2.17332,-1.118213 0.81384,-1.662566 -0.30656,-0.122743 -0.68382,-0.363018 -0.83834,-0.533936 -0.19546,-0.216207 -0.45831,-0.310761 -0.86381,-0.310761 -0.45543,0 -0.26817,-0.0414 -0.49868,-0.219459 0,0 -0.39079,-0.304413 -0.59838,-0.413905 -0.74644,-0.397812 -1.46457,-0.328718 -1.9842,0.190907 -0.35972,0.359725 -0.5658,0.442459 -1.10212,0.442459 -0.36281,0 -0.62014,0.225807 -0.86774,0.353845 -0.37741,0.195162 -0.60109,0.570572 -0.60109,0.570572 -0.13273,0.251755 -0.21475,0.41227 -0.33969,0.41227 -0.38279,0 -0.75383,0.340402 -0.75383,0.580634 0,0.355239 0.59268,0.576202 1.8126,0.675778 0.58486,0.04776 1.31361,0.180693 1.61946,0.295457 0.8287,0.310959 2.28713,0.268764 2.98361,-0.08632 z"
       id="path926-5-6"/>
    <path
       style="fill:#554949;fill-opacity:0.08235294;stroke-width:1;opacity:0.619"
       d="m 126.86357,22.38582 c -0.31822,-0.162226 -0.8665,-0.294973 -1.21841,-0.294973 -1.62597,0 -2.17332,-1.118213 -0.81384,-1.662566 0.30655,-0.122743 0.68382,-0.363018 0.83834,-0.533936 0.19546,-0.216207 0.45831,-0.310761 0.86381,-0.310761 0.45543,0 0.26817,-0.0414 0.49868,-0.219459 0,0 0.39079,-0.304413 0.59838,-0.413905 0.74644,-0.397812 1.46456,-0.328718 1.9842,0.190907 0.35972,0.359725 0.5658,0.442459 1.10212,0.442459 0.36281,0 0.62014,0.225807 0.86774,0.353845 0.37741,0.195162 0.60109,0.570571 0.60109,0.570571 0.13272,0.251756 0.21475,0.41227 0.33969,0.41227 0.38279,0 0.75383,0.340403 0.75383,0.580635 0,0.355239 -0.59268,0.576201 -1.81261,0.675778 -0.58485,0.04776 -1.31361,0.180693 -1.61945,0.295457 -0.8287,0.310959 -2.28713,0.268764 -2.98361,-0.08632 z"
       id="path926-5-6-2"/>
  </g>
</svg>
