<?xml version="1.0" encoding="UTF-8" standalone="no"?>
<!-- Created with Inkscape (http://www.inkscape.org/) -->

<svg
   width="130.15559mm"
   height="80.02494mm"
   viewBox="0 0 130.15559 80.024942"
   version="1.1"
   id="svg7">
  <defs
     id="defs11" />
  <path
     style="fill:#b6d4ff;fill-opacity:0.23856209;stroke:none;stroke-width:0.26458332px;stroke-linecap:butt;stroke-linejoin:miter;stroke-opacity:1"
     d="m 11.583076,60.332385 c 13.293691,-2.568328 63.271121,-0.224269 72.036603,-0.224269 14.604697,0 34.082691,0.872438 41.525631,3.41945 6.54183,2.238649 -12.73898,6.830535 -17.90753,7.722388 -4.01275,0.692409 -24.044827,3.537765 -28.031415,4.520475 -12.97035,3.197241 -53.369148,4.515847 -58.079694,-0.627881 -2.79567,-3.05276 4.119356,-5.022873 0.552586,-5.826917 C 4.0988464,66.661966 -1.7106142,62.900713 11.583076,60.332385 Z"
     id="path863"/>
  <g
     id="g1064">
    <path
       id="path871"
       d="m 24.426796,59.712269 c -1.01889,-1.175324 -0.8329,-4.775692 -1.21947,-6.321984 -1.68598,-6.743904 1.05242,-14.440226 2.37475,-21.051896 0.13333,-0.666633 1.53739,-6.033163 1.98967,-6.033163 0.49956,0 0.51346,5.848958 0.51346,6.418259 0,2.941796 -3.0719,19.906174 -3.62632,23.298286 -0.4965,0.661995 0.40933,2.586959 -0.0321,3.690498 z"
       style="fill:#b6d4ff;fill-opacity:0.37254902;stroke:none;stroke-width:0.26458332px;stroke-linecap:butt;stroke-linejoin:miter;stroke-opacity:1"
 />
    <path
       id="path865"
       d="m 12.03708,62.690685 c -1.749534,-1.402274 1.363583,-5.077982 3.472373,-4.37505 0.508645,0.169547 0.793948,0.72713 1.135896,1.069078 0.295227,0.295227 1.104336,0.605054 1.202711,0.801806 0.662123,1.324245 -2.148309,3.073606 -3.608137,3.073606 -0.892233,0 -1.527282,-0.3618 -2.200843,-0.56944"
       style="fill:#b6d4ff;fill-opacity:0.37254902;stroke:none;stroke-width:0.26458332px;stroke-linecap:butt;stroke-linejoin:miter;stroke-opacity:1"
 />
    <path
       id="path867"
       d="m 17.781245,60.92151 c 0.304268,-1.883309 3.118061,-2.405491 4.543581,-1.336346 0.65595,0.491963 1.38984,0.988938 2.00452,1.603618 8.27114,8.271143 -11.99144,6.409913 -9.688519,1.804073 0.85826,-1.716522 1.935009,-1.107018 3.140418,-2.071345 z"
       style="fill:#b6d4ff;fill-opacity:0.37254902;stroke:none;stroke-width:0.26458332px;stroke-linecap:butt;stroke-linejoin:miter;stroke-opacity:1"
 />
    <path
       id="path869"
       d="m 25.398426,60.988328 c 1.01401,-0.582898 1.8558,-1.596075 2.93996,-2.138156 1.40482,-0.702405 5.92168,3.493313 4.34313,4.677213 -1.20099,0.90075 -4.20198,1.89567 -5.87993,1.33635 -1.461,-0.487 -2.07285,-3.205717 -1.40316,-3.875407 z"
       style="fill:#b6d4ff;fill-opacity:0.37254902;stroke:none;stroke-width:0.26458332px;stroke-linecap:butt;stroke-linejoin:miter;stroke-opacity:1"
 />
    <path
       id="path842"
       d="m 15.813897,31.502869 c -1.523111,2.615446 -2.570945,7.184326 -1.640792,9.974786 1.541782,5.625376 2.16214,8.744727 4.476766,17.33911 0,0 2.539055,-6.93867 2.539055,-7.717408 0,-1.782601 -1.476195,-6.594057 -2.489843,-7.97362 C 16.308609,39.872329 15.28244,32.831514 15.813897,31.502869 Z"
       style="fill:#b6d4ff;fill-opacity:0.37254902;stroke:none;stroke-width:0.26458332px;stroke-linecap:butt;stroke-linejoin:miter;stroke-opacity:1"
 />
    <path
       id="path873"
       d="m 29.674736,58.38245 c -0.74036,-3.067632 -1.05509,-8.316473 -0.53454,-11.96031 0.29083,-2.035765 3.18188,-8.794535 4.6104,-10.22306 0.17057,-0.170561 -0.33045,1.525902 -0.73499,2.739514 -0.59252,1.777563 -1.33635,4.150609 -1.33635,5.946746 0,1.429477 0.43831,2.680684 1.06908,3.942225 1.23103,2.462057 -1.06693,5.741998 -2.00452,7.617182 -0.74991,1.499828 -0.44265,2.387322 -2.4606,2.435387"
       style="fill:#b6d4ff;fill-opacity:0.37254902;stroke:none;stroke-width:0.26458332px;stroke-linecap:butt;stroke-linejoin:miter;stroke-opacity:1"
 />
    <path
       id="path837"
       d="m 26.224646,20.36846 c -0.022,0 -0.0194,0.0013 -0.0234,0.002 -0.0144,0.02479 -0.0631,0.161423 -0.084,0.441407 -0.0422,0.567144 -0.0203,1.67902 0.0391,3.71875 0.15407,5.290241 -0.20339,8.062509 -1.77734,13.839843 -1.36836,5.022646 -1.87084,8.433855 -1.70508,11.462891 0.15938,2.91263 0.55753,5.844755 1.05664,7.818355 0.10436,0.41268 0.19865,0.80833 0.26758,1.11329 0.0345,0.15247 0.0622,0.28062 0.082,0.38086 0.0199,0.10023 0.0352,0.13436 0.0352,0.23632 0,0.0683 -0.0419,0.16688 -0.10352,0.2168 -0.0616,0.0499 -0.11592,0.0603 -0.1543,0.0644 -0.0768,0.008 -0.1171,-0.004 -0.16211,-0.0156 -0.09,-0.0226 -0.18506,-0.06 -0.30078,-0.11133 -0.23143,-0.10276 -0.53535,-0.26223 -0.87109,-0.45898 -0.79308,-0.46479 -1.36619,-0.61828 -1.82617,-0.55079 -0.27182,0.0399 -0.47477,0.053 -0.660159,0.006 -0.09269,-0.0235 -0.199339,-0.066 -0.271485,-0.18164 -0.07215,-0.11565 -0.05604,-0.26697 -0.01367,-0.36133 1.617694,-3.60204 2.129844,-6.102653 1.757814,-8.408198 -0.32134,-1.99137 -0.86714,-3.299379 -2.69922,-6.457031 -2.138582,-3.685917 -2.485713,-4.83488 -2.490234,-8.199219 -0.001,-0.76961 0.02131,-1.564836 0.06055,-2.230469 0.03924,-0.665632 0.08795,-1.182073 0.162109,-1.472656 0.08445,-0.330906 0.100241,-0.532336 0.08594,-0.603516 -0.0143,-0.07118 -0.0035,-0.06365 -0.132812,-0.113281 -0.09921,-0.03807 -0.180078,-0.03788 -0.304688,0.01563 -0.124609,0.05351 -0.286493,0.174398 -0.46875,0.376953 -0.364512,0.40511 -0.808587,1.126476 -1.330078,2.181641 -0.783267,1.584833 -0.93886,2.192203 -1.05664,4.080078 -0.241757,3.875069 0.290742,6.087595 3.361328,13.941406 0.949697,2.429096 1.17373,3.365707 1.27539,5.306637 0.03364,0.64223 0.04441,1.22592 0.0332,1.65625 -0.0056,0.21517 -0.0173,0.39057 -0.03516,0.52539 -0.0089,0.0674 -0.01733,0.12349 -0.03711,0.1836 -0.0099,0.0301 -0.02112,0.0613 -0.05273,0.10547 -0.03161,0.0442 -0.110605,0.12109 -0.230469,0.12109 -0.155011,0 -0.180694,-0.0406 -0.257813,-0.0801 -0.07712,-0.0395 -0.166228,-0.0915 -0.265625,-0.15429 -0.198792,-0.12558 -0.439456,-0.29426 -0.683593,-0.48047 -0.869606,-0.66328 -1.643982,-0.7921 -2.460938,-0.43555 -0.816956,0.35655 -1.689022,1.25356 -2.576172,2.72656 -0.38114,0.63284 -0.585869,1.02219 -0.658203,1.27539 -0.07233,0.25321 -0.04736,0.363982 0.06445,0.609382 0.309371,0.67899 1.442604,1.30381 3.033203,1.49219 0.567319,0.0672 0.908022,0.11419 1.171875,0.26171 0.131927,0.0738 0.241648,0.18909 0.298828,0.32227 0.05718,0.13318 0.06836,0.26778 0.06836,0.4082 0,0.36935 0.310677,0.84297 0.904297,1.26953 0.593619,0.42657 1.444019,0.7971 2.40625,1.00196 0.612896,0.13048 1.919195,0.16241 3.214845,0.0996 1.29565,-0.0628 2.61072,-0.22156 3.25976,-0.41602 0.49578,-0.14854 1.22114,-0.60829 1.48829,-0.92578 0.27068,-0.32169 0.54681,-0.55262 0.96289,-0.69141 0.41607,-0.13878 0.95755,-0.20405 1.84765,-0.27929 1.20367,-0.10175 2.14108,-0.28421 2.80469,-0.54102 0.66361,-0.25681 1.03621,-0.57637 1.1875,-0.9375 0.15129,-0.36113 0.10997,-0.81555 -0.18945,-1.416012 -0.29942,-0.60047 -0.85618,-1.32272 -1.66797,-2.15235 l -1.5332,-1.5664 a 0.26210068,0.26210068 0 0 1 -0.0469,-0.29883 l 1.00585,-2.05274 c 1.82815,-3.729721 2.315,-6.316756 1.68946,-8.6582 -1.00572,-3.764438 -0.96745,-5.679084 0.17969,-8.783203 0.40145,-1.086326 0.62505,-1.82418 0.68359,-2.248047 0.0293,-0.211934 0.008,-0.34066 -0.004,-0.367188 -0.0119,-0.02653 0.0351,-0.002 -0.0234,-0.002 -0.009,0 -0.11003,0.02985 -0.24414,0.138672 -0.13411,0.108824 -0.29991,0.281151 -0.48047,0.50586 -0.36112,0.449417 -0.78427,1.100731 -1.21094,1.863281 -0.85334,1.5251 -1.73032,3.500416 -2.25586,5.24414 -0.26909,0.89284 -0.4116,1.49609 -0.49414,2.570313 -0.0825,1.074223 -0.10048,2.61542 -0.10742,5.333984 -0.004,1.650612 -0.0237,3.161901 -0.0508,4.269531 -0.0135,0.55382 -0.028,1.00719 -0.0449,1.32813 -0.008,0.16047 -0.0177,0.2881 -0.0273,0.38281 -0.005,0.0474 -0.009,0.0859 -0.0156,0.12304 -0.004,0.0186 -0.007,0.0353 -0.0156,0.0606 -0.004,0.0126 -0.008,0.0275 -0.0195,0.0488 -0.006,0.0106 -0.0139,0.0238 -0.0254,0.0391 -0.0114,0.0152 -0.0522,0.0523 -0.0527,0.0527 -0.0715,0.0541 -0.20907,0.14372 -0.4375,0.29297 -0.22843,0.14924 -0.52608,0.34056 -0.83594,0.53906 -0.29866,0.19133 -0.57143,0.39754 -0.76172,0.5664 -0.0952,0.0844 -0.16974,0.16024 -0.21289,0.21289 -0.0431,0.0527 -0.0293,0.10556 -0.0293,-0.002 0,0.15516 -0.11766,0.34428 -0.27929,0.39063 -0.16164,0.0463 -0.30234,-0.004 -0.42579,-0.0801 -0.12444,-0.0769 -0.15679,-0.17064 -0.18945,-0.26172 -0.0327,-0.0911 -0.0539,-0.19238 -0.0723,-0.31055 -0.0367,-0.23633 -0.0579,-0.54158 -0.0664,-0.9082 -0.017,-0.73323 0.0167,-1.7107 0.0879,-2.80273 0.14237,-2.184065 0.43981,-4.819411 0.82617,-6.812504 2.03004,-10.472265 2.05936,-10.704421 2.08399,-17.017578 0.0189,-4.845813 -0.0614,-6.259501 -0.43164,-7.738282 -0.31763,-1.268702 -0.62594,-2.218119 -0.91211,-2.830078 -0.14309,-0.305979 -0.28205,-0.527074 -0.39844,-0.65625 -0.11638,-0.129176 -0.19248,-0.154297 -0.23047,-0.154297 z m -8.146486,3.970703 c -0.43305,0.0479 -0.844771,0.244624 -1.005859,0.47461 -0.269619,0.384935 -0.355586,0.615192 -0.332031,0.80664 0.02355,0.191449 0.176074,0.431934 0.541015,0.796875 0.364942,0.364942 0.606128,0.515878 0.796875,0.539063 0.190748,0.02318 0.419554,-0.06227 0.804688,-0.332031 0.230416,-0.161391 0.426987,-0.57146 0.474609,-1.003907 0.04762,-0.432447 -0.05867,-0.859451 -0.240234,-1.041015 -0.181614,-0.181614 -0.606355,-0.288102 -1.039063,-0.240235 z m 0.0332,0.603516 c 0.28503,0.04072 0.529483,0.262276 0.638672,0.589844 0.05598,0.167921 0.0081,0.370811 -0.111328,0.490234 -0.119423,0.119423 -0.282263,0.167969 -0.451172,0.167969 -0.374115,0 -0.68164,-0.307526 -0.68164,-0.681641 0,-0.170582 0.05874,-0.337121 0.179687,-0.445312 0.120951,-0.108192 0.283557,-0.141412 0.425781,-0.121094 z m 9.128906,3.121094 c 0.12193,-0.0153 0.3717,0.262452 0.31055,0.154297 0.073,0.115152 0.095,0.224074 0.12304,0.36914 0.028,0.145066 0.0518,0.319847 0.0703,0.523438 0.037,0.407182 0.0569,0.927304 0.0625,1.511719 0.0113,1.168829 -0.0383,2.592655 -0.15625,3.841796 -0.0742,0.785065 -0.1354,1.259448 -0.29101,1.638672 -0.15561,0.379225 -0.41331,0.627343 -0.77735,0.896485 l -0.79492,0.58789 a 0.26210068,0.26210068 0 0 1 -0.41015,-0.27539 l 0.19531,-0.761719 c 0.60042,-2.354941 0.95934,-4.423739 1.10742,-6.357422 0.0514,-0.6713 0.115,-1.193268 0.1875,-1.539062 0.0362,-0.172898 0.0644,-0.293917 0.13281,-0.41211 0.0342,-0.0591 0.0847,-0.154427 0.24024,-0.177734 z m -6.16016,3.142578 c -0.6558,-0.108427 -1.352405,0.08678 -1.898433,0.632812 -1.052077,1.052077 -0.683678,3.108192 0.630859,3.638672 0.464134,0.1873 0.833434,0.243187 1.177734,0.1875 0.3443,-0.05569 0.68179,-0.227459 1.06836,-0.552734 0.93724,-0.788639 1.15225,-1.715049 0.65039,-2.685547 -0.36136,-0.698789 -0.97311,-1.112277 -1.62891,-1.220703 z m -0.16406,0.626953 c 0.16934,0.02215 0.34248,0.07044 0.51367,0.148437 0.47067,0.21445 0.74928,0.67791 0.83203,1.16211 0.0828,0.484199 -0.0252,1.017427 -0.39257,1.384766 -0.36734,0.367338 -0.89905,0.473973 -1.38282,0.390624 -0.483758,-0.08335 -0.94777,-0.361616 -1.162105,-0.832031 -0.467067,-1.025099 0.152172,-2.076153 1.099605,-2.24414 0.15743,-0.02791 0.32285,-0.03192 0.49219,-0.0098 z m -6.833979,5.078125 a 0.26210068,0.26210068 0 0 1 0.265624,0.208984 l 0.384766,1.851563 c 0.52518,2.531566 0.728246,3.112874 2.550781,7.357422 1.319204,3.072324 1.633487,4.095509 1.744141,5.708984 0.03647,0.532178 0.05558,1.014808 0.05664,1.371094 5.29e-4,0.178143 -0.0041,0.323701 -0.01367,0.435543 -0.0048,0.0559 -0.0087,0.10093 -0.02148,0.15235 -0.0064,0.0257 -0.01247,0.0524 -0.03711,0.0957 -0.01232,0.0216 -0.02945,0.0495 -0.06641,0.0801 -0.01848,0.0153 -0.07122,0.0426 -0.07227,0.043 -0.001,4.2e-4 -0.100486,0.0195 -0.101562,0.0195 -0.169251,0 -0.201692,-0.0805 -0.232422,-0.11719 -0.03073,-0.0367 -0.05167,-0.0686 -0.07227,-0.10547 -0.0412,-0.0737 -0.08099,-0.16365 -0.125,-0.271482 -0.08801,-0.215669 -0.187518,-0.502064 -0.28125,-0.818359 -0.172581,-0.582371 -0.846099,-2.371559 -1.480469,-3.916016 -1.613574,-3.928463 -2.422507,-6.892771 -2.599609,-9.568359 l -0.150391,-2.248047 a 0.26210068,0.26210068 0 0 1 0.251961,-0.279317 z m 12.677729,0.904297 c 0.0637,-0.018 0.14505,-0.02696 0.22852,0 0.0835,0.02696 0.1552,0.09049 0.19531,0.152344 0.0801,0.123533 0.0855,0.236096 0.0898,0.36914 0.004,0.133045 -0.005,0.289336 -0.0254,0.478516 -0.0408,0.37836 -0.12507,0.889986 -0.24218,1.5625 -0.25221,1.448256 -0.49958,1.901982 -1.69727,3.076172 -0.58204,0.570617 -0.88065,0.869491 -1.13867,1.009765 -0.0645,0.03507 -0.13414,0.07507 -0.25586,0.06055 -0.12172,-0.01453 -0.24219,-0.146362 -0.26758,-0.234375 -0.0508,-0.176024 -0.008,-0.274516 0.0254,-0.427734 0.0796,-0.362639 0.29136,-1.337489 0.4707,-2.166016 0.25389,-1.172874 0.64599,-1.915331 1.52735,-2.898437 0.32222,-0.359426 0.5664,-0.624235 0.77148,-0.794922 0.10254,-0.08534 0.19097,-0.1515 0.31836,-0.1875 z m -10.732417,1.849609 c 0.126072,0.01231 0.353994,0.296238 0.28125,0.207032 0.122281,0.162884 0.253993,0.410263 0.400391,0.740234 0.268632,0.605478 1.116142,2.149725 1.857421,3.376953 1.689205,2.796563 2.380895,4.927458 2.353515,7.300781 -0.0115,0.998118 -0.1758,2.252571 -0.40234,2.902344 l -0.369143,1.05859 a 0.26210068,0.26210068 0 0 1 -0.507813,-0.11523 l 0.138672,-1.24414 c 0.19576,-1.751964 -0.310114,-4.099879 -1.498047,-6.796876 -0.720629,-1.636067 -1.373636,-3.2469 -1.845703,-4.521485 -0.236033,-0.637292 -0.427051,-1.18952 -0.558594,-1.623047 -0.131542,-0.433526 -0.213007,-0.712346 -0.203125,-0.953124 0.0022,-0.05325 0.0029,-0.107945 0.04883,-0.1875 0.04597,-0.07956 0.202275,-0.161735 0.304688,-0.144532 z m 9.681637,4.521485 c 0.0671,-0.0152 0.14287,-0.01494 0.22266,0.01758 0.15966,0.06508 0.21598,0.213494 0.23828,0.328125 0.0223,0.11463 0.0222,0.234723 0.0117,0.380859 -0.0209,0.292272 -0.0896,0.684064 -0.19922,1.195313 -0.18135,0.845611 -0.68684,1.903964 -1.25976,2.654296 l -0.92383,1.212891 a 0.26210068,0.26210068 0 0 1 -0.47071,-0.158203 v -1.318359 c 0,-0.574911 0.0436,-1.004922 0.2168,-1.453125 0.17316,-0.448203 0.46309,-0.899222 0.93945,-1.564454 0.30805,-0.43018 0.55368,-0.748771 0.75782,-0.964843 0.10206,-0.108037 0.19229,-0.191649 0.29101,-0.253907 0.0494,-0.03113 0.10871,-0.06097 0.17578,-0.07617 z m 5.30078,0.398437 a 0.26210068,0.26210068 0 0 1 0.26368,0.179688 l 0.52734,1.585937 c 0.39543,1.191246 0.51491,2.157805 0.43945,3.548828 -0.0426,0.78484 -0.10105,1.382069 -0.17187,1.800781 -0.0354,0.209357 -0.0729,0.373109 -0.11914,0.503907 -0.0231,0.0654 -0.048,0.12437 -0.0859,0.18164 -0.0379,0.05727 -0.0939,0.129558 -0.21094,0.160157 -0.11706,0.0306 -0.24723,-0.0301 -0.30664,-0.08789 -0.0594,-0.05779 -0.0884,-0.11363 -0.11524,-0.173828 -0.0538,-0.120396 -0.091,-0.26625 -0.1289,-0.458985 -0.0758,-0.385468 -0.14101,-0.949872 -0.19141,-1.710937 -0.0952,-1.438302 -0.16551,-3.198608 -0.1582,-3.947266 l 0.0117,-1.322265 a 0.26210068,0.26210068 0 0 1 0.24609,-0.259766 z m 5.4629,1.720703 c -0.34925,-0.004 -0.81598,0.222193 -1.17579,0.558594 -0.3598,0.336401 -0.59765,0.773297 -0.59765,1.085937 0,0.311376 0.1482,0.713047 0.38672,1.058594 0.23851,0.345548 0.56556,0.631544 0.86718,0.751953 1.36541,0.545073 2.8646,-1.074765 2.18555,-2.349609 -0.4197,-0.787933 -0.89537,-1.096672 -1.66601,-1.105469 z m 0.19921,0.65625 c 0.54783,0.12282 0.97374,0.701469 0.88282,1.337891 -0.0578,0.404842 -0.3826,0.67916 -0.72852,0.8125 -0.34592,0.13334 -0.77507,0.144847 -1.06445,-0.144531 -0.27896,-0.278963 -0.3035,-0.690559 -0.24414,-1.0625 0.0594,-0.371942 0.20725,-0.755374 0.58008,-0.898438 0.19496,-0.07482 0.39161,-0.08586 0.57421,-0.04492 z m -6.89453,0.04687 c 0.1303,0.01362 0.29792,0.355978 0.25977,0.240235 0.0261,0.07228 0.0436,0.149706 0.0606,0.248047 0.0677,0.393362 0.12286,1.122123 0.19141,2.3125 0.0499,0.865927 0.069,1.698216 0.0605,2.347656 -0.004,0.32472 -0.0143,0.604108 -0.0332,0.822265 -0.01,0.109079 -0.0205,0.202375 -0.0352,0.283203 -0.0147,0.08083 -0.0251,0.144199 -0.0723,0.228516 -0.0219,0.03921 -0.0489,0.08339 -0.11719,0.126953 -0.0683,0.04356 -0.19726,0.05745 -0.27735,0.02148 -0.16017,-0.07194 -0.16703,-0.156426 -0.19531,-0.226563 -0.0566,-0.140273 -0.0903,-0.31488 -0.12695,-0.544922 -0.0733,-0.460083 -0.13471,-1.119535 -0.17774,-1.830078 -0.043,-0.710543 -0.0675,-1.46851 -0.0625,-2.119141 0.005,-0.65063 0.0292,-1.171489 0.1211,-1.498046 0.0235,-0.08356 0.0441,-0.151665 0.0781,-0.21875 0.017,-0.03354 0.0355,-0.06749 0.0781,-0.109375 0.0426,-0.04188 0.13829,-0.09941 0.24804,-0.08398 z m -4.89062,2.867188 a 0.26210068,0.26210068 0 0 1 0.27734,0.296875 l -0.14453,1.058593 c -0.0787,0.576265 -0.2305,1.827627 -0.33594,2.771488 -0.0472,0.42269 -0.0825,0.74077 -0.11328,0.96875 -0.0154,0.11399 -0.0302,0.20489 -0.0449,0.27929 -0.0147,0.0744 -0.0165,0.12002 -0.0664,0.20704 -0.0125,0.0217 -0.0285,0.0489 -0.0645,0.0801 -0.036,0.0312 -0.10245,0.0681 -0.17969,0.0684 -0.15447,5.5e-4 -0.21647,-0.0974 -0.24218,-0.13867 -0.0514,-0.0827 -0.0554,-0.12701 -0.0723,-0.19531 -0.0338,-0.13661 -0.0675,-0.33139 -0.11328,-0.5918 -0.29882,-1.70128 -0.20434,-2.701206 0.375,-3.744139 l 0.51367,-0.925782 a 0.26210068,0.26210068 0 0 1 0.21093,-0.134765 z m -12.007815,0.152344 c -0.218043,-0.01747 -0.447781,0.0038 -0.689453,0.06445 -0.824024,0.206816 -1.330847,0.762651 -1.498047,1.417968 -0.167199,0.655318 0.0079,1.414162 0.626954,2.033203 0.410675,0.410678 0.743542,0.608758 1.083984,0.658208 0.340442,0.0494 0.727502,-0.0451 1.259766,-0.32032 0.987244,-0.510517 1.301893,-1.574949 0.761718,-2.677731 -0.354196,-0.723103 -0.890792,-1.123375 -1.544922,-1.175781 z m -0.34375,0.660156 c 0.221034,-0.05794 0.446537,-0.06124 0.66211,0.02148 0.413976,0.158857 0.648088,0.572035 0.748047,0.998047 0.09996,0.426012 0.07369,0.903134 -0.210938,1.246094 -0.81779,0.985381 -2.578125,0.393246 -2.578125,-0.878907 0,-0.462109 0.351015,-0.824462 0.744141,-1.085937 0.196563,-0.130737 0.413732,-0.242843 0.634765,-0.300781 z m 2.298829,7.521486 c 0.255633,0 0.447722,0.12017 0.708984,0.27344 0.261262,0.15326 0.553878,0.35563 0.832031,0.57031 0.278154,0.21468 0.539349,0.44056 0.740235,0.64453 0.100443,0.10198 0.187172,0.19871 0.253906,0.29297 0.06673,0.0943 0.130859,0.17522 0.130859,0.33594 -1e-6,0.14468 -0.03527,0.18721 -0.07617,0.28515 -0.0409,0.0979 -0.09825,0.21441 -0.166015,0.34766 -0.135537,0.26649 -0.318194,0.59675 -0.521485,0.93164 -0.361903,0.596179 -0.560224,0.942679 -0.923828,1.140619 -0.363603,0.19795 -0.775446,0.18741 -1.517578,0.19141 -1.083102,0.006 -1.763647,-0.13463 -2.255859,-0.5332 a 0.26210068,0.26210068 0 0 1 -0.002,0 l -0.595704,-0.48438 a 0.26210068,0.26210068 0 0 1 -0.06055,-0.335939 l 0.724609,-1.23632 c 0.40705,-0.69458 0.875541,-1.28519 1.341797,-1.71289 0.466256,-0.42771 0.925058,-0.71094 1.386719,-0.71094 z m 13.449216,0.66992 c 0.50483,-0.16023 1.0856,0.0624 1.69531,0.4668 0.60972,0.40434 1.25668,1.02159 1.85157,1.78515 0.60378,0.77498 0.9481,1.296509 0.97461,1.798829 0.0133,0.25116 -0.0869,0.49697 -0.26368,0.66797 -0.17681,0.171 -0.41214,0.28528 -0.70312,0.38672 -0.5471,0.19072 -1.69085,0.30469 -2.68555,0.30469 h -1.76562 a 0.26210068,0.26210068 0 0 1 -0.21875,-0.11914 l -0.70703,-1.08008 v -0.002 c -0.19761,-0.30188 -0.37928,-0.59774 -0.51172,-0.83593 -0.0663,-0.119299 -0.11965,-0.224739 -0.16016,-0.312499 -0.0203,-0.0439 -0.037,-0.0819 -0.0508,-0.1211 -0.0138,-0.0392 -0.0293,-0.0695 -0.0293,-0.14843 0,-0.15503 0.054,-0.23476 0.11524,-0.3418 0.0613,-0.10705 0.14191,-0.22417 0.23828,-0.35156 0.19274,-0.25479 0.44871,-0.55098 0.7207,-0.83985 0.27199,-0.28886 0.56071,-0.56896 0.81836,-0.79297 0.25765,-0.224 0.4502,-0.39139 0.68164,-0.46484 z m -7.21484,0.36523 c 0.17417,0.005 0.34887,0.0347 0.52539,0.0898 0.70587,0.22055 1.4043,0.80186 2.39648,1.79492 1.4192,1.420439 2.22338,2.445969 2.39844,3.322269 0.0875,0.43814 -0.0173,0.85557 -0.29883,1.16601 -0.28157,0.31045 -0.70595,0.52169 -1.26172,0.68945 -0.32828,0.0991 -0.86919,0.17536 -1.52148,0.23633 -0.65229,0.061 -1.40481,0.10175 -2.10742,0.10742 -2.125023,0.0171 -2.806044,-0.0911 -3.822268,-0.60351 -0.340253,-0.17158 -0.655782,-0.37247 -0.90039,-0.56641 -0.122304,-0.097 -0.226722,-0.19208 -0.310547,-0.28711 -0.08383,-0.095 -0.156758,-0.18188 -0.183594,-0.32812 -0.03413,-0.18603 0.01868,-0.324 0.08594,-0.50196 0.06725,-0.17795 0.167058,-0.38078 0.289062,-0.60742 0.244008,-0.45327 0.583501,-0.99469 0.955078,-1.5332 0.371577,-0.538509 0.774116,-1.073689 1.144532,-1.511719 0.370415,-0.43803 0.687465,-0.77427 0.980468,-0.94531 0.585696,-0.3419 1.108339,-0.53785 1.630859,-0.52149 z"
       style="fill:#b6d4ff;fill-opacity:1;stroke:none;stroke-width:1"
 />
  </g>
  <path
    
     style="fill:#b6d4ff;fill-opacity:0.37254902;stroke:none;stroke-width:0.26458332px;stroke-linecap:butt;stroke-linejoin:miter;stroke-opacity:1"
     d="m 111.74283,62.176309 c -0.89168,-1.028591 -0.72891,-4.179472 -1.06722,-5.532717 -1.4755,-5.901963 0.92103,-12.637439 2.07827,-18.423677 0.11669,-0.583407 1.34546,-5.279954 1.74127,-5.279954 0.43719,0 0.44936,5.118746 0.44936,5.616973 0,2.574528 -2.68839,17.420992 -3.17359,20.389616 -0.43452,0.579349 0.35822,2.263991 -0.0281,3.229759 z"
     id="path871-6" />
  <path
    
     style="fill:#b6d4ff;fill-opacity:0.37254902;stroke:none;stroke-width:0.26458332px;stroke-linecap:butt;stroke-linejoin:miter;stroke-opacity:1"
     d="m 100.89991,64.782885 c -1.531116,-1.227207 1.19334,-4.444022 3.03886,-3.828848 0.44515,0.14838 0.69483,0.636352 0.99409,0.93561 0.25837,0.258369 0.96646,0.529516 1.05256,0.701704 0.57946,1.15892 -1.88011,2.689883 -3.15768,2.689883 -0.78084,0 -1.33661,-0.316632 -1.92608,-0.498349"
     id="path865-7" />
  <path
    
     style="fill:#b6d4ff;fill-opacity:0.37254902;stroke:none;stroke-width:0.26458332px;stroke-linecap:butt;stroke-linejoin:miter;stroke-opacity:1"
     d="m 105.92694,63.234582 c 0.26629,-1.648187 2.72879,-2.105178 3.97634,-1.16951 0.57406,0.430544 1.21633,0.865474 1.75427,1.403415 7.23853,7.238534 -10.49437,5.609669 -8.47896,1.578844 0.75111,-1.502223 1.69343,-0.968813 2.74835,-1.812749 z"
     id="path867-5" />
  <path
    
     style="fill:#b6d4ff;fill-opacity:0.37254902;stroke:none;stroke-width:0.26458332px;stroke-linecap:butt;stroke-linejoin:miter;stroke-opacity:1"
     d="m 112.59316,63.293059 c 0.88742,-0.510127 1.62411,-1.396814 2.57292,-1.871219 1.22944,-0.614713 5.18239,3.057191 3.80091,4.093287 -1.05105,0.788297 -3.67738,1.659006 -5.14585,1.169514 -1.2786,-0.4262 -1.81406,-2.8055 -1.22798,-3.391582 z"
     id="path869-3" />
  <path
    
     style="fill:#b6d4ff;fill-opacity:0.37254902;stroke:none;stroke-width:0.26458332px;stroke-linecap:butt;stroke-linejoin:miter;stroke-opacity:1"
     d="m 104.20521,37.488705 c -1.33296,2.288922 -2.24998,6.287401 -1.43595,8.729486 1.3493,4.923078 1.89221,7.652994 3.91787,15.174413 0,0 2.22206,-6.072413 2.22206,-6.75393 0,-1.560053 -1.2919,-5.770823 -2.179,-6.978155 -2.09203,-2.847237 -2.99009,-9.009043 -2.52498,-10.171814 z"
     id="path842-5" />
  <path
    
     style="fill:#b6d4ff;fill-opacity:0.37254902;stroke:none;stroke-width:0.26458332px;stroke-linecap:butt;stroke-linejoin:miter;stroke-opacity:1"
     d="m 116.33559,61.012511 c -0.64793,-2.684654 -0.92336,-7.278205 -0.4678,-10.467128 0.25452,-1.78161 2.78464,-7.696583 4.03481,-8.946764 0.14928,-0.149267 -0.28919,1.335401 -0.64323,2.3975 -0.51854,1.555643 -1.16951,3.632427 -1.16951,5.204326 0,1.251014 0.38359,2.346014 0.93561,3.450058 1.07734,2.154682 -0.93373,5.02514 -1.75426,6.666217 -0.65629,1.312582 -0.38739,2.089277 -2.15341,2.131342"
     id="path873-6" />
  <path
    
     style="fill:#b6d4ff;fill-opacity:1;stroke:none;stroke-width:0.99999994"
     d="m 113.31623,27.744369 c -0.0192,0 -0.017,0.0011 -0.0205,0.0018 -0.0126,0.02169 -0.0552,0.14127 -0.0735,0.386299 -0.0369,0.496339 -0.0178,1.469403 0.0342,3.254484 0.13483,4.629782 -0.178,7.055947 -1.55545,12.112011 -1.19753,4.395594 -1.63728,7.380932 -1.49221,10.031808 0.13948,2.549004 0.48792,5.115068 0.92472,6.842274 0.0913,0.361159 0.17385,0.707415 0.23418,0.974302 0.0302,0.133435 0.0544,0.245586 0.0718,0.333312 0.0174,0.08772 0.0308,0.117585 0.0308,0.206816 0,0.05977 -0.0367,0.146046 -0.0906,0.189734 -0.0539,0.04367 -0.10145,0.05277 -0.13504,0.05636 -0.0672,0.007 -0.10248,-0.0035 -0.14187,-0.01365 -0.0788,-0.01978 -0.16195,-0.05251 -0.26323,-0.09743 -0.20253,-0.08993 -0.46851,-0.229492 -0.76234,-0.401678 -0.69406,-0.406764 -1.19562,-0.541091 -1.59818,-0.482027 -0.23788,0.03492 -0.4155,0.04638 -0.57774,0.0053 -0.0811,-0.02057 -0.17445,-0.05776 -0.23759,-0.158963 -0.0631,-0.101212 -0.049,-0.23364 -0.012,-0.31622 1.41574,-3.152344 1.86395,-5.340769 1.53836,-7.358478 -0.28122,-1.742758 -0.75888,-2.887469 -2.36223,-5.650905 -1.87159,-3.225749 -2.17539,-4.23127 -2.17934,-7.175589 -8.8e-4,-0.673528 0.0187,-1.369474 0.053,-1.952007 0.0343,-0.582531 0.077,-1.034497 0.14187,-1.288802 0.0739,-0.289594 0.0877,-0.465877 0.0752,-0.52817 -0.0125,-0.06229 -0.003,-0.0557 -0.11623,-0.09914 -0.0868,-0.03332 -0.1576,-0.03315 -0.26665,0.01368 -0.10905,0.04683 -0.25073,0.152625 -0.41023,0.329892 -0.319,0.354534 -0.70764,0.985842 -1.16402,1.909275 -0.68549,1.386975 -0.82165,1.918518 -0.92473,3.570701 -0.21157,3.391287 0.25445,5.327591 2.94168,12.200894 0.83114,2.125836 1.0272,2.945516 1.11617,4.644131 0.0294,0.562051 0.0389,1.072871 0.029,1.449476 -0.005,0.188307 -0.0151,0.34181 -0.0308,0.459798 -0.008,0.05899 -0.0152,0.108073 -0.0325,0.160679 -0.009,0.02634 -0.0185,0.05365 -0.0462,0.0923 -0.0277,0.03868 -0.0968,0.105973 -0.2017,0.105973 -0.13566,0 -0.15813,-0.03553 -0.22562,-0.0701 -0.0675,-0.03457 -0.14548,-0.08008 -0.23247,-0.135028 -0.17397,-0.109902 -0.38459,-0.257523 -0.59825,-0.420486 -0.76104,-0.580473 -1.43874,-0.69321 -2.1537,-0.381174 -0.71496,0.312037 -1.47816,1.09706 -2.25455,2.386164 -0.33356,0.553833 -0.512725,0.894575 -0.576029,1.116164 -0.0633,0.221598 -0.04145,0.318541 0.0564,0.533304 0.270749,0.594221 1.262509,1.141036 2.654529,1.305897 0.49649,0.05881 0.79466,0.09993 1.02557,0.229037 0.11546,0.06459 0.21148,0.165483 0.26152,0.282037 0.05,0.116553 0.0598,0.234349 0.0598,0.357238 0,0.323239 0.27189,0.73773 0.7914,1.111036 0.51951,0.373315 1.26374,0.697586 2.10584,0.87687 0.53638,0.114191 1.67959,0.142134 2.81349,0.08717 1.13389,-0.05496 2.28478,-0.1939 2.85279,-0.364082 0.43389,-0.129996 1.06869,-0.532348 1.30249,-0.810202 0.23689,-0.281528 0.47854,-0.483628 0.84268,-0.605091 0.36412,-0.121454 0.838,-0.178575 1.61698,-0.244422 1.0534,-0.08905 1.87377,-0.248728 2.45454,-0.473476 0.58076,-0.224749 0.90684,-0.504413 1.03924,-0.820458 0.13241,-0.316045 0.0962,-0.713733 -0.16579,-1.23923 -0.26204,-0.525505 -0.7493,-1.157586 -1.45974,-1.883641 l -1.34179,-1.370843 a 0.22937878,0.22937878 0 0 1 -0.041,-0.261523 l 0.88027,-1.796466 c 1.59992,-3.264084 2.02599,-5.528142 1.47854,-7.577268 -0.88016,-3.294468 -0.84666,-4.97008 0.15726,-7.686666 0.35133,-0.950704 0.54702,-1.596441 0.59825,-1.96739 0.0256,-0.185476 0.007,-0.298131 -0.004,-0.321347 -0.0104,-0.02322 0.0307,-0.0018 -0.0205,-0.0018 -0.008,0 -0.0963,0.02612 -0.21366,0.121359 -0.11737,0.09524 -0.26247,0.246051 -0.42049,0.442706 -0.31603,0.39331 -0.68635,0.963311 -1.05976,1.63066 -0.7468,1.3347 -1.5143,3.063408 -1.97422,4.589437 -0.2355,0.781373 -0.36022,1.309311 -0.43245,2.249423 -0.0722,0.940112 -0.0879,2.288898 -0.094,4.668064 -0.004,1.444541 -0.0207,2.767154 -0.0445,3.736502 -0.0118,0.484678 -0.0245,0.881447 -0.0393,1.16232 -0.007,0.140436 -0.0155,0.252132 -0.0239,0.335018 -0.004,0.04148 -0.008,0.07518 -0.0136,0.107679 -0.004,0.01628 -0.006,0.03089 -0.0136,0.05303 -0.004,0.01103 -0.007,0.02407 -0.0171,0.04271 -0.005,0.0093 -0.0122,0.02083 -0.0222,0.03422 -0.01,0.0133 -0.0457,0.04577 -0.0461,0.04612 -0.0626,0.04735 -0.18297,0.125778 -0.38288,0.256394 -0.19991,0.130609 -0.4604,0.298043 -0.73158,0.471762 -0.26137,0.167443 -0.50009,0.347909 -0.66662,0.495688 -0.0833,0.07386 -0.14855,0.140234 -0.18631,0.186311 -0.0377,0.04612 -0.0256,0.09238 -0.0256,-0.0018 0,0.135789 -0.10297,0.301298 -0.24442,0.341862 -0.14146,0.04052 -0.2646,-0.0035 -0.37264,-0.0701 -0.1089,-0.0673 -0.13721,-0.149336 -0.16579,-0.229046 -0.0286,-0.07973 -0.0472,-0.168362 -0.0633,-0.271779 -0.0321,-0.206825 -0.0507,-0.473967 -0.0581,-0.794816 -0.0149,-0.64169 0.0146,-1.497128 0.0769,-2.452824 0.12459,-1.911396 0.3849,-4.217732 0.72302,-5.961998 1.7766,-9.164857 1.80226,-9.36803 1.82382,-14.893022 0.0165,-4.240839 -0.0537,-5.478035 -0.37775,-6.772198 -0.27798,-1.110311 -0.5478,-1.941198 -0.79824,-2.476758 -0.12523,-0.267779 -0.24684,-0.461271 -0.3487,-0.57432 -0.10185,-0.113049 -0.16845,-0.135034 -0.20169,-0.135034 z m -7.12944,3.474982 c -0.37899,0.04192 -0.73931,0.214084 -0.88028,0.415357 -0.23596,0.336878 -0.31119,0.538389 -0.29058,0.705935 0.0206,0.167548 0.15409,0.37801 0.47347,0.69739 0.31938,0.319381 0.53046,0.451473 0.69739,0.471764 0.16693,0.02029 0.36718,-0.0545 0.70423,-0.290579 0.20165,-0.141242 0.37368,-0.500116 0.41535,-0.878575 0.0417,-0.378458 -0.0513,-0.752153 -0.21024,-0.911049 -0.15894,-0.158941 -0.53065,-0.252134 -0.90934,-0.210243 z m 0.0291,0.52817 c 0.24944,0.03564 0.46338,0.229532 0.55893,0.516205 0.049,0.146957 0.007,0.324517 -0.0974,0.429031 -0.10451,0.104514 -0.24702,0.146999 -0.39484,0.146999 -0.32741,0 -0.59654,-0.269133 -0.59654,-0.596542 0,-0.149286 0.0514,-0.295033 0.15725,-0.389717 0.10585,-0.09469 0.24816,-0.123757 0.37263,-0.105976 z m 7.98921,2.731442 c 0.1067,-0.01339 0.32529,0.229686 0.27177,0.135034 0.0639,0.100775 0.0831,0.196099 0.10768,0.323054 0.0245,0.126956 0.0453,0.279916 0.0615,0.45809 0.0324,0.356347 0.0498,0.811535 0.0547,1.322989 0.01,1.022906 -0.0335,2.268975 -0.13674,3.362167 -0.0649,0.687054 -0.11849,1.102213 -0.25468,1.434093 -0.13618,0.33188 -0.36171,0.549022 -0.6803,0.784563 l -0.69568,0.514495 a 0.22937878,0.22937878 0 0 1 -0.35894,-0.241009 l 0.17092,-0.666622 c 0.52546,-2.060939 0.83958,-3.871458 0.96917,-5.563731 0.045,-0.587492 0.10064,-1.044295 0.16409,-1.346918 0.0317,-0.151313 0.0564,-0.257223 0.11623,-0.36066 0.0299,-0.05172 0.0741,-0.135148 0.21025,-0.155545 z m -5.3911,2.750243 c -0.57393,-0.09489 -1.18356,0.07595 -1.66142,0.553809 -0.92073,0.920731 -0.59833,2.72015 0.5521,3.184403 0.40618,0.163916 0.72938,0.212826 1.0307,0.164091 0.30131,-0.04874 0.59667,-0.199062 0.93498,-0.483728 0.82023,-0.690181 1.00839,-1.500934 0.56919,-2.35027 -0.31625,-0.611549 -0.85162,-0.973415 -1.42555,-1.068305 z m -0.14358,0.548681 c 0.1482,0.01938 0.29972,0.06165 0.44954,0.129906 0.41191,0.187677 0.65574,0.593276 0.72816,1.017026 0.0725,0.42375 -0.0221,0.890407 -0.34356,1.211886 -0.32148,0.321477 -0.78681,0.4148 -1.21018,0.341856 -0.42337,-0.07294 -0.82945,-0.31647 -1.01703,-0.728156 -0.40875,-0.897121 0.13318,-1.816956 0.96233,-1.963971 0.13777,-0.02443 0.28254,-0.02793 0.43074,-0.0086 z m -5.98079,4.444148 a 0.22937878,0.22937878 0 0 1 0.23246,0.182893 l 0.33673,1.620405 c 0.45962,2.215514 0.63733,2.724248 2.23233,6.438887 1.15451,2.68876 1.42956,3.584206 1.52639,4.996247 0.0319,0.465738 0.0486,0.888114 0.0496,1.19992 4.7e-4,0.155902 -0.004,0.283288 -0.012,0.381167 -0.004,0.04892 -0.008,0.08833 -0.0188,0.13333 -0.006,0.02249 -0.0109,0.04586 -0.0325,0.08375 -0.0108,0.0189 -0.0258,0.04332 -0.0581,0.0701 -0.0162,0.01339 -0.0623,0.03728 -0.0632,0.03763 -8.8e-4,3.68e-4 -0.0879,0.01707 -0.0889,0.01707 -0.14813,0 -0.17652,-0.07045 -0.20341,-0.10256 -0.0269,-0.03212 -0.0452,-0.06003 -0.0633,-0.0923 -0.036,-0.0645 -0.0709,-0.143219 -0.10939,-0.237589 -0.077,-0.188744 -0.16411,-0.439384 -0.24614,-0.716191 -0.15103,-0.509665 -0.74047,-2.075482 -1.29564,-3.427122 -1.41213,-3.438015 -2.12007,-6.032245 -2.27506,-8.373799 l -0.13162,-1.96739 a 0.22937878,0.22937878 0 0 1 0.22051,-0.244446 z m 11.09498,0.7914 c 0.0558,-0.01575 0.12694,-0.02359 0.19999,0 0.0731,0.02359 0.13582,0.07919 0.17093,0.133325 0.0701,0.10811 0.0748,0.20662 0.0786,0.323055 0.003,0.116435 -0.004,0.253214 -0.0222,0.418775 -0.0357,0.331124 -0.10946,0.778876 -0.21195,1.36743 -0.22072,1.267449 -0.43721,1.66453 -1.48537,2.692128 -0.50938,0.499379 -0.77071,0.76094 -0.99652,0.883701 -0.0564,0.03069 -0.11739,0.0657 -0.22391,0.05299 -0.10653,-0.01272 -0.21196,-0.128089 -0.23418,-0.205114 -0.0445,-0.154049 -0.007,-0.240245 0.0222,-0.374334 0.0697,-0.317365 0.25499,-1.170511 0.41194,-1.8956 0.22219,-1.026447 0.56534,-1.676212 1.33667,-2.536582 0.28199,-0.314554 0.49568,-0.546303 0.67516,-0.695681 0.0897,-0.07469 0.16713,-0.132586 0.27861,-0.164091 z m -9.39253,1.618695 c 0.11033,0.01077 0.3098,0.259254 0.24614,0.181185 0.10701,0.142549 0.22228,0.359044 0.3504,0.64782 0.2351,0.529887 0.9768,1.881343 1.62553,2.955358 1.47832,2.447427 2.08366,4.31229 2.05969,6.389316 -0.0101,0.873509 -0.15385,1.97135 -0.35211,2.540002 l -0.32305,0.92643 a 0.22937878,0.22937878 0 0 1 -0.44442,-0.100844 l 0.12136,-1.088815 c 0.17132,-1.533241 -0.2714,-3.588031 -1.31102,-5.948322 -0.63067,-1.431812 -1.20215,-2.841541 -1.61528,-3.957001 -0.20657,-0.557729 -0.37374,-1.041015 -0.48886,-1.420418 -0.11512,-0.379402 -0.18641,-0.623413 -0.17776,-0.834131 0.002,-0.0466 0.003,-0.09447 0.0427,-0.164092 0.0402,-0.06963 0.17702,-0.141543 0.26665,-0.126488 z m 8.47293,3.957001 c 0.0587,-0.0133 0.12504,-0.01308 0.19487,0.01538 0.13972,0.05696 0.18901,0.186841 0.20853,0.287161 0.0195,0.100319 0.0194,0.205419 0.0102,0.333311 -0.0183,0.255783 -0.0784,0.598662 -0.17435,1.046084 -0.15871,0.740041 -0.60109,1.666264 -1.10249,2.322921 l -0.80849,1.061468 a 0.22937878,0.22937878 0 0 1 -0.41195,-0.138452 V 52.36324 c 0,-0.503136 0.0382,-0.879463 0.18974,-1.27171 0.15154,-0.392247 0.40527,-0.786959 0.82216,-1.36914 0.26959,-0.376474 0.48456,-0.655291 0.66321,-0.844388 0.0893,-0.09455 0.16829,-0.167722 0.25468,-0.222208 0.0432,-0.02724 0.0951,-0.05336 0.15384,-0.06666 z m 4.63901,0.348694 a 0.22937878,0.22937878 0 0 1 0.23076,0.157255 l 0.4615,1.387941 c 0.34607,1.042526 0.45063,1.888415 0.38459,3.105776 -0.0373,0.686857 -0.0884,1.209525 -0.15041,1.575963 -0.031,0.183219 -0.0638,0.326528 -0.10427,0.440996 -0.0202,0.05724 -0.042,0.108843 -0.0752,0.158964 -0.0332,0.05012 -0.0822,0.113383 -0.18461,0.140162 -0.10244,0.02678 -0.21636,-0.02634 -0.26836,-0.07692 -0.052,-0.05058 -0.0774,-0.09944 -0.10085,-0.152126 -0.0471,-0.105365 -0.0796,-0.23301 -0.11281,-0.401683 -0.0663,-0.337344 -0.1234,-0.831286 -0.16751,-1.497336 -0.0833,-1.258737 -0.14485,-2.799278 -0.13845,-3.45447 l 0.0102,-1.157187 a 0.22937878,0.22937878 0 0 1 0.21537,-0.227336 z m 4.78088,1.505883 c -0.30564,-0.0035 -0.7141,0.194453 -1.02899,0.488856 -0.31488,0.294403 -0.52304,0.676755 -0.52304,0.950364 0,0.272502 0.1297,0.624026 0.33844,0.926434 0.20873,0.302408 0.49495,0.552699 0.75892,0.658075 1.19494,0.477024 2.50697,-0.940586 1.91269,-2.056272 -0.3673,-0.689564 -0.78359,-0.959759 -1.45802,-0.967457 z m 0.17434,0.57432 c 0.47944,0.107487 0.85218,0.613895 0.77261,1.170863 -0.0506,0.354299 -0.33484,0.59437 -0.63757,0.711063 -0.30273,0.116693 -0.67831,0.126764 -0.93156,-0.126487 -0.24413,-0.244136 -0.26561,-0.604346 -0.21366,-0.929852 0.052,-0.325507 0.18138,-0.66107 0.50766,-0.786273 0.17062,-0.06548 0.34272,-0.07514 0.50252,-0.03931 z m -6.03378,0.04102 c 0.11403,0.01192 0.26073,0.311536 0.22734,0.210243 0.0228,0.06326 0.0382,0.131016 0.053,0.217079 0.0593,0.344253 0.10753,0.982032 0.16752,2.023797 0.0437,0.75782 0.0604,1.486202 0.0529,2.054563 -0.004,0.284181 -0.0125,0.528688 -0.029,0.71961 -0.009,0.09546 -0.0179,0.177109 -0.0308,0.247846 -0.0129,0.07074 -0.022,0.126197 -0.0633,0.199987 -0.0192,0.03431 -0.0428,0.07298 -0.10256,0.111104 -0.0598,0.03812 -0.17263,0.05028 -0.24272,0.0188 -0.14018,-0.06296 -0.14618,-0.136897 -0.17093,-0.198278 -0.0495,-0.12276 -0.079,-0.275569 -0.1111,-0.476891 -0.0641,-0.402644 -0.11789,-0.979767 -0.15555,-1.601602 -0.0376,-0.621836 -0.0591,-1.285174 -0.0547,-1.854578 0.004,-0.569402 0.0256,-1.025234 0.10598,-1.311022 0.0206,-0.07313 0.0386,-0.132731 0.0683,-0.191441 0.0149,-0.02935 0.0311,-0.05906 0.0684,-0.09572 0.0373,-0.03665 0.12103,-0.087 0.21708,-0.0735 z m -4.28005,2.509234 a 0.22937878,0.22937878 0 0 1 0.24271,0.259812 l -0.12648,0.926433 c -0.0689,0.504322 -0.20172,1.599457 -0.294,2.425482 -0.0413,0.36992 -0.0722,0.648289 -0.0991,0.847807 -0.0135,0.09976 -0.0264,0.179311 -0.0393,0.244422 -0.0129,0.06511 -0.0144,0.105036 -0.0581,0.181192 -0.0109,0.01899 -0.025,0.04279 -0.0565,0.0701 -0.0315,0.0273 -0.0897,0.0596 -0.15726,0.05986 -0.13518,4.81e-4 -0.18944,-0.08524 -0.21194,-0.121358 -0.045,-0.07238 -0.0485,-0.111153 -0.0633,-0.170927 -0.0296,-0.119555 -0.0591,-0.290017 -0.0991,-0.517916 -0.26152,-1.488884 -0.17883,-2.363975 0.32818,-3.276703 l 0.44954,-0.810203 a 0.22937878,0.22937878 0 0 1 0.1846,-0.11794 z m -10.5087,0.133325 c -0.19082,-0.01529 -0.39188,0.0033 -0.60338,0.0564 -0.72115,0.180996 -1.164699,0.667438 -1.311025,1.240942 -0.146325,0.573505 0.0069,1.237611 0.548685,1.779368 0.3594,0.359407 0.65071,0.532758 0.94865,0.576034 0.29794,0.04323 0.63668,-0.03947 1.10249,-0.28033 0.86399,-0.446781 1.13936,-1.378324 0.66662,-2.34343 -0.30997,-0.632827 -0.77958,-0.983127 -1.35204,-1.028991 z m -0.30084,0.577739 c 0.19344,-0.05071 0.39079,-0.0536 0.57945,0.0188 0.36229,0.139025 0.56718,0.50062 0.65466,0.873446 0.0875,0.372827 0.0645,0.790383 -0.1846,1.090526 -0.7157,0.862361 -2.25626,0.344151 -2.25626,-0.76918 0,-0.404417 0.30719,-0.721532 0.65123,-0.950364 0.17203,-0.114415 0.36208,-0.212525 0.55552,-0.26323 z m 2.01183,6.582468 c 0.22372,0 0.39183,0.105167 0.62048,0.239302 0.22864,0.134126 0.48472,0.311231 0.72815,0.49911 0.24343,0.187878 0.47202,0.385558 0.64782,0.564064 0.0879,0.08925 0.16381,0.173902 0.22221,0.256394 0.0584,0.08253 0.11452,0.153345 0.11452,0.293999 0,0.126618 -0.0309,0.163838 -0.0667,0.249551 -0.0358,0.08568 -0.086,0.187642 -0.14529,0.304256 -0.11861,0.233221 -0.27847,0.522249 -0.45638,0.81533 -0.31672,0.521749 -0.49028,0.82499 -0.80849,0.998219 -0.31821,0.173237 -0.67864,0.164013 -1.32812,0.167513 -0.94788,0.0053 -1.54346,-0.117822 -1.97422,-0.466633 a 0.22937878,0.22937878 0 0 1 -0.002,0 l -0.52134,-0.423907 a 0.22937878,0.22937878 0 0 1 -0.053,-0.293999 l 0.63415,-1.081972 c 0.35623,-0.607865 0.76623,-1.124741 1.17428,-1.499045 0.40804,-0.374312 0.80957,-0.622182 1.21359,-0.622182 z m 11.77016,0.586284 c 0.4418,-0.140227 0.95006,0.05461 1.48366,0.408522 0.5336,0.35386 1.09979,0.89405 1.62041,1.562283 0.5284,0.678228 0.82973,1.134647 0.85293,1.574255 0.0116,0.219804 -0.0761,0.434926 -0.23076,0.584577 -0.15474,0.149652 -0.36069,0.249665 -0.61534,0.33844 -0.4788,0.16691 -1.47975,0.266651 -2.35027,0.266651 h -1.54519 a 0.22937878,0.22937878 0 0 1 -0.19144,-0.104266 l -0.61876,-0.945237 v -0.0018 c -0.17294,-0.264191 -0.33193,-0.523115 -0.44784,-0.731568 -0.058,-0.104405 -0.10471,-0.196682 -0.14016,-0.273485 -0.0178,-0.03842 -0.0324,-0.07167 -0.0445,-0.105981 -0.0121,-0.03431 -0.0256,-0.06082 -0.0256,-0.1299 0,-0.135675 0.0473,-0.205451 0.10085,-0.299128 0.0536,-0.09369 0.12419,-0.196183 0.20853,-0.307669 0.16868,-0.222981 0.39269,-0.482193 0.63073,-0.734999 0.23803,-0.252798 0.4907,-0.497929 0.71619,-0.693972 0.22548,-0.196035 0.39399,-0.342527 0.59654,-0.406807 z m -6.31411,0.319633 c 0.15243,0.0044 0.30532,0.03037 0.4598,0.07859 0.61774,0.193016 1.22898,0.701752 2.09729,1.570834 1.24202,1.243105 1.9458,2.140603 2.09901,2.907501 0.0766,0.383441 -0.0151,0.748757 -0.26152,1.02044 -0.24642,0.271692 -0.61782,0.45656 -1.10421,0.603376 -0.28729,0.08673 -0.76067,0.153467 -1.33153,0.206825 -0.57085,0.05338 -1.22942,0.08905 -1.84432,0.09401 -1.85972,0.01497 -2.45572,-0.07973 -3.34507,-0.528165 -0.29778,-0.150159 -0.57391,-0.325969 -0.78798,-0.495696 -0.10704,-0.08489 -0.19842,-0.1681 -0.27178,-0.251266 -0.0734,-0.08314 -0.13719,-0.159173 -0.16067,-0.287156 -0.0299,-0.162805 0.0163,-0.28355 0.0752,-0.439293 0.0588,-0.155734 0.1462,-0.333242 0.25297,-0.531587 0.21355,-0.396681 0.51065,-0.870508 0.83584,-1.341788 0.32519,-0.471279 0.67747,-0.939644 1.00164,-1.322989 0.32418,-0.383344 0.60164,-0.677606 0.85807,-0.827293 0.51257,-0.299215 0.96997,-0.470702 1.42725,-0.456384 z"
     id="path837-2" />
  <g
     id="g1040"
     transform="translate(-0.10778513,24.45099)">
    <path
       id="path909"
       d="m 58.352928,27.402314 c -0.240632,-1.833413 -0.95945,-4.692121 0,-5.651609 0.574421,-0.574421 17.028694,0 19.317696,0 0.423344,0 -0.461851,5.651609 -0.54969,5.651609 -2.02509,0.330308 -15.451956,-0.140593 -18.768006,0 z"
       style="fill:#b6d3ff;fill-opacity:0.58823529;stroke:none;stroke-width:0.26458332px;stroke-linecap:butt;stroke-linejoin:miter;stroke-opacity:1" />
    <path

       id="path907"
       d="m 58.298281,41.758196 c -1.2367,-0.02348 -1.328767,-0.03158 -1.395362,-0.122748 -0.05993,-0.08204 -0.0713,-0.656549 -0.0713,-3.602153 v -3.504547 l -0.34829,-0.01968 c -0.585996,-0.03311 -0.55681,0.05597 -0.55681,-1.699484 0,-1.207477 0.01356,-1.50966 0.07128,-1.588701 0.05572,-0.0763 0.151776,-0.103096 0.439978,-0.122748 l 0.368697,-0.02514 0.02514,-1.493493 c 0.01901,-1.129055 0.04106,-1.509425 0.09035,-1.558783 0.03587,-0.03591 0.2282,-0.0766 0.427408,-0.09043 l 0.362196,-0.02514 0.01298,-2.903861 0.01298,-2.903862 h -0.270185 c -0.201055,0 -0.305658,-0.0279 -0.408824,-0.109053 -0.132165,-0.103961 -0.137508,-0.12486 -0.114418,-0.447569 0.04501,-0.629043 0.470795,-1.293864 1.051077,-1.641143 0.561882,-0.336267 -0.04598,-0.3164 9.680577,-0.3164 6.256676,0 8.888943,0.01617 9.078143,0.05575 0.829683,0.173587 1.562903,0.940085 1.698964,1.776073 0.07553,0.464069 -0.06981,0.682343 -0.454343,0.682343 h -0.148484 v 2.759297 c 0,1.517613 0.01414,2.830007 0.03143,2.916432 0.02987,0.149358 0.04317,0.157135 0.268765,0.157135 0.177344,0 0.261552,0.02674 0.333127,0.105766 0.08886,0.09812 0.09685,0.212616 0.110505,1.583924 l 0.01472,1.478159 h 0.342045 c 0.552709,0 0.530802,-0.06657 0.548377,1.66623 l 0.01475,1.454703 -0.149166,0.149166 c -0.13253,0.13253 -0.183133,0.149166 -0.453736,0.149166 h -0.304569 l -0.01357,3.518453 c -0.01335,3.461323 -0.01523,3.520112 -0.1158,3.620666 -0.101961,0.101943 -0.127098,0.102246 -9.478404,0.114516 -5.156895,0.0068 -9.972001,9.89e-4 -10.700235,-0.01284 z m 1.0353,-3.984952 0.01294,-3.255844 h -0.880325 -0.880324 v 3.269602 3.269603 l 0.867387,-0.01376 0.867387,-0.01376 z m 15.952013,2.451311 v -0.829674 h -7.592779 -7.59278 v 0.796152 c 0,0.437884 0.01508,0.811238 0.03352,0.829674 0.01844,0.01844 3.435188,0.03352 7.59278,0.03352 h 7.559257 z m 2.552245,-2.451311 0.01294,-3.255844 h -0.905467 -0.905466 v 3.234892 c 0,1.779192 0.0156,3.250494 0.03467,3.269562 0.01907,0.01907 0.420705,0.0285 0.892528,0.02095 l 0.85786,-0.01372 z m -2.552245,0.238846 v -0.879958 h -4.70033 -4.70033 l -0.08237,-0.125709 c -0.0763,-0.116449 -0.0763,-0.134966 0,-0.251416 l 0.08237,-0.125708 h 4.70033 4.70033 V 35.573349 34.5174 H 72.94742 70.609247 l -0.0011,0.263987 c -6.13e-4,0.146437 -0.04218,0.354416 -0.09335,0.467067 -0.125006,0.275197 -0.505292,0.601075 -0.783044,0.671014 -0.302813,0.07625 -3.699228,0.07626 -3.973871,1.7e-5 -0.518502,-0.143948 -0.880925,-0.60463 -0.880925,-1.119761 V 34.5174 h -2.388465 -2.388457 v 1.055949 1.05595 h 1.13468 c 0.686005,0 1.173139,0.02058 1.231941,0.05205 0.06218,0.03328 0.09726,0.105184 0.09726,0.199364 0,0.09418 -0.03508,0.166086 -0.09726,0.199364 -0.0588,0.03147 -0.545936,0.05205 -1.231941,0.05205 h -1.13468 v 0.879958 0.879958 h 7.59278 7.592779 z M 63.740951,37.006423 c -0.0763,-0.116449 -0.0763,-0.134966 0,-0.251416 0.07581,-0.115698 0.112569,-0.125708 0.461638,-0.125708 0.456947,0 0.573794,0.0512 0.573794,0.251416 0,0.200219 -0.116847,0.251417 -0.573794,0.251417 -0.349069,0 -0.38583,-0.01001 -0.461638,-0.125709 z m 6.044923,-1.910765 c 0.06206,-0.08486 0.07124,-0.391155 0.05876,-1.961049 -0.01445,-1.818305 -0.01746,-1.867114 -0.132793,-2.152982 -0.165653,-0.410583 -0.61771,-0.883544 -1.014834,-1.061763 -1.12238,-0.503694 -2.355386,-0.08983 -2.874892,0.964974 l -0.165777,0.336594 -0.01494,1.911971 -0.01494,1.911971 0.110595,0.08969 c 0.102552,0.08316 0.25114,0.08865 2.042938,0.07542 1.865716,-0.01377 1.934878,-0.01773 2.005887,-0.114826 z m -2.143343,-0.915357 c -0.170014,-0.05963 -0.201133,-0.180245 -0.201133,-0.779591 v -0.594635 l -0.221585,-0.212858 c -0.296306,-0.284635 -0.350324,-0.573168 -0.173731,-0.927959 0.146247,-0.293822 0.373123,-0.435613 0.697016,-0.435613 0.317392,0 0.544867,0.142044 0.695156,0.434085 0.180255,0.35027 0.126076,0.643276 -0.171871,0.929487 l -0.221585,0.212858 v 0.594635 c 0,0.399542 -0.02062,0.620869 -0.06285,0.674594 -0.07353,0.09354 -0.23216,0.142613 -0.339413,0.104997 z m -2.777043,-1.385105 0.01368,-0.942812 h -4.099198 -4.0992 v 0.955679 0.955678 l 4.085519,-0.01287 4.085519,-0.01287 z m 13.878194,0 0.01368,-0.942812 h -4.074058 -4.074057 v 0.95568 0.955681 l 4.060377,-0.01287 4.060377,-0.01287 z M 59.345785,29.891335 V 28.684536 H 58.465828 57.58587 v 1.206799 1.2068 h 0.879958 0.879957 z m 5.677736,1.018237 c 0.168236,-0.479143 0.61676,-1.079618 1.030039,-1.378995 l 0.196128,-0.142075 h -3.074827 -3.074826 v 0.854816 0.854817 h 2.428639 2.428639 z M 75.285594,30.243318 V 29.388502 H 72.26408 69.242566 l 0.243362,0.194757 c 0.436397,0.34924 0.762593,0.789095 0.946303,1.27603 l 0.09011,0.238846 h 2.381626 2.381625 z m 2.552788,-0.364554 0.01348,-1.194228 h -0.903086 -0.903087 l -0.0039,1.172282 c -0.0022,0.644756 0.01213,1.188331 0.03175,1.207946 0.01962,0.01962 0.4217,0.02949 0.893523,0.02195 l 0.857859,-0.01372 z m -2.544918,-1.470786 0.018,-0.226275 h -7.605713 -7.605713 v 0.226275 0.226275 h 7.587717 7.587716 z m 1.840486,-3.658111 0.01302,-2.652445 h -9.35314 -9.35314 v 2.631493 c 0,1.447322 0.01514,2.646638 0.03365,2.665149 0.01851,0.01851 4.221566,0.02794 9.340124,0.02095 l 9.30647,-0.0127 z M 60.25486,21.083046 c 0.06695,-0.14307 0.19535,-0.363688 0.285325,-0.490263 l 0.163592,-0.230135 -0.933448,-0.01369 c -0.513397,-0.0075 -1.017146,0.0088 -1.119444,0.03639 -0.393273,0.105897 -0.80719,0.488161 -0.891253,0.823097 l -0.03381,0.134727 h 1.203656 1.203655 z m 14.09894,0.106273 c -0.119481,-0.231051 -0.401892,-0.524252 -0.671757,-0.697424 l -0.240594,-0.154388 h -5.717327 c -5.70111,0 -5.717912,2.96e-4 -5.923432,0.105146 -0.235403,0.120094 -0.626514,0.499957 -0.760686,0.738809 l -0.09084,0.161711 h 6.742097 6.742098 z m 3.29511,0.06313 c 0,-0.15469 -0.286929,-0.552375 -0.491889,-0.68176 -0.315667,-0.199273 -0.534825,-0.232607 -1.531217,-0.232904 l -0.942014,-2.8e-4 0.22388,0.333818 c 0.123134,0.183601 0.248981,0.409875 0.27966,0.502833 l 0.05578,0.169015 h 1.2029 c 1.125868,0 1.2029,-0.0058 1.2029,-0.09072 z"
       style="fill:#b6d4ff;fill-opacity:1;stroke-width:1" />
    <path
       id="path909-9"
       d="m 57.869419,21.756388 c -0.248684,-0.512367 -0.60286,-1.392966 0.38869,-1.661105 0.593637,-0.160524 16.737726,0.166582 19.103306,0.166582 0.437508,0 0.494444,1.494523 0.403644,1.494523 -2.092841,0.0923 -16.468653,-0.03929 -19.895642,0 z"
       style="fill:#b6d3ff;fill-opacity:0.58823529;stroke:none;stroke-width:0.26458335px;stroke-linecap:butt;stroke-linejoin:miter;stroke-opacity:1" />
    <path
       id="path909-1"
       d="m 57.436869,41.328505 c -0.240632,-1.833413 -0.931686,-6.191353 0.02776,-7.150841 0.254934,-0.254934 3.444174,-0.211651 7.668958,-0.146408 0.481571,0.0074 -0.02525,1.431363 0.473469,1.439734 1.381595,0.02319 3.340576,0.271183 4.388327,-0.136557 0.430033,-0.167351 -0.286162,-1.114677 0.301244,-1.181235 3.144679,-0.356322 7.335592,0.107756 8.040457,0.107756 0.423344,0 -0.489614,7.150842 -0.577453,7.150842 -2.02509,0.330309 -17.006716,-0.223884 -20.322766,-0.08329 z"
       style="fill:#b6d3ff;fill-opacity:0.58823529;stroke:none;stroke-width:0.26458332px;stroke-linecap:butt;stroke-linejoin:miter;stroke-opacity:1" />
    <path
       id="path909-9-2"
       d="m 56.526686,33.750878 c -0.107201,-0.708689 -0.259878,-1.926703 0.167555,-2.297584 0.255903,-0.222032 7.215232,0.23041 8.234977,0.23041 0.188599,0 0.213143,2.067174 0.174001,2.067174 -0.902173,0.127666 -7.099241,-0.05434 -8.576534,0 z"
       style="fill:#b6d3ff;fill-opacity:0.58823529;stroke:none;stroke-width:0.26458335px;stroke-linecap:butt;stroke-linejoin:miter;stroke-opacity:1" />
    <path
       id="path909-9-2-7"
       d="m 70.335113,33.872054 c -0.107201,-0.708689 -0.259878,-1.926703 0.167555,-2.297584 0.255903,-0.222032 7.215232,0.23041 8.234977,0.23041 0.188599,0 0.213143,2.067174 0.174001,2.067174 -0.902173,0.127666 -7.099241,-0.05434 -8.576533,0 z"
       style="fill:#b6d3ff;fill-opacity:0.58823529;stroke:none;stroke-width:0.26458335px;stroke-linecap:butt;stroke-linejoin:miter;stroke-opacity:1" />
    <path
       id="path909-9-2-7-0"
       d="m 65.286311,35.294114 c -0.06004,-1.88662 0.298666,-4.268456 0.538057,-5.255788 0.143325,-0.591077 3.04158,-0.63598 3.945875,0.1414 0.0801,0.06886 0.341484,5.114388 0.319559,5.114388 -0.505284,0.339863 -3.976103,-0.14466 -4.803497,0 z"
       style="fill:#b6d3ff;fill-opacity:0.58823529;stroke:none;stroke-width:0.26458335px;stroke-linecap:butt;stroke-linejoin:miter;stroke-opacity:1" />
    <path
       id="path909-9-2-7-3"
       d="m 70.478399,31.411174 c -0.879061,-1.181536 -2.461681,-1.974065 -2.515324,-2.574619 -0.03617,-0.404889 -0.07143,-0.808335 0.107277,-1.014576 0.265692,-0.306605 8.851661,0.373701 9.910416,0.373701 0.195813,0 0.221296,2.854568 0.180657,2.854568 -0.936685,0.176295 -6.149221,0.285886 -7.683026,0.360926 z"
       style="fill:#b6d3ff;fill-opacity:0.58823529;stroke:none;stroke-width:0.26458338px;stroke-linecap:butt;stroke-linejoin:miter;stroke-opacity:1" />
    <path
       id="path909-9-2-7-3-6"
       d="m 65.100955,31.468362 c 0.879061,-1.181536 2.77579,-1.974065 2.829433,-2.574619 0.03617,-0.404889 0.07143,-0.808335 -0.107277,-1.014576 -0.265692,-0.306605 -9.16577,0.373701 -10.224525,0.373701 -0.195813,0 -0.221296,2.854568 -0.180657,2.854568 0.936685,0.176295 6.149221,0.285886 7.683026,0.360926 z"
       style="fill:#b6d3ff;fill-opacity:0.58823529;stroke:none;stroke-width:0.26458338px;stroke-linecap:butt;stroke-linejoin:miter;stroke-opacity:1" />
  </g>
</svg>
