<?xml version="1.0" encoding="UTF-8" standalone="no"?>
<svg
   width="96.016563mm"
   height="47.351604mm"
   viewBox="0 0 96.016563 47.351604"
   version="1.1"
   id="svg8">
  <defs
     id="defs2">
    <linearGradient
       id="linearGradient861"
       x1="43.573594"
       y1="22.7668"
       x2="43.573594"
       y2="116.57107"
       gradientTransform="matrix(2.3542437,0,0,0.42476487,-54.574574,-5.6284509)"
       gradientUnits="userSpaceOnUse">
      <stop
         style="stop-color:#cccccc;stop-opacity:60%"
         offset="0"
         id="stop857" />
      <stop
         style="stop-color:#49453a;stop-opacity:0%"
         offset="1"
         id="stop859" />
    </linearGradient>
    <linearGradient
       y2="116.57107"
       x2="43.573594"
       y1="22.7668"
       x1="43.573594"
       id="linearGradient861-2"
       gradientTransform="scale(2.3542437,0.42476487)"
       gradientUnits="userSpaceOnUse">
      <stop
         id="stop857-9"
         offset="0"
         style="stop-color:#cccccc;stop-opacity:60%" />
      <stop
         id="stop859-1"
         offset="1"
         style="stop-color:#49453a;stop-opacity:0%" />
    </linearGradient>
  </defs>
  <path
     style="fill:#999999;stroke-width:0.99999994"
     d="m 15.348021,19.693152 c -0.01062,0 0.0059,0.103447 0.03669,0.229961 0.06482,0.266324 0.07033,0.703588 0.01189,0.944128 -0.0223,0.09179 -0.181742,0.476543 -0.353983,0.855245 -0.411566,0.904896 -0.49532,1.28839 -0.52865,2.41949 -0.02441,0.8286 -0.04776,0.999901 -0.168465,1.231966 -0.106792,0.205321 -0.227931,0.101925 -0.346749,-0.296105 -0.14397,-0.482306 -0.153642,-0.703665 -0.06201,-1.406633 0.08302,-0.637015 0.10652,-1.57692 0.05271,-2.117183 l -0.02791,-0.276986 -0.129191,0.56689 c -0.130104,0.570288 -0.240998,0.852978 -0.502812,1.278992 -0.170615,0.277618 -0.340998,0.787364 -0.393258,1.177189 -0.09434,0.703789 -0.01696,1.862216 0.197404,2.951757 0.167964,0.853667 0.137594,1.922806 -0.05788,2.031402 -0.172214,0.09568 -0.516698,-0.362254 -0.633553,-0.842328 l -0.05478,-0.225308 -0.06821,0.35915 c -0.04994,0.263152 -0.06856,0.534223 -0.06976,1.011825 -0.0015,0.580599 0.009,0.704231 0.102319,1.123448 0.174218,0.626252 0.581447,1.117049 1.088822,1.429885 l 1.273308,-4.480862 1.288293,4.501018 c 0.577067,-0.383014 1.028314,-1.081215 1.164787,-2.162144 0.01279,-0.703775 -0.01769,-1.101658 -0.132809,-1.718757 l -0.06821,-0.365352 -0.153479,0.303339 c -0.191239,0.378346 -0.315828,0.459457 -0.393258,0.256315 -0.14239,-0.373573 -0.09436,-1.369994 0.12299,-2.550748 0.175432,-0.952997 0.191806,-1.523938 0.07183,-2.510958 -0.09667,-0.795284 -0.1092,-1.133748 -0.05426,-1.440739 0.01934,-0.107781 0.0304,-0.205607 0.02481,-0.217557 -0.0056,-0.01195 -0.06082,0.03009 -0.122474,0.09353 -0.144876,0.149064 -0.233236,0.522642 -0.281636,1.192175 -0.04842,0.669847 -0.104343,0.958705 -0.216008,1.114144 -0.08281,0.11527 -0.09342,0.11527 -0.176216,0 -0.04847,-0.06748 -0.109316,-0.228697 -0.134876,-0.358634 -0.04183,-0.212712 -0.03754,-0.293401 0.03979,-0.80977 0.160921,-1.074544 0.16613,-2.21943 0.01292,-2.746086 -0.06207,-0.213357 -0.280028,-0.545703 -0.358117,-0.545703 z"
     id="path841"/>
  <path
     id="path855"
     d="m 0,47.351604 c 27.09531,-23.779155 70.432936,-22.407485 96.016566,0"
     style="fill:url(#linearGradient861);fill-opacity:1;stroke:none;stroke-width:0.26458332px;stroke-linecap:butt;stroke-linejoin:miter;stroke-opacity:1" />
  <path
     id="path865"
     d="m 14.10606,37.869021 v -1.647043 h -1.55329 l 2.14583,-7.891773 2.11461,7.891773 h -1.42016 v 1.099967 z"
     style="fill:#d3d3d3;fill-opacity:1;stroke:none;stroke-width:0.26458332px;stroke-linecap:butt;stroke-linejoin:miter;stroke-opacity:1" />
  <path
     id="path865-5"
     d="m 75.380736,35.218228 v -1.498569 h -1.98162 l 2.73755,-10.067967 2.69772,10.067967 h -1.81176 v 2.254086 z"
     style="fill:#d3d3d3;fill-opacity:1;stroke:none;stroke-width:0.26458332px;stroke-linecap:butt;stroke-linejoin:miter;stroke-opacity:1" />
  <path
     id="path926"
     d="m 21.96496,25.009265 c -0.44292,-0.225813 -1.20608,-0.410573 -1.69589,-0.410573 -2.26319,0 -3.02507,-1.556445 -1.13278,-2.31413 0.42669,-0.170852 0.95179,-0.505287 1.16689,-0.74319 0.27205,-0.300937 0.63791,-0.432547 1.20234,-0.432547 0.6339,0 0.37326,-0.05764 0.69409,-0.305467 0,0 0.54396,-0.423712 0.83289,-0.576116 1.03897,-0.553713 2.03854,-0.457542 2.76182,0.265724 0.5007,0.500699 0.78755,0.615859 1.53404,0.615859 0.50501,0 0.86319,0.314301 1.20783,0.492517 0.5253,0.271649 0.83666,0.79418 0.83666,0.79418 0.18467,0.35042 0.29888,0.57384 0.47279,0.57384 0.53281,0 1.04925,0.473808 1.04925,0.808186 0,0.494459 -0.82493,0.802016 -2.52295,0.940619 -0.81407,0.06646 -1.82842,0.25151 -2.25413,0.411247 -1.15346,0.432823 -3.18345,0.374094 -4.15289,-0.120155 z"
     style="opacity:0.619;fill:#554949;fill-opacity:0.08235294;stroke-width:1" />
  <path
     id="path926-5"
     d="m 55.665415,23.682439 c 0.39176,-0.199729 1.06676,-0.363147 1.49999,-0.363147 2.00176,0 2.67565,-1.376658 1.00194,-2.046822 -0.3774,-0.15111 -0.84185,-0.44692 -1.03211,-0.657342 -0.24062,-0.266176 -0.56421,-0.382583 -1.06344,-0.382583 -0.56068,0 -0.33015,-0.05097 -0.61393,-0.270183 0,0 -0.48113,-0.374767 -0.73667,-0.509567 -0.91896,-0.489754 -1.80307,-0.404691 -2.4428,0.235029 -0.44287,0.442863 -0.69659,0.544721 -1.35684,0.544721 -0.44669,0 -0.76347,0.277996 -1.06832,0.435625 -0.46462,0.240271 -0.74001,0.702444 -0.74001,0.702444 -0.1633,0.309943 -0.26436,0.507555 -0.41818,0.507555 -0.47127,0 -0.92805,0.419077 -0.92805,0.71483 0,0.437344 0.72964,0.709374 2.23151,0.831968 0.72005,0.05877 1.61722,0.222457 1.99376,0.363743 1.02021,0.382827 2.81574,0.330881 3.67317,-0.106275 z"
     style="opacity:0.619;fill:#554949;fill-opacity:0.08235294;stroke-width:1" />
  <path
     id="path926-5-6"
     d="m 42.02909,17.27186 c 0.31822,-0.162226 0.86649,-0.294973 1.21841,-0.294973 1.62597,0 2.17332,-1.118213 0.81384,-1.662566 -0.30656,-0.122743 -0.68382,-0.363018 -0.83834,-0.533936 -0.19546,-0.216207 -0.45831,-0.310761 -0.86381,-0.310761 -0.45543,0 -0.26817,-0.0414 -0.49868,-0.219459 0,0 -0.39079,-0.304413 -0.59838,-0.413905 -0.74644,-0.397812 -1.46457,-0.328718 -1.9842,0.190907 -0.35972,0.359725 -0.5658,0.442459 -1.10212,0.442459 -0.36281,0 -0.62014,0.225807 -0.86774,0.353845 -0.37741,0.195162 -0.60109,0.570572 -0.60109,0.570572 -0.13273,0.251755 -0.21475,0.41227 -0.33969,0.41227 -0.38279,0 -0.75383,0.340402 -0.75383,0.580634 0,0.355239 0.59268,0.576202 1.8126,0.675778 0.58486,0.04776 1.31361,0.180693 1.61946,0.295457 0.8287,0.310959 2.28713,0.268764 2.98361,-0.08632 z"
     style="opacity:0.619;fill:#554949;fill-opacity:0.08235294;stroke-width:1" />
  <path
     id="path926-5-6-2"
     d="m 72.288996,16.757369 c -0.31822,-0.162226 -0.8665,-0.294973 -1.21841,-0.294973 -1.62597,0 -2.17332,-1.118213 -0.81384,-1.662566 0.30655,-0.122743 0.68382,-0.363018 0.83834,-0.533936 0.19546,-0.216207 0.45831,-0.310761 0.86381,-0.310761 0.45543,0 0.26817,-0.0414 0.49868,-0.219459 0,0 0.39079,-0.304413 0.59838,-0.413905 0.74644,-0.397812 1.46456,-0.328718 1.9842,0.190907 0.35972,0.359725 0.5658,0.442459 1.10212,0.442459 0.36281,0 0.62014,0.225807 0.86774,0.353845 0.37741,0.195162 0.60109,0.570571 0.60109,0.570571 0.13272,0.251756 0.21475,0.41227 0.33969,0.41227 0.38279,0 0.75383,0.340403 0.75383,0.580635 0,0.355239 -0.59268,0.576201 -1.81261,0.675778 -0.58485,0.04776 -1.31361,0.180693 -1.61945,0.295457 -0.8287,0.310959 -2.28713,0.268764 -2.98361,-0.08632 z"
     style="opacity:0.619;fill:#554949;fill-opacity:0.08235294;stroke-width:1" />
  <path
     style="fill:#999999;fill-opacity:0.99068627;stroke-width:0.99999994"
     d="m 75.427852,15.089238 c 0.01198,0 -0.0067,0.103447 -0.04138,0.229961 -0.07311,0.266324 -0.07932,0.703588 -0.01341,0.944128 0.02515,0.09179 0.204986,0.476543 0.399256,0.855245 0.464207,0.904896 0.558674,1.28839 0.596267,2.41949 0.02753,0.8286 0.05387,0.999901 0.190012,1.231966 0.12045,0.205321 0.257083,0.101925 0.391098,-0.296105 0.162384,-0.482306 0.173293,-0.703665 0.06994,-1.406633 -0.09364,-0.637015 -0.120144,-1.57692 -0.05945,-2.117183 l 0.03148,-0.276986 0.145715,0.56689 c 0.146745,0.570288 0.271822,0.852978 0.567123,1.278992 0.192436,0.277618 0.384612,0.787364 0.443556,1.177189 0.106406,0.703789 0.01913,1.862216 -0.222652,2.951757 -0.189447,0.853667 -0.155193,1.922806 0.06528,2.031402 0.194241,0.09568 0.582785,-0.362254 0.714586,-0.842328 l 0.06179,-0.225308 0.07693,0.35915 c 0.05633,0.263152 0.07733,0.534223 0.07868,1.011825 0.0017,0.580599 -0.01015,0.704231 -0.115406,1.123448 -0.196501,0.626252 -0.655815,1.117049 -1.228084,1.429885 l -1.436166,-4.480862 -1.453067,4.501018 c -0.650875,-0.383014 -1.159837,-1.081215 -1.313765,-2.162144 -0.01443,-0.703775 0.435752,-0.775759 0.565597,-1.392858 L 73.3894,21.253391 c 0.651798,1.562067 1.038427,1.6856 1.038427,1.6856 0.215698,0.378346 -0.295575,1.133731 -0.208242,0.930589 0.160602,-0.373573 0.106429,-1.369994 -0.138721,-2.550748 -0.19787,-0.952997 -0.216338,-1.523938 -0.08102,-2.510958 0.109034,-0.795284 0.123167,-1.133748 0.0612,-1.440739 -0.02181,-0.107781 -0.03429,-0.205607 -0.02798,-0.217557 0.0063,-0.01195 0.0686,0.03009 0.138138,0.09353 0.163406,0.149064 0.263068,0.522642 0.317658,1.192175 0.05461,0.669847 0.117689,0.958705 0.243636,1.114144 0.0934,0.11527 0.105368,0.11527 0.198754,0 0.05467,-0.06748 0.123298,-0.228697 0.152127,-0.358634 0.04718,-0.212712 0.04234,-0.293401 -0.04488,-0.80977 -0.181503,-1.074544 -0.187379,-2.21943 -0.01457,-2.746086 0.07001,-0.213357 0.315844,-0.545703 0.403921,-0.545703 z"
     id="path841-6"/>
  <path
     style="fill:#999999;fill-opacity:0.99215686;stroke-width:1"
     d="m 74.761218,27.448171 c 0.06435,-0.234434 0.09819,-0.164428 0.128278,-0.795792 0.01829,-0.38364 0.01648,-0.40165 -0.06226,-0.620839 -0.0446,-0.124158 -0.116777,-0.290709 -0.160398,-0.370118 -0.04362,-0.07941 -0.100584,-0.228843 -0.126592,-0.332077 -0.02601,-0.103234 -0.08372,-0.272158 -0.128245,-0.37539 -0.04452,-0.103234 -0.110386,-0.265662 -0.146347,-0.360953 -0.03596,-0.0953 -0.102081,-0.232024 -0.146935,-0.303851 -0.04485,-0.07182 -0.135965,-0.247248 -0.202481,-0.389829 -0.672541,-0.577461 -0.886992,-1.849756 -1.329155,-2.458499 0.0761,0.390383 0.154155,1.852325 0.293833,2.133762 0.86605,1.942128 -0.144412,0.240751 -0.747028,-0.701499 -0.126681,-0.198139 -0.616531,-0.978105 -0.632524,-1.086341 -0.02099,-0.142004 -0.09435,-0.149497 -0.09435,-0.0096 0,0.06229 0.01167,0.143088 0.02596,0.179569 0.01428,0.03648 0.04835,0.150794 0.07569,0.254027 0.07272,0.274469 0.183078,0.625046 0.259068,0.822972 0.03659,0.0953 0.08702,0.22793 0.112061,0.294753 0.02504,0.06683 0.0711,0.177274 0.102334,0.245448 0.03123,0.06817 0.10175,0.234405 0.15669,0.369401 0.110299,0.386319 0.265298,0.640475 -0.04108,0.593716 0,-0.01566 -0.147684,-0.05502 -0.225184,-0.169855 -0.09959,-0.147595 -0.155638,-0.26944 -0.191173,-0.415646 -0.02963,-0.121913 -0.06827,-0.213751 -0.09412,-0.223667 -0.03703,-0.0142 -0.04076,0.0047 -0.02399,0.120962 0.01091,0.07579 0.03786,0.267738 0.05988,0.426558 0.02201,0.158819 0.04898,0.330994 0.05995,0.38261 0.03168,0.149143 -0.02826,0.114596 -0.210705,-0.121444 -0.09153,-0.118414 -0.271035,-0.592334 -0.289036,-0.593041 -0.036,-0.0014 0.02303,0.465159 0.02111,0.577319 l -0.0012,0.07219 -0.08538,-0.09385 c -0.189128,-0.279441 -0.07916,-0.285638 -0.171243,0.01443 -0.02896,0.106202 -0.06088,0.134607 -0.304225,0.270669 -0.08444,0.04722 -0.09031,0.04601 -0.309537,-0.06422 -0.122902,-0.06179 -0.311568,-0.187225 -0.419257,-0.278737 -0.107685,-0.09152 -0.241277,-0.200438 -0.296864,-0.242056 -0.05559,-0.04162 -0.341462,-0.301598 -0.635277,-0.577728 -0.293815,-0.276131 -0.66778,-0.616601 -0.831033,-0.756602 -0.163251,-0.140001 -0.324875,-0.292493 -0.359164,-0.338869 -0.07581,-0.102537 -0.109233,-0.107051 -0.109233,-0.01473 0,0.05123 0.0797,0.143605 0.302029,0.350059 0.20059,0.18627 0.327769,0.33019 0.378671,0.428522 0.04215,0.08142 0.124272,0.219523 0.182475,0.306874 0.05821,0.08735 0.149419,0.243281 0.20269,0.346514 0.05327,0.103235 0.144375,0.24617 0.202448,0.317639 0.05806,0.07147 0.18092,0.240395 0.272993,0.375392 0.20183,0.295924 0.50904,0.689155 0.783232,1.002546 0.111172,0.127068 0.271768,0.314069 0.356876,0.415558 0.08511,0.101485 0.339822,0.379441 0.56603,0.617669 0.370635,0.39033 0.456833,0.463814 0.872055,0.743433 0.25342,0.170658 0.524977,0.331086 0.603457,0.356506 0.07848,0.02541 0.181672,0.0628 0.229318,0.08306 0.225894,0.09608 0.493841,0.160823 0.837412,0.20233 0.572076,0.115873 0.944065,0.113862 1.289465,-0.609256 z"
     id="path975"/>
  <path
     style="fill:#a7a7a7;fill-opacity:1;stroke-width:1"
     d="m 55.816224,25.455133 c 0.0087,-0.01422 0.08205,-0.04719 0.162771,-0.07323 0.08073,-0.02604 0.176374,-0.06593 0.212547,-0.08863 0.03618,-0.0227 0.18118,-0.08494 0.322238,-0.138308 0.514518,-0.194641 0.789898,-0.294979 0.836082,-0.304637 0.02598,-0.0054 0.139456,-0.04409 0.252186,-0.0859 0.112727,-0.04181 0.268009,-0.09801 0.345066,-0.124866 0.190188,-0.0663 1.422804,-0.691907 1.597175,-0.810639 0.07705,-0.05247 0.240977,-0.172805 0.364266,-0.267414 0.123292,-0.0946 0.268298,-0.198621 0.322238,-0.23114 0.05393,-0.03252 0.173197,-0.151409 0.265016,-0.264202 0.09182,-0.112788 0.222349,-0.263749 0.290066,-0.335457 0.06771,-0.07171 0.149974,-0.172584 0.18279,-0.224167 l 0.05967,-0.09379 0.02326,0.238177 c 0.03849,0.394179 0.05045,0.417699 0.157755,0.310392 0.04366,-0.04366 0.05678,-0.04632 0.06917,-0.01402 0.02296,0.05985 0.0946,0.048 0.140245,-0.02318 0.02223,-0.03468 0.04969,-0.138701 0.061,-0.231169 l 0.02059,-0.168124 0.07995,0.178489 c 0.04398,0.09817 0.08791,0.22826 0.09764,0.289092 0.02191,0.137074 0.08265,0.207172 0.138983,0.160419 0.02148,-0.01783 0.03907,-0.04905 0.03907,-0.06936 0,-0.07569 0.05512,-0.0673 0.0976,0.01487 0.04542,0.08782 0.09386,0.106475 0.144642,0.05569 0.03763,-0.03763 -0.03228,-0.459906 -0.08972,-0.5419 -0.02225,-0.03176 -0.04045,-0.07469 -0.04045,-0.0954 0,-0.02072 -0.03194,-0.07955 -0.071,-0.130755 -0.04383,-0.05747 -0.0773,-0.146284 -0.08746,-0.232079 -0.01626,-0.137199 -0.01461,-0.140937 0.128024,-0.290324 0.07947,-0.08323 0.208101,-0.245428 0.285852,-0.36043 l 0.141368,-0.209096 -0.0079,-0.421368 -0.0079,-0.421369 0.14791,-0.280206 c 0.119236,-0.225875 0.189601,-0.319823 0.362922,-0.484523 0.118251,-0.11237 0.289554,-0.250078 0.380664,-0.306006 0.187558,-0.115139 0.751212,-0.290022 0.864768,-0.268314 0.0716,0.01368 0.07205,0.01527 0.02957,0.104371 -0.04042,0.08477 -0.03918,0.09828 0.01969,0.214246 0.03457,0.06807 0.111546,0.19202 0.171082,0.275439 0.152274,0.213364 0.145081,0.234704 -0.08791,0.260794 -0.0401,0.0046 -0.07005,0.02582 -0.07005,0.04987 0,0.06169 0.271904,0.07465 0.321151,0.01532 0.0578,-0.06963 0.11317,-0.05227 0.11317,0.03548 0,0.051 -0.02967,0.107251 -0.08407,0.159355 -0.09663,0.09258 -0.111386,0.182135 -0.03001,0.182135 0.0515,0 0.188518,-0.169703 0.235139,-0.291223 0.03233,-0.08428 0.05105,-0.03497 0.05105,0.134441 0,0.136167 0.0071,0.156782 0.05403,0.156782 0.04889,0 0.05404,-0.02146 0.05404,-0.224794 V 19.959689 L 64.74723,19.82722 c -0.164535,-0.161515 -0.255267,-0.347649 -0.201212,-0.412782 0.05351,-0.06448 0.276964,-0.210047 0.322423,-0.210047 0.06819,0 0.484089,0.498641 0.593904,0.712054 0.06141,0.119347 0.449473,0.712219 0.533499,0.81507 0.158876,0.194464 0.675414,0.697909 0.796685,0.77649 0.115421,0.07479 0.135059,0.102317 0.163156,0.22869 0.09269,0.416919 0.128102,0.522729 0.262257,0.783823 0.0804,0.156488 0.174015,0.348295 0.208019,0.426242 0.07463,0.171061 0.206989,0.307524 0.273522,0.281992 0.03066,-0.01181 0.04016,-0.03458 0.02776,-0.06668 -0.01034,-0.02684 -0.03066,-0.11184 -0.04511,-0.188902 -0.01445,-0.07705 -0.06632,-0.259891 -0.115286,-0.406299 -0.06968,-0.208343 -0.08943,-0.315922 -0.0909,-0.494998 -0.0011,-0.125841 0.0062,-0.236869 0.01603,-0.24673 0.03391,-0.03399 0.430916,0.263841 0.641865,0.48152 0.239354,0.24699 0.392606,0.449547 0.456567,0.603461 0.05126,0.123346 0.130799,0.13935 0.18541,0.03731 0.05029,-0.09397 0.01442,-0.352776 -0.07122,-0.513846 -0.03721,-0.06999 -0.06765,-0.151395 -0.06765,-0.180911 0,-0.07233 -0.111422,-0.296648 -0.282341,-0.568453 -0.07753,-0.12329 -0.172065,-0.284133 -0.210075,-0.35743 -0.03801,-0.0733 -0.118608,-0.198664 -0.179106,-0.278596 -0.0605,-0.07993 -0.188296,-0.291061 -0.283996,-0.469178 -0.0957,-0.178116 -0.187803,-0.341183 -0.204677,-0.362371 -0.01687,-0.02119 -0.05062,-0.09684 -0.07499,-0.168124 -0.03212,-0.09394 -0.06103,-0.132063 -0.105073,-0.138554 -0.06726,-0.01 -0.07231,0.01365 -0.03486,0.163068 0.0471,0.187951 0.256112,0.756436 0.314506,0.855405 0.03235,0.05483 0.0515,0.107017 0.04254,0.115963 -0.03358,0.03357 -0.102132,-0.01944 -0.15825,-0.122386 -0.03191,-0.05855 -0.113809,-0.194708 -0.181982,-0.302588 -0.06817,-0.107878 -0.183564,-0.32993 -0.256421,-0.493447 -0.101049,-0.226784 -0.143311,-0.294466 -0.178188,-0.285345 -0.06571,0.01718 -0.03149,0.262977 0.0807,0.579677 0.04856,0.137069 0.08292,0.254578 0.07636,0.261133 -0.06423,0.06423 -0.299732,-0.358476 -0.338966,-0.60842 -0.03634,-0.231514 -0.224037,-0.91227 -0.266541,-0.96671 -0.01206,-0.01542 -0.08045,-0.139628 -0.15205,-0.276036 -0.08012,-0.152637 -0.218742,-0.349662 -0.360482,-0.512337 -0.126671,-0.145378 -0.234551,-0.276612 -0.239733,-0.291633 -0.0052,-0.01503 0.03778,-0.06818 0.09546,-0.118129 0.05769,-0.04995 0.237365,-0.207942 0.399286,-0.351096 0.284933,-0.251909 0.397164,-0.334088 1.055811,-0.773107 0.526329,-0.35082 1.517789,-0.912187 1.763665,-0.998588 0.07795,-0.02739 0.163461,-0.05862 0.190011,-0.0694 0.02767,-0.0112 0.05559,-0.06327 0.06543,-0.121968 0.03624,-0.216286 0.387883,-1.204145 0.614224,-1.725528 0.06739,-0.155235 0.218171,-0.539805 0.33507,-0.8546 0.116898,-0.314794 0.242754,-0.636332 0.279676,-0.714526 0.03693,-0.0782 0.126532,-0.3187 0.199129,-0.534459 0.0726,-0.21576 0.18268,-0.5024 0.24463,-0.63698 0.09304,-0.202121 0.1065,-0.252089 0.07735,-0.287212 -0.05471,-0.06592 -0.09218,-0.05267 -0.255872,0.09058 -0.225622,0.19743 -0.850068,0.558987 -1.07801,0.624173 -0.472572,0.135144 -0.740385,0.174935 -1.062287,0.157829 -0.169524,-0.009 -0.353345,-0.02445 -0.408492,-0.03431 l -0.100261,-0.01793 -0.08187,0.21573 c -0.05502,0.144967 -0.129796,0.272291 -0.227983,0.388169 -0.08036,0.09485 -0.216276,0.263398 -0.302028,0.374572 -0.08575,0.111176 -0.234359,0.262362 -0.330236,0.335977 -0.09588,0.07362 -0.218454,0.172979 -0.272395,0.220807 -0.142816,0.126635 -0.256112,0.159256 -0.616453,0.177483 l -0.322236,0.0163 -0.01541,0.490362 c -0.01377,0.438506 -0.02297,0.509621 -0.08702,0.672493 -0.03939,0.100175 -0.111595,0.284646 -0.160467,0.409939 -0.07191,0.184362 -0.117784,0.255164 -0.240549,0.371273 -0.08343,0.07891 -0.164387,0.143468 -0.179895,0.143468 -0.0155,0 -0.103498,0.04414 -0.195532,0.09807 -0.09203,0.05393 -0.186054,0.09807 -0.208934,0.09807 -0.03524,0 -0.41131,0.579747 -0.41131,0.634066 0,0.03908 -0.263808,0.32474 -0.31862,0.345016 -0.05129,0.01897 -0.07154,-0.0068 -0.178632,-0.227539 -0.121266,-0.249913 -0.176949,-0.480016 -0.215784,-0.891647 -0.0095,-0.100176 -0.02932,-0.283008 -0.04415,-0.406298 -0.01483,-0.123291 -0.03253,-0.331345 -0.03934,-0.462342 -0.0068,-0.130996 -0.02616,-0.34179 -0.04301,-0.46843 -0.05929,-0.445606 -0.07917,-0.880562 -0.05436,-1.189057 0.01709,-0.212626 0.01537,-0.32738 -0.0055,-0.369271 -0.0167,-0.03342 -0.133227,-0.161651 -0.258963,-0.284941 -0.276228,-0.270859 -0.503626,-0.514883 -0.74699,-0.801606 -0.100176,-0.118017 -0.333745,-0.389437 -0.519048,-0.603149 -0.185303,-0.21371 -0.418575,-0.495485 -0.518381,-0.626165 C 61.198569,9.9761241 60.890528,9.6015191 60.725243,9.4251806 60.6458,9.3404206 60.473686,9.1523244 60.342766,9.0071974 60.211844,8.8620717 60.057572,8.7090743 59.999939,8.6672015 59.896982,8.5924114 59.83967,8.5440759 59.36218,8.1294596 59.027888,7.8391871 58.970572,7.7892175 58.655106,7.513022 58.498916,7.3762772 58.29694,7.229494 58.197826,7.1806995 58.100185,7.132636 57.997534,7.067936 57.969709,7.0369371 57.868352,6.9240014 57.60087,6.7632186 57.514358,6.7632186 c -0.04708,0 -0.08559,0.013683 -0.08559,0.030418 0,0.016723 0.04433,0.1203926 0.09851,0.2303727 0.103473,0.210051 0.177226,0.524792 0.296717,1.2663351 0.05335,0.3311388 0.06352,0.5058521 0.06517,1.1208242 0.0018,0.6875314 -0.0018,0.7416374 -0.06497,0.9613194 -0.07917,0.275409 -0.0986,0.219528 0.264783,0.76152 0.139895,0.208654 0.323982,0.530829 0.409961,0.717484 0.145227,0.315271 0.157445,0.358177 0.176066,0.618345 0.01392,0.194443 0.0095,0.314795 -0.01466,0.395261 l -0.03466,0.115692 0.269694,0.400796 c 0.163141,0.242447 0.307616,0.494898 0.365679,0.638973 0.05279,0.130996 0.142314,0.33905 0.198941,0.46234 0.05663,0.123291 0.132281,0.318735 0.168126,0.43432 0.224182,0.722941 0.24351,0.801386 0.247915,1.00625 l 0.0046,0.210797 0.137287,0.03876 c 0.214076,0.06044 0.617592,0.398066 0.864746,0.723534 0.375409,0.494364 0.445704,0.618339 0.544821,0.960855 0.03822,0.132077 0.08244,0.255859 0.09828,0.27507 0.04238,0.05142 -0.02272,0.281149 -0.113121,0.399172 -0.10052,0.131236 -0.494353,0.939233 -0.594224,1.219114 -0.190967,0.535178 -0.2578,0.703117 -0.387518,0.973779 -0.07569,0.157932 -0.198061,0.419547 -0.271932,0.581366 -0.16186,0.354565 -0.473507,0.941855 -0.602203,1.134836 -0.05139,0.07705 -0.185868,0.264503 -0.298843,0.416546 -0.112973,0.152045 -0.217526,0.299088 -0.232337,0.326764 -0.03887,0.07264 -0.914301,0.783253 -1.068228,0.867122 -0.689637,0.375763 -0.79477,0.436448 -1.789466,1.032929 -0.337502,0.202386 -0.504371,0.326154 -0.504371,0.374096 0,0.03149 0.133082,0.02878 0.15279,-0.0031 z"
     id="path971"/>
</svg>
