<svg
   width="96.016563mm"
   height="47.351604mm"
   viewBox="0 0 96.016563 47.351604"
   version="1.1"
   id="svg8">
  <defs
     id="defs2">
    <linearGradient
       id="linearGradient861"
       x1="50%" y1="-150%" x2="50%" y2="80%"
       >
      <stop
         style="stop-color:#cccccc;stop-opacity:60%"
         offset="0"
         
         id="stop857" />
      <stop
         style="stop-color:#49453a;stop-opacity:0%"
         offset="1"
         id="stop859" />
    </linearGradient>
  </defs>
  <g
     id="layer1"
     transform="translate(-54.574574,-5.6284509)">
    <path
       style="fill:url(#linearGradient861);fill-opacity:1;stroke:none;stroke-width:0.26458332px;stroke-linecap:butt;stroke-linejoin:miter;stroke-opacity:1"
       d="m 54.574574,52.980055 c 27.09531,-23.779155 70.432936,-22.407485 96.016566,0"
       id="path855"/>
    <path
       style="fill:#d3d3d3;fill-opacity:1;stroke:none;stroke-width:0.26458332px;stroke-linecap:butt;stroke-linejoin:miter;stroke-opacity:1"
       d="m 68.680634,43.497472 v -1.647043 h -1.55329 l 2.14583,-7.891773 2.11461,7.891773 h -1.42016 v 1.099967 z"
       id="path865"/>
    <path
       style="fill:#d3d3d3;fill-opacity:1;stroke:none;stroke-width:0.26458332px;stroke-linecap:butt;stroke-linejoin:miter;stroke-opacity:1"
       d="M 129.95531,40.846679 V 39.34811 h -1.98162 l 2.73755,-10.067967 2.69772,10.067967 h -1.81176 v 2.254086 z"
       id="path865-5"/>
    <path
       style="fill:#554949;fill-opacity:0.08235294;stroke-width:1;opacity:0.619"
       d="m 76.539534,30.637716 c -0.44292,-0.225813 -1.20608,-0.410573 -1.69589,-0.410573 -2.26319,0 -3.02507,-1.556445 -1.13278,-2.31413 0.42669,-0.170852 0.95179,-0.505287 1.16689,-0.74319 0.27205,-0.300937 0.63791,-0.432547 1.20234,-0.432547 0.6339,0 0.37326,-0.05764 0.69409,-0.305467 0,0 0.54396,-0.423712 0.83289,-0.576116 1.03897,-0.553713 2.03854,-0.457542 2.76182,0.265724 0.5007,0.500699 0.78755,0.615859 1.53404,0.615859 0.50501,0 0.86319,0.314301 1.20783,0.492517 0.5253,0.271649 0.83666,0.79418 0.83666,0.79418 0.18467,0.35042 0.29888,0.57384 0.47279,0.57384 0.53281,0 1.04925,0.473808 1.04925,0.808186 0,0.494459 -0.82493,0.802016 -2.52295,0.940619 -0.81407,0.06646 -1.82842,0.25151 -2.25413,0.411247 -1.15346,0.432823 -3.18345,0.374094 -4.15289,-0.120155 z"
       id="path926"/>
    <path
       style="fill:#554949;fill-opacity:0.08235294;stroke-width:1;opacity:0.619"
       d="m 121.11827,29.31089 c 0.39176,-0.199729 1.06676,-0.363147 1.49999,-0.363147 2.00176,0 2.67565,-1.376658 1.00194,-2.046822 -0.3774,-0.15111 -0.84185,-0.44692 -1.03211,-0.657342 -0.24062,-0.266176 -0.56421,-0.382583 -1.06344,-0.382583 -0.56068,0 -0.33015,-0.05097 -0.61393,-0.270183 0,0 -0.48113,-0.374767 -0.73667,-0.509567 -0.91896,-0.489754 -1.80307,-0.404691 -2.4428,0.235029 -0.44287,0.442863 -0.69659,0.544721 -1.35684,0.544721 -0.44669,0 -0.76347,0.277996 -1.06832,0.435625 -0.46462,0.240271 -0.74001,0.702444 -0.74001,0.702444 -0.1633,0.309943 -0.26436,0.507555 -0.41818,0.507555 -0.47127,0 -0.92805,0.419077 -0.92805,0.71483 0,0.437344 0.72964,0.709374 2.23151,0.831968 0.72005,0.05877 1.61722,0.222457 1.99376,0.363743 1.02021,0.382827 2.81574,0.330881 3.67317,-0.106275 z"
       id="path926-5"/>
    <path
       style="fill:#554949;fill-opacity:0.08235294;stroke-width:1;opacity:0.619"
       d="m 96.603664,22.900311 c 0.31822,-0.162226 0.86649,-0.294973 1.21841,-0.294973 1.62597,0 2.17332,-1.118213 0.81384,-1.662566 -0.30656,-0.122743 -0.68382,-0.363018 -0.83834,-0.533936 -0.19546,-0.216207 -0.45831,-0.310761 -0.86381,-0.310761 -0.45543,0 -0.26817,-0.0414 -0.49868,-0.219459 0,0 -0.39079,-0.304413 -0.59838,-0.413905 -0.74644,-0.397812 -1.46457,-0.328718 -1.9842,0.190907 -0.35972,0.359725 -0.5658,0.442459 -1.10212,0.442459 -0.36281,0 -0.62014,0.225807 -0.86774,0.353845 -0.37741,0.195162 -0.60109,0.570572 -0.60109,0.570572 -0.13273,0.251755 -0.21475,0.41227 -0.33969,0.41227 -0.38279,0 -0.75383,0.340402 -0.75383,0.580634 0,0.355239 0.59268,0.576202 1.8126,0.675778 0.58486,0.04776 1.31361,0.180693 1.61946,0.295457 0.8287,0.310959 2.28713,0.268764 2.98361,-0.08632 z"
       id="path926-5-6"/>
    <path
       style="fill:#554949;fill-opacity:0.08235294;stroke-width:1;opacity:0.619"
       d="m 126.86357,22.38582 c -0.31822,-0.162226 -0.8665,-0.294973 -1.21841,-0.294973 -1.62597,0 -2.17332,-1.118213 -0.81384,-1.662566 0.30655,-0.122743 0.68382,-0.363018 0.83834,-0.533936 0.19546,-0.216207 0.45831,-0.310761 0.86381,-0.310761 0.45543,0 0.26817,-0.0414 0.49868,-0.219459 0,0 0.39079,-0.304413 0.59838,-0.413905 0.74644,-0.397812 1.46456,-0.328718 1.9842,0.190907 0.35972,0.359725 0.5658,0.442459 1.10212,0.442459 0.36281,0 0.62014,0.225807 0.86774,0.353845 0.37741,0.195162 0.60109,0.570571 0.60109,0.570571 0.13272,0.251756 0.21475,0.41227 0.33969,0.41227 0.38279,0 0.75383,0.340403 0.75383,0.580635 0,0.355239 -0.59268,0.576201 -1.81261,0.675778 -0.58485,0.04776 -1.31361,0.180693 -1.61945,0.295457 -0.8287,0.310959 -2.28713,0.268764 -2.98361,-0.08632 z"
       id="path926-5-6-2"/>
    <path
       style="fill:#bcbcbc;fill-opacity:1;stroke-width:1"
       d="m 113.20534,21.137938 c 0.11292,-0.07016 0.18585,-0.159639 0.22198,-0.272287 0.0365,-0.113902 0.028,-0.149033 -0.10037,-0.414219 -0.0812,-0.167872 -0.0953,-0.223672 -0.0953,-0.376814 1.6e-4,-0.162284 0.008,-0.185653 0.0706,-0.240331 0.0388,-0.03331 0.15095,-0.08726 0.24942,-0.119861 0.28913,-0.09577 0.38037,-0.141877 0.54254,-0.274191 l 0.1533,-0.125096 0.0761,0.09224 c 0.0418,0.05074 0.10684,0.09996 0.14448,0.109392 0.0633,0.01588 0.0671,0.02474 0.0508,0.121214 -0.0118,0.07132 -0.008,0.10406 0.0137,0.10406 0.0196,0 0.0237,0.02153 0.0118,0.05911 -0.0157,0.05385 -0.01,0.05211 0.0665,-0.0197 0.0845,-0.07871 0.0845,-0.07908 0.0672,-0.273946 -0.0118,-0.133623 -0.0343,-0.219088 -0.0714,-0.271155 l -0.0541,-0.07603 0.0886,-0.08593 c 0.0486,-0.04725 0.11076,-0.118705 0.13801,-0.158776 0.0476,-0.07016 0.0553,-0.0722 0.20797,-0.05493 0.0872,0.0098 0.29151,0.06344 0.45409,0.119057 0.16252,0.05562 0.30248,0.09422 0.31093,0.08579 0.008,-0.0084 0.0157,-0.06697 0.0157,-0.130036 0,-0.165696 0.0568,-0.278988 0.2535,-0.504479 0.20252,-0.232328 0.33245,-0.3574 0.44275,-0.426195 0.0986,-0.06148 0.33431,-0.06548 0.54996,-0.0092 0.0845,0.02204 0.15703,0.03678 0.16095,0.03278 0.004,-0.0039 -0.0514,-0.125468 -0.12292,-0.269942 -0.15977,-0.322588 -0.20043,-0.514932 -0.15526,-0.735589 0.028,-0.136819 0.0502,-0.174989 0.1684,-0.289008 0.21914,-0.211592 0.71681,-0.431884 1.09792,-0.486 0.25458,-0.03615 0.38966,-0.07436 0.38966,-0.110255 0,-0.04111 -0.63946,-0.0098 -0.90031,0.04409 -0.11136,0.023 -0.34151,0.08995 -0.51152,0.148798 -0.16997,0.05885 -0.3422,0.113038 -0.38264,0.12041 -0.0684,0.01255 -0.0723,0.0084 -0.0563,-0.05542 0.01,-0.04086 0.006,-0.06885 -0.01,-0.06885 -0.0494,0 -0.29204,0.296376 -0.37744,0.461092 -0.0753,0.145092 -0.10763,0.177067 -0.30383,0.300235 -0.23478,0.147366 -0.28012,0.197585 -0.309,0.342157 -0.01,0.05119 -0.0618,0.138544 -0.11626,0.19705 -0.17585,0.189084 -0.23666,0.276676 -0.26514,0.382504 -0.0157,0.05732 -0.0616,0.142504 -0.10234,0.18928 -0.0408,0.04678 -0.10018,0.136172 -0.13174,0.198663 l -0.0576,0.113627 -0.10527,-0.119645 c -0.11606,-0.131957 -0.25419,-0.239807 -0.27735,-0.216668 -0.008,0.0082 0.01,0.05744 0.041,0.109471 0.0306,0.05201 0.0559,0.0982 0.0559,0.102609 0,0.0045 -0.0906,0.02264 -0.20116,0.04048 -0.18193,0.02935 -0.23249,0.0267 -0.52891,-0.02766 l -0.32772,-0.06011 -0.0388,-0.09353 c -0.0974,-0.234474 -0.65175,-1.349535 -0.763,-1.534902 l -0.1239,-0.206516 -0.38095,-0.190927 c -0.50621,-0.253685 -0.95701,-0.458429 -1.10843,-0.503417 -0.19838,-0.05893 -0.86799,-0.196024 -0.8832,-0.180811 -0.0231,0.02317 -0.006,0.0309 0.38895,0.172009 0.63028,0.225352 0.99653,0.448581 1.0454,0.637179 0.03,0.115587 -0.008,0.39166 -0.0721,0.51613 -0.0296,0.05791 -0.0537,0.110549 -0.0537,0.116979 0,0.0065 0.0714,0.0053 0.15841,-0.0027 0.325,-0.02946 0.64818,0.122273 0.71165,0.334173 0.0269,0.08938 0.0235,0.115214 -0.0263,0.210672 -0.0312,0.05983 -0.10547,0.174812 -0.16506,0.2555 -0.099,0.134035 -0.10293,0.145131 -0.0455,0.128467 0.19409,-0.05619 0.22732,-0.05226 0.27088,0.03199 0.028,0.05425 0.0416,0.15062 0.0416,0.294888 0,0.194005 0.004,0.212457 0.0461,0.194809 0.16487,-0.06989 0.24876,-0.08904 0.39456,-0.09006 0.1582,-0.0011 0.52624,0.06538 0.81252,0.146817 l 0.13645,0.03882 -0.0763,0.120214 c -0.042,0.06613 -0.0835,0.169245 -0.0925,0.229171 -0.0137,0.09822 -0.0322,0.119234 -0.17722,0.21317 -0.4026,0.26068 -0.60566,0.542232 -0.60599,0.840212 -1.4e-4,0.123919 0.0206,0.206036 0.0972,0.383869 0.14291,0.331757 0.1535,0.380707 0.10684,0.492468 -0.0653,0.156443 -0.13605,0.214011 -0.26293,0.214011 -0.14625,0 -0.32552,-0.07879 -0.4114,-0.18089 -0.0678,-0.08049 -0.12488,-0.106334 -0.12488,-0.0565 0,0.04846 0.16644,0.214499 0.26577,0.265196 0.13116,0.06695 0.35051,0.06783 0.45675,0.0019 z"
       id="path1020"/>
    <path
       style="fill:none;stroke:#999999;stroke-width:0.165;stroke-linecap:butt;stroke-linejoin:miter;stroke-miterlimit:4;stroke-dasharray:0.495, 0.49500000000000000;stroke-dashoffset:0;stroke-opacity:1;opacity:0.735"
       d="m 113.06204,21.478344 c -1.55526,6.401214 -11.06585,9.735803 -8.56782,6.668986 1.00388,-1.232466 1.61772,0.729378 0.85409,1.808258 -1.35953,1.920765 -4.9206,4.833881 -5.16668,9.203577"
       id="path1104"/>
  </g>
</svg>
