<?xml version="1.0" encoding="UTF-8" standalone="no"?>
<svg
   width="96.016563mm"
   height="47.351604mm"
   viewBox="0 0 96.016563 47.351604"
   version="1.1"
   id="svg8">
  <defs
     id="defs2">
    <linearGradient
       id="linearGradient861"
       x1="43.573594"
       y1="22.7668"
       x2="43.573594"
       y2="116.57107"
       gradientTransform="matrix(2.3542437,0,0,0.42476487,-54.574574,-5.6284509)"
       gradientUnits="userSpaceOnUse">
      <stop
         style="stop-color:#cccccc;stop-opacity:60%"
         offset="0"
         id="stop857" />
      <stop
         style="stop-color:#49453a;stop-opacity:0%"
         offset="1"
         id="stop859" />
    </linearGradient>
    <linearGradient
       y2="116.57107"
       x2="43.573594"
       y1="22.7668"
       x1="43.573594"
       id="linearGradient861-2"
       gradientTransform="scale(2.3542437,0.42476487)"
       gradientUnits="userSpaceOnUse">
      <stop
         id="stop857-9"
         offset="0"
         style="stop-color:#cccccc;stop-opacity:60%" />
      <stop
         id="stop859-1"
         offset="1"
         style="stop-color:#49453a;stop-opacity:0%" />
    </linearGradient>
  </defs>
  <path
     id="path855"
     d="m 0,47.351604 c 27.09531,-23.779155 70.432936,-22.407485 96.016566,0"
     style="fill:url(#linearGradient861);fill-opacity:1;stroke:none;stroke-width:0.26458332px;stroke-linecap:butt;stroke-linejoin:miter;stroke-opacity:1" />
  <path
     id="path865"
     d="m 14.10606,37.869021 v -1.647043 h -1.55329 l 2.14583,-7.891773 2.11461,7.891773 h -1.42016 v 1.099967 z"
     style="fill:#d3d3d3;fill-opacity:1;stroke:none;stroke-width:0.26458332px;stroke-linecap:butt;stroke-linejoin:miter;stroke-opacity:1" />
  <path
     id="path865-5"
     d="m 75.380736,35.218228 v -1.498569 h -1.98162 l 2.73755,-10.067967 2.69772,10.067967 h -1.81176 v 2.254086 z"
     style="fill:#d3d3d3;fill-opacity:1;stroke:none;stroke-width:0.26458332px;stroke-linecap:butt;stroke-linejoin:miter;stroke-opacity:1" />
  <path
     id="path926"
     d="m 21.96496,25.009265 c -0.44292,-0.225813 -1.20608,-0.410573 -1.69589,-0.410573 -2.26319,0 -3.02507,-1.556445 -1.13278,-2.31413 0.42669,-0.170852 0.95179,-0.505287 1.16689,-0.74319 0.27205,-0.300937 0.63791,-0.432547 1.20234,-0.432547 0.6339,0 0.37326,-0.05764 0.69409,-0.305467 0,0 0.54396,-0.423712 0.83289,-0.576116 1.03897,-0.553713 2.03854,-0.457542 2.76182,0.265724 0.5007,0.500699 0.78755,0.615859 1.53404,0.615859 0.50501,0 0.86319,0.314301 1.20783,0.492517 0.5253,0.271649 0.83666,0.79418 0.83666,0.79418 0.18467,0.35042 0.29888,0.57384 0.47279,0.57384 0.53281,0 1.04925,0.473808 1.04925,0.808186 0,0.494459 -0.82493,0.802016 -2.52295,0.940619 -0.81407,0.06646 -1.82842,0.25151 -2.25413,0.411247 -1.15346,0.432823 -3.18345,0.374094 -4.15289,-0.120155 z"
     style="opacity:0.619;fill:#554949;fill-opacity:0.08235294;stroke-width:1" />
  <path
     id="path926-5"
     d="m 55.665415,23.682439 c 0.39176,-0.199729 1.06676,-0.363147 1.49999,-0.363147 2.00176,0 2.67565,-1.376658 1.00194,-2.046822 -0.3774,-0.15111 -0.84185,-0.44692 -1.03211,-0.657342 -0.24062,-0.266176 -0.56421,-0.382583 -1.06344,-0.382583 -0.56068,0 -0.33015,-0.05097 -0.61393,-0.270183 0,0 -0.48113,-0.374767 -0.73667,-0.509567 -0.91896,-0.489754 -1.80307,-0.404691 -2.4428,0.235029 -0.44287,0.442863 -0.69659,0.544721 -1.35684,0.544721 -0.44669,0 -0.76347,0.277996 -1.06832,0.435625 -0.46462,0.240271 -0.74001,0.702444 -0.74001,0.702444 -0.1633,0.309943 -0.26436,0.507555 -0.41818,0.507555 -0.47127,0 -0.92805,0.419077 -0.92805,0.71483 0,0.437344 0.72964,0.709374 2.23151,0.831968 0.72005,0.05877 1.61722,0.222457 1.99376,0.363743 1.02021,0.382827 2.81574,0.330881 3.67317,-0.106275 z"
     style="opacity:0.619;fill:#554949;fill-opacity:0.08235294;stroke-width:1" />
  <path
     id="path926-5-6"
     d="m 42.02909,17.27186 c 0.31822,-0.162226 0.86649,-0.294973 1.21841,-0.294973 1.62597,0 2.17332,-1.118213 0.81384,-1.662566 -0.30656,-0.122743 -0.68382,-0.363018 -0.83834,-0.533936 -0.19546,-0.216207 -0.45831,-0.310761 -0.86381,-0.310761 -0.45543,0 -0.26817,-0.0414 -0.49868,-0.219459 0,0 -0.39079,-0.304413 -0.59838,-0.413905 -0.74644,-0.397812 -1.46457,-0.328718 -1.9842,0.190907 -0.35972,0.359725 -0.5658,0.442459 -1.10212,0.442459 -0.36281,0 -0.62014,0.225807 -0.86774,0.353845 -0.37741,0.195162 -0.60109,0.570572 -0.60109,0.570572 -0.13273,0.251755 -0.21475,0.41227 -0.33969,0.41227 -0.38279,0 -0.75383,0.340402 -0.75383,0.580634 0,0.355239 0.59268,0.576202 1.8126,0.675778 0.58486,0.04776 1.31361,0.180693 1.61946,0.295457 0.8287,0.310959 2.28713,0.268764 2.98361,-0.08632 z"
     style="opacity:0.619;fill:#554949;fill-opacity:0.08235294;stroke-width:1" />
  <path
     id="path926-5-6-2"
     d="m 72.288996,16.757369 c -0.31822,-0.162226 -0.8665,-0.294973 -1.21841,-0.294973 -1.62597,0 -2.17332,-1.118213 -0.81384,-1.662566 0.30655,-0.122743 0.68382,-0.363018 0.83834,-0.533936 0.19546,-0.216207 0.45831,-0.310761 0.86381,-0.310761 0.45543,0 0.26817,-0.0414 0.49868,-0.219459 0,0 0.39079,-0.304413 0.59838,-0.413905 0.74644,-0.397812 1.46456,-0.328718 1.9842,0.190907 0.35972,0.359725 0.5658,0.442459 1.10212,0.442459 0.36281,0 0.62014,0.225807 0.86774,0.353845 0.37741,0.195162 0.60109,0.570571 0.60109,0.570571 0.13272,0.251756 0.21475,0.41227 0.33969,0.41227 0.38279,0 0.75383,0.340403 0.75383,0.580635 0,0.355239 -0.59268,0.576201 -1.81261,0.675778 -0.58485,0.04776 -1.31361,0.180693 -1.61945,0.295457 -0.8287,0.310959 -2.28713,0.268764 -2.98361,-0.08632 z"
     style="opacity:0.619;fill:#554949;fill-opacity:0.08235294;stroke-width:1" />
  <path
     style="fill:#a7a7a7;fill-opacity:1;stroke-width:1"
     d="m 41.062737,27.777738 c 0.0087,-0.01422 0.08205,-0.04719 0.162771,-0.07323 0.08073,-0.02604 0.176374,-0.06593 0.212547,-0.08863 0.03618,-0.0227 0.18118,-0.08494 0.322238,-0.138308 0.514518,-0.194641 0.789898,-0.294979 0.836082,-0.304637 0.02598,-0.0054 0.139456,-0.04409 0.252186,-0.0859 0.112727,-0.04181 0.268009,-0.09801 0.345066,-0.124866 0.190188,-0.0663 1.422804,-0.691907 1.597175,-0.810639 0.07705,-0.05247 0.240977,-0.172805 0.364266,-0.267414 0.123292,-0.0946 0.268298,-0.198621 0.322238,-0.23114 0.05393,-0.03252 0.173197,-0.151409 0.265016,-0.264202 0.09182,-0.112788 0.222349,-0.263749 0.290066,-0.335457 0.06771,-0.07171 0.149974,-0.172584 0.18279,-0.224167 l 0.05967,-0.09379 0.02326,0.238177 c 0.03849,0.394179 0.05045,0.417699 0.157755,0.310392 0.04366,-0.04366 0.05678,-0.04632 0.06917,-0.01402 0.02296,0.05985 0.0946,0.048 0.140245,-0.02318 0.02223,-0.03468 0.04969,-0.138701 0.061,-0.231169 l 0.02059,-0.168124 0.07995,0.178489 c 0.04398,0.09817 0.08791,0.22826 0.09764,0.289092 0.02191,0.137074 0.08265,0.207172 0.138983,0.160419 0.02148,-0.01783 0.03907,-0.04905 0.03907,-0.06936 0,-0.07569 0.05512,-0.0673 0.0976,0.01487 0.04542,0.08782 0.09386,0.106475 0.144642,0.05569 0.03763,-0.03763 -0.03228,-0.459906 -0.08972,-0.5419 -0.02225,-0.03176 -0.04045,-0.07469 -0.04045,-0.0954 0,-0.02072 -0.03194,-0.07955 -0.071,-0.130755 -0.04383,-0.05747 -0.0773,-0.146284 -0.08746,-0.232079 -0.01626,-0.137199 -0.01461,-0.140937 0.128024,-0.290324 0.07947,-0.08323 0.208101,-0.245428 0.285852,-0.36043 l 0.141368,-0.209096 -0.0079,-0.421368 -0.0079,-0.421369 0.14791,-0.280206 c 0.119236,-0.225875 0.189601,-0.319823 0.362922,-0.484523 0.118251,-0.11237 0.289554,-0.250078 0.380664,-0.306006 0.187558,-0.115139 0.751212,-0.290022 0.864768,-0.268314 0.0716,0.01368 0.07205,0.01527 0.02957,0.104371 -0.04042,0.08477 -0.03918,0.09828 0.01969,0.214246 0.03457,0.06807 0.111546,0.19202 0.171082,0.275439 0.152274,0.213364 0.145081,0.234704 -0.08791,0.260794 -0.0401,0.0046 -0.07005,0.02582 -0.07005,0.04987 0,0.06169 0.271904,0.07465 0.321151,0.01532 0.0578,-0.06963 0.11317,-0.05227 0.11317,0.03548 0,0.051 -0.02967,0.107251 -0.08407,0.159355 -0.09663,0.09258 -0.111386,0.182135 -0.03001,0.182135 0.0515,0 0.188518,-0.169703 0.235139,-0.291223 0.03233,-0.08428 0.05105,-0.03497 0.05105,0.134441 0,0.136167 0.0071,0.156782 0.05403,0.156782 0.04889,0 0.05404,-0.02146 0.05404,-0.224794 v -0.224786 l -0.13497,-0.132469 c -0.164535,-0.161515 -0.255267,-0.347649 -0.201212,-0.412782 0.05351,-0.06448 0.276964,-0.210047 0.322423,-0.210047 0.06819,0 0.484089,0.498641 0.593904,0.712054 0.06141,0.119347 0.449473,0.712219 0.533499,0.81507 0.158876,0.194464 0.675414,0.697909 0.796685,0.77649 0.115421,0.07479 0.135059,0.102317 0.163156,0.22869 0.09269,0.416919 0.128102,0.522729 0.262257,0.783823 0.0804,0.156488 0.174015,0.348295 0.208019,0.426242 0.07463,0.171061 0.206989,0.307524 0.273522,0.281992 0.594215,0.349456 0.959946,-0.08684 1.076336,-0.281318 0.05029,-0.09397 0.01442,-0.352776 -0.07122,-0.513846 -0.03721,-0.06999 -0.06765,-0.151395 -0.06765,-0.180911 0,-0.07233 -0.111422,-0.296648 -0.282341,-0.568453 -0.07753,-0.12329 -0.172065,-0.284133 -0.210075,-0.35743 -0.03801,-0.0733 -0.118608,-0.198664 -0.179106,-0.278596 -0.0605,-0.07993 -0.188296,-0.291061 -0.283996,-0.469178 -0.0957,-0.178116 -0.187803,-0.341183 -0.204677,-0.362371 -0.01687,-0.02119 -0.05062,-0.09684 -0.07499,-0.168124 -0.03212,-0.09394 -0.06103,-0.132063 -0.105073,-0.138554 -0.06726,-0.01 -0.07231,0.01365 -0.03486,0.163068 0.0471,0.187951 0.256112,0.756436 0.314506,0.855405 0.03235,0.05483 0.0515,0.107017 0.04254,0.115963 -0.03358,0.03357 -0.102132,-0.01944 -0.15825,-0.122386 -0.03191,-0.05855 -0.113809,-0.194708 -0.181982,-0.302588 -0.06817,-0.107878 -0.183564,-0.32993 -0.256421,-0.493447 -0.101049,-0.226784 -0.143311,-0.294466 -0.178188,-0.285345 -0.06571,0.01718 -0.03149,0.262977 0.0807,0.579677 0.04856,0.137069 0.08292,0.254578 0.07636,0.261133 -0.06423,0.06423 -0.299732,-0.358476 -0.338966,-0.60842 -0.03634,-0.231514 -0.224037,-0.91227 -0.266541,-0.96671 -0.01206,-0.01542 -0.08045,-0.139628 -0.15205,-0.276036 -0.08012,-0.152637 -0.218742,-0.349662 -0.360482,-0.512337 -0.126671,-0.145378 -0.234551,-0.276612 -0.239733,-0.291633 -0.0052,-0.01503 0.03778,-0.06818 0.09546,-0.118129 0.05769,-0.04995 0.237365,-0.207942 0.399286,-0.351096 0.284933,-0.251909 0.397164,-0.334088 1.055811,-0.773107 0.526329,-0.35082 1.517789,-0.912187 1.763665,-0.998588 0.07795,-0.02739 0.163461,-0.05862 0.190011,-0.0694 0.02767,-0.0112 0.05559,-0.06327 0.06543,-0.121968 0.03624,-0.216286 0.387883,-1.204145 0.614224,-1.725528 0.06739,-0.155235 0.218171,-0.539805 0.33507,-0.8546 0.116898,-0.314794 0.242754,-0.636332 0.279676,-0.714526 0.03693,-0.0782 0.126532,-0.3187 0.199129,-0.534459 0.0726,-0.21576 0.18268,-0.5024 0.24463,-0.63698 0.09304,-0.202121 0.1065,-0.252089 0.07735,-0.287212 -0.05471,-0.06592 -0.09218,-0.05267 -0.255872,0.09058 -0.225622,0.19743 -0.850068,0.558987 -1.07801,0.624173 -0.472572,0.135144 -0.740385,0.174935 -1.062287,0.157829 -0.169524,-0.009 -0.353345,-0.02445 -0.408492,-0.03431 l -0.100261,-0.01793 -0.08187,0.21573 c -0.05502,0.144967 -0.129796,0.272291 -0.227983,0.388169 -0.08036,0.09485 -0.216276,0.263398 -0.302028,0.374572 -0.08575,0.111176 -0.234359,0.262362 -0.330236,0.335977 -0.09588,0.07362 -0.218454,0.172979 -0.272395,0.220807 -0.142816,0.126635 -0.256112,0.159256 -0.616453,0.177483 l -0.322236,0.0163 -0.01541,0.490362 c -0.01377,0.438506 -0.02297,0.509621 -0.08702,0.672493 -0.03939,0.100175 -0.111595,0.284646 -0.160467,0.409939 -0.07191,0.184362 -0.117784,0.255164 -0.240549,0.371273 -0.08343,0.07891 -0.164387,0.143468 -0.179895,0.143468 -0.0155,0 -0.103498,0.04414 -0.195532,0.09807 -0.09203,0.05393 -0.186054,0.09807 -0.208934,0.09807 -0.03524,0 -0.41131,0.579747 -0.41131,0.634066 0,0.03908 -0.263808,0.32474 -0.31862,0.345016 -0.05129,0.01897 -0.07154,-0.0068 -0.178632,-0.227539 -0.121266,-0.249913 -0.176949,-0.480016 -0.215784,-0.891647 -0.0095,-0.100176 -0.02932,-0.283008 -0.04415,-0.406298 -0.01483,-0.123291 -0.03253,-0.331345 -0.03934,-0.462342 -0.0068,-0.130996 -0.02616,-0.34179 -0.04301,-0.46843 -0.05929,-0.445606 -0.07917,-0.880562 -0.05436,-1.189057 0.01709,-0.212626 0.01537,-0.32738 -0.0055,-0.369271 -0.0167,-0.03342 -0.133227,-0.161651 -0.258963,-0.284941 -0.276228,-0.270859 -0.503626,-0.514883 -0.74699,-0.801606 -0.100176,-0.118017 -0.333745,-0.389437 -0.519048,-0.603149 -0.185303,-0.21371 -0.418575,-0.495485 -0.518381,-0.626165 -0.264479,-0.34629 -0.57252,-0.720895 -0.737805,-0.897233 -0.07944,-0.08476 -0.251557,-0.272857 -0.382477,-0.417984 -0.130922,-0.145125 -0.285194,-0.298123 -0.342827,-0.339995 -0.102957,-0.07479 -0.160269,-0.123126 -0.637759,-0.537742 C 44.274401,10.161792 44.217085,10.111822 43.901619,9.835627 43.745429,9.6988822 43.543453,9.552099 43.444339,9.5033045 43.346698,9.455241 43.244047,9.390541 43.216222,9.3595421 43.114865,9.2466064 42.847383,9.0858236 42.760871,9.0858236 c -0.04708,0 -0.08559,0.013683 -0.08559,0.030418 0,0.016723 0.04433,0.1203926 0.09851,0.2303727 0.103473,0.210051 0.177226,0.524792 0.296717,1.2663347 0.05335,0.331139 0.06352,0.505853 0.06517,1.120825 0.0018,0.687531 -0.0018,0.741637 -0.06497,0.961319 -0.07917,0.275409 -0.0986,0.219528 0.264783,0.76152 0.139895,0.208654 0.323982,0.530829 0.409961,0.717484 0.145227,0.315271 0.157445,0.358177 0.176066,0.618345 0.01392,0.194443 0.0095,0.314795 -0.01466,0.395261 l -0.03466,0.115692 0.269694,0.400796 c 0.163141,0.242447 0.307616,0.494898 0.365679,0.638973 0.05279,0.130996 0.142314,0.33905 0.198941,0.46234 0.05663,0.123291 0.132281,0.318735 0.168126,0.43432 0.224182,0.722941 0.24351,0.801386 0.247915,1.00625 l 0.0046,0.210797 0.137287,0.03876 c 0.214076,0.06044 0.617592,0.398066 0.864746,0.723534 0.375409,0.494364 0.445704,0.618339 0.544821,0.960855 0.03822,0.132077 0.08244,0.255859 0.09828,0.27507 0.04238,0.05142 -0.02272,0.281149 -0.113121,0.399172 -0.10052,0.131236 -0.494353,0.939233 -0.594224,1.219114 -0.190967,0.535178 -0.2578,0.703117 -0.387518,0.973779 -0.07569,0.157932 -0.198061,0.419547 -0.271932,0.581366 -0.16186,0.354565 -0.473507,0.941855 -0.602203,1.134836 -0.05139,0.07705 -0.185868,0.264503 -0.298843,0.416546 -0.112973,0.152045 -0.217526,0.299088 -0.232337,0.326764 -0.03887,0.07264 -0.914301,0.783253 -1.068228,0.867122 -0.689637,0.375763 -0.79477,0.436448 -1.789466,1.032929 -0.337502,0.202386 -0.504371,0.326154 -0.504371,0.374096 0,0.03149 0.133082,0.02878 0.15279,-0.0031 z"
     id="path971"/>
  <circle
     style="opacity:1;fill:#a7a7a7;fill-opacity:1;fill-rule:nonzero;stroke:none;stroke-width:0.16500002;stroke-linecap:round;stroke-linejoin:miter;stroke-miterlimit:4;stroke-dasharray:0.49499998, 0.49499998;stroke-dashoffset:0;stroke-opacity:0.99673199;paint-order:stroke fill markers"
     id="path830"
     cx="45.019115"
     cy="32.973194"
     r="1.7806531" />
  <path
     style="color:#000000;font-style:normal;font-variant:normal;font-weight:normal;font-stretch:normal;font-size:medium;line-height:normal;font-family:sans-serif;font-variant-ligatures:normal;font-variant-position:normal;font-variant-caps:normal;font-variant-numeric:normal;font-variant-alternates:normal;font-feature-settings:normal;text-indent:0;text-align:start;text-decoration:none;text-decoration-line:none;text-decoration-style:solid;text-decoration-color:#000000;letter-spacing:normal;word-spacing:normal;text-transform:none;writing-mode:lr-tb;direction:ltr;text-orientation:mixed;dominant-baseline:auto;baseline-shift:baseline;text-anchor:start;white-space:normal;shape-padding:0;clip-rule:nonzero;display:inline;overflow:visible;visibility:visible;opacity:1;isolation:auto;mix-blend-mode:normal;color-interpolation:sRGB;color-interpolation-filters:linearRGB;solid-color:#000000;solid-opacity:1;vector-effect:none;fill:#a7a7a7;fill-opacity:1;fill-rule:nonzero;stroke:none;stroke-width:0.37676668;stroke-linecap:round;stroke-linejoin:miter;stroke-miterlimit:4;stroke-dasharray:none;stroke-dashoffset:0;stroke-opacity:1;paint-order:stroke fill markers;color-rendering:auto;image-rendering:auto;shape-rendering:auto;text-rendering:auto;enable-background:accumulate"
     d="m 45.727341,24.857864 c -0.2447,0.0015 -0.413015,0.22226 -0.407723,0.457524 l 0.0074,0.329996 c 0.0053,0.235265 0.183493,0.453901 0.428198,0.452401 0.2447,-0.0015 0.414971,-0.222269 0.409678,-0.457535 l -0.0074,-0.329996 c -0.0053,-0.235264 -0.185445,-0.453888 -0.430152,-0.45239 z m 0.0085,0.376859 c 0.01123,1.2e-5 0.04338,0.01769 0.04472,0.07784 l 0.0074,0.329993 c 0.0014,0.06015 -0.02998,0.0783 -0.04122,0.07837 -0.01123,-1.2e-5 -0.04142,-0.0177 -0.04276,-0.07786 l -0.0074,-0.329992 c -0.0014,-0.06015 0.02801,-0.07829 0.03926,-0.07835 z"
     id="rect832-3-6-7-5-2"/>
  <path
     style="color:#000000;font-style:normal;font-variant:normal;font-weight:normal;font-stretch:normal;font-size:medium;line-height:normal;font-family:sans-serif;font-variant-ligatures:normal;font-variant-position:normal;font-variant-caps:normal;font-variant-numeric:normal;font-variant-alternates:normal;font-feature-settings:normal;text-indent:0;text-align:start;text-decoration:none;text-decoration-line:none;text-decoration-style:solid;text-decoration-color:#000000;letter-spacing:normal;word-spacing:normal;text-transform:none;writing-mode:lr-tb;direction:ltr;text-orientation:mixed;dominant-baseline:auto;baseline-shift:baseline;text-anchor:start;white-space:normal;shape-padding:0;clip-rule:nonzero;display:inline;overflow:visible;visibility:visible;opacity:1;isolation:auto;mix-blend-mode:normal;color-interpolation:sRGB;color-interpolation-filters:linearRGB;solid-color:#000000;solid-opacity:1;vector-effect:none;fill:#a7a7a7;fill-opacity:1;fill-rule:nonzero;stroke:none;stroke-width:0.37676668;stroke-linecap:round;stroke-linejoin:miter;stroke-miterlimit:4;stroke-dasharray:none;stroke-dashoffset:0;stroke-opacity:1;paint-order:stroke fill markers;color-rendering:auto;image-rendering:auto;shape-rendering:auto;text-rendering:auto;enable-background:accumulate"
     d="m 45.710542,25.705452 c -0.244705,7.34e-4 -0.41371,0.220966 -0.409153,0.456246 l 0.0064,0.330016 c 0.0046,0.235281 0.182073,0.454473 0.426779,0.45374 0.244707,-7.34e-4 0.415665,-0.220971 0.411108,-0.456252 l -0.0064,-0.330016 c -0.0046,-0.23528 -0.184026,-0.454467 -0.428734,-0.453734 z m 0.0073,0.376883 c 0.01123,-3.4e-5 0.04332,0.01783 0.04448,0.07798 l 0.0064,0.330016 c 0.0012,0.06016 -0.03022,0.07821 -0.04146,0.07824 -0.01123,3.3e-5 -0.04136,-0.01783 -0.04253,-0.07799 l -0.0064,-0.330016 c -0.0012,-0.06015 0.02827,-0.0782 0.0395,-0.07823 z"
     id="rect832-3-6-7-5-2-9"/>
  <path
     style="color:#000000;font-style:normal;font-variant:normal;font-weight:normal;font-stretch:normal;font-size:medium;line-height:normal;font-family:sans-serif;font-variant-ligatures:normal;font-variant-position:normal;font-variant-caps:normal;font-variant-numeric:normal;font-variant-alternates:normal;font-feature-settings:normal;text-indent:0;text-align:start;text-decoration:none;text-decoration-line:none;text-decoration-style:solid;text-decoration-color:#000000;letter-spacing:normal;word-spacing:normal;text-transform:none;writing-mode:lr-tb;direction:ltr;text-orientation:mixed;dominant-baseline:auto;baseline-shift:baseline;text-anchor:start;white-space:normal;shape-padding:0;clip-rule:nonzero;display:inline;overflow:visible;visibility:visible;opacity:1;isolation:auto;mix-blend-mode:normal;color-interpolation:sRGB;color-interpolation-filters:linearRGB;solid-color:#000000;solid-opacity:1;vector-effect:none;fill:#a7a7a7;fill-opacity:1;fill-rule:nonzero;stroke:none;stroke-width:0.37676668;stroke-linecap:round;stroke-linejoin:miter;stroke-miterlimit:4;stroke-dasharray:none;stroke-dashoffset:0;stroke-opacity:1;paint-order:stroke fill markers;color-rendering:auto;image-rendering:auto;shape-rendering:auto;text-rendering:auto;enable-background:accumulate"
     d="m 45.741529,26.670257 c -0.244705,7.34e-4 -0.41371,0.220966 -0.409153,0.456246 l 0.0064,0.330016 c 0.0046,0.235281 0.182073,0.454473 0.426779,0.45374 0.244707,-7.34e-4 0.415665,-0.220971 0.411108,-0.456252 l -0.0064,-0.330016 c -0.0046,-0.23528 -0.184026,-0.454467 -0.428734,-0.453734 z m 0.0073,0.376883 c 0.01123,-3.4e-5 0.04332,0.01783 0.04448,0.07798 l 0.0064,0.330016 c 0.0012,0.06016 -0.03022,0.07821 -0.04146,0.07824 -0.01123,3.3e-5 -0.04136,-0.01783 -0.04253,-0.07799 l -0.0064,-0.330016 c -0.0012,-0.06015 0.02827,-0.0782 0.0395,-0.07823 z"
     id="rect832-3-6-7-5-2-1"/>
  <path
     style="color:#000000;font-style:normal;font-variant:normal;font-weight:normal;font-stretch:normal;font-size:medium;line-height:normal;font-family:sans-serif;font-variant-ligatures:normal;font-variant-position:normal;font-variant-caps:normal;font-variant-numeric:normal;font-variant-alternates:normal;font-feature-settings:normal;text-indent:0;text-align:start;text-decoration:none;text-decoration-line:none;text-decoration-style:solid;text-decoration-color:#000000;letter-spacing:normal;word-spacing:normal;text-transform:none;writing-mode:lr-tb;direction:ltr;text-orientation:mixed;dominant-baseline:auto;baseline-shift:baseline;text-anchor:start;white-space:normal;shape-padding:0;clip-rule:nonzero;display:inline;overflow:visible;visibility:visible;opacity:1;isolation:auto;mix-blend-mode:normal;color-interpolation:sRGB;color-interpolation-filters:linearRGB;solid-color:#000000;solid-opacity:1;vector-effect:none;fill:#a7a7a7;fill-opacity:1;fill-rule:nonzero;stroke:none;stroke-width:0.37676668;stroke-linecap:round;stroke-linejoin:miter;stroke-miterlimit:4;stroke-dasharray:none;stroke-dashoffset:0;stroke-opacity:1;paint-order:stroke fill markers;color-rendering:auto;image-rendering:auto;shape-rendering:auto;text-rendering:auto;enable-background:accumulate"
     d="m 45.740731,27.660264 c -0.244705,7.34e-4 -0.41371,0.220966 -0.409153,0.456246 l 0.0064,0.330016 c 0.0046,0.235281 0.182073,0.454473 0.426779,0.45374 0.244707,-7.34e-4 0.415665,-0.220971 0.411108,-0.456252 l -0.0064,-0.330016 c -0.0046,-0.23528 -0.184026,-0.454467 -0.428734,-0.453734 z m 0.0073,0.376883 c 0.01123,-3.4e-5 0.04332,0.01783 0.04448,0.07798 l 0.0064,0.330016 c 0.0012,0.06016 -0.03022,0.07821 -0.04146,0.07824 -0.01123,3.3e-5 -0.04136,-0.01783 -0.04253,-0.07799 l -0.0064,-0.330016 c -0.0012,-0.06015 0.02827,-0.0782 0.0395,-0.07823 z"
     id="rect832-3-6-7-5-2-2"/>
  <path
     style="color:#000000;font-style:normal;font-variant:normal;font-weight:normal;font-stretch:normal;font-size:medium;line-height:normal;font-family:sans-serif;font-variant-ligatures:normal;font-variant-position:normal;font-variant-caps:normal;font-variant-numeric:normal;font-variant-alternates:normal;font-feature-settings:normal;text-indent:0;text-align:start;text-decoration:none;text-decoration-line:none;text-decoration-style:solid;text-decoration-color:#000000;letter-spacing:normal;word-spacing:normal;text-transform:none;writing-mode:lr-tb;direction:ltr;text-orientation:mixed;dominant-baseline:auto;baseline-shift:baseline;text-anchor:start;white-space:normal;shape-padding:0;clip-rule:nonzero;display:inline;overflow:visible;visibility:visible;opacity:1;isolation:auto;mix-blend-mode:normal;color-interpolation:sRGB;color-interpolation-filters:linearRGB;solid-color:#000000;solid-opacity:1;vector-effect:none;fill:#a7a7a7;fill-opacity:1;fill-rule:nonzero;stroke:none;stroke-width:0.37676668;stroke-linecap:round;stroke-linejoin:miter;stroke-miterlimit:4;stroke-dasharray:none;stroke-dashoffset:0;stroke-opacity:1;paint-order:stroke fill markers;color-rendering:auto;image-rendering:auto;shape-rendering:auto;text-rendering:auto;enable-background:accumulate"
     d="m 45.764185,28.587335 c -0.241444,-0.03983 -0.444606,0.149357 -0.479099,0.38214 l -0.04837,0.326514 c -0.03445,0.23279 0.104248,0.47836 0.345692,0.518186 0.241446,0.03983 0.446535,-0.149038 0.481028,-0.381821 l 0.04837,-0.326515 c 0.03445,-0.232789 -0.106175,-0.478678 -0.347621,-0.518504 z m -0.05525,0.372882 c 0.01108,0.0018 0.03977,0.02476 0.03094,0.08427 l -0.04837,0.326514 c -0.0088,0.05953 -0.04276,0.07212 -0.05385,0.07029 -0.01108,-0.0018 -0.03783,-0.02444 -0.02902,-0.08396 l 0.04837,-0.326514 c 0.0088,-0.05952 0.04084,-0.07244 0.05192,-0.0706 z"
     id="rect832-3-6-7-5-2-7"/>
  <path
     style="color:#000000;font-style:normal;font-variant:normal;font-weight:normal;font-stretch:normal;font-size:medium;line-height:normal;font-family:sans-serif;font-variant-ligatures:normal;font-variant-position:normal;font-variant-caps:normal;font-variant-numeric:normal;font-variant-alternates:normal;font-feature-settings:normal;text-indent:0;text-align:start;text-decoration:none;text-decoration-line:none;text-decoration-style:solid;text-decoration-color:#000000;letter-spacing:normal;word-spacing:normal;text-transform:none;writing-mode:lr-tb;direction:ltr;text-orientation:mixed;dominant-baseline:auto;baseline-shift:baseline;text-anchor:start;white-space:normal;shape-padding:0;clip-rule:nonzero;display:inline;overflow:visible;visibility:visible;opacity:1;isolation:auto;mix-blend-mode:normal;color-interpolation:sRGB;color-interpolation-filters:linearRGB;solid-color:#000000;solid-opacity:1;vector-effect:none;fill:#a7a7a7;fill-opacity:1;fill-rule:nonzero;stroke:none;stroke-width:0.37676668;stroke-linecap:round;stroke-linejoin:miter;stroke-miterlimit:4;stroke-dasharray:none;stroke-dashoffset:0;stroke-opacity:1;paint-order:stroke fill markers;color-rendering:auto;image-rendering:auto;shape-rendering:auto;text-rendering:auto;enable-background:accumulate"
     d="m 45.534923,29.552305 c -0.244705,7.34e-4 -0.41371,0.220966 -0.409153,0.456246 l 0.0064,0.330016 c 0.0046,0.235281 0.182073,0.454473 0.426779,0.45374 0.244707,-7.34e-4 0.415665,-0.220971 0.411108,-0.456252 l -0.0064,-0.330016 c -0.0046,-0.23528 -0.184026,-0.454467 -0.428734,-0.453734 z m 0.0073,0.376883 c 0.01123,-3.4e-5 0.04332,0.01783 0.04448,0.07798 l 0.0064,0.330016 c 0.0012,0.06016 -0.03022,0.07821 -0.04146,0.07824 -0.01123,3.3e-5 -0.04136,-0.01783 -0.04253,-0.07799 l -0.0064,-0.330016 c -0.0012,-0.06015 0.02827,-0.0782 0.0395,-0.07823 z"
     id="rect832-3-6-7-5-2-0"/>
  <path
     style="color:#000000;font-style:normal;font-variant:normal;font-weight:normal;font-stretch:normal;font-size:medium;line-height:normal;font-family:sans-serif;font-variant-ligatures:normal;font-variant-position:normal;font-variant-caps:normal;font-variant-numeric:normal;font-variant-alternates:normal;font-feature-settings:normal;text-indent:0;text-align:start;text-decoration:none;text-decoration-line:none;text-decoration-style:solid;text-decoration-color:#000000;letter-spacing:normal;word-spacing:normal;text-transform:none;writing-mode:lr-tb;direction:ltr;text-orientation:mixed;dominant-baseline:auto;baseline-shift:baseline;text-anchor:start;white-space:normal;shape-padding:0;clip-rule:nonzero;display:inline;overflow:visible;visibility:visible;opacity:1;isolation:auto;mix-blend-mode:normal;color-interpolation:sRGB;color-interpolation-filters:linearRGB;solid-color:#000000;solid-opacity:1;vector-effect:none;fill:#a7a7a7;fill-opacity:1;fill-rule:nonzero;stroke:none;stroke-width:0.37676668;stroke-linecap:round;stroke-linejoin:miter;stroke-miterlimit:4;stroke-dasharray:none;stroke-dashoffset:0;stroke-opacity:1;paint-order:stroke fill markers;color-rendering:auto;image-rendering:auto;shape-rendering:auto;text-rendering:auto;enable-background:accumulate"
     d="m 45.529074,30.577896 c -0.2402,-0.04674 -0.44871,0.136532 -0.489872,0.368228 l -0.05773,0.324991 c -0.04112,0.231705 0.09047,0.481156 0.330673,0.527898 0.240202,0.04674 0.450629,-0.136158 0.491791,-0.367855 l 0.05773,-0.324991 c 0.04112,-0.231704 -0.09239,-0.481529 -0.332592,-0.528271 z m -0.06593,0.371143 c 0.01102,0.0021 0.03904,0.02589 0.02851,0.08513 l -0.05773,0.324991 c -0.01049,0.05925 -0.04481,0.07086 -0.05585,0.06871 -0.01102,-0.0021 -0.03712,-0.02551 -0.0266,-0.08476 l 0.05773,-0.324991 c 0.01049,-0.05924 0.0429,-0.07123 0.05392,-0.06908 z"
     id="rect832-3-6-7-5-2-93"/>
</svg>
