<svg
   width="80mm"
   height="80mm"
   viewBox="0 0 80 80"
   version="1.1">
  <g
     transform="matrix(1.0956612,0,0,1.0956612,-102.61622,-69.548034)">
    <path
       d="m 130.04688,64.261719 c -2.03528,0.02774 -4.03832,1.067713 -5.28126,3.078125 -0.35345,0.571695 -0.5747,1.002758 -0.70898,1.5625 -0.13427,0.559741 -0.1846,1.231017 -0.23242,2.324218 l -0.0996,2.25 -0.61133,0.128907 c -0.53762,0.114173 -1.72231,0.577733 -2.77148,1.058593 -5.70324,2.613946 -9.5385,7.031321 -11.6543,13.404297 -0.30067,0.905641 -0.46689,1.502272 -0.55859,3.21875 -0.0917,1.716479 -0.12002,4.579899 -0.16602,10.130861 l -0.0937,11.26172 -2.97266,2.125 c -1.76238,1.2599 -2.80888,2.04412 -3.51562,2.71679 -0.70674,0.67268 -1.06885,1.24599 -1.417969,2.00391 -0.559064,1.2137 -0.618137,2.68181 -0.291016,4.04688 0.327121,1.36506 1.041545,2.63504 2.085935,3.43164 0.90707,0.69185 1.66632,1.10011 3.32227,1.30078 1.65594,0.20066 4.23412,0.22461 8.94726,0.22461 h 8.41407 l 0.15234,1.14258 c 0.35517,2.64562 1.49263,4.40884 3.52734,5.41601 0.82319,0.40747 2.31464,0.58546 3.84766,0.61523 1.53302,0.0298 3.06073,-0.0939 3.93945,-0.46093 2.19357,-0.91631 3.92734,-3.50644 3.9336,-5.87305 v -0.002 l 0.002,-0.83789 h 8.16797 c 2.55819,0 4.80598,-0.0295 6.51953,-0.0801 1.71355,-0.0505 2.8558,-0.11061 3.3418,-0.21484 2.96101,-0.63502 4.97,-3.14429 4.98437,-6.21876 0.006,-1.32344 -0.25733,-2.39075 -1.02539,-3.44921 -0.76806,-1.05847 -2.01483,-2.11127 -3.98242,-3.52344 l -3.05664,-2.19531 -0.15235,-10.68555 c -0.0871,-6.134112 -0.15471,-9.40446 -0.44726,-11.681641 -0.29255,-2.277182 -0.82015,-3.556579 -1.78711,-5.617188 -2.38158,-5.075208 -6.39743,-8.776378 -11.6875,-10.769531 l -2.07422,-0.783203 -0.12109,-2.322266 c -0.0597,-1.132433 -0.11259,-1.801277 -0.25196,-2.34375 -0.13936,-0.542473 -0.37108,-0.936528 -0.73828,-1.458984 -1.38441,-1.969765 -3.45109,-2.951565 -5.48632,-2.923828 z m 0.45703,2.980469 c 1.08105,0.112485 2.12041,0.744376 2.70507,1.875 0.16513,0.319318 0.35746,1.372119 0.35743,2.292968 v 1.38086 h -3.44727 -3.42773 l 0.10351,-1.601563 c 0.0977,-1.522548 0.22361,-1.962458 0.76172,-2.667969 0.75233,-0.986358 1.86616,-1.391787 2.94727,-1.279296 z m -2.01563,8.492187 c 1.1201,-0.07531 2.27026,-0.06705 3.44336,0.0293 1.3408,0.110122 2.71326,0.336111 4.10352,0.68164 3.19176,0.793269 5.35294,2.048712 7.95898,4.634766 2.42178,2.403217 3.49587,4.060186 4.60547,7.09375 a 0.28696706,0.28696706 0 0 0 0,0.002 l 0.69141,1.886719 0.0898,11.84766 c 0.0325,4.24739 0.0782,7.24954 0.14258,9.22656 0.0322,0.98851 0.068,1.72021 0.11133,2.22851 0.0217,0.25416 0.0455,0.45118 0.0723,0.60352 0.0267,0.15234 0.0152,0.23992 0.13867,0.38867 0.0996,0.12007 0.22008,0.2077 0.43946,0.38281 0.21937,0.17512 0.51206,0.40265 0.86132,0.66602 0.69854,0.52674 1.61958,1.20083 2.59375,1.89648 1.84215,1.31547 2.8655,2.08177 3.44141,2.66797 0.57591,0.58621 0.71721,0.96326 0.86133,1.6543 0.10111,0.48482 -0.0475,1.21755 -0.37109,1.88086 -0.32362,0.6633 -0.81863,1.25494 -1.29493,1.51562 -0.29838,0.16331 -0.93799,0.28999 -4.40625,0.35743 -3.46825,0.0674 -9.73552,0.0883 -21.29101,0.10937 -7.05739,0.0129 -13.39416,-8.2e-4 -18.02149,-0.0352 -2.31366,-0.0172 -4.20064,-0.0402 -5.53515,-0.0664 -0.66726,-0.0131 -1.19625,-0.0261 -1.57032,-0.041 -0.18703,-0.007 -0.33642,-0.0159 -0.4414,-0.0234 -0.10498,-0.008 -0.19525,-0.0282 -0.14649,-0.0137 -1.59392,-0.47599 -2.74411,-2.26789 -2.46093,-3.77734 0.10639,-0.56715 0.38891,-1.0883 1.07812,-1.79102 0.68921,-0.70271 1.78197,-1.56799 3.45313,-2.76562 l 2.70117,-1.9375 h 18.3457 c 8.20348,-3.2e-4 12.82287,-0.0125 15.44531,-0.0703 1.31122,-0.0289 2.12297,-0.0686 2.64454,-0.12696 0.52156,-0.0584 0.77958,-0.11748 0.96484,-0.30273 0.6074,-0.60739 0.65927,-1.57706 0.0391,-2.0918 -0.10913,-0.0906 -0.15895,-0.082 -0.23047,-0.0977 -0.0715,-0.0157 -0.15294,-0.0289 -0.25586,-0.041 -0.20584,-0.0243 -0.48887,-0.0442 -0.85937,-0.0645 -0.741,-0.0405 -1.83235,-0.0761 -3.3125,-0.10547 -2.96031,-0.0587 -7.47685,-0.097 -13.8457,-0.1211 l -17.68165,-0.0644 0.006,-10.5625 0.004,-10.802732 0.70117,-2.070313 c 2.57094,-7.604593 8.94641,-12.254102 16.78711,-12.78125 z m -2.81445,52.794925 h 4.60937 4.60742 v 0.51562 c 0,0.99334 -0.55459,2.22092 -1.3496,2.95508 -0.30921,0.28554 -0.47707,0.4063 -0.88282,0.49805 -0.40575,0.0917 -1.05542,0.13084 -2.20508,0.16601 -1.09006,0.0333 -1.75343,0.0327 -2.20703,-0.0273 -0.45359,-0.0601 -0.69673,-0.16682 -1.03906,-0.38086 -0.98538,-0.6161 -1.5332,-1.64945 -1.5332,-2.94141 z"
       />
  </g>
</svg>
