<svg
   width="23.95491mm"
   height="23.957363mm"
   viewBox="0 0 23.95491 23.957363"
   version="1.1">
  <g
     transform="translate(45.995312,12.067968)">
    <path
       d="m -34.09375,-11.863281 c -2.179305,0.01318 -4.356275,0.618366 -6.234375,1.814453 -0.08775,0.055884 -0.17107,0.1063848 -0.238281,0.1445311 -0.03361,0.019073 -0.06365,0.035881 -0.08984,0.048828 -0.0131,0.00647 -0.02416,0.011631 -0.03906,0.017578 -0.0075,0.00297 -0.01544,0.00632 -0.02734,0.00977 -0.006,0.00172 -0.01398,0.00409 -0.02344,0.00586 -0.0095,0.00177 -0.03841,0.00391 -0.03906,0.00391 -0.04275,0 -0.04832,-0.00494 -0.06055,-0.00781 -0.01223,-0.00287 -0.02333,-0.00627 -0.03516,-0.00977 -0.02366,-0.00699 -0.04903,-0.016653 -0.08008,-0.027344 -0.06209,-0.021382 -0.139688,-0.050042 -0.220703,-0.082031 -0.739439,-0.2919945 -1.518766,-0.1252365 -2.126953,0.4648437 -0.522914,0.5073442 -0.680318,0.8605807 -0.68164,1.5195313 -7.43e-4,0.368234 0.0073,0.4303309 0.107422,0.6777344 0.03516,0.086854 0.06596,0.1684133 0.08984,0.234375 0.01194,0.032981 0.02346,0.063188 0.03125,0.087891 0.0039,0.012351 0.0066,0.022548 0.0098,0.035156 0.0032,0.012608 0.0098,0.016094 0.0098,0.064453 0,6.551e-4 -0.0036,0.036773 -0.0059,0.046875 -0.0022,0.010102 -0.0039,0.017496 -0.0059,0.023437 -0.0039,0.011882 -0.0084,0.019769 -0.01172,0.027344 -0.0065,0.015148 -0.01182,0.028022 -0.01953,0.042969 -0.01542,0.029894 -0.03658,0.065776 -0.06055,0.1074219 -0.04794,0.083292 -0.110693,0.1898571 -0.181641,0.3027343 -0.711979,1.1327405 -1.269867,2.5502634 -1.541015,3.9199219 -0.575644,2.90776163 -0.0231,5.9823594 1.521484,8.4765625 l 0.304687,0.4921875 a 0.20418058,0.20418058 0 0 1 0.01172,0.1914062 L -43.835938,7 a 0.20418058,0.20418058 0 0 1 0,0.00195 c -0.233582,0.5080698 -0.226115,1.1302451 0.0293,1.6777344 0.07063,0.1513968 0.247986,0.3846659 0.449219,0.5878906 0.201234,0.2032247 0.432222,0.3833152 0.582031,0.4550781 0.559306,0.2679144 1.212329,0.2714495 1.744141,0.013672 l 0.171875,-0.083984 a 0.20418058,0.20418058 0 0 1 0.197266,0.00977 l 0.4375,0.2714844 c 1.534252,0.9497102 3.318247,1.5459992 5.173828,1.7265622 0.474967,0.04621 1.957612,0.01835 2.466797,-0.04687 1.68129,-0.215359 3.30277,-0.78203 4.757812,-1.6660154 l 0.458984,-0.2792968 a 0.20418058,0.20418058 0 0 1 0.181641,-0.015625 l 0.316406,0.1269531 c 0.559034,0.2236491 1.232866,0.1775699 1.748047,-0.1171875 0.270464,-0.1547437 0.706554,-0.5917965 0.865235,-0.8691406 0.28802,-0.5034083 0.333091,-1.1839617 0.111328,-1.7382813 l -0.126953,-0.3164063 a 0.20418058,0.20418058 0 0 1 0.01563,-0.1816406 l 0.279297,-0.4589844 c 0.895232,-1.4735542 1.441843,-3.0469984 1.673828,-4.8066406 0.08171,-0.61978877 0.07112,-2.3259405 -0.02148,-2.9648437 -0.106222,-0.7327945 -0.350401,-1.731883 -0.582031,-2.3828125 -0.224614,-0.6312115 -0.721767,-1.6594355 -1.080078,-2.2382813 l -0.269531,-0.4335937 a 0.20418058,0.20418058 0 0 1 -0.01563,-0.1835938 l 0.126953,-0.3144531 c 0.208593,-0.521401 0.188459,-1.1155835 -0.05469,-1.6230469 -0.145334,-0.30332 -0.73996,-0.8909335 -1.044922,-1.0332031 -0.547489,-0.2554105 -1.169667,-0.2628845 -1.677734,-0.029297 a 0.20418058,0.20418058 0 0 1 -0.002,0 l -0.230469,0.1054688 a 0.20418058,0.20418058 0 0 1 -0.191406,-0.011719 l -0.492188,-0.3046876 c -1.894767,-1.173372 -4.076595,-1.753414 -6.255859,-1.740234 z m 0.265625,1.111328 c 1.441965,0.02851 2.886795,0.336184 4.189453,0.9179686 0.199603,0.089146 0.520243,0.2543184 0.798828,0.40625 0.139293,0.075966 0.265884,0.1481915 0.361328,0.2050782 0.04772,0.028443 0.08703,0.052363 0.119141,0.074219 0.01606,0.010928 0.03018,0.021053 0.04687,0.035156 0.0083,0.00705 0.01737,0.015 0.03125,0.03125 0.0069,0.00812 0.02495,0.036306 0.02539,0.037109 2.2e-4,4.017e-4 0.01551,0.036763 0.01563,0.037109 1.11e-4,3.464e-4 0.01172,0.062209 0.01172,0.0625 0,5.31e-5 -0.0058,0.048758 -0.0059,0.048828 -1.7e-5,7.02e-5 -0.0097,0.027257 -0.0098,0.027344 -6.8e-5,1.745e-4 -0.01158,0.025148 -0.01172,0.025391 -2.75e-4,4.848e-4 -0.01049,0.017087 -0.01367,0.021484 -0.0064,0.00879 -0.0098,0.012936 -0.01367,0.017578 -0.0078,0.00928 -0.01598,0.017044 -0.02539,0.027344 -0.01883,0.0206 -0.04372,0.048126 -0.07617,0.082031 -0.0649,0.067811 -0.157332,0.1630358 -0.271484,0.2792969 -0.228304,0.2325221 -0.542916,0.5489534 -0.888672,0.8945312 l -1.255859,1.2558594 a 0.20418058,0.20418058 0 0 1 -0.22461,0.042969 L -31.375,-6.3710938 c -0.892929,-0.3799748 -1.581792,-0.5127117 -2.636719,-0.5117187 -0.924182,8.765e-4 -1.34936,0.061205 -2.068359,0.3007813 -0.252116,0.084008 -0.572972,0.2028735 -0.691406,0.2519531 l -0.238282,0.097656 a 0.20418058,0.20418058 0 0 1 -0.222656,-0.044922 l -1.261719,-1.2597656 c -0.598935,-0.5992444 -0.910738,-0.9128748 -1.074218,-1.0996094 -0.08174,-0.093367 -0.131066,-0.1453424 -0.164063,-0.2421874 -0.0165,-0.048423 -0.02114,-0.1251268 0.0059,-0.1875 0.02699,-0.062373 0.06616,-0.093078 0.08789,-0.109375 0.06665,-0.049984 0.155931,-0.097752 0.28125,-0.1660157 0.125319,-0.068264 0.278523,-0.148379 0.441406,-0.2304687 0.325767,-0.1641794 0.68249,-0.3353488 0.91211,-0.4296874 1.293239,-0.531325 2.733995,-0.778507 4.175781,-0.75 z m 7.613281,1.7851561 c 0.158949,-0.018808 0.321987,0.00594 0.466797,0.080078 0.131274,0.067207 0.249035,0.1724165 0.357422,0.2890626 0.108387,0.116646 0.200696,0.2295569 0.248047,0.3730468 0.03009,0.091189 0.07263,0.2028237 0.05078,0.3417969 -0.02185,0.1389732 -0.09567,0.2636304 -0.224609,0.4257813 -0.257884,0.3243017 -0.772018,0.834872 -1.816406,1.8828124 -0.531395,0.5332016 -1.028512,1.0248985 -1.402344,1.3886719 -0.186916,0.1818867 -0.34231,0.3317719 -0.457032,0.4394531 -0.05736,0.053841 -0.104074,0.096463 -0.140624,0.1289063 -0.01828,0.016222 -0.0344,0.029228 -0.04883,0.041016 -0.01442,0.011788 -0.01772,0.018451 -0.05664,0.039063 -0.258094,0.1367017 -0.573347,0.1295601 -0.824219,-0.023437 -0.135696,-0.082753 -0.257682,-0.1972203 -0.357422,-0.3222656 -0.09974,-0.1250453 -0.180671,-0.253352 -0.208984,-0.4042969 -0.01767,-0.094176 -0.03482,-0.209804 0.002,-0.3378906 0.03677,-0.1280866 0.113408,-0.2489713 0.242187,-0.4082031 0.257559,-0.3184637 0.747345,-0.811838 1.707032,-1.7773438 0.498347,-0.5013693 0.972152,-0.9725904 1.333984,-1.328125 0.180916,-0.1777673 0.332423,-0.3257448 0.447266,-0.4355469 0.114843,-0.109802 0.17106,-0.1660036 0.234375,-0.2128906 0.133146,-0.098591 0.288317,-0.1608798 0.447265,-0.1796875 z m -15.667968,0.00781 c 0.143135,5.049e-4 0.283648,0.021593 0.412109,0.089844 0.03827,0.020336 0.04344,0.026654 0.05859,0.039063 0.01516,0.012409 0.03169,0.027902 0.05078,0.044922 0.03819,0.034039 0.08557,0.079125 0.144531,0.1347656 0.117929,0.1112804 0.276956,0.2636023 0.462891,0.4453125 0.371868,0.3634203 0.853054,0.8406263 1.332031,1.3203125 0.478977,0.4796861 0.956387,0.9624742 1.318359,1.3339844 0.180986,0.185755 0.332913,0.3434987 0.44336,0.4609374 0.05522,0.058719 0.09917,0.1066173 0.132812,0.1445313 0.01682,0.018957 0.03068,0.035658 0.04297,0.050781 0.01229,0.015123 0.01947,0.017969 0.04102,0.060547 0.05971,0.1181065 0.07221,0.2398364 0.07227,0.3652344 5.5e-5,0.125398 -0.01149,0.2466952 -0.07227,0.3652344 -0.05804,0.1131811 -0.146448,0.2165973 -0.246094,0.3183594 -0.09965,0.101762 -0.199262,0.192625 -0.3125,0.2519531 -0.12172,0.063767 -0.254491,0.081359 -0.386719,0.083984 -0.132228,0.00263 -0.258899,-0.00695 -0.382812,-0.074219 -0.03816,-0.02072 -0.04186,-0.028787 -0.05664,-0.041016 -0.01478,-0.012229 -0.02998,-0.026072 -0.04883,-0.042969 -0.03769,-0.033794 -0.0859,-0.077347 -0.144531,-0.1328125 -0.117266,-0.1109301 -0.275361,-0.2639148 -0.460938,-0.4453125 -0.371154,-0.3627953 -0.853032,-0.8393584 -1.332031,-1.3183593 -0.478999,-0.479001 -0.95602,-0.9613316 -1.318359,-1.3320313 -0.18117,-0.1853498 -0.332764,-0.3420538 -0.44336,-0.4589844 -0.0553,-0.058465 -0.101147,-0.1070097 -0.134766,-0.1445312 -0.01681,-0.018761 -0.03079,-0.03408 -0.04297,-0.048828 -0.01218,-0.014748 -0.01765,-0.018293 -0.03906,-0.058594 -0.06668,-0.1255216 -0.08623,-0.2614387 -0.08984,-0.4003906 -0.0036,-0.138952 0.0058,-0.2730066 0.07227,-0.4023438 0.109164,-0.2124804 0.302255,-0.4129787 0.513672,-0.5234375 0.129332,-0.067573 0.270927,-0.086442 0.414063,-0.085937 z m 16.755859,3.0878906 a 0.20418058,0.20418058 0 0 1 0.175781,0.1054688 l 0.267578,0.4824219 c 0.886736,1.5999641 1.330078,3.3179585 1.330078,5.17187498 0,1.77011512 -0.382284,3.35681942 -1.177734,4.89843752 -0.08401,0.1628074 -0.169648,0.3216735 -0.240234,0.4492187 -0.07059,0.1275452 -0.109878,0.205359 -0.16211,0.2734375 l -0.08203,0.1054688 a 0.20418058,0.20418058 0 0 1 -0.306641,0.019531 l -1.255859,-1.2578125 -1.257813,-1.2578125 a 0.20418058,0.20418058 0 0 1 -0.04297,-0.2226562 l 0.138672,-0.3300782 a 0.20418058,0.20418058 0 0 1 0,-0.00195 c 0.365087,-0.8579446 0.522415,-1.65074221 0.521484,-2.62890622 -9.55e-4,-0.98719738 -0.168272,-1.86224648 -0.507812,-2.66015628 l -0.134766,-0.3164062 a 0.20418058,0.20418058 0 0 1 0.04297,-0.2246094 l 1.273437,-1.2714844 1.271484,-1.2734375 a 0.20418058,0.20418058 0 0 1 0.146485,-0.060547 z m -17.673828,0.064453 c 0.0958,0.033284 0.146578,0.082143 0.240234,0.1640625 0.187313,0.1638398 0.502218,0.4751808 1.099609,1.0722656 l 1.259766,1.2617187 a 0.20418058,0.20418058 0 0 1 0.04492,0.2226563 l -0.09766,0.2382813 c -0.186775,0.4507409 -0.404565,1.1631606 -0.46875,1.5273437 -0.223799,1.26994175 -0.06952,2.71277 0.40625,3.8222656 l 0.169922,0.3964844 a 0.20418058,0.20418058 0 0 1 -0.04297,0.2246094 l -1.255859,1.2558593 c -0.345642,0.3458198 -0.662026,0.6603839 -0.894532,0.8886719 -0.116253,0.114144 -0.211495,0.2065952 -0.279297,0.2714844 -0.0339,0.032445 -0.06143,0.057344 -0.08203,0.076172 -0.0103,0.00941 -0.01806,0.017592 -0.02734,0.025391 -0.0046,0.0039 -0.0088,0.00731 -0.01758,0.013672 -0.0044,0.00318 -0.021,0.013398 -0.02148,0.013672 -2.43e-4,1.37e-4 -0.02522,0.01165 -0.02539,0.011719 -8.7e-5,3.44e-5 -0.02727,0.00975 -0.02734,0.00977 -7.1e-5,1.72e-5 -0.04878,0.00586 -0.04883,0.00586 -2.9e-4,0 -0.06215,-0.011608 -0.0625,-0.011719 -3.46e-4,-1.11e-4 -0.03671,-0.015404 -0.03711,-0.015625 -8.03e-4,-4.412e-4 -0.02898,-0.018449 -0.03711,-0.025391 -0.01625,-0.013884 -0.0242,-0.022901 -0.03125,-0.03125 -0.0141,-0.016697 -0.02423,-0.03082 -0.03516,-0.046875 -0.02186,-0.03211 -0.04577,-0.071419 -0.07422,-0.1191406 -0.05689,-0.095444 -0.129113,-0.2220355 -0.205078,-0.3613281 -0.151932,-0.2785854 -0.317104,-0.5992241 -0.40625,-0.7988282 -1.159374,-2.595924 -1.2273,-5.672148 -0.181641,-8.3125 0.09394,-0.2372087 0.262396,-0.600833 0.427734,-0.9335937 0.165339,-0.3327607 0.309015,-0.6117784 0.41211,-0.7519531 0.01667,-0.022667 0.04794,-0.065044 0.111328,-0.091797 0.06339,-0.026753 0.139598,-0.018595 0.1875,-0.00195 z m 8.818359,0.025391 c 0.654096,6.19e-4 1.340679,0.1152863 1.876953,0.3183594 0.133733,0.050639 0.215675,0.078966 0.298828,0.1445312 0.04158,0.032783 0.08522,0.085454 0.105469,0.1445313 0.02025,0.059077 0.01782,0.1103773 0.01367,0.1484375 -0.06061,0.5569712 -0.06166,0.7367418 -0.01563,0.9707031 0.138286,0.7028932 0.77091,1.4069413 1.458984,1.6210937 0.121049,0.037675 0.349845,0.069632 0.566407,0.078125 0.216561,0.00849 0.434923,-0.0081 0.515625,-0.03125 0.03714,-0.010652 0.0701,-0.0249 0.126953,-0.029297 0.05685,-0.0044 0.153913,0.020672 0.208984,0.070312 0.110143,0.09928 0.109684,0.1742894 0.158203,0.3066406 0.265261,0.7235817 0.367626,1.43258499 0.328125,2.24023438 -0.03143,0.64260722 -0.107182,1.04450752 -0.304687,1.59570312 -0.05889,0.164355 -0.07426,0.2486275 -0.154297,0.3476562 -0.04002,0.049514 -0.125346,0.1002622 -0.195313,0.1054688 -0.06997,0.00521 -0.109117,-0.010137 -0.142578,-0.019531 0.01988,0.00558 -0.07893,-0.012139 -0.18164,-0.017578 -0.102716,-0.00544 -0.231005,-0.00697 -0.355469,-0.00586 -0.35958,0.00311 -0.474619,0.019816 -0.669922,0.095703 -0.492846,0.1915151 -1.083403,0.7798688 -1.279297,1.2773437 -0.07817,0.1984894 -0.09169,0.3038046 -0.09375,0.6699219 -7.03e-4,0.1249188 5.13e-4,0.2525886 0.0059,0.3554688 0.0053,0.1028801 0.02337,0.20226 0.01758,0.1816406 0.0094,0.03332 0.02481,0.072278 0.01953,0.1425781 -0.0053,0.0703 -0.05782,0.1558401 -0.107422,0.1953125 -0.0992,0.078945 -0.181687,0.093572 -0.345703,0.1523438 -0.196294,0.070336 -0.484432,0.1596447 -0.666016,0.203125 -0.51722,0.1238259 -1.631271,0.1457486 -2.164062,0.044922 -0.416294,-0.078779 -0.817469,-0.1877664 -1.103516,-0.3007812 -0.08447,-0.033374 -0.168859,-0.040537 -0.242187,-0.1640625 -0.03666,-0.061763 -0.04064,-0.1352682 -0.03516,-0.1816407 0.0055,-0.046372 0.01663,-0.079836 0.02734,-0.1171874 0.0012,-0.00405 0.01414,-0.088222 0.02148,-0.1796876 0.0073,-0.091465 0.01172,-0.2001796 0.01172,-0.3007812 0,-0.6244173 -0.19865,-1.067232 -0.691406,-1.5234375 -0.462163,-0.4278808 -0.956857,-0.608415 -1.525391,-0.5644531 -0.09279,0.00718 -0.188947,0.017153 -0.267578,0.027344 -0.07863,0.010191 -0.151773,0.02557 -0.144531,0.023437 -0.03294,0.0097 -0.07303,0.021205 -0.126953,0.017578 -0.05392,-0.00363 -0.118447,-0.02949 -0.160156,-0.064453 -0.08342,-0.069927 -0.103582,-0.1365772 -0.138672,-0.21875 -0.283607,-0.6641138 -0.421998,-1.69133181 -0.357422,-2.54296872 0.02663,-0.35117464 0.113092,-0.79212558 0.208984,-1.14843748 0.04795,-0.178156 0.09814,-0.3328391 0.148438,-0.4511719 0.02515,-0.059166 0.04749,-0.1075688 0.08594,-0.1582031 0.01922,-0.025317 0.04041,-0.054484 0.0918,-0.082031 0.05138,-0.027548 0.159318,-0.035699 0.226563,0.00586 -0.05704,-0.035239 -0.03093,-0.013787 -0.01563,-0.00977 0.01531,0.00402 0.04042,0.00937 0.07031,0.015625 0.0598,0.012519 0.139624,0.027756 0.222656,0.041016 1.297027,0.2072011 2.58237,-1.092397 2.371094,-2.4042969 -0.012,-0.074542 -0.02567,-0.1480964 -0.03711,-0.2011718 -0.0057,-0.026538 -0.01207,-0.047379 -0.01563,-0.060547 -0.0036,-0.013168 -0.02237,-0.037577 0.01172,0.017578 -0.02625,-0.04247 -0.04281,-0.1144271 -0.0293,-0.1738281 0.01352,-0.059401 0.04464,-0.097763 0.07031,-0.1230469 0.05134,-0.050569 0.09587,-0.069599 0.150391,-0.09375 0.109049,-0.048302 0.260951,-0.095665 0.490234,-0.1621094 0.590549,-0.1711413 0.995219,-0.2291343 1.65625,-0.2285156 z m -4.226562,9.0761719 c 0.164167,0.030798 0.295753,0.1243197 0.427734,0.234375 0.131981,0.1100552 0.252569,0.2367069 0.328125,0.3828125 0.07312,0.1414636 0.08961,0.3058284 0.07227,0.4863281 a 0.20418058,0.20418058 0 0 1 0,0.00195 l -0.02344,0.2304688 a 0.20418058,0.20418058 0 0 1 -0.05859,0.1230468 l -1.939453,1.9453126 c -0.545206,0.5465774 -1.046536,1.039495 -1.423828,1.4023437 -0.188646,0.1814244 -0.345766,0.3305371 -0.46289,0.4375 -0.05856,0.053482 -0.10761,0.096121 -0.146485,0.1289063 -0.01944,0.016393 -0.0362,0.030531 -0.05273,0.042969 -0.01654,0.012438 -0.02373,0.022442 -0.06641,0.041016 -0.16565,0.072087 -0.344045,0.097899 -0.513671,0.056641 -0.169626,-0.041259 -0.320072,-0.1425712 -0.464844,-0.28125 -0.189517,-0.1815419 -0.314778,-0.3904261 -0.349609,-0.6152344 -0.03483,-0.2248083 0.02791,-0.4559843 0.171874,-0.6503906 0.04689,-0.063319 0.103089,-0.1195321 0.212891,-0.234375 0.109802,-0.114843 0.257779,-0.2663494 0.435547,-0.4472657 0.355535,-0.3618325 0.826756,-0.8356374 1.328125,-1.3339843 0.966393,-0.9605744 1.45877,-1.4495731 1.777344,-1.7070313 0.159287,-0.1287291 0.279862,-0.2056431 0.408203,-0.2421875 0.128341,-0.036544 0.245331,-0.019683 0.339844,-0.00195 z m 8.615234,0.00781 c 0.09775,0.0068 0.198437,0.031669 0.294922,0.083984 0.19297,0.104631 0.390115,0.2832722 0.71289,0.5878906 0.33449,0.3156739 1.225095,1.1947876 1.990235,1.9648437 0.646832,0.6509899 0.993402,1.0038463 1.191406,1.2265625 0.099,0.1113581 0.163592,0.1906875 0.208985,0.2675782 0.04539,0.076891 0.06812,0.155859 0.07812,0.2167968 0.06059,0.3689932 -0.139803,0.7461636 -0.464843,0.9746094 -0.274139,0.1926688 -0.613909,0.2587676 -0.898438,0.125 -0.04217,-0.019824 -0.04885,-0.028843 -0.06445,-0.041016 -0.0156,-0.012173 -0.0319,-0.026674 -0.05078,-0.042969 -0.03776,-0.03259 -0.08478,-0.075442 -0.142578,-0.1289062 -0.1156,-0.106929 -0.270861,-0.2554396 -0.457031,-0.4355469 -0.372341,-0.3602147 -0.865719,-0.845725 -1.390626,-1.3730469 -1.041769,-1.0465641 -1.560902,-1.5658845 -1.824218,-1.8984375 -0.131658,-0.1662765 -0.207758,-0.293159 -0.232422,-0.4335937 -0.02466,-0.1404348 0.01543,-0.2582298 0.04687,-0.3535156 0.05416,-0.1641039 0.162917,-0.3059374 0.289062,-0.4316407 0.126145,-0.1257033 0.262947,-0.233258 0.429688,-0.2792969 0.0899,-0.024822 0.185449,-0.036094 0.283203,-0.029297 z m -1.355469,2.7246094 a 0.20418058,0.20418058 0 0 1 0.144531,0.060547 l 1.257813,1.2578125 1.257813,1.2558594 a 0.20418058,0.20418058 0 0 1 -0.01953,0.3066406 l -0.105468,0.082031 c -0.07432,0.05702 -0.177516,0.1138273 -0.316407,0.1894531 -0.138891,0.075626 -0.307457,0.1623352 -0.484375,0.25 -0.353834,0.1753295 -0.734232,0.3527624 -0.974609,0.4433594 -0.622695,0.2346911 -1.347531,0.4345521 -2.003906,0.5546871 -0.770867,0.141091 -2.470765,0.176201 -3.251953,0.06641 -1.318526,-0.185311 -2.615097,-0.6184233 -3.761719,-1.2539066 l -0.482422,-0.2675782 a 0.20418058,0.20418058 0 0 1 -0.04492,-0.3222656 l 1.273437,-1.2714844 1.271485,-1.2734374 A 0.20418058,0.20418058 0 0 1 -36.966797,6.0625 l 0.316406,0.1328125 a 0.20418058,0.20418058 0 0 1 0.002,0 c 0.803461,0.3419025 1.655307,0.5080071 2.636719,0.5097656 1.002115,0.0018 1.784711,-0.1522722 2.652344,-0.5214843 a 0.20418058,0.20418058 0 0 1 0.002,0 l 0.330078,-0.1386719 a 0.20418058,0.20418058 0 0 1 0.07813,-0.017578 z"
       id="path826" />
  </g>
</svg>
