<?xml version="1.0" encoding="UTF-8" standalone="no"?>
<svg
   xmlns:dc="http://purl.org/dc/elements/1.1/"
   xmlns:cc="http://creativecommons.org/ns#"
   xmlns:rdf="http://www.w3.org/1999/02/22-rdf-syntax-ns#"
   xmlns:svg="http://www.w3.org/2000/svg"
   xmlns="http://www.w3.org/2000/svg"
   xmlns:sodipodi="http://sodipodi.sourceforge.net/DTD/sodipodi-0.dtd"
   xmlns:inkscape="http://www.inkscape.org/namespaces/inkscape"
   width="20"
   height="20"
   viewBox="0 0 20 20"
   version="1.1"
   id="svg8"
   sodipodi:docname="question.svg"
   inkscape:version="0.92.3 (unknown)">
  <metadata
     id="metadata14">
    <rdf:RDF>
      <cc:Work
         rdf:about="">
        <dc:format>image/svg+xml</dc:format>
        <dc:type
           rdf:resource="http://purl.org/dc/dcmitype/StillImage" />
        <dc:title></dc:title>
      </cc:Work>
    </rdf:RDF>
  </metadata>
  <defs
     id="defs12" />
  <sodipodi:namedview
     pagecolor="#ffffff"
     bordercolor="#666666"
     borderopacity="1"
     objecttolerance="10"
     gridtolerance="10"
     guidetolerance="10"
     inkscape:pageopacity="0"
     inkscape:pageshadow="2"
     inkscape:window-width="770"
     inkscape:window-height="480"
     id="namedview10"
     showgrid="false"
     fit-margin-top="0"
     fit-margin-left="0"
     fit-margin-right="0"
     fit-margin-bottom="0"
     inkscape:zoom="9.8333333"
     inkscape:cx="10"
     inkscape:cy="10"
     inkscape:window-x="2"
     inkscape:window-y="27"
     inkscape:window-maximized="0"
     inkscape:current-layer="svg8" />
  <g
     id="g6"
     style="fill:none;fill-rule:evenodd"
     transform="translate(-2,-2)">
    <circle
       cx="12"
       cy="12"
       r="10"
       id="circle2"
       style="fill:#8d949b" />
    <path
       d="m 11.023,14.043 c 0,-0.596 0.077,-1.07 0.23,-1.425 0.154,-0.354 0.457,-0.742 0.911,-1.166 0.453,-0.423 0.74,-0.724 0.862,-0.904 0.186,-0.273 0.279,-0.569 0.279,-0.887 0,-0.42 -0.108,-0.742 -0.325,-0.964 -0.216,-0.222 -0.533,-0.333 -0.952,-0.333 -0.4,0 -0.722,0.109 -0.966,0.326 -0.245,0.217 -0.367,0.512 -0.367,0.884 H 9 C 9.01,8.781 9.29,8.154 9.84,7.692 10.392,7.231 11.12,7 12.028,7 12.963,7 13.692,7.228 14.215,7.685 14.738,8.142 15,8.781 15,9.601 c 0,0.73 -0.353,1.45 -1.06,2.157 l -0.859,0.813 c -0.307,0.336 -0.465,0.827 -0.474,1.472 z m -0.118,2.09 c 0,-0.264 0.086,-0.478 0.258,-0.642 0.172,-0.163 0.404,-0.245 0.697,-0.245 0.298,0 0.533,0.084 0.705,0.252 a 0.85,0.85 0 0 1 0.258,0.635 0.835,0.835 0 0 1 -0.25,0.618 C 12.405,16.917 12.167,17 11.86,17 11.553,17 11.317,16.917 11.152,16.751 a 0.841,0.841 0 0 1 -0.247,-0.618 z"
       id="path4"
       inkscape:connector-curvature="0"
       style="fill:#ffffff" />
  </g>
</svg>
