<svg width="16" height="16" version="1.1" viewBox="0 0 16 16" xmlns="http://www.w3.org/2000/svg">
 <g transform="matrix(-1.4874 0 0 1.4874 19.928 -3.8991)" style="stroke-width:.67232">
  <path d="m8.3852 4.565c.26833-.27167.53667-.54333.805-.815 1.3983 1.4167 2.7967 2.8333 4.195 4.25-1.3983 1.4167-2.7967 2.8333-4.195 4.25-.26833-.27167-.53667-.54333-.805-.815 1.13-1.145 2.26-2.29 3.39-3.435-1.13-1.145-2.26-2.29-3.39-3.435z" style="color-rendering:auto;color:#000000;dominant-baseline:auto;font-feature-settings:normal;font-variant-alternates:normal;font-variant-caps:normal;font-variant-east-asian:normal;font-variant-ligatures:normal;font-variant-numeric:normal;font-variant-position:normal;font-variation-settings:normal;image-rendering:auto;inline-size:0;isolation:auto;mix-blend-mode:normal;shape-margin:0;shape-padding:0;shape-rendering:auto;solid-color:#000000;stop-color:#000000;stroke-width:.67232;text-decoration-color:#000000;text-decoration-line:none;text-decoration-style:solid;text-indent:0;text-orientation:mixed;text-transform:none;white-space:normal"/>
  <path d="m9.1895 3.7266-.82812.83789.011719.011719 2.8848 2.9238h-8.6426v1h8.6426l-2.8965 2.9355.82812.83789 4.2187-4.2734-4.2187-4.2734zm-.029297.25391a.48327.48327 0 01.37305.14258l3.4941 3.5371a.48327.48327 0 010 .67969l-3.4941 3.5391a.48327.48327 0 01-.68945-.002l-.10156-.10352a.48327.48327 0 01.00195-.67774l2.5605-2.5957h1.3926v-1h-1.3926l-2.5605-2.5957a.48327.48327 0 01.00195-.68164l.10156-.10156a.48327.48327 0 01.3125-.14062z" style="color-rendering:auto;color:#000000;dominant-baseline:auto;font-feature-settings:normal;font-variant-alternates:normal;font-variant-caps:normal;font-variant-east-asian:normal;font-variant-ligatures:normal;font-variant-numeric:normal;font-variant-position:normal;font-variation-settings:normal;image-rendering:auto;inline-size:0;isolation:auto;mix-blend-mode:normal;shape-margin:0;shape-padding:0;shape-rendering:auto;solid-color:#000000;stop-color:#000000;stroke-width:.67232;text-decoration-color:#000000;text-decoration-line:none;text-decoration-style:solid;text-indent:0;text-orientation:mixed;text-transform:none;white-space:normal"/>
 </g>
</svg>
