<svg width="60mm" height="60mm" version="1.1" viewBox="0 0 60 60" xmlns="http://www.w3.org/2000/svg">
 <path d="m52.315 7.8834c-1.0021-1.0021-2.039-1.9655-2.9072-2.6808-.43408-.35765-.82467-.65238-1.1578-.86414-.16656-.10587-.31829-.18968-.46481-.25251-.1465-.062833-.282-.11724-.47694-.099135-.095052.0088277-.33919-.04785-.6626-.24923-.32341-.20138-.72166-.53087-1.1681-.97731-.40689-.40689-.85003-.77083-1.2499-1.0441-.19993-.13667-.38795-.25135-.56533-.3362-.17738-.084855-.33312-.15196-.54476-.15197-.32188-1.66e-5-.50812.14288-.79306.33761-.28494.19474-.63189.47366-1.0624.85012-.86103.75294-2.0517 1.8927-3.6421 3.4831-1.8537 1.8537-3.0233 2.9861-3.7857 3.6304-.7624.64433-1.0828.74071-1.1839.73131-.27906-.02594-.56151.07343-.87863.26701-.3171.19358-.69484.49275-1.2162.95434-1.0428.92324-2.6503 2.4985-5.2896 5.1408l-6.3057 6.313c-.02989.03013-.05493.06469-.07435.10241l-8.0515 15.408c-.07831.15116-.05606.33487.05612.46293l2.2057 2.5096-4.1051 3.9358c-2.1617 2.0714-6.976 6.8271-7.7605 7.393-.071276.05141-.13736.09503-.20387.13934l2.2525 2.2525c1.3007-.96879 6.4299-5.9698 8.1262-7.666l3.8862-3.8862 1.3219 1.3219-3.6053 3.6053c-1.8831 1.8831-7.0906 6.948-8.4189 7.9354l2.3226 2.3226c.84546-.76131 5.6141-5.4814 7.1722-6.9842l4.7822-4.6092 1.0657.93848 1.3556 1.1891c.12862.11236.3131.13407.46433.05471l15.684-8.3247c.03709-.0188.07113-.04308.10099-.07202l6.1784-6.1682c2.5819-2.5785 4.1224-4.1532 5.0263-5.1778.45191-.51225.7466-.88419.93665-1.1985.18998-.31423.28572-.59476.25999-.87161-.0094-.10078.08846-.42013.73317-1.1821.64473-.76196 1.7768-1.932 3.6304-3.7857 1.5905-1.5905 2.7302-2.7811 3.4831-3.6421.3765-.43053.65545-.77748.85016-1.0624.19468-.28488.33715-.47168.33715-.79352-4.8e-5-.21193-.06648-.36675-.1515-.54429-.08502-.17753-.19932-.36521-.3362-.56533-.27375-.40025-.63919-.84494-1.0461-1.2518-.44644-.44644-.77643-.84524-.97731-1.1681-.20087-.32285-.25625-.56515-.24736-.66073.0181-.19495-.0363-.33045-.09914-.47695-.06283-.1465-.1471-.29871-.25297-.46527-.21174-.33311-.50603-.72322-.86366-1.1573-.71529-.86816-1.681-1.9073-2.6831-2.9095zm-4.8358.23752 4.5966 4.5966-4.5914 4.5914-.54944-.43252c-.20572-.16326-.38211-.30349-.60835-.39607-.22625-.09257-.51152-.10192-.75985-.01076-.49666.18235-.93079.60575-1.7886 1.3855l-1.4931 1.3556-1.3112-1.3112 1.3499-1.3499c.80507-.80507 1.2421-1.1998 1.4318-1.7039.09485-.25208.07901-.54056-.0094-.77248-.08808-.2312-.22239-.42807-.38343-.66962l-.0019-.0019-.46247-.70001zm-4.6372-3.0006 1.3238 1.3238-2.5166 2.5166c-1.4555 1.4555-2.2923 2.3632-2.6827 3.1391-.19517.38791-.27411.77171-.19638 1.1325.07771.36082.29227.65606.56066.92445.12502.12502.10895.10245.09212.16974-.01677.06723-.13685.27059-.41944.55318l-.52465.52465-2.9604-2.9604zm10.912 10.912 1.0516 1.0516-7.3237 7.3237-2.9604-2.9604.52465-.52465c.3198-.3198.5139-.41842.54288-.42225.01452-.0019.01179-.0084.06219.01917.05052.0277.13892.09684.2539.21183.29736.29736.59354.53655.95998.64855.36643.11203.77448.06023 1.1737-.12344.7984-.36734 1.6993-1.2083 3.1984-2.7075zm-21.551-1.9084.64156.64156c.39708.39708.53067.59951.55177.74911.0211.14959-.05266.4151-.31983.9455-.48701.96679-.63305 2.3788-.55881 3.7788.07427 1.3999.36181 2.7664.95626 3.6357 2.2781 3.3302 5.7906 4.5477 9.5439 3.3013.85399-.28358 1.3242-.38921 1.5885-.36245.26424.02681.4384.15224.83794.55178l.63267.63266-6.5052 6.5052-2.1299-2.1299c-.94361-.94361-1.6001-1.5522-2.1295-1.9387-.52934-.3865-.9756-.56723-1.414-.52653-.33365.03102-.64079.11863-.88003.32172-.23924.2031-.37115.49259-.44375.8113-.09776.42945.04967.8961.41712 1.4384.36742.54225.97148 1.2271 1.9317 2.2497l2.1421 2.2805-1.0408 1.0408-2.1299-2.1299c-.94353-.94353-1.5988-1.5537-2.1276-1.9406-.52878-.38691-.97525-.56726-1.414-.52652-.334.03107-.63885.12028-.87816.32358-.2393.2033-.37427.49198-.44703.81082-.09536.41767.03718.86624.35348 1.3644.31632.49824.82779 1.099 1.6114 1.9443.97578 1.0527 1.4749 1.644 1.5735 1.8484.0024.0048.0025.0045.0045.0084-.03444.02567-.0951.07055-.21184.13793-.21729.12537-.43644.26287-.62052.38391-.09203.06052-.14501.10875-.2151.159-.08172-.05047-.18572-.12034-.32685-.23146-.33064-.26034-.7754-.66225-1.2392-1.126-1.0344-1.0344-1.9136-1.6912-2.6882-1.9382-.38732-.1235-.77935-.14248-1.1166.02806-.33729.17053-.55136.51248-.64716.90808-.09629.39791-.01709.83156.2123 1.2691.22938.43753.60029.91022 1.1471 1.5184.38328.42629.66601.75372.83937.9918.17334.23809.21179.37866.21182.38857 0 .01004.02607.0033-.11264.10246-.13872.09918-.41229.23522-.79026.40495-.40418.18143-.50952.20765-.71029.12671-.20078-.08092-.56301-.37877-1.1718-.98755-.50162-.50162-.90258-.8477-1.2761-1.0638-.37348-.21606-.78489-.30604-1.1382-.1487-.60041.26739-.90086.89378-.8515 1.5127.04929.61893.3797 1.2597.93988 1.8199.22586.22586.37898.40887.4489.52745.06992.1186.05605.13418.05471.13888-.0012.0046-.0322.06782-.18185.17167-.14968.10383-.39824.23438-.73554.38202-.13945.06103-.17186.06769-.25577.05098-.08391-.01672-.25425-.09161-.534-.30394-.55954-.42466-1.5223-1.3565-3.2606-3.0838-1.6276-1.6174-2.5603-2.5754-3.0362-3.1708-.23793-.29777-.35583-.50387-.39981-.6252-.04397-.12132-.03856-.14842-.01215-.23566.20047-.66203.43464-.91063.52138-.93848.04338-.01392.09768-.02041.23145.04442.13375.06485.324.20712.54615.42927.56012.56012 1.2014.89101 1.8204.94036.61896.0493 1.2453-.25112 1.5127-.8515.15666-.35195.06841-.76016-.14496-1.1316-.21338-.37145-.55519-.77029-1.0498-1.2649-.5237-.5237-.82756-.89084-.95812-1.1452-.13059-.25432-.13016-.37087-.05612-.61538.12285-.40571.243-.6968.34416-.85011.10116-.15331.12971-.15536.18423-.15899.05456-.0036.2173.03524.47509.20013.25779.16487.59885.43927 1.0198.81778.60803.54671 1.0823.9191 1.5201 1.1488.43782.22975.87023.30829 1.2686.21183.39442-.09549.73486-.31049.90482-.6467.16996-.33621.15169-.72548.0304-1.1115-.24259-.77202-.89037-1.647-1.9107-2.6673-.63775-.63775-1.0305-1.0877-1.2144-1.3836-.18396-.2961-.16737-.34887-.12531-.44329.15747-.35351.29556-.59635.3853-.69299.08973-.09666.05709-.08246.15711-.06172.20005.04149.87665.52302 1.9812 1.5463.83183.77062 1.4249 1.2745 1.9191 1.5871.49407.31248.94144.4448 1.3579.34976.31889-.07274.60751-.2077.81083-.44703.20332-.23932.29253-.54413.32358-.87815.04072-.43881-.1396-.88531-.52654-1.4141-.38691-.52878-.9976-1.1846-1.941-2.128l-2.1294-2.1294 1.0497-1.0497 1.9743 1.9743c1.3036 1.3036 2.3001 2.1147 3.1301 2.4511.41495.16822.82775.2247 1.191.05284.36325-.17185.57626-.53758.67709-.95579.10366-.43014-.000761-.91597-.3587-1.4585-.35789-.54248-.96417-1.2237-1.9658-2.2904l-2.1416-2.28zm6.9369 6.9369c.93232.93232 1.7549 1.8049 2.3207 2.4544.25669.29463.44058.5255.57421.70515-.08186.03194-.08707.05112-.20996.07622-.28631.05852-.66216.09384-1.0587.09725-.79301.0068-1.6897-.12045-2.2006-.33018-1.5243-.62591-1.8804-.98635-2.4741-2.4956-.18996-.48295-.30166-1.3709-.28621-2.1566.0077-.39284.04535-.76407.10427-1.0479.02435-.11728.03996-.11835.0706-.19779.17972.13383.40925.31615.70328.57235.64999.56631 1.524 1.3903 2.4564 2.3226z"/>
</svg>
