<svg width="60mm" height="60mm" version="1.1" viewBox="0 0 60 60" xmlns="http://www.w3.org/2000/svg">
 <path d="m29.999 3.591c-1.1075 0-2.2127.040587-3.0877.12506-.43748.042235-.81617.095201-1.1172.16226-.15053.033531-.28069.071066-.39636.11731-.11567.046237-.22061.091038-.31832.20877-.04764.0574-.21386.16098-.50385.22841-.28998.067429-.69211.10542-1.1855.10542-.44967 0-.89561.043772-1.2676.11369-.18599.034958-.35325.075476-.49816.12661-.1449.051134-.26804.1001-.38499.21704-.17787.17785-.20182.35972-.25166.62477-.04984.26505-.08743.61089-.1173 1.0568-.05973.89187-.08785 2.1795-.08785 3.9372 0 2.0486-.02053 3.3206-.08578 4.0979s-.189 1.0076-.25011 1.0583c-.16853.13987-.2697.35085-.33796.63304s-.11166.65622-.1447 1.1994c-.06606 1.0864-.08392 2.8451-.08217 5.7635l.0041 6.9727c.000127.03316.0054.0661.0155.09767l4.0649 12.963c.04025.1268.15406.21601.28681.22479l2.6055.16795-.09353 4.4431c-.04995 2.3391-.08234 7.2373-.20309 7.9835-.01098.06779-.02339.12841-.03566.18965h2.4893c.18343-1.2541.25425-6.4619.25425-8.3364v-4.2948h1.4609v3.9843c0 2.0811-.07881 7.3674-.26717 8.647h2.5668c.0465-.88788.07331-5.7412.10387-7.4326l.0956-5.1894 1.1074-.07028 1.4061-.09199c.13316-.009.24709-.09893.28681-.22634l4.0665-13.266c.01011-.03088.01551-.06311.01601-.0956l.0057-6.8223c.0019-2.8514-.01701-4.5728-.08372-5.6384-.03335-.53276-.07603-.90115-.14469-1.1798-.06866-.27861-.17076-.48652-.33796-.62528-.06087-.05051-.18327-.28104-.24805-1.0583-.06477-.77729-.08578-2.0493-.08578-4.0979 0-1.7577-.02811-3.0453-.08785-3.9372-.02991-.44593-.06747-.79179-.1173-1.0568-.04984-.26499-.07434-.44693-.25218-.62477-.11713-.11708-.23939-.16592-.38447-.21704-.14508-.05112-.31194-.091659-.49816-.12661-.37243-.069903-.82008-.11369-1.2697-.11369-.49338 0-.89608-.038018-1.1855-.10542-.28939-.067403-.45388-.17068-.50179-.22841-.097716-.11773-.20265-.16254-.31833-.20877-.11567-.046237-.24634-.083772-.39688-.11731-.30106-.067062-.67924-.12002-1.1167-.16226-.87496-.08447-1.9828-.12506-3.0903-.12506zm-2.5409 2.8034h5.0798v5.0741l-.5426.0646c-.20389.02346-.37884.04344-.55501.1173-.17617.07386-.33897.22633-.42581.41393-.17368.3752-.17961.84904-.22273 1.7539l-.07597 1.5741h-1.449v-1.4919c0-.8897.02339-1.3493-.15038-1.7327-.08688-.1917-.25504-.34235-.43201-.42168-.17642-.07909-.35942-.11365-.58188-.15813h-.0021l-.64235-.13126zm-4.2204.90434h1.463v2.7812c0 1.6085.03918 2.5725.25218 3.2169.1065.32219.27496.57789.51728.73432.24232.15643.52402.20102.82062.20102.13817 0 .11681-.0036.1447.04289.02788.04642.0739.22514.0739.53744v.57981h-3.2716zm12.059 0h1.1622v8.0936h-3.2716v-.57981c0-.35342.05276-.51517.06666-.5333.007-.0091.0019-.01116.04496-.02377.04323-.01261.13027-.02325.25735-.02325.32862 0 .62445-.03149.88883-.17208.26438-.14058.46123-.39467.58033-.71675.23819-.64415.2713-1.6067.2713-3.2634zm-12.963 10.854h.709c.43883 0 .6245.03804.71882.10904.09432.071.20027.25847.34572.69918.26511.80332.96463 1.6643 1.7792 2.3968.81459.7325 1.7285 1.3287 2.5373 1.4805 3.099.58134 5.7126-.68679 7.0978-3.4494.31519-.62858.51666-.9468.67748-1.078.16082-.1312.32637-.15813.76791-.15813h.69918v7.1892h-2.3539c-1.0428 0-1.7419.02648-2.2479.10542-.50606.07893-.85252.22565-1.0723.49041-.16722.2015-.28853.41963-.30851.66404-.01998.24442.0671.47727.20309.6935.18328.29132.5226.46771 1.0253.56431.50265.0966 1.2149.14124 2.3105.1757l2.4438.07648v1.1503h-2.3539c-1.0427 0-1.742.02495-2.2479.10335-.50598.0784-.85234.22544-1.0723.49041-.16739.20172-.28654.41947-.30644.66404-.0199.24457.06504.47866.20102.69505.1781.28348.4992.45811.9493.55862.4501.10052 1.0647.14986 1.9647.18397 1.1209.04251 1.7234.09342 1.8908.15193.004.0013.0039.0011.0072.0021-.0048.03322-.01357.09153-.04083.19327-.05079.18934-.09591.38642-.13074.55501-.01741.08429-.02003.14021-.031.20671-.07304.01728-.16912.03613-.30851.05271-.32655.03884-.7944.06253-1.3069.06253-1.1432 0-1.9919.1229-2.5564.41445-.28226.14578-.50937.35192-.60151.63252-.09215.2806-.02148.58785.14418.85938.16667.27307.45005.46893.81856.58394.36851.11502.83466.17126 1.4728.20516.44734.02376.7845.04846 1.0118.08423.22734.03578.32626.09221.33176.09767.0055.0055.01622-.01259-.0057.11886-.02185.13145-.09785.35779-.21291.66043-.12308.32359-.1668.39628-.32246.4625-.15566.06622-.5204.1018-1.1932.1018-.55436 0-.96716.03032-1.2929.1173-.32576.08699-.60281.2646-.71107.54674-.18401.47952-.0039.99165.36535 1.3064.36924.31477.90593.48628 1.525.48628.2496 0 .43534.01651.5395.04341.10417.0269.10511.04317.10697.04651.0019.0033.01969.05527-.0057.19534-.02532.14008-.09054.34956-.19534.61753-.04333.11079-.05756.13237-.11317.1695-.05561.03713-.19111.08986-.46302.12712-.54383.07452-1.5907.0916-3.5057.09767-1.793.0057-2.8378-.0083-3.4298-.07441-.29601-.03307-.47504-.0818-.56638-.12454-.09134-.04274-.10332-.0607-.13694-.1235-.25504-.47659-.26302-.74335-.23048-.80667.01627-.03166.04271-.06526.15244-.10335.10974-.03808.29348-.06459.53898-.06459.61901 2e-6 1.1562-.1715 1.5255-.48628.36925-.31477.54937-.8269.36535-1.3064-.10791-.28104-.38224-.45784-.70538-.54518-.32315-.08734-.73241-.11886-1.279-.11886-.57876 0-.94952-.03497-1.1622-.10335-.21269-.06837-.27685-.13301-.37104-.30903-.1563-.29206-.25075-.5193-.27957-.65991-.02882-.14061-.01418-.15752.01394-.18965.02815-.03214.13955-.1006.3731-.15193.23355-.05134.57363-.08817 1.0154-.11162.63807-.03389 1.1059-.09019 1.4748-.20516.3689-.11497.65121-.31051.81804-.58394.16518-.27071.23449-.57762.14263-.85731-.09187-.27969-.31706-.4847-.59738-.63097-.56064-.29254-1.402-.41806-2.5296-.41806-.7048 0-1.1704-.03157-1.4356-.09353-.26527-.06197-.28526-.10029-.31419-.1757-.10833-.28235-.16621-.49284-.17002-.59583-.0038-.10299-.01402-.07711.05271-.12092.13346-.08762.77342-.1954 1.9492-.2403.8855-.03383 1.4916-.08311 1.9374-.18345.44568-.10034.76599-.27443.94361-.55707.13601-.2164.22092-.45046.20102-.69505-.0199-.24459-.13903-.46232-.30644-.66404-.21992-.26494-.56628-.41202-1.0723-.49041-.50598-.0784-1.2058-.10335-2.2484-.10335h-2.3533v-1.1601h2.1818c1.4406 0 2.4395-.10248 3.084-.37517.32224-.13634.58154-.33323.6873-.6289s.02138-.61547-.154-.90227c-.1804-.29496-.50656-.50572-1.0041-.60772-.49751-.102-1.2089-.1434-2.3518-.17932l-2.4433-.07648zm7.6662 0c1.0303 0 1.967.02766 2.6386.0739.30464.02097.53382.04693.70693.07235-.02759.06288-.01987.07636-.0739.15813-.12587.19054-.31403.41775-.53124.63872-.43443.44195-1.0002.86713-1.3984 1.0335-1.1881.49642-1.5841.49404-2.7461-.01188-.37183-.1619-.9242-.59085-1.3498-1.0335-.2128-.22134-.39714-.44725-.52142-.63665-.05135-.07826-.04331-.08747-.07028-.14831.17326-.02535.40083-.05144.70487-.07235.67209-.04624 1.6104-.0739 2.6407-.0739z"/>
 <path d="m17.341-69.928c-1.1076 0-2.2132.04236-3.0879.12695-.43736.0423-.81622.09499-1.1172.16211-.15048.03356-.28084.07093-.39648.11719s-.22069.0913-.31836.20898c-.04764.0574-.21392.16109-.50391.22852-.28998.06743-.69214.10547-1.1855.10547-.44961 0-.89558.04337-1.2676.11328-.186.03496-.35313.07582-.49805.12695-.14491.05113-.26781.09985-.38477.2168-.1779.17784-.20211.35994-.25195.625s-.08733.61071-.11719 1.0566c-.05972.89187-.08789 2.1798-.08789 3.9375 0 2.073-.01995 3.3444-.08594 4.1152-.03299.38544-.07936.64657-.12891.80664s-.09194.20988-.13086.24219c-.1637.13585-.27518.34615-.34375.62891s-.10953.65761-.13672 1.2129c-.05438 1.1106-.04885 2.9411-.01172 6.0586l.08594 7.2656a.3233.3233 0 00.01563.09375l1.9648 6.1816 1.9668 6.1797a.3233.3233 0 00.28711.22461l2.5059.16211.09375 5.1895c.04712 2.6084.07991 4.0032.20312 4.9805.12321.97728.34758 1.5361.73438 2.3613 1.6389 3.4967 4.8659 6.096 8.6094 6.9297.60244.13416 1.8376.21883 3.4629.28516 1.6253.06632 3.6131.10518 5.6113.11524 1.9982.01005 4.006-.0088 5.6699-.05859 1.664-.04976 2.966-.12515 3.6309-.24805 3.9089-.7226 7.3731-3.4065 9.0684-7.0234.38684-.82537.61167-1.3841.73438-2.3613.1227-.97723.15404-2.3721.20117-4.9805l.0957-5.1895 1.1074-.07031 1.4062-.0918a.3233.3233 0 00.28711-.22656l4.0664-13.266a.3233.3233 0 00.01563-.0957l.0059-6.8223c.0019-2.8514-.01729-4.5731-.08398-5.6387-.03335-.53276-.07587-.90108-.14453-1.1797-.06866-.27861-.17069-.48624-.33789-.625-.06087-.05051-.18327-.28131-.24805-1.0586-.06477-.77729-.08594-2.0491-.08594-4.0977 0-1.7577-.02815-3.0456-.08789-3.9375-.02991-.44593-.06739-.79161-.11723-1.0566s-.07411-.44716-.25195-.625c-.11713-.11708-.23969-.16568-.38477-.2168s-.31183-.092-.49805-.12695c-.37243-.0699-.81989-.11328-1.2695-.11328-.49338 0-.89612-.03807-1.1855-.10547s-.45404-.17079-.50195-.22852c-.09772-.11773-.20268-.16275-.31836-.20898-.11567-.04624-.24595-.08366-.39648-.11719-.30106-.06706-.67971-.11987-1.1172-.16211-.87496-.08447-1.9823-.125-3.0898-.125s-2.2129.04053-3.0879.125c-.43748.04223-.81613.09505-1.1172.16211-.15053.03353-.28081.07095-.39648.11719s-.22064.09125-.31836.20898c-.04764.0574-.21392.16109-.50391.22852-.28998.06743-.69215.10547-1.1855.10547-.44967 0-.89559.04336-1.2676.11328-.18599.03496-.35314.07582-.49805.12695-.1449.05113-.26782.09986-.38477.2168-.17787.17785-.20211.35995-.25195.625s-.08732.61071-.11719 1.0566c-.05973.89187-.08789 2.1798-.08789 3.9375 0 2.0486-.02069 3.3204-.08594 4.0977s-.18889 1.0079-.25 1.0586c-.16853.13987-.26963.35062-.33789.63281s-.1115.65601-.14453 1.1992c-.06606 1.0864-.08378 2.8453-.08203 5.7637l.0039 6.9727a.3233.3233 0 00.01563.09766l4.0645 12.963a.3233.3233 0 00.28711.22461l2.6055.16797-.09375 4.4434c-.04995 2.3391-.08237 3.5331-.20312 4.2793-.12076.74623-.31224 1.0577-.75586 1.7734-.56723.91501-1.2952 1.6169-2.1094 2.0469-.64346.33984-.92719.48259-2.1387.57031-1.2115.08772-3.3085.0918-7.3867.0918s-6.1752-.0041-7.3867-.0918c-1.2115-.08772-1.4952-.23049-2.1387-.57031-.81396-.42986-1.5401-1.1315-2.1074-2.0469-.44358-.71578-.63509-1.0272-.75586-1.7734-.12077-.74623-.15317-1.9402-.20312-4.2793l-.09375-4.4434 2.6035-.16797a.3233.3233 0 00.28711-.22461l4.0664-12.963a.3233.3233 0 00.01563-.09766l.0039-6.9727c.0019-2.9183-.01545-4.6772-.08203-5.7637-.03329-.54325-.07799-.91701-.14648-1.1992-.0685-.28221-.16947-.49303-.33789-.63281-.06089-.05051-.18328-.28131-.24805-1.0586-.06477-.77728-.08594-2.0491-.08594-4.0977 0-1.7577-.02815-3.0456-.08789-3.9375-.02986-.44592-.06735-.7916-.11718-1.0566-.04984-.26504-.07411-.44716-.25195-.625-.11714-.11716-.23969-.16568-.38477-.2168s-.31182-.092-.49805-.12695c-.37244-.0699-.81989-.11328-1.2695-.11328-.49338 0-.89612-.03807-1.1855-.10547s-.45404-.17079-.50195-.22852c-.09773-.11775-.20267-.16274-.31836-.20898-.11569-.04625-.24591-.08363-.39648-.11719-.30114-.06711-.67959-.11981-1.1172-.16211-.8752-.0846-1.9823-.12695-3.0898-.12695zm-2.541 2.8047h5.0801v5.0762l-.54102.0625c-.20386.02346-.37846.04146-.55469.11523-.17622.07377-.34054.22842-.42773.41602-.17439.37519-.17951.84892-.22266 1.7539l-.07617 1.5742h-1.4355l-.07617-1.5742c-.04311-.90491-.04897-1.3787-.22266-1.7539-.08685-.1876-.24962-.34021-.42578-.41406-.17617-.07385-.3508-.09373-.55469-.11719l-.54297-.06445zm31.656 0h5.0801v5.0742l-.54297.06445c-.20389.02346-.37852.04333-.55469.11719s-.33894.22646-.42578.41406c-.17368.3752-.17954.84904-.22266 1.7539l-.07617 1.5742h-1.4492v-1.4922c0-.8897.02338-1.349-.15039-1.7324-.08689-.1917-.25467-.34254-.43164-.42187-.17642-.07909-.35957-.11372-.58203-.1582h-.002l-.64253-.13086zm-35.574.9043h1.1602v2.7812c0 1.6567.0333 2.6195.27148 3.2637.11909.32207.31569.57622.58008.7168s.56004.17188.88867.17188c.12709 0 .21459.01083.25781.02344.04323.01261.03797.01438.04492.02344.01389.01812.06641.17978.06641.5332v.58008h-3.2695zm11.758 0h1.4609v8.0937h-3.2695v-.58008c1e-6-.3123.04633-.49069.07422-.53711.02788-.04642.0064-.04297.14453-.04297.2966 0 .578-.04474.82031-.20117.24232-.15643.41108-.41218.51758-.73437.213-.64439.25195-1.6084.25195-3.2168zm19.596 0h1.4629v2.7812c0 1.6085.03895 2.5724.25195 3.2168.1065.32219.27526.57794.51758.73437s.52371.20117.82031.20117c.13817 0 .11665-.0035.14453.04297.02788.04642.07422.22481.07422.53711v.58008h-3.2715zm12.059 0h1.1621v8.0937h-3.2715v-.58008c0-.35342.05251-.51507.06641-.5332.007-.0091.0017-.01083.04492-.02344.04323-.01261.13073-.02344.25781-.02344.32862 0 .62429-.03129.88867-.17188.26438-.14058.46098-.39472.58008-.7168.23819-.64415.27148-1.607.27148-3.2637zm-44.617 10.854h.69922c.44156 0 .60724.02713.76758.1582s.36056.44944.67578 1.0781c1.2191 2.4313 3.4705 3.6451 5.6953 3.6035s4.4266-1.3387 5.543-3.8145c.23697-.52548.39656-.78158.53125-.88672s.30655-.13867.73242-.13867h.68555v7.1895h-2.3535c-1.0428 0-1.742.02653-2.248.10547-.50606.07894-.85254.22548-1.0723.49023-.16724.2015-.28862.41964-.30859.66406-.01998.24442.06713.47713.20312.69336.18328.29132.52274.46785 1.0254.56445.50265.0966 1.2149.14132 2.3105.17578l2.4434.07617v1.1504h-2.3516c-1.0427 0-1.7436.02513-2.25.10352-.50642.07838-.85215.225-1.0723.49023-.16736.20172-.28673.4195-.30664.66406-.01991.24457.06517.47891.20117.69531.17784.28296.49921.45632.94531.55664s1.052.14977 1.9375.18359c1.1759.04491 1.8164.15293 1.9492.24024.06639.04365.05471.01796.05078.12109-.0039.10313-.06154.31326-.16992.5957-.02893.07541-.04918.11382-.31445.17578-.26528.06196-.73076.09375-1.4355.09375-1.1276 0-1.9691.12533-2.5293.41797-.28012.14632-.50414.35116-.5957.63086s-.02255.58679.14258.85742c.16686.2734.44945.46902.81836.58398s.83654.17118 1.4746.20508c.44734.02375.78459.04821 1.0117.08398.22713.03577.32682.09247.33203.09766.0052.0052.01421-.01246-.0078.11914-.02202.1316-.0978.35745-.21289.66016-.12308.32359-.16661.39667-.32227.46289s-.52059.10156-1.1934.10156c-.55436 0-.96759.03014-1.293.11719-.32538.08704-.60089.26531-.70898.54687-.18401.47952-.004.99187.36523 1.3066.36924.31477.90635.48633 1.5254.48633.2496 0 .43322.0161.53711.04297s.10567.0437.10742.04687c.0018.0032.02159.05509-.0039.19531s-.09243.34915-.19727.61719c-.04335.11086-.05767.1328-.11328.16992-.05562.03712-.19063.08969-.46289.12695-.54453.07452-1.5936.09159-3.5117.09766-2.0359.0064-3.0852.0017-3.5898-.07617-.25233-.03893-.34418-.0889-.38672-.12695-.04254-.03806-.07769-.10594-.14062-.27148-.10296-.27079-.17083-.47733-.19727-.61133-.02643-.134-.0043-.16992-.01367-.1543-.0093.01562-.01679-.000668.09375-.02344.11054-.02277.3056-.0332.56836-.0332.61901 1e-6 1.1561-.17156 1.5254-.48633.36924-.31477.54924-.82712.36523-1.3066-.10809-.2816-.3836-.45983-.70898-.54687s-.73863-.11719-1.293-.11719c-.6728 0-1.0377-.03534-1.1934-.10156-.15568-.06622-.19926-.13931-.32228-.46289-.11509-.30271-.19087-.52855-.21289-.66016-.02202-.1316-.01303-.11395-.0078-.11914.0052-.0052.1049-.06189.33203-.09766s.56439-.06023 1.0117-.08398c.63806-.03389 1.1057-.09011 1.4746-.20508.36892-.11497.65152-.31056.81836-.58398.16508-.27058.23423-.57782.14258-.85742s-.3157-.48451-.5957-.63086c-.56002-.2927-1.4012-.41797-2.5273-.41797-.83615 0-1.3017-.03048-1.4922-.09375-.09522-.03164-.11611-.05147-.14453-.08984-.02843-.03837-.06264-.11789-.09961-.25586-.04827-.18017-.0929-.36897-.125-.52344-.0086-.04147-.0072-.04077-.01367-.07813.09503-.02033.19953-.04169.35742-.0625.40215-.053.97012-.09915 1.5957-.12305.8855-.03383 1.4918-.08325 1.9375-.18359.44568-.10034.76574-.274.94336-.55664.13604-.21641.22108-.45072.20117-.69531-.01991-.2446-.13923-.46235-.30664-.66406-.21992-.26495-.56629-.41184-1.0723-.49023-.50598-.0784-1.2054-.10352-2.248-.10352h-2.3516v-1.1504l2.4414-.07617c1.0957-.03446 1.8098-.07918 2.3125-.17578.50266-.0966.84019-.27309 1.0234-.56445.13598-.21622.2231-.44894.20312-.69336-.01997-.24442-.14135-.46256-.30859-.66406-.21974-.26474-.5662-.4113-1.0723-.49023-.50606-.07894-1.2053-.10547-2.248-.10547h-2.3516zm7.6641 0c1.0303 0 1.9685.02798 2.6406.07422.30487.02097.53373.04684.70703.07226-.02762.06287-.02013.07643-.07422.1582-.12604.19054-.31379.41768-.53125.63867-.43493.44199-1.0021.86677-1.4004 1.0332-1.1881.49642-1.5841.49421-2.7461-.01172-.37175-.16187-.92256-.59055-1.3477-1.0332-.21255-.22133-.39736-.44732-.52148-.63672-.05129-.07826-.04337-.08759-.07031-.14844.17307-.02535.40127-.05135.70508-.07226.67159-.04624 1.6084-.07422 2.6387-.07422zm23.99 0h.70898c.43883 0 .62443.03838.71875.10938s.20026.25851.3457.69922c.26511.80332.96471 1.664 1.7793 2.3965s1.7283 1.3287 2.5371 1.4805c3.099.58134 5.7125-.68659 7.0977-3.4492.31519-.62858.51692-.94693.67774-1.0781.16082-.1312.32604-.1582.76758-.1582h.69922v7.1895h-2.3535c-1.0428 0-1.742.02653-2.248.10547-.50606.07893-.85254.22547-1.0723.49023-.16722.2015-.28861.41965-.30859.66406-.01998.24442.06713.47713.20312.69336.18328.29132.52274.46785 1.0254.56445.50265.0966 1.2149.14132 2.3105.17578l2.4434.07617v1.1504h-2.3535c-1.0427 0-1.7421.02512-2.248.10352-.50598.0784-.85236.22526-1.0723.49023-.16739.20172-.28674.41949-.30664.66406s.06519.47892.20117.69531c.1781.28348.49912.45808.94922.55859.4501.10052 1.0648.14948 1.9648.18359 1.1209.04251 1.7232.09383 1.8906.15234.08373.02926.01709-.01432.01367-.03125-.0034-.01693-.006.07395-.04687.22656-.05079.18934-.09603.3861-.13086.55469-.01742.08429-.02028.14053-.03125.20703-.07304.01729-.1692.03615-.30859.05273-.32655.03884-.7941.0625-1.3066.0625-1.1432 0-1.9921.12251-2.5566.41406-.28226.14578-.50942.35221-.60156.63281-.09215.2806-.02114.58785.14453.85938.16667.27307.44985.46897.81836.58398.36851.11502.83458.17118 1.4727.20508.44734.02375.78437.04821 1.0117.08398.22734.03578.32653.0922.33203.09766.0055.0055.016-.01231-.0059.11914-.02186.13145-.09783.35752-.21289.66016-.12308.32359-.16661.39667-.32227.46289s-.52059.10156-1.1934.10156c-.55436 0-.96721.0302-1.293.11719-.32576.08699-.60268.26473-.71094.54687-.18401.47952-.004.99187.36523 1.3066.36924.31477.90636.48633 1.5254.48633.2496 0 .4349.01607.53906.04297.10417.0269.10556.04353.10742.04687.0019.0033.01946.05524-.0059.19531-.02533.14008-.09051.34922-.19531.61719-.04333.11079-.05767.13279-.11328.16992s-.19098.08969-.46289.12695c-.54383.07452-1.5909.09159-3.5059.09766-1.793.0057-2.8377-.0081-3.4297-.07422-.29601-.03307-.47507-.08226-.56641-.125s-.1031-.06024-.13672-.12305c-.25504-.47659-.26302-.74332-.23047-.80664.01628-.03166.0426-.06543.15234-.10352.10974-.03808.29355-.06445.53906-.06445.61901 1e-6 1.1561-.17156 1.5254-.48633.36925-.31477.54925-.82712.36523-1.3066-.10791-.28104-.38193-.45758-.70508-.54492s-.73272-.11914-1.2793-.11914c-.57876 0-.94942-.03514-1.1621-.10352-.21269-.06837-.2769-.13258-.37109-.30859-.1563-.29206-.25048-.51955-.2793-.66016s-.01447-.15732.01367-.18945c.02815-.03214.1395-.10101.37305-.15234.23355-.05134.57379-.08788 1.0156-.11133.63807-.03389 1.1057-.09011 1.4746-.20508s.65153-.31055.81836-.58398c.16518-.27071.23444-.57773.14258-.85742-.09187-.27969-.31734-.48459-.59766-.63086-.56064-.29254-1.4017-.41797-2.5293-.41797-.7048 0-1.1703-.03178-1.4355-.09375-.26527-.06197-.28552-.10037-.31445-.17578-.10833-.28235-.16611-.49271-.16992-.5957-.0038-.10299-.014-.07728.05273-.12109.13346-.08762.77338-.19534 1.9492-.24024.8855-.03383 1.4918-.08325 1.9375-.18359.44568-.10034.76574-.274.94336-.55664.13601-.2164.22107-.45072.20117-.69531s-.13923-.46234-.30664-.66406c-.21992-.26494-.56629-.41184-1.0723-.49023-.50598-.0784-1.2054-.10352-2.248-.10352h-2.3535v-1.1602h2.1816c1.4406 0 2.4395-.10231 3.084-.375.32224-.13634.58174-.33324.6875-.62891s.02108-.61554-.1543-.90234c-.1804-.29496-.50639-.50542-1.0039-.60742s-1.2087-.14377-2.3516-.17969l-2.4434-.07617zm7.666 0c1.0303 0 1.9671.02798 2.6387.07422.30464.02097.53392.04684.70703.07226-.02759.06288-.0202.07643-.07422.1582-.12587.19054-.31404.4177-.53125.63867-.43443.44195-1.0002.8668-1.3984 1.0332-1.1881.49642-1.5841.49421-2.7461-.01172-.37183-.1619-.92401-.59052-1.3496-1.0332-.2128-.22134-.3972-.44732-.52148-.63672-.05135-.07826-.04334-.0876-.07031-.14844.17326-.02535.40104-.05135.70508-.07226.67209-.04624 1.6103-.07422 2.6406-.07422zm-32.387 25.625h1.4629v4.2949c-1e-6 3.317.20786 5.5025.9043 7.123s1.897 2.629 3.7305 3.5293l1.7266.84766a.3233.3233 0 00.14258.0332h17.186a.3233.3233 0 00.14258-.0332l1.7266-.84766c1.8335-.90033 3.034-1.9088 3.7305-3.5293s.9043-3.8061.9043-7.123v-4.2949h1.4609v3.9844c0 4.7172-.40142 6.8762-1.5781 8.7402-.99548 1.5769-2.9538 3.1566-4.7539 3.8301a.3233.3233 0 00-.01172.0059c-.72223.26956-1.2432.40666-2.625.48438-1.3895.07815-3.6248.08535-7.6758.07813-5.2251-.0093-7.9593-.04761-9.6875-.42188-1.7282-.37426-2.4803-1.0487-3.9082-2.4766-1.2021-1.2021-1.8986-2.2052-2.3203-3.6641-.42172-1.4589-.55664-3.3943-.55664-6.3945z"/>
</svg>
