<?xml version="1.0" encoding="UTF-8" standalone="no"?>
<!-- Created with Inkscape (http://www.inkscape.org/) -->

<svg
   width="60mm"
   height="60mm"
   viewBox="0 0 60 60"
>
  <g
     id="layer1"
     transform="translate(-76.471569,-36.015073)">
    <g
       id="g838"
       transform="translate(-0.44604825,-0.57778142)">
      <path
         id="rect833"
         d="M 94.377818,42.273758 H 131.26101 V 79.156952 H 94.377818 Z"
         style="opacity:1;fill:#999999;fill-opacity:1;fill-rule:nonzero;stroke:none;stroke-width:3.76499987;stroke-linecap:round;stroke-linejoin:round;stroke-miterlimit:4;stroke-dasharray:none;stroke-dashoffset:0;stroke-opacity:1;paint-order:stroke fill markers" />
      <path
         id="path831"
         d="M 81.956077,91.59965 C 81.585734,91.229307 81.540303,89.084298 81.540303,71.969065 V 52.754251 l 5.357812,-5.39265 c 2.946797,-2.965957 5.679322,-5.562193 6.072278,-5.769412 1.065174,-0.561704 37.955787,-0.562931 38.724027,-0.0013 0.49891,0.364741 0.51563,0.915002 0.58497,19.247142 0.0491,12.981627 -0.0172,19.085421 -0.2123,19.556538 -0.15602,0.376682 -2.75447,3.14547 -5.77431,6.152859 l -5.49063,5.467993 H 101.587 c -17.11554,0 -19.26058,-0.04543 -19.630923,-0.415774 z m 42.377963,-7.585189 4.83126,-4.825965 V 61.789462 44.390426 H 111.77156 94.377819 l -4.831258,4.825964 -4.831258,4.825963 v 17.399035 17.399036 h 17.393747 17.39374 z m -5.2229,-0.465704 c -0.51586,-0.515855 -0.52917,-0.881943 -0.52917,-14.552082 V 54.973759 h -14.02292 c -13.670136,0 -14.036226,-0.01331 -14.55208,-0.529167 -0.673697,-0.673696 -0.673697,-1.44297 0,-2.116666 0.516266,-0.516267 0.881944,-0.529167 15.00001,-0.529167 h 14.47085 l 2.68871,-2.645833 c 2.83166,-2.7865 3.40453,-3.065065 4.35293,-2.116667 0.9484,0.948398 0.66983,1.521268 -2.11667,4.352924 l -2.64583,2.68871 v 14.47085 c 0,14.118071 -0.0129,14.483749 -0.52917,15.000014 -0.29104,0.291042 -0.76729,0.529167 -1.05833,0.529167 -0.29104,0 -0.76729,-0.238125 -1.05833,-0.529167 z"
         style="fill:#000000;stroke-width:1" />
    </g>
  </g>
</svg>
