<svg
   width="24"
   height="24"
   viewBox="0 0 24 24">
  <g
     id="g850"
     transform="translate(0.52367745,0.37288135)">
    <path
       d="M 4.0703125,10.109375 C 3.5752767,10.109643 3.0824651,10.312066 2.7324219,10.662109 2.3823786,11.012153 2.1799556,11.504964 2.1796875,12 c 2.681e-4,0.495036 0.2026911,0.987847 0.5527344,1.337891 0.3500432,0.350043 0.8428548,0.552466 1.3378906,0.552734 0.4953781,2.69e-4 0.9874154,-0.202639 1.3378906,-0.552734 C 5.7586784,12.987796 5.9626224,12.495378 5.9628906,12 5.9626224,11.504622 5.7586784,11.012204 5.4082031,10.662109 5.0577279,10.312014 4.5656906,10.109106 4.0703125,10.109375 Z"
       style="opacity:1;fill-opacity:1;fill-rule:nonzero;stroke:none;stroke-width:1.26414728;stroke-linecap:round;stroke-linejoin:round;stroke-miterlimit:4;stroke-dasharray:none;stroke-dashoffset:0;stroke-opacity:1"
       transform="translate(14.810067,-0.3728814)" />
    <path
       d="M 4.0703125,10.109375 C 3.5752767,10.109643 3.0824651,10.312066 2.7324219,10.662109 2.3823786,11.012153 2.1799556,11.504964 2.1796875,12 c 2.681e-4,0.495036 0.2026911,0.987847 0.5527344,1.337891 0.3500432,0.350043 0.8428548,0.552466 1.3378906,0.552734 0.4953781,2.69e-4 0.9874154,-0.202639 1.3378906,-0.552734 C 5.7586784,12.987796 5.9626224,12.495378 5.9628906,12 5.9626224,11.504622 5.7586784,11.012204 5.4082031,10.662109 5.0577279,10.312014 4.5656906,10.109106 4.0703125,10.109375 Z"
       style="opacity:1;fill-opacity:1;fill-rule:nonzero;stroke:none;stroke-width:1.26414728;stroke-linecap:round;stroke-linejoin:round;stroke-miterlimit:4;stroke-dasharray:none;stroke-dashoffset:0;stroke-opacity:1"
       transform="translate(7.4050328,-0.37288135)" />
    <path
       d="M 4.0703125,10.109375 C 3.5752767,10.109643 3.0824651,10.312066 2.7324219,10.662109 2.3823786,11.012153 2.1799556,11.504964 2.1796875,12 c 2.681e-4,0.495036 0.2026911,0.987847 0.5527344,1.337891 0.3500432,0.350043 0.8428548,0.552466 1.3378906,0.552734 0.4953781,2.69e-4 0.9874154,-0.202639 1.3378906,-0.552734 C 5.7586784,12.987796 5.9626224,12.495378 5.9628906,12 5.9626224,11.504622 5.7586784,11.012204 5.4082031,10.662109 5.0577279,10.312014 4.5656906,10.109106 4.0703125,10.109375 Z"
       style="opacity:1;fill-opacity:1;fill-rule:nonzero;stroke:none;stroke-width:1.26414728;stroke-linecap:round;stroke-linejoin:round;stroke-miterlimit:4;stroke-dasharray:none;stroke-dashoffset:0;stroke-opacity:1"
       transform="translate(0,-0.37288135)" />
  </g>
</svg>
