<?xml version="1.0" encoding="UTF-8" standalone="no"?>
<!-- Created with Inkscape (http://www.inkscape.org/) -->

<svg
   width="130.15559mm"
   height="80.02494mm"
   viewBox="0 0 130.15559 80.024942">
  <path
     id="rect833"
     d="M 50.796446,1.975826 H 87.679638 V 38.85902 H 50.796446 Z"
     style="opacity:1;fill:#f2f2f2;fill-opacity:1;fill-rule:nonzero;stroke:none;stroke-width:3.76499987;stroke-linecap:round;stroke-linejoin:round;stroke-miterlimit:4;stroke-dasharray:none;stroke-dashoffset:0;stroke-opacity:1;paint-order:stroke fill markers" />
  <path
     style="color:#000000;font-style:normal;font-variant:normal;font-weight:normal;font-stretch:normal;font-size:medium;line-height:normal;font-family:sans-serif;font-variant-ligatures:normal;font-variant-position:normal;font-variant-caps:normal;font-variant-numeric:normal;font-variant-alternates:normal;font-feature-settings:normal;text-indent:0;text-align:start;text-decoration:none;text-decoration-line:none;text-decoration-style:solid;text-decoration-color:#000000;letter-spacing:normal;word-spacing:normal;text-transform:none;writing-mode:lr-tb;direction:ltr;text-orientation:mixed;dominant-baseline:auto;baseline-shift:baseline;text-anchor:start;white-space:normal;shape-padding:0;clip-rule:nonzero;display:inline;overflow:visible;visibility:visible;opacity:1;isolation:auto;mix-blend-mode:normal;color-interpolation:sRGB;color-interpolation-filters:linearRGB;solid-color:#000000;solid-opacity:1;vector-effect:none;fill:#b3b3b3;fill-opacity:1;fill-rule:nonzero;stroke:none;stroke-width:1.93145835;stroke-linecap:butt;stroke-linejoin:miter;stroke-miterlimit:4;stroke-dasharray:5.79437497, 5.79437496999999979;stroke-dashoffset:0;stroke-opacity:1;color-rendering:auto;image-rendering:auto;shape-rendering:auto;text-rendering:auto;enable-background:accumulate"
     d="m 49.846011,0.283203 -3.421875,3.423828 1.365234,1.365235 3.140625,-3.140625 h 0.554688 V 0 h -0.955079 -0.40039 z m 7.43164,1.648438 h 5.794922 V 0 h -5.794922 z m 11.589844,0 h 5.792969 V 0 h -5.792969 z m 11.587891,0 h 5.794921 V 0 h -5.794921 z m 7.021484,8.43164 h 1.931641 V 4.568359 H 87.47687 Z m -49.248047,1.53711 0.683594,0.683593 -0.964844,0.01758 0.04492,2.55664 1.93164,-0.03516 -0.03906,-2.146481 3.806641,-3.806641 -1.365235,-1.367188 z M 87.47687,21.951172 h 1.931641 V 16.158203 H 87.47687 Z m -49.38086,-1 0.103516,5.792969 1.931641,-0.0332 -0.103516,-5.792969 z m 49.38086,12.589844 h 1.931641 V 27.746094 H 87.47687 Z m -49.173828,-1.001953 0.103515,5.792968 1.931641,-0.03516 -0.103516,-5.792969 z m 49.173828,7.974609 -2.699219,2.697266 1.367188,1.367187 2.980468,-2.982422 0.283204,-0.28125 v -0.40039 -1.578125 H 87.47687 Z M 38.512026,44.125 l 0.103516,5.792969 1.929687,-0.0332 -0.103515,-5.792969 z m 38.072266,7.28125 1.365234,1.365234 4.097657,-4.097656 -1.365235,-1.365234 z m -33.869141,2.167969 h 5.794922 v -1.931641 h -5.794922 z m 11.589844,0 h 5.792969 v -1.931641 h -5.792969 z m 11.587891,0 h 5.794921 v -1.931641 h -5.794921 z"
     id="path827" />
  <path
     style="color:#000000;font-style:normal;font-variant:normal;font-weight:normal;font-stretch:normal;font-size:medium;line-height:normal;font-family:sans-serif;font-variant-ligatures:normal;font-variant-position:normal;font-variant-caps:normal;font-variant-numeric:normal;font-variant-alternates:normal;font-feature-settings:normal;text-indent:0;text-align:start;text-decoration:none;text-decoration-line:none;text-decoration-style:solid;text-decoration-color:#000000;letter-spacing:normal;word-spacing:normal;text-transform:none;writing-mode:lr-tb;direction:ltr;text-orientation:mixed;dominant-baseline:auto;baseline-shift:baseline;text-anchor:start;white-space:normal;shape-padding:0;clip-rule:nonzero;display:inline;overflow:visible;visibility:visible;opacity:1;isolation:auto;mix-blend-mode:normal;color-interpolation:sRGB;color-interpolation-filters:linearRGB;solid-color:#000000;solid-opacity:1;vector-effect:none;fill:#b3b3b3;fill-opacity:1;fill-rule:nonzero;stroke:none;stroke-width:1.87854171;stroke-linecap:butt;stroke-linejoin:miter;stroke-miterlimit:4;stroke-dasharray:5.63562491, 5.63562490999999977;stroke-dashoffset:0;stroke-opacity:1;color-rendering:auto;image-rendering:auto;shape-rendering:auto;text-rendering:auto;enable-background:accumulate"
     d="m 48.273745,14.394531 h 5.634766 v -1.876953 h -5.634766 z m 11.269531,0 h 5.636719 v -1.876953 h -5.636719 z m 11.271485,0 h 5.636718 v -1.876953 h -5.636718 z m 5.248046,9.78125 h 1.878907 v -5.634765 h -1.878907 z m 0,11.271485 h 1.878907 V 29.8125 h -1.878907 z m 0,7.246094 h 1.878907 v -1.609376 h -1.878907 z"
     id="path829" />
  <path
     style="color:#000000;font-style:normal;font-variant:normal;font-weight:normal;font-stretch:normal;font-size:medium;line-height:normal;font-family:sans-serif;font-variant-ligatures:normal;font-variant-position:normal;font-variant-caps:normal;font-variant-numeric:normal;font-variant-alternates:normal;font-feature-settings:normal;text-indent:0;text-align:start;text-decoration:none;text-decoration-line:none;text-decoration-style:solid;text-decoration-color:#000000;letter-spacing:normal;word-spacing:normal;text-transform:none;writing-mode:lr-tb;direction:ltr;text-orientation:mixed;dominant-baseline:auto;baseline-shift:baseline;text-anchor:start;white-space:normal;shape-padding:0;clip-rule:nonzero;display:inline;overflow:visible;visibility:visible;opacity:1;isolation:auto;mix-blend-mode:normal;color-interpolation:sRGB;color-interpolation-filters:linearRGB;solid-color:#000000;solid-opacity:1;vector-effect:none;fill:#b3b3b3;fill-opacity:1;fill-rule:nonzero;stroke:none;stroke-width:2.06375003;stroke-linecap:butt;stroke-linejoin:miter;stroke-miterlimit:4;stroke-dasharray:4.12749998, 4.12749997999999962;stroke-dashoffset:0;stroke-opacity:1;color-rendering:auto;image-rendering:auto;shape-rendering:auto;text-rendering:auto;enable-background:accumulate"
     d="M 81.060854,7.177734 82.521792,8.636719 83.855776,7.302734 82.396792,5.84375 Z m -5.835937,5.837891 1.458984,1.458985 2.917969,-2.917969 -1.458984,-1.460938 z"
     id="path832" />
  <ellipse
     style="opacity:1;fill:#ececec;fill-opacity:1;fill-rule:nonzero;stroke:none;stroke-width:2.06375003;stroke-linecap:round;stroke-linejoin:round;stroke-miterlimit:4;stroke-dasharray:4.12749996, 4.12749995999999975;stroke-dashoffset:0;stroke-opacity:1;paint-order:stroke fill markers"
     id="path815"
     cx="63.80661"
     cy="69.133263"
     rx="32.789661"
     ry="8.3493099" />
  <path
     style="color:#000000;font-style:normal;font-variant:normal;font-weight:normal;font-stretch:normal;font-size:medium;line-height:normal;font-family:sans-serif;font-variant-ligatures:normal;font-variant-position:normal;font-variant-caps:normal;font-variant-numeric:normal;font-variant-alternates:normal;font-feature-settings:normal;text-indent:0;text-align:start;text-decoration:none;text-decoration-line:none;text-decoration-style:solid;text-decoration-color:#000000;letter-spacing:normal;word-spacing:normal;text-transform:none;writing-mode:lr-tb;direction:ltr;text-orientation:mixed;dominant-baseline:auto;baseline-shift:baseline;text-anchor:start;white-space:normal;shape-padding:0;clip-rule:nonzero;display:inline;overflow:visible;visibility:visible;opacity:1;isolation:auto;mix-blend-mode:normal;color-interpolation:sRGB;color-interpolation-filters:linearRGB;solid-color:#000000;solid-opacity:1;vector-effect:none;fill:#bbbbbb;fill-opacity:1;fill-rule:nonzero;stroke:none;stroke-width:1.42874992;stroke-linecap:round;stroke-linejoin:miter;stroke-miterlimit:4;stroke-dasharray:none;stroke-dashoffset:0;stroke-opacity:1;color-rendering:auto;image-rendering:auto;shape-rendering:auto;text-rendering:auto;enable-background:accumulate"
     d="m 47.1483,23.273416 a 0.7144464,0.7144464 0 0 0 -0.498161,1.228349 l 2.596223,2.596225 -2.596223,2.597255 a 0.7144464,0.7144464 0 1 0 1.009757,1.009759 l 2.597258,-2.596224 2.596223,2.596224 a 0.71470313,0.71470313 0 1 0 1.011308,-1.009759 l -2.596741,-2.597255 2.596741,-2.596225 a 0.7144464,0.7144464 0 0 0 -0.519348,-1.226799 0.7144464,0.7144464 0 0 0 -0.49196,0.214974 L 50.257154,26.087197 47.659896,23.48994 A 0.7144464,0.7144464 0 0 0 47.1483,23.273416 Z"
     id="path828"
     />
  <path
     style="color:#000000;font-style:normal;font-variant:normal;font-weight:normal;font-stretch:normal;font-size:medium;line-height:normal;font-family:sans-serif;font-variant-ligatures:normal;font-variant-position:normal;font-variant-caps:normal;font-variant-numeric:normal;font-variant-alternates:normal;font-feature-settings:normal;text-indent:0;text-align:start;text-decoration:none;text-decoration-line:none;text-decoration-style:solid;text-decoration-color:#000000;letter-spacing:normal;word-spacing:normal;text-transform:none;writing-mode:lr-tb;direction:ltr;text-orientation:mixed;dominant-baseline:auto;baseline-shift:baseline;text-anchor:start;white-space:normal;shape-padding:0;clip-rule:nonzero;display:inline;overflow:visible;visibility:visible;opacity:1;isolation:auto;mix-blend-mode:normal;color-interpolation:sRGB;color-interpolation-filters:linearRGB;solid-color:#000000;solid-opacity:1;vector-effect:none;fill:#bbbbbb;fill-opacity:1;fill-rule:nonzero;stroke:none;stroke-width:1.42874992;stroke-linecap:round;stroke-linejoin:miter;stroke-miterlimit:4;stroke-dasharray:none;stroke-dashoffset:0;stroke-opacity:1;color-rendering:auto;image-rendering:auto;shape-rendering:auto;text-rendering:auto;enable-background:accumulate"
     d="m 64.271226,23.425209 a 0.71444641,0.71444641 0 0 0 -0.498161,1.228349 l 2.596223,2.596225 -2.596223,2.597255 a 0.71444641,0.71444641 0 1 0 1.009757,1.009759 l 2.597258,-2.596224 2.596223,2.596224 a 0.71470313,0.71470313 0 1 0 1.011308,-1.009759 l -2.596741,-2.597255 2.596741,-2.596225 a 0.71444641,0.71444641 0 0 0 -0.519348,-1.226799 0.71444641,0.71444641 0 0 0 -0.49196,0.214974 L 67.38008,26.23899 64.782822,23.641733 a 0.71444641,0.71444641 0 0 0 -0.511596,-0.216524 z"
     id="path828-6"
     />
  <path
     style="opacity:1;fill:#bbbbbb;fill-opacity:1;fill-rule:nonzero;stroke:none;stroke-width:1.42874992;stroke-linecap:round;stroke-linejoin:round;stroke-miterlimit:4;stroke-dasharray:none;stroke-dashoffset:0;stroke-opacity:1;paint-order:stroke fill markers"
     d="m 62.821771,40.36869 a 4.0048881,3.5337253 0 0 1 -4.004888,3.533726 4.0048881,3.5337253 0 0 1 -4.004888,-3.533726 4.0048881,3.5337253 0 0 1 4.004888,-3.533725 4.0048881,3.5337253 0 0 1 4.004888,3.533725 z"
     id="path867" />
</svg>
