<svg width="100mm" height="100mm" version="1.1" viewBox="0 0 100 100" xmlns="http://www.w3.org/2000/svg">
 <g>
  <path d="m15.379 91.141c-3.0894-.82837-5.668-3.4505-6.4736-6.5827-.61132-2.3769-.61132-57.969 0-60.346.80682-3.137 3.3325-5.697 6.5095-6.598 1.2891-.36558 3.1709-.41255 13.891-.34673 13.928.0855 13.273-.007 14.995 2.124 1.4142 1.7498 1.2728 4.85-.29354 6.4334-1.6706 1.6888-1.7044 1.693-14.01 1.6993l-11.179.006v53.71h53.71l.006-11.179c.005-10.24.0462-11.268.48763-12.239 1.7675-3.8906 6.9647-4.0985 9.1638-.36655.5057.85816.53254 1.4479.60529 13.298.0662 10.791.0206 12.593-.35224 13.891-.81786 2.8469-2.6793 4.9588-5.5447 6.2908-1.0095.46929-2.4189.49438-30.559.5441-25.281.0447-29.709-.004-30.956-.33807zm31.752-35.457c-2.6382-1.1441-3.8494-4.059-2.769-6.6646.28168-.67939 4.906-5.4863 14.949-15.539 7.9976-8.0054 14.541-14.643 14.541-14.751 0-.10739-3.6081-.19525-8.018-.19525h-8.018l-1.2043-.76374c-3.2625-2.069-3.0403-7.0769.38775-8.7363 1.16-.56155 1.3335-.56747 14.503-.49507l13.329.0733 1.4944.70061c1.903.89219 3.5274 2.5166 4.4196 4.4196l.7006 1.4944.0733 13.329c.0724 13.17.0665 13.343-.49507 14.503-1.6726 3.4552-6.7233 3.6424-8.765.32485l-.72012-1.1701-.0325-8.0036c-.0179-4.402-.10909-8.0036-.20273-8.0036-.0936 0-6.7201 6.5435-14.726 14.541-10.053 10.043-14.86 14.667-15.539 14.949-1.2327.51109-2.7111.50593-3.9092-.0136z" style="stroke-width:.26458"/>
 </g>
</svg>
