<svg width="60mm" height="60mm" version="1.1" viewBox="0 0 60 60" xmlns="http://www.w3.org/2000/svg">
 <path d="m8.9863 5.291a0.25426 0.25426 0 0 0-0.1582 0.078125l-1.2012 1.2617c-0.66891 0.70409-2.5629 2.8046-4.2227 4.6816l-3.0156 3.4102a0.25426 0.25426 0 0 0-0.0625 0.16797v11.234c0 5.8433 0.006283 8.8415 0.17383 10.539 0.083773 0.8488 0.20663 1.3811 0.4082 1.7812 0.20158 0.40012 0.47896 0.64483 0.79687 0.90234 0.1978 0.16048 0.49221 0.26238 1.1719 0.33398 0.67967 0.0716 1.7789 0.12045 3.6602 0.1543 3.7626 0.0677 10.649 0.07556 23.463 0.07422 10.588-0.0011 17.492-0.02251 21.795-0.07813 2.1514-0.02781 3.651-0.06441 4.6406-0.11133 0.4948-0.02346 0.86182-0.04826 1.123-0.07813 0.13062-0.01493 0.23457-0.03189 0.32031-0.05078s0.14715-0.02276 0.24219-0.09766c0.36601-0.2885 0.6729-0.52101 0.90625-0.9082s0.37657-0.89906 0.46875-1.7285c0.18436-1.6589 0.17773-4.6402 0.17773-10.67v-11.297a0.25426 0.25426 0 0 0-0.0625-0.16797l-3.0156-3.4102c-1.6597-1.8771-3.5537-3.9775-4.2227-4.6816l-1.2012-1.2617a0.25426 0.25426 0 0 0-0.18359-0.078125h-41.977a0.25426 0.25426 0 0 0-0.025391 0zm21.014 2.2812c5.4605 0 10.458 0.025128 14.109 0.064453 1.8256 0.019662 3.3141 0.042517 4.3555 0.068359 0.52067 0.012921 0.93012 0.027156 1.2109 0.041016 0.14041 0.00693 0.24915 0.012917 0.32031 0.019531 0.01773 0.00165 0.02454 0.00241 0.03711 0.00391 0.01205 0.013409 0.09904 0.093716 0.23242 0.23242 0.15075 0.15678 0.35134 0.37127 0.58594 0.625 0.4692 0.50745 1.0726 1.1729 1.6875 1.8574 1.177 1.3103 2.3307 2.6277 2.7031 3.0938-0.04198 0.01334-0.01218 0.0062-0.08398 0.01758-0.41736 0.066-1.3128 0.11854-2.9863 0.15234-3.347 0.0676-9.8335 0.07422-22.174 0.07422-12.34 0-18.827-0.0066-22.174-0.07422-1.6733-0.0338-2.5672-0.08634-2.9844-0.15234-0.070179-0.0111-0.04035-0.0045-0.082031-0.01758 0.37243-0.46612 1.5247-1.7835 2.7012-3.0938 0.61462-0.68451 1.2185-1.35 1.6875-1.8574 0.23451-0.25373 0.43523-0.46822 0.58594-0.625 0.13334-0.13871 0.22039-0.21903 0.23242-0.23242 0.012569-0.0015 0.019376-0.00226 0.037109-0.00391 0.07118-0.00661 0.17987-0.012601 0.32031-0.019531 0.28088-0.01386 0.69016-0.028094 1.2109-0.041016 1.0415-0.025843 2.5316-0.048698 4.3574-0.068359 3.6517-0.039323 8.649-0.064453 14.109-0.064453zm-27.107 9.1113h54.215v1.2578h-54.215zm0 3.8242h54.215v13.025h-54.215zm17.73 1.2578c-0.47805 0-0.94916 0.04025-1.3359 0.10742-0.19339 0.03359-0.36659 0.07307-0.51172 0.12109s-0.26222 0.0923-0.36914 0.19922c-0.14428 0.14432-0.1784 0.3089-0.22656 0.54492s-0.08575 0.54264-0.11524 0.93359c-0.05897 0.78191-0.08594 1.898-0.08594 3.3926 0 1.9126 0.0146 3.0071 0.08984 3.6836 0.03762 0.33826 0.08851 0.57487 0.17774 0.76562 0.08922 0.19076 0.22846 0.32594 0.37305 0.41016 0.09078 0.05289 0.16592 0.06977 0.26953 0.0918s0.2293 0.03985 0.37695 0.05859c0.2953 0.03749 0.67982 0.07155 1.1328 0.09961 0.90599 0.05611 2.0842 0.09124 3.3301 0.09375 1.8397 0.0037 2.9778-0.01356 3.7227-0.08203 0.74484-0.06847 1.1322-0.19272 1.3848-0.44531 0.24884-0.24882 0.37494-0.62784 0.44531-1.3223 0.07037-0.69442 0.08984-1.7374 0.08984-3.3965-1e-6 -2.4317 0.01322-3.682-0.38281-4.4414-0.19802-0.37969-0.53133-0.60839-0.94141-0.70898s-0.90256-0.10547-1.5391-0.10547c-0.92703 0-1.5578 0.07082-2.0059 0.33008s-0.63867 0.73386-0.63867 1.3066c0 0.16566-0.03911 0.28889-0.08008 0.35156-0.04096 0.06267-0.06194 0.07031-0.10742 0.07031-0.03255 0-0.0697-0.01498-0.11133-0.06836s-0.07617-0.14207-0.07617-0.24414c0-0.58207-0.26165-1.0712-0.75586-1.3535s-1.1854-0.39258-2.1094-0.39258zm-12.688 0.0098c-0.45381 0-0.90565 0.0276-1.2852 0.08789-0.37951 0.06029-0.6792 0.11475-0.89453 0.33008-0.093955 0.09397-0.11824 0.18009-0.15039 0.28516s-0.05779 0.22854-0.082031 0.37305c-0.048482 0.28901-0.088001 0.66091-0.11914 1.0938-0.06228 0.86569-0.091797 1.9709-0.091797 3.0762s0.029517 2.2105 0.091797 3.0762c0.03114 0.43284 0.070659 0.80475 0.11914 1.0938 0.024241 0.1445 0.049881 0.26798 0.082031 0.37305 0.032151 0.10506 0.056423 0.19119 0.15039 0.28516 0.14768 0.14768 0.3145 0.18064 0.55859 0.22852 0.2441 0.04787 0.56491 0.08419 0.97461 0.11328 0.81941 0.05817 1.9963 0.08398 3.5879 0.08398 1.5916 0 2.77-0.02581 3.5898-0.08398 0.40994-0.02909 0.73035-0.06542 0.97461-0.11328 0.24426-0.04787 0.4108-0.08072 0.55859-0.22852 0.09396-0.09397 0.11824-0.18009 0.15039-0.28516s0.05779-0.22854 0.08203-0.37305c0.04848-0.28901 0.088-0.6609 0.11914-1.0938 0.06228-0.86569 0.0918-1.9709 0.0918-3.0762s-0.02952-2.2105-0.0918-3.0762c-0.03114-0.43284-0.07066-0.80475-0.11914-1.0938-0.02424-0.1445-0.04988-0.26798-0.08203-0.37305-0.03215-0.1051-0.05642-0.19122-0.15039-0.28519-0.21542-0.21544-0.51481-0.26979-0.89453-0.33008s-0.83124-0.08789-1.2852-0.08789c-0.45391 0-0.90739 0.0276-1.2871 0.08789s-0.6791 0.11465-0.89453 0.33008c-0.28787 0.28787-0.42773 0.76425-0.42773 1.209 0 0.21028-0.04025 0.31252-0.07422 0.35156s-0.09044 0.07031-0.25977 0.07031c-0.16932 0-0.22579-0.03127-0.25976-0.07031s-0.07422-0.14129-0.07422-0.35156c1e-6 -0.44474-0.13986-0.92111-0.42774-1.209-0.21533-0.21534-0.51502-0.26979-0.89453-0.33008s-0.83135-0.08789-1.2852-0.08789zm0 2.5566c0.16893 0 0.22351 0.03072 0.25781 0.07031 0.034301 0.0396 0.076172 0.14324 0.076172 0.35352 0 0.57068 0.18774 1.0443 0.63086 1.3047s1.0672 0.33203 1.9766 0.33203c0.90933 0 1.5334-0.07166 1.9766-0.33203 0.44312-0.26037 0.63086-0.734 0.63086-1.3047 0-0.20993 0.04145-0.31168 0.07617-0.35156s0.09084-0.07227 0.25976-0.07227c0.12205 0 0.16074 0.01451 0.16992 0.02148 0.0092 7e-3 0.04648 0.04841 0.08008 0.2168 0.06719 0.33678 0.08399 1.0794 0.08399 2.4512v2.6875h-6.5527v-2.6875c0-1.3718 0.016797-2.1144 0.083984-2.4512 0.033594-0.16838 0.070894-0.20982 0.080078-0.2168 0.00918-7e-3 0.047864-0.02148 0.16992-0.02148zm12.797 0c0.05009 0 0.0641 0.0041 0.10547 0.07227 0.04137 0.06814 0.08203 0.20801 0.08203 0.40039 0 0.53949 0.2632 0.99606 0.75195 1.2461 0.48875 0.25003 1.1725 0.3418 2.1094 0.3418 0.81794 0 1.4612-0.12455 1.9258-0.41406 0.46461-0.28952 0.72266-0.76928 0.72266-1.332 0-0.10207 0.0343-0.19214 0.07617-0.24609 0.04188-0.05395 0.07946-0.06836 0.11133-0.06836 0.02948 0-0.0085-0.02234 0.01172 0.0078 0.02024 0.03015 0.06382 0.14026 0.09375 0.33984 0.05985 0.39917 0.08203 1.1351 0.08203 2.3418v2.6875h-6.2598v-2.6875c0-1.2068 0.02218-1.9426 0.08203-2.3418 0.02993-0.19958 0.07351-0.3097 0.09375-0.33984s-0.01776-0.0078 0.01172-0.0078zm-17.84 11.769h54.215v0.5957c0 0.22064-0.04386 0.41938-0.10742 0.56055s-0.14435 0.21287-0.19531 0.23242a0.25426 0.25426 0 0 0-2e-3 0c0.07001-0.0269 0.03159-0.0085 0.0039-0.0059s-0.07087 0.0068-0.12695 0.0098c-0.11218 6e-3 -0.27491 0.01183-0.48242 0.01758-0.41502 0.01149-1.0114 0.02148-1.7598 0.03125-1.4967 0.01953-3.6052 0.0363-6.123 0.04883-5.0358 0.02507-11.705 0.03538-18.373 0.0332-6.6676-0.0022-13.335-0.01657-18.367-0.04492-2.5163-0.01418-4.6229-0.03223-6.1172-0.05273-0.74714-0.01025-1.3423-0.02145-1.7559-0.0332-0.2068-0.0059-0.3691-0.0115-0.48047-0.01758-0.053954-0.0029-0.093811-0.0072-0.12109-0.0098 0.018425 0.0049-0.060504-0.05564-0.11328-0.19922-0.054786-0.14904-0.09375-0.35649-0.09375-0.5625z"/>
 <g stroke="#000" stroke-linecap="round">
  <g transform="matrix(1.116 0 0 1.116 -3.4806 -3.4806)" fill="none" stroke-width="1.1854">
   <path d="m38.863 23.67v7.611"/>
   <path d="m42.725 23.67v7.611"/>
   <path d="m46.587 23.67v7.611"/>
   <path d="m50.449 23.67v7.611"/>
  </g>
  <path d="m35.217 24.372a1.1821 1.1821 0 0 1-1.1821 1.1821 1.1821 1.1821 0 0 1-1.1821-1.1821 1.1821 1.1821 0 0 1 1.1821-1.1821 1.1821 1.1821 0 0 1 1.1821 1.1821z" fill="#fff" stroke-opacity=".99673" stroke-width="2.3813" style="paint-order:stroke fill markers"/>
  <path d="m35.217 29.547a1.1821 1.1821 0 0 1-1.1821 1.1821 1.1821 1.1821 0 0 1-1.1821-1.1821 1.1821 1.1821 0 0 1 1.1821-1.1821 1.1821 1.1821 0 0 1 1.1821 1.1821z" fill="#fff" stroke-opacity=".99673" stroke-width="2.3813" style="paint-order:stroke fill markers"/>
 </g>
 <path transform="translate(0 .44943)" d="m29.445 37.48c-0.36671 2.1e-4 -0.66971 0.30321-0.66992 0.66992v5.2246c-0.15709 0.0037-0.29904 0.0057-0.52734 0.01563-0.3191 0.01384-0.5826 0.03346-0.78906 0.05469-0.09685 0.01-0.1996 0.02004-0.31641 0.04492-0.02617 0.0057-0.14262 0.02941-0.26953 0.08398-0.02097 0.0091-0.17331 0.07143-0.32617 0.20312a0.26969 0.26969 0 0 0 0 2e-3c-0.0572 0.04947-0.10024 0.09535-0.13281 0.13281-0.04933 0.05669-0.078 0.09958-0.0918 0.11914-0.02573 0.0365-0.0597 0.09318-0.0625 0.09766-3e-6 5e-6 -0.0019 0.0019-2e-3 2e-3 -1.6e-5 2.8e-5 3e-6 0.0019 0 2e-3 -0.0031 0.0072-0.08782 0.20384-0.11719 0.27344-0.0043 0.0081-0.0051 0.01223-0.0039 0.0098a0.26969 0.26969 0 0 0-0.01563 0.03906 0.26969 0.26969 0 0 0-0.0039 0.0078c-1.83e-4 6.31e-4 -0.06055 0.43492-0.06055 0.43555v3.6406h-1.6582c-0.66732 0-1.0753 0.43181-1.2363 0.66211-0.14037 0.20076-0.21025 0.39011-0.25 0.50781-0.09051 0.26801-0.13983 0.53253-0.17969 0.8125-0.02531 0.1778-0.02705 0.36727-0.0332 0.55469h-11.377c-0.77873-0.02114-1.459 0.6385-1.459 1.418 0 0.77947 0.68026 1.4391 1.459 1.418h11.369c8e-3 0.2392 0.01007 0.48374 0.04102 0.70117 0.03985 0.28 0.0892 0.54452 0.17969 0.8125 0.03863 0.1144 0.10785 0.30648 0.25 0.50977 0.16299 0.23308 0.57141 0.66016 1.2363 0.66016h11.518c0.66413 0 1.0733-0.4242 1.2383-0.66016 0.14133-0.20214 0.21239-0.39259 0.25195-0.50977 0.09051-0.26801 0.13983-0.53253 0.17969-0.8125 0.0285-0.20024 0.03022-0.41504 0.03711-0.62695h11.055c0.77873 0.02114 1.459-0.63849 1.459-1.418s-0.68026-1.4391-1.459-1.418h-11.055c-0.0069-0.21262-0.0085-0.42815-0.03711-0.62891-0.03985-0.28-0.08921-0.54452-0.17969-0.8125-0.04064-0.12035-0.11235-0.30816-0.25195-0.50781-0.16302-0.23313-0.57175-0.66211-1.2383-0.66211h-1.6738v-3.6406c0-5.24e-4 -0.03636-0.25748-0.05078-0.35938v-2e-3a0.26969 0.26969 0 0 0 0-0.0039 0.26969 0.26969 0 0 0-0.0098-0.06836 0.26969 0.26969 0 0 0 0-0.0039c-1.83e-4 -6.3e-4 -0.14027-0.3275-0.14062-0.32813a0.26969 0.26969 0 0 0-0.0039-0.0059c6.19e-4 0.0011-0.0082-0.01491-0.0098-0.01758a0.26969 0.26969 0 0 0-0.0059-0.0059c-0.0086-0.01468-0.01724-0.03247-0.03906-0.06445-0.01285-0.01882-0.04246-0.06574-0.0957-0.12695-0.04961-0.05699-0.09842-0.1017-0.13672-0.13476-0.1516-0.13059-0.27985-0.18406-0.32422-0.20312-0.12365-0.05313-0.23438-0.07648-0.26953-0.08398-0.11662-0.02485-0.21923-0.03493-0.31641-0.04492-0.2064-0.02126-0.46802-0.04085-0.78711-0.05469-0.20039-0.0087-0.32251-0.0104-0.44141-0.01367v-5.2266c-2.11e-4 -0.36671-0.30321-0.66971-0.66992-0.66992zm0.70508 8.6777c0.80502 0 1.1142 0.01661 1.5801 0.03711v1.9355c-0.46625 0.02089-0.77542 0.03906-1.5801 0.03906-0.80481 0-1.1153-0.01818-1.582-0.03906v-1.9355c0.46635-0.02051 0.77693-0.03711 1.582-0.03711zm-4.6348 5.2188h9.2852c0.03423 0.34342 0.06836 0.71236 0.06836 1.1914 0 0.47969-0.03411 0.84829-0.06836 1.1914h-9.2852c-0.0341-0.34296-0.06836-0.71122-0.06836-1.1914 0-0.47949 0.03429-0.84812 0.06836-1.1914z" color="#000000" color-rendering="auto" dominant-baseline="auto" image-rendering="auto" shape-rendering="auto" solid-color="#000000" style="font-feature-settings:normal;font-variant-alternates:normal;font-variant-caps:normal;font-variant-ligatures:normal;font-variant-numeric:normal;font-variant-position:normal;isolation:auto;mix-blend-mode:normal;shape-padding:0;text-decoration-color:#000000;text-decoration-line:none;text-decoration-style:solid;text-indent:0;text-orientation:mixed;text-transform:none;white-space:normal"/>
</svg>
