<svg width="60mm" height="60mm" version="1.1" viewBox="0 0 60 60" xmlns="http://www.w3.org/2000/svg">
 <path d="m8.9863 5.291a.25426.25426 0 00-.1582.078125l-1.2012 1.2617c-.66891.70409-2.5629 2.8046-4.2227 4.6816l-3.0156 3.4102a.25426.25426 0 00-.0625.16797v11.234c0 5.8433.006283 8.8415.17383 10.539.083773.8488.20663 1.3811.4082 1.7812.20158.40012.47896.64483.79687.90234.1978.16048.49221.26238 1.1719.33398.67967.0716 1.7789.12045 3.6602.1543 3.7626.0677 10.649.07556 23.463.07422 10.588-.0011 17.492-.02251 21.795-.07813 2.1514-.02781 3.651-.06441 4.6406-.11133.4948-.02346.86182-.04826 1.123-.07813.13062-.01493.23457-.03189.32031-.05078s.14715-.02276.24219-.09766c.36601-.2885.6729-.52101.90625-.9082s.37657-.89906.46875-1.7285c.18436-1.6589.17773-4.6402.17773-10.67v-11.297a.25426.25426 0 00-.0625-.16797l-3.0156-3.4102c-1.6597-1.8771-3.5537-3.9775-4.2227-4.6816l-1.2012-1.2617a.25426.25426 0 00-.18359-.078125h-41.977a.25426.25426 0 00-.025391 0zm21.014 2.2812c5.4605 0 10.458.025128 14.109.064453 1.8256.019662 3.3141.042517 4.3555.068359.52067.012921.93012.027156 1.2109.041016.14041.00693.24915.012917.32031.019531.01773.00165.02454.00241.03711.00391.01205.013409.09904.093716.23242.23242.15075.15678.35134.37127.58594.625.4692.50745 1.0726 1.1729 1.6875 1.8574 1.177 1.3103 2.3307 2.6277 2.7031 3.0938-.04198.01334-.01218.0062-.08398.01758-.41736.066-1.3128.11854-2.9863.15234-3.347.0676-9.8335.07422-22.174.07422-12.34 0-18.827-.0066-22.174-.07422-1.6733-.0338-2.5672-.08634-2.9844-.15234-.070179-.0111-.04035-.0045-.082031-.01758.37243-.46612 1.5247-1.7835 2.7012-3.0938.61462-.68451 1.2185-1.35 1.6875-1.8574.23451-.25373.43523-.46822.58594-.625.13334-.13871.22039-.21903.23242-.23242.012569-.0015.019376-.00226.037109-.00391.07118-.00661.17987-.012601.32031-.019531.28088-.01386.69016-.028094 1.2109-.041016 1.0415-.025843 2.5316-.048698 4.3574-.068359 3.6517-.039323 8.649-.064453 14.109-.064453zm-27.107 9.1113h54.215v1.2578h-54.215zm0 3.8242h54.215v13.025h-54.215zm17.73 1.2578c-.47805 0-.94916.04025-1.3359.10742-.19339.03359-.36659.07307-.51172.12109s-.26222.0923-.36914.19922c-.14428.14432-.1784.3089-.22656.54492s-.08575.54264-.11524.93359c-.05897.78191-.08594 1.898-.08594 3.3926 0 1.9126.0146 3.0071.08984 3.6836.03762.33826.08851.57487.17774.76562.08922.19076.22846.32594.37305.41016.09078.05289.16592.06977.26953.0918s.2293.03985.37695.05859c.2953.03749.67982.07155 1.1328.09961.90599.05611 2.0842.09124 3.3301.09375 1.8397.0037 2.9778-.01356 3.7227-.08203.74484-.06847 1.1322-.19272 1.3848-.44531.24884-.24882.37494-.62784.44531-1.3223.07037-.69442.08984-1.7374.08984-3.3965-1e-6-2.4317.01322-3.682-.38281-4.4414-.19802-.37969-.53133-.60839-.94141-.70898s-.90256-.10547-1.5391-.10547c-.92703 0-1.5578.07082-2.0059.33008s-.63867.73386-.63867 1.3066c0 .16566-.03911.28889-.08008.35156-.04096.06267-.06194.07031-.10742.07031-.03255 0-.0697-.01498-.11133-.06836s-.07617-.14207-.07617-.24414c0-.58207-.26165-1.0712-.75586-1.3535s-1.1854-.39258-2.1094-.39258zm-12.688.0098c-.45381 0-.90565.0276-1.2852.08789-.37951.06029-.6792.11475-.89453.33008-.093955.09397-.11824.18009-.15039.28516s-.05779.22854-.082031.37305c-.048482.28901-.088001.66091-.11914 1.0938-.06228.86569-.091797 1.9709-.091797 3.0762s.029517 2.2105.091797 3.0762c.03114.43284.070659.80475.11914 1.0938.024241.1445.049881.26798.082031.37305.032151.10506.056423.19119.15039.28516.14768.14768.3145.18064.55859.22852.2441.04787.56491.08419.97461.11328.81941.05817 1.9963.08398 3.5879.08398s2.77-.02581 3.5898-.08398c.40994-.02909.73035-.06542.97461-.11328.24426-.04787.4108-.08072.55859-.22852.09396-.09397.11824-.18009.15039-.28516s.05779-.22854.08203-.37305c.04848-.28901.088-.6609.11914-1.0938.06228-.86569.0918-1.9709.0918-3.0762s-.02952-2.2105-.0918-3.0762c-.03114-.43284-.07066-.80475-.11914-1.0938-.02424-.1445-.04988-.26798-.08203-.37305-.03215-.1051-.05642-.19122-.15039-.28519-.21542-.21544-.51481-.26979-.89453-.33008s-.83124-.08789-1.2852-.08789c-.45391 0-.90739.0276-1.2871.08789s-.6791.11465-.89453.33008c-.28787.28787-.42773.76425-.42773 1.209 0 .21028-.04025.31252-.07422.35156s-.09044.07031-.25977.07031c-.16932 0-.22579-.03127-.25976-.07031s-.07422-.14129-.07422-.35156c1e-6-.44474-.13986-.92111-.42774-1.209-.21533-.21534-.51502-.26979-.89453-.33008s-.83135-.08789-1.2852-.08789zm0 2.5566c.16893 0 .22351.03072.25781.07031.034301.0396.076172.14324.076172.35352 0 .57068.18774 1.0443.63086 1.3047s1.0672.33203 1.9766.33203c.90933 0 1.5334-.07166 1.9766-.33203.44312-.26037.63086-.734.63086-1.3047 0-.20993.04145-.31168.07617-.35156s.09084-.07227.25976-.07227c.12205 0 .16074.01451.16992.02148.0092.007.04648.04841.08008.2168.06719.33678.08399 1.0794.08399 2.4512v2.6875h-6.5527v-2.6875c0-1.3718.016797-2.1144.083984-2.4512.033594-.16838.070894-.20982.080078-.2168.00918-.007.047864-.02148.16992-.02148zm12.797 0c.05009 0 .0641.0041.10547.07227.04137.06814.08203.20801.08203.40039 0 .53949.2632.99606.75195 1.2461.48875.25003 1.1725.3418 2.1094.3418.81794 0 1.4612-.12455 1.9258-.41406.46461-.28952.72266-.76928.72266-1.332 0-.10207.0343-.19214.07617-.24609.04188-.05395.07946-.06836.11133-.06836.02948 0-.0085-.02234.01172.0078.02024.03015.06382.14026.09375.33984.05985.39917.08203 1.1351.08203 2.3418v2.6875h-6.2598v-2.6875c0-1.2068.02218-1.9426.08203-2.3418.02993-.19958.07351-.3097.09375-.33984s-.01776-.0078.01172-.0078zm-17.84 11.769h54.215v.5957c0 .22064-.04386.41938-.10742.56055s-.14435.21287-.19531.23242a.25426.25426 0 00-.002 0c.07001-.0269.03159-.0085.0039-.0059s-.07087.0068-.12695.0098c-.11218.006-.27491.01183-.48242.01758-.41502.01149-1.0114.02148-1.7598.03125-1.4967.01953-3.6052.0363-6.123.04883-5.0358.02507-11.705.03538-18.373.0332-6.6676-.0022-13.335-.01657-18.367-.04492-2.5163-.01418-4.6229-.03223-6.1172-.05273-.74714-.01025-1.3423-.02145-1.7559-.0332-.2068-.0059-.3691-.0115-.48047-.01758-.053954-.0029-.093811-.0072-.12109-.0098.018425.0049-.060504-.05564-.11328-.19922-.054786-.14904-.09375-.35649-.09375-.5625z"/>
 <path d="m39.891 22.273a.66145.66145 0 00-.66211.66211v8.4941a.66145.66145 0 00.66211.66016.66145.66145 0 00.66211-.66016v-8.4941a.66145.66145 0 00-.66211-.66211z" style="color-rendering:auto;color:#000000;dominant-baseline:auto;;font-feature-settings:normal;font-variant-alternates:normal;font-variant-caps:normal;font-variant-east-asian:normal;font-variant-ligatures:normal;font-variant-numeric:normal;font-variant-position:normal;font-variation-settings:normal;image-rendering:auto;inline-size:0;isolation:auto;mix-blend-mode:normal;shape-margin:0;shape-padding:0;shape-rendering:auto;solid-color:#000000;stop-color:#000000;text-decoration-color:#000000;text-decoration-line:none;text-decoration-style:solid;text-indent:0;text-orientation:mixed;text-transform:none;white-space:normal"/>
 <path d="m44.201 22.273a.66145.66145 0 00-.66211.66211v8.4941a.66145.66145 0 00.66211.66016.66145.66145 0 00.66016-.66016v-8.4941a.66145.66145 0 00-.66016-.66211z" style="color-rendering:auto;color:#000000;dominant-baseline:auto;font-feature-settings:normal;font-variant-alternates:normal;font-variant-caps:normal;font-variant-east-asian:normal;font-variant-ligatures:normal;font-variant-numeric:normal;font-variant-position:normal;font-variation-settings:normal;image-rendering:auto;inline-size:0;isolation:auto;mix-blend-mode:normal;shape-margin:0;shape-padding:0;shape-rendering:auto;solid-color:#000000;stop-color:#000000;text-decoration-color:#000000;text-decoration-line:none;text-decoration-style:solid;text-indent:0;text-orientation:mixed;text-transform:none;white-space:normal"/>
 <path d="m48.51 22.273a.66145.66145 0 00-.66016.66211v8.4941a.66145.66145 0 00.66016.66016.66145.66145 0 00.66211-.66016v-8.4941a.66145.66145 0 00-.66211-.66211z" style="color-rendering:auto;color:#000000;dominant-baseline:auto;font-feature-settings:normal;font-variant-alternates:normal;font-variant-caps:normal;font-variant-east-asian:normal;font-variant-ligatures:normal;font-variant-numeric:normal;font-variant-position:normal;font-variation-settings:normal;image-rendering:auto;inline-size:0;isolation:auto;mix-blend-mode:normal;shape-margin:0;shape-padding:0;shape-rendering:auto;solid-color:#000000;stop-color:#000000;text-decoration-color:#000000;text-decoration-line:none;text-decoration-style:solid;text-indent:0;text-orientation:mixed;text-transform:none;white-space:normal"/>
 <path d="m52.82 22.273a.66145.66145 0 00-.66211.66211v8.4941a.66145.66145 0 00.66211.66016.66145.66145 0 00.66211-.66016v-8.4941a.66145.66145 0 00-.66211-.66211z" style="color-rendering:auto;color:#000000;dominant-baseline:auto;font-feature-settings:normal;font-variant-alternates:normal;font-variant-caps:normal;font-variant-east-asian:normal;font-variant-ligatures:normal;font-variant-numeric:normal;font-variant-position:normal;font-variation-settings:normal;image-rendering:auto;inline-size:0;isolation:auto;mix-blend-mode:normal;shape-margin:0;shape-padding:0;shape-rendering:auto;solid-color:#000000;stop-color:#000000;text-decoration-color:#000000;text-decoration-line:none;text-decoration-style:solid;text-indent:0;text-orientation:mixed;text-transform:none;white-space:normal"/>
 <g>
  <path d="m34.035 22c-1.2963 0-2.373 1.0748-2.373 2.3711s1.0767 2.373 2.373 2.373 2.373-1.0767 2.373-2.373-1.0767-2.3711-2.373-2.3711zm0 2.3633c-.009381 0 .007813.017194.007813.007813s-.017194.009765-.007813.009765-.009765-.019146-.009765-.009765.019146-.007813.009765-.007813z" style="color-rendering:auto;color:#000000;dominant-baseline:auto;fill-opacity:.99673;font-feature-settings:normal;font-variant-alternates:normal;font-variant-caps:normal;font-variant-east-asian:normal;font-variant-ligatures:normal;font-variant-numeric:normal;font-variant-position:normal;font-variation-settings:normal;image-rendering:auto;inline-size:0;isolation:auto;mix-blend-mode:normal;paint-order:stroke fill markers;shape-margin:0;shape-padding:0;shape-rendering:auto;solid-color:#000000;stop-color:#000000;text-decoration-color:#000000;text-decoration-line:none;text-decoration-style:solid;text-indent:0;text-orientation:mixed;text-transform:none;white-space:normal"/>
  <path d="m35.217 24.372c0 .65286-.52924 1.1821-1.1821 1.1821s-1.1821-.52924-1.1821-1.1821.52924-1.1821 1.1821-1.1821 1.1821.52924 1.1821 1.1821z" style="color-rendering:auto;color:#000000;dominant-baseline:auto;fill:#ffffff;font-feature-settings:normal;font-variant-alternates:normal;font-variant-caps:normal;font-variant-east-asian:normal;font-variant-ligatures:normal;font-variant-numeric:normal;font-variant-position:normal;font-variation-settings:normal;image-rendering:auto;inline-size:0;isolation:auto;mix-blend-mode:normal;paint-order:stroke fill markers;shape-margin:0;shape-padding:0;shape-rendering:auto;solid-color:#000000;stop-color:#000000;text-decoration-color:#000000;text-decoration-line:none;text-decoration-style:solid;text-indent:0;text-orientation:mixed;text-transform:none;white-space:normal"/>
 </g>
 <g>
  <path d="m34.035 27.174c-1.2963 0-2.373 1.0767-2.373 2.373s1.0767 2.373 2.373 2.373 2.373-1.0767 2.373-2.373-1.0767-2.373-2.373-2.373zm0 2.3652c-.009381 0 .007813.017194.007813.007813s-.017194.007813-.007813.007813-.009765-.017194-.009765-.007813.019146-.007813.009765-.007813z" style="color-rendering:auto;color:#000000;dominant-baseline:auto;fill-opacity:.99673;font-feature-settings:normal;font-variant-alternates:normal;font-variant-caps:normal;font-variant-east-asian:normal;font-variant-ligatures:normal;font-variant-numeric:normal;font-variant-position:normal;font-variation-settings:normal;image-rendering:auto;inline-size:0;isolation:auto;mix-blend-mode:normal;paint-order:stroke fill markers;shape-margin:0;shape-padding:0;shape-rendering:auto;solid-color:#000000;stop-color:#000000;text-decoration-color:#000000;text-decoration-line:none;text-decoration-style:solid;text-indent:0;text-orientation:mixed;text-transform:none;white-space:normal"/>
  <path d="m35.217 29.547c0 .65286-.52924 1.1821-1.1821 1.1821s-1.1821-.52924-1.1821-1.1821.52924-1.1821 1.1821-1.1821 1.1821.52924 1.1821 1.1821z" style="color-rendering:auto;color:#000000;dominant-baseline:auto;fill:#ffffff;font-feature-settings:normal;font-variant-alternates:normal;font-variant-caps:normal;font-variant-east-asian:normal;font-variant-ligatures:normal;font-variant-numeric:normal;font-variant-position:normal;font-variation-settings:normal;image-rendering:auto;inline-size:0;isolation:auto;mix-blend-mode:normal;paint-order:stroke fill markers;shape-margin:0;shape-padding:0;shape-rendering:auto;solid-color:#000000;stop-color:#000000;text-decoration-color:#000000;text-decoration-line:none;text-decoration-style:solid;text-indent:0;text-orientation:mixed;text-transform:none;white-space:normal"/>
 </g>
 <path transform="translate(0 .44943)" d="m29.445 37.48c-.36671.00021-.66971.30321-.66992.66992v5.2246c-.15709.0037-.29904.0057-.52734.01563-.3191.01384-.5826.03346-.78906.05469-.09685.01-.1996.02004-.31641.04492-.02617.0057-.14262.02941-.26953.08398-.02097.0091-.17331.07143-.32617.20312a.26969.26969 0 000 .002c-.0572.04947-.10024.09535-.13281.13281-.04933.05669-.078.09958-.0918.11914-.02573.0365-.0597.09318-.0625.09766-3e-6 5e-6-.0019.0019-.002.002-1.6e-5 2.8e-5 3e-6.0019 0 .002-.0031.0072-.08782.20384-.11719.27344-.0043.0081-.0051.01223-.0039.0098a.26969.26969 0 00-.01563.03906.26969.26969 0 00-.0039.0078c-.000183.000631-.06055.43492-.06055.43555v3.6406h-1.6582c-.66732 0-1.0753.43181-1.2363.66211-.14037.20076-.21025.39011-.25.50781-.09051.26801-.13983.53253-.17969.8125-.02531.1778-.02705.36727-.0332.55469h-11.377c-.77873-.02114-1.459.6385-1.459 1.418 0 .77947.68026 1.4391 1.459 1.418h11.369c.008.2392.01007.48374.04102.70117.03985.28.0892.54452.17969.8125.03863.1144.10785.30648.25.50977.16299.23308.57141.66016 1.2363.66016h11.518c.66413 0 1.0733-.4242 1.2383-.66016.14133-.20214.21239-.39259.25195-.50977.09051-.26801.13983-.53253.17969-.8125.0285-.20024.03022-.41504.03711-.62695h11.055c.77873.02114 1.459-.63849 1.459-1.418s-.68026-1.4391-1.459-1.418h-11.055c-.0069-.21262-.0085-.42815-.03711-.62891-.03985-.28-.08921-.54452-.17969-.8125-.04064-.12035-.11235-.30816-.25195-.50781-.16302-.23313-.57175-.66211-1.2383-.66211h-1.6738v-3.6406c0-.000524-.03636-.25748-.05078-.35938v-.002a.26969.26969 0 000-.0039.26969.26969 0 00-.0098-.06836.26969.26969 0 000-.0039c-.000183-.00063-.14027-.3275-.14062-.32813a.26969.26969 0 00-.0039-.0059c.000619.0011-.0082-.01491-.0098-.01758a.26969.26969 0 00-.0059-.0059c-.0086-.01468-.01724-.03247-.03906-.06445-.01285-.01882-.04246-.06574-.0957-.12695-.04961-.05699-.09842-.1017-.13672-.13476-.1516-.13059-.27985-.18406-.32422-.20312-.12365-.05313-.23438-.07648-.26953-.08398-.11662-.02485-.21923-.03493-.31641-.04492-.2064-.02126-.46802-.04085-.78711-.05469-.20039-.0087-.32251-.0104-.44141-.01367v-5.2266c-.000211-.36671-.30321-.66971-.66992-.66992zm.70508 8.6777c.80502 0 1.1142.01661 1.5801.03711v1.9355c-.46625.02089-.77542.03906-1.5801.03906-.80481 0-1.1153-.01818-1.582-.03906v-1.9355c.46635-.02051.77693-.03711 1.582-.03711zm-4.6348 5.2188h9.2852c.03423.34342.06836.71236.06836 1.1914 0 .47969-.03411.84829-.06836 1.1914h-9.2852c-.0341-.34296-.06836-.71122-.06836-1.1914 0-.47949.03429-.84812.06836-1.1914z" color-rendering="auto" dominant-baseline="auto" image-rendering="auto" shape-rendering="auto" solid-color="#000000" style="font-feature-settings:normal;font-variant-alternates:normal;font-variant-caps:normal;font-variant-ligatures:normal;font-variant-numeric:normal;font-variant-position:normal;isolation:auto;mix-blend-mode:normal;shape-padding:0;text-decoration-color:#000000;text-decoration-line:none;text-decoration-style:solid;text-indent:0;text-orientation:mixed;text-transform:none;white-space:normal"/>
</svg>
