<svg width="60mm" height="60mm" version="1.1" viewBox="0 0 60 60" xmlns="http://www.w3.org/2000/svg">
 <path d="m5.0282 55.427c-1.0025-0.5538-2.377-1.878-3.0546-2.9427-1.2126-1.9053-1.2319-2.259-1.2319-22.478 0-20.253 0.017422-20.57 1.2387-22.489 2.5142-3.9507 2.6315-3.9673 27.919-3.9673 25.287 0 25.405 0.016705 27.919 3.9673 1.2115 1.9036 1.2418 2.3842 1.3805 21.866 0.14011 19.682 0.12685 19.949-1.1108 22.345-2.4709 4.784-2.1802 4.7353-28.18 4.7193-20.101-0.012235-23.291-0.14326-24.88-1.0211zm49.055-4.8502 1.3632-1.5279v-38.085l-1.3632-1.5279-1.3632-1.5279h-45.642l-1.3632 1.5279-1.3632 1.5279v38.085l2.7264 3.0559h45.642zm-45.844-14.632v-11.802l9.1638-0.36159 0.16786-3.2681 0.16786-3.2681h2.1925c2.1877 0 2.1925-0.0055 2.1925-2.49v-2.49h15.551v2.49c0 2.4845 5e-3 2.49 2.1925 2.49h2.1925l0.16786 3.2681 0.16786 3.2681 9.1638 0.36159v23.604h-43.32zm39.988 8.0673v-16.185h-9.4415v-6.8474h-4.4431v-4.98h-8.8861v4.98h-4.4431v6.8474h-9.4415v16.185z"/>
 <g shape-rendering="auto">
  <path d="m16.374 37.376v7.5719h2.0427v-7.5719z" color="#000000" color-rendering="auto" dominant-baseline="auto" image-rendering="auto" solid-color="#000000" style="font-feature-settings:normal;font-variant-alternates:normal;font-variant-caps:normal;font-variant-ligatures:normal;font-variant-numeric:normal;font-variant-position:normal;isolation:auto;mix-blend-mode:normal;shape-padding:0;text-decoration-color:#000000;text-decoration-line:none;text-decoration-style:solid;text-indent:0;text-orientation:mixed;text-transform:none;white-space:normal"/>
  <path d="m19.956 37.376v7.5719h2.0427v-7.5719z" color="#000000" color-rendering="auto" dominant-baseline="auto" image-rendering="auto" solid-color="#000000" style="font-feature-settings:normal;font-variant-alternates:normal;font-variant-caps:normal;font-variant-ligatures:normal;font-variant-numeric:normal;font-variant-position:normal;isolation:auto;mix-blend-mode:normal;shape-padding:0;text-decoration-color:#000000;text-decoration-line:none;text-decoration-style:solid;text-indent:0;text-orientation:mixed;text-transform:none;white-space:normal"/>
  <path d="m23.535 37.376v7.5719h2.0427v-7.5719z" color="#000000" color-rendering="auto" dominant-baseline="auto" image-rendering="auto" solid-color="#000000" style="font-feature-settings:normal;font-variant-alternates:normal;font-variant-caps:normal;font-variant-ligatures:normal;font-variant-numeric:normal;font-variant-position:normal;isolation:auto;mix-blend-mode:normal;shape-padding:0;text-decoration-color:#000000;text-decoration-line:none;text-decoration-style:solid;text-indent:0;text-orientation:mixed;text-transform:none;white-space:normal"/>
  <path d="m27.117 37.376v7.5719h2.0427v-7.5719z" color="#000000" color-rendering="auto" dominant-baseline="auto" image-rendering="auto" solid-color="#000000" style="font-feature-settings:normal;font-variant-alternates:normal;font-variant-caps:normal;font-variant-ligatures:normal;font-variant-numeric:normal;font-variant-position:normal;isolation:auto;mix-blend-mode:normal;shape-padding:0;text-decoration-color:#000000;text-decoration-line:none;text-decoration-style:solid;text-indent:0;text-orientation:mixed;text-transform:none;white-space:normal"/>
  <path d="m30.696 37.376v7.5719h2.0427v-7.5719z" color="#000000" color-rendering="auto" dominant-baseline="auto" image-rendering="auto" solid-color="#000000" style="font-feature-settings:normal;font-variant-alternates:normal;font-variant-caps:normal;font-variant-ligatures:normal;font-variant-numeric:normal;font-variant-position:normal;isolation:auto;mix-blend-mode:normal;shape-padding:0;text-decoration-color:#000000;text-decoration-line:none;text-decoration-style:solid;text-indent:0;text-orientation:mixed;text-transform:none;white-space:normal"/>
  <path d="m34.278 37.376v7.5719h2.0427v-7.5719z" color="#000000" color-rendering="auto" dominant-baseline="auto" image-rendering="auto" solid-color="#000000" style="font-feature-settings:normal;font-variant-alternates:normal;font-variant-caps:normal;font-variant-ligatures:normal;font-variant-numeric:normal;font-variant-position:normal;isolation:auto;mix-blend-mode:normal;shape-padding:0;text-decoration-color:#000000;text-decoration-line:none;text-decoration-style:solid;text-indent:0;text-orientation:mixed;text-transform:none;white-space:normal"/>
  <path d="m37.857 37.376v7.5719h2.0427v-7.5719z" color="#000000" color-rendering="auto" dominant-baseline="auto" image-rendering="auto" solid-color="#000000" style="font-feature-settings:normal;font-variant-alternates:normal;font-variant-caps:normal;font-variant-ligatures:normal;font-variant-numeric:normal;font-variant-position:normal;isolation:auto;mix-blend-mode:normal;shape-padding:0;text-decoration-color:#000000;text-decoration-line:none;text-decoration-style:solid;text-indent:0;text-orientation:mixed;text-transform:none;white-space:normal"/>
  <path d="m41.438 37.376v7.5719h2.0427v-7.5719z" color="#000000" color-rendering="auto" dominant-baseline="auto" image-rendering="auto" solid-color="#000000" style="font-feature-settings:normal;font-variant-alternates:normal;font-variant-caps:normal;font-variant-ligatures:normal;font-variant-numeric:normal;font-variant-position:normal;isolation:auto;mix-blend-mode:normal;shape-padding:0;text-decoration-color:#000000;text-decoration-line:none;text-decoration-style:solid;text-indent:0;text-orientation:mixed;text-transform:none;white-space:normal"/>
 </g>
</svg>
