<svg width="100mm" height="100mm" version="1.1" viewBox="0 0 100 100" xmlns="http://www.w3.org/2000/svg">
 <g transform="matrix(1.1162 0 0 1.1162 -5.8112 -225.71)" stroke-width=".89588">
  <path d="m27.799 226.19c-0.1508 0.0388-1.0577 0.20519-1.7461 0.29882-2.7065 0.36819-5.7014 1.5949-8.3555 3.3672-1.748 1.1671-4.233 3.6661-5.4004 5.4258-1.1186 1.6864-2.1357 3.7788-2.6621 5.5215-2.9449 9.749 1.4064 20.154 10.373 24.744 2.3714 1.2139 5.265 2.1502 7.2891 2.1934 0.11039 2e-3 0.53588 0.12826 0.36328 0.0488h2e-3c0.42634 0.19513 0.62596 0.17017 0.91211 0.18554 0.28615 0.0154 0.60356 0.0118 0.95703-4e-3 0.70695-0.0315 1.5515-0.1163 2.4062-0.24805 3.8635-0.59549 7.2143-2.1172 10.5-4.7461 1.9292-1.5436 3.5365-3.4971 5.3887-6.3379 0.25774 0.10678 0.48758 0.19733 1.1113 0.49219 0.8086 0.38224 1.3417 0.62372 1.7969 0.7793s0.95819 0.26106 1.4707 0.0859c0.34798-0.11897 0.40357-0.19941 0.55469-0.30469s0.31342-0.22852 0.49219-0.37109c0.35754-0.28514 0.77614-0.64402 1.1914-1.0254 0.34408-0.31598 0.51638-0.44921 0.71484-0.61133 0.1886 0.164 0.38602 0.33535 0.60352 0.52929 0.46471 0.41438 0.77757 0.69118 1.1758 0.91602s0.90601 0.32031 1.2676 0.32031c0.36048 0 0.94957-0.12053 1.3672-0.40039s0.7515-0.61818 1.3262-1.1894l0.42383-0.42188 0.34766 0.34375c0.54206 0.53844 0.85783 0.86223 1.2773 1.1348 0.41951 0.27253 0.99665 0.37695 1.3555 0.37695 0.35832 0 0.92812-0.10077 1.3457-0.36914 0.41758-0.26837 0.72715-0.58617 1.252-1.1074 0.17421-0.17304 0.31108-0.29433 0.46484-0.4375 0.14145 0.13096 0.26391 0.23882 0.42188 0.39453 0.54412 0.53628 0.91987 0.90452 1.4473 1.1777 0.52739 0.27322 1.1273 0.31481 1.625 0.28516 0.61953-0.0371 0.61511-0.18148 0.76367-0.27539 0.14856-0.0939 0.28882-0.1982 0.44141-0.31836 0.30482-0.24004 0.64857-0.54389 0.99414-0.87891l0.3418-0.32812 0.33789 0.32812c0.34607 0.33558 0.69097 0.6387 0.99609 0.87891 0.15256 0.12011 0.29306 0.22455 0.44141 0.31836 0.14835 0.0938 0.14287 0.23687 0.75977 0.27539h0.0039c0.49436 0.0295 1.0768-7e-3 1.5977-0.26758 0.52089-0.2601 0.89077-0.61749 1.3984-1.1172 0.07757-0.0763 0.13093-0.12211 0.20508-0.19336 0.0053 7e-3 0.0083 0.0108 0.01367 0.0176 0.36809 0.46851 0.72037 0.85787 1.1641 1.1641 0.44369 0.30619 1.0473 0.51528 1.6445 0.4375 1.1945-0.15556 1.8632-1.0077 2.666-2.1016 0.49471-0.67404 0.75192-0.9731 0.78711-1.002 0.03519-0.0289-0.04256-4e-3 0.38672-0.0898 0.63053-0.12663 1.3224-0.34902 1.8828-0.62891 1.3908-0.69454 2.5547-2.0541 3.1465-3.5195 0.18358-0.45465 0.33693-0.95155 0.39258-1.6191 0.05565-0.66759 0.05664-1.5484 0.05664-3.1738v-3.4512c-2.1e-5 -0.17428-0.03871-0.34639-0.11328-0.50391l-0.49609-1.0469c-1.0925-2.306-3.1701-4.0618-5.5605-4.6055-1.3489-0.30701-3.6286-0.27539-20.164-0.27539h-18.231l-0.50781-0.67383c-1.2885-1.712-3.4616-3.7812-5.1758-4.9102-2.5196-1.6594-5.4512-2.8251-8.1152-3.1875-0.68853-0.0937-1.5938-0.26006-1.7441-0.29882h-2e-3c-1.0639-0.27407-2.3092-0.27405-3.373 0zm2.0723 5.3613c1.9421 0.0464 3.9077 0.46436 5.8086 1.293 2.3736 1.0347 5.3475 3.538 6.6641 5.5781 0.21112 0.32718 0.43203 0.6464 0.62891 0.91211s0.2443 0.39579 0.5957 0.6875c0.50107 0.41572 0.62169 0.29566 0.82031 0.32422 0.19903 0.0286 0.42207 0.0474 0.72656 0.0645 0.60899 0.034 1.5335 0.0582 2.9746 0.0801 2.8822 0.0437 7.818 0.0721 16.195 0.10547l19.441 0.0781 0.55274 0.25391c0.29674 0.13672 0.87658 0.53661 0.91211 0.57031 0.62473 0.5924 1.231 2.352 1.0703 4.252-0.11539 1.3647-0.40617 2.2252-0.69922 2.6309s-0.51534 0.52539-1.1855 0.52539c-1.0038 0-1.9369 0.55063-2.666 1.3613-0.3332-0.3992-0.66968-0.7748-1.1074-1.0137-0.52681-0.28748-1.1999-0.39005-1.7891-0.24219-0.34601 0.0868-0.44477 0.18069-0.59961 0.2793-0.15484 0.0986-0.30913 0.2089-0.47266 0.33594-0.32706 0.25407-0.6884 0.56812-1.0371 0.90625l-0.32422 0.3144-0.35156-0.34961c-0.53984-0.53627-0.85417-0.86073-1.2734-1.1328-0.41926-0.27208-0.99634-0.375-1.3555-0.375-0.35869 0-0.93443 0.10339-1.3535 0.375s-0.73327 0.59428-1.2715 1.1289l-0.35742 0.35352-0.33594-0.32031h-2e-3c-0.45889-0.43593-0.85098-0.78835-1.2832-1.0703-0.43222-0.28196-0.9576-0.50718-1.5391-0.49218-1.1629 0.03-1.8689 0.77458-2.7695 1.6914-0.09683 0.0986-0.16842 0.15987-0.25976 0.24805-0.14906-0.13584-0.27929-0.24923-0.44727-0.41211-0.50629-0.49091-0.82336-0.80043-1.2246-1.0566-0.40125-0.25621-0.95369-0.37305-1.3145-0.37305-0.36477 0-0.94565 0.13183-1.3555 0.40625-0.40982 0.27443-0.74909 0.61001-1.3184 1.168l-0.48242 0.47071-0.4043-0.35743v2e-3c-0.55557-0.48958-0.89773-0.79529-1.3203-1.0391-0.42258-0.24377-0.96259-0.33593-1.3301-0.33593-0.36153 0-0.92576 0.093-1.3516 0.35547-0.4258 0.2625-0.75088 0.5809-1.3027 1.1055-0.5896 0.56043-1.1779 1.1066-1.4336 1.3379l-1.4941-0.7207c-1.0838-0.52295-1.617-0.79638-2.1562-0.96094-0.53922-0.16455-1.25-0.0375-1.5469 0.0762-0.35423 0.1356-0.82695 0.45128-1.125 0.84179-0.29805 0.39051-0.52491 0.82894-0.89062 1.5391-1.0287 1.9973-1.9103 3.1691-3.6465 4.8477-2.6937 2.6045-5.4085 4.0328-8.5137 4.5371-2.9525 0.47952-6.0766-0.029-8.9727-1.4863-7.5672-3.8075-10.699-13.103-6.9629-20.613 2.7999-5.6266 8.4097-8.8246 14.236-8.6856zm-2.494 6.7988c-2.2712-0.17042-4.6615 0.57488-6.543 2.3691-1.8177 1.7334-2.6973 3.7563-2.6973 6.2383 0 2.5744 0.86815 4.6307 2.6973 6.375 1.2404 1.183 2.8115 2.0198 4.4062 2.2832 1.2092 0.19973 1.709 0.20257 2.8828 0.0195 4.66-0.72669 8.0492-5.2862 7.2812-9.8809-0.72079-4.3108-4.2421-7.1203-8.0273-7.4043zm-0.70508 5.3867c1.2594-4e-3 1.4682 0.0731 2.2793 0.81445 1.1649 1.0647 1.4665 2.4336 0.88672 3.7812-0.11515 0.2677-0.46791 0.75874-0.86914 1.1426-0.40123 0.38385-0.89123 0.66762-1.0098 0.70313-0.61342 0.18378-2.1599 0.0778-2.5137-0.082-0.54635-0.24681-1.3959-1.0385-1.6934-1.5898-0.19534-0.36207-0.19922-0.377-0.19922-1.4805 0-1.4939 5e-3 -1.5187 0.91797-2.3984 0.68419-0.65922 1.2485-0.88746 2.2012-0.89063z" stroke-width=".89588"/>
 </g>
</svg>
