<svg width="60mm" height="60mm" version="1.1" viewBox="0 0 60 60" xmlns="http://www.w3.org/2000/svg">
 <path d="m34.167 50.522c-.28298-.050499-.87694-.26166-1.3199-.46924-.79869-.37429-.8461-.41753-5.7102-5.2096-2.6977-2.6577-7.5597-7.4971-10.805-10.754l-5.8998-5.9222-.43401-.87441c-.67628-1.3625-.67513-1.3444-.50956-8.0383.15753-6.3687.1641-6.4333.75713-7.4453.54843-.93579 1.8369-1.8558 2.9054-2.0746.78188-.16007 11.902-.41165 12.6-.28506.82332.14929 1.6044.48466 2.3035.98904.32615.23529 5.317 5.1608 11.09 10.945 10 10.019 10.514 10.551 10.839 11.212.89889 1.8288.81296 3.9386-.22824 5.6038-.18618.29779-2.436 2.6334-5.5396 5.751-5.5636 5.5887-6.0397 6.0074-7.2652 6.3893-.74114.23102-2.0363.31577-2.7847.18222zm2.4361-2.1078c.54043-.19855.82999-.46974 5.9114-5.5356 2.9387-2.9297 5.469-5.5222 5.6228-5.761.60477-.93878.70581-2.1428.27812-3.3142-.19693-.53939-.61263-.9694-10.752-11.123-5.801-5.8089-10.742-10.687-10.979-10.84-.91607-.59167-.96088-.59434-7.2293-.42896-3.1076.08199-5.8206.19428-6.029.24955-.79232.21013-1.4511.83014-1.734 1.6321-.19308.54724-.484 11.502-.32438 12.214.24848 1.1087.08886.93717 11.179 12.016 7.2371 7.2299 10.635 10.56 10.915 10.701 1.0477.52227 2.0734.585 3.1426.19221zm-17.292-23.754c-1.317-.21204-2.6857-1.2537-3.3067-2.5166-1.0812-2.1988-.17921-4.9537 1.9813-6.0513 2.644-1.3433 5.7984.0427 6.5578 2.8813.18676.6981.16373 1.839-.05106 2.529-.50269 1.6152-1.9825 2.8982-3.6492 3.164-.70289.11209-.7983.11169-1.5322-.0064zm2.0236-2.172c.95574-.4993 1.4982-1.5037 1.3996-2.5916-.05967-.65806-.25289-1.0765-.72842-1.5775-.57258-.60324-.99625-.77866-1.8808-.77866-.8761 0-1.3361.18592-1.9022.76876-.48237.49669-.67017.95206-.71325 1.7296-.04339.78319.13235 1.2967.64271 1.878.75379.85853 2.1522 1.1096 3.1824.57136z"/>
</svg>
