<svg width="100mm" height="100mm" version="1.1" viewBox="0 0 100 100" xmlns="http://www.w3.org/2000/svg">
 <path d="m12.837 95.877c-.34537-.17352-.81227-.5914-1.0375-.92862l-.40959-.61312v-88.671l.40959-.61312c.22527-.33722.69217-.75509 1.0375-.92862.58946-.29616 2.2814-.31549 27.604-.31549 25.323 0 27.015.01934 27.604.31549.34537.17352.81227.5914 1.0375.92862l.40959.61312-.000722 8.7699c-.000722 8.4327-.01445 8.7925-.35924 9.358-.97403 1.5975-2.9963 1.7455-4.3316.31691l-.45111-.48261-.051-7.2033-.05105-7.2033h-47.625v81.56h47.625l.05105-7.2033.05104-7.2033.45111-.48262c1.3353-1.4286 3.3576-1.2806 4.3316.31691.34478.56548.35859.92527.35924 9.358l.000721 8.7699-.40959.61312c-.22528.33722-.69217.7551-1.0375.92862-.58946.29615-2.2814.31549-27.604.31549-25.323 0-27.015-.0193-27.604-.31549zm57.56-29.146c-1.234-.65256-1.8273-2.2879-1.2464-3.4358.1097-.21677 2.4842-2.688 5.2768-5.4916l5.0773-5.0975h-19.655c-19.478 0-19.662-.003-20.423-.37173-.81095-.39258-1.5114-1.4746-1.5114-2.3349 0-.86027.7004-1.9423 1.5114-2.3349.76087-.36833.94663-.37173 20.309-.37173h19.541l-4.8297-4.913c-2.6564-2.7022-4.9794-5.1584-5.1623-5.4584-1.1133-1.8255.62246-4.3194 2.7663-3.9745.73456.11816 1.218.56234 8.4156 7.7319 4.1999 4.1836 7.7524 7.8258 7.8944 8.0938.33137.62557.33098 1.8295-.000722 2.4539-.1424.26799-3.6545 3.8772-7.8048 8.0206-8.5603 8.5461-8.389 8.4199-10.159 7.484z" style="stroke-width:.18044"/>
</svg>
