<svg width="60mm" height="60mm" version="1.1" viewBox="0 0 60 60" xmlns="http://www.w3.org/2000/svg">
 <path d="m14.154-0.03125c-1.1076 0-2.2132 0.042355-3.0879 0.12695-0.43736 0.042299-0.81622 0.094994-1.1172 0.16211-0.15048 0.033558-0.28084 0.070933-0.39648 0.11719s-0.22069 0.091299-0.31836 0.20898c-0.047637 0.057401-0.21392 0.16109-0.50391 0.22852-0.28998 0.067429-0.69214 0.10547-1.1855 0.10547-0.44961 0-0.89558 0.043365-1.2676 0.11328-0.186 0.034958-0.35313 0.075821-0.49805 0.12695-0.14491 0.051133-0.26781 0.099848-0.38477 0.2168-0.1779 0.17784-0.20211 0.35994-0.25195 0.625-0.049844 0.26506-0.087326 0.61071-0.11719 1.0566-0.059722 0.89187-0.087891 2.1798-0.087891 3.9375 0 2.073-0.01995 3.3444-0.085937 4.1152-0.032994 0.38544-0.079361 0.64657-0.12891 0.80664-0.049545 0.16007-0.091937 0.20988-0.13086 0.24219-0.1637 0.13585-0.27518 0.34615-0.34375 0.62891-0.068571 0.28276-0.10953 0.65761-0.13672 1.2129-0.05438 1.1106-0.04885 2.9411-0.011719 6.0586l0.085937 7.2656a0.3233 0.3233 0 0 0 0.015625 0.09375l1.9648 6.1816 1.9668 6.1797a0.3233 0.3233 0 0 0 0.28711 0.22461l2.5059 0.16211 0.09375 5.1895c0.04712 2.6084 0.07991 4.0032 0.20312 4.9805 0.12321 0.97728 0.34758 1.5361 0.73438 2.3613 1.6389 3.4967 4.8659 6.096 8.6094 6.9297 0.60244 0.13416 1.8376 0.21883 3.4629 0.28516 1.6253 0.06632 3.6131 0.10518 5.6113 0.11524 1.9982 0.01005 4.006-0.0088 5.6699-0.05859 1.664-0.04976 2.966-0.12515 3.6309-0.24805 3.9089-0.7226 7.3731-3.4065 9.0684-7.0234 0.38684-0.82537 0.61167-1.3841 0.73438-2.3613 0.1227-0.97723 0.15404-2.3721 0.20117-4.9805l0.0957-5.1895 1.1074-0.07031 1.4062-0.0918a0.3233 0.3233 0 0 0 0.28711-0.22656l4.0664-13.266a0.3233 0.3233 0 0 0 0.01563-0.0957l0.0059-6.8223c0.0019-2.8514-0.01729-4.5731-0.08398-5.6387-0.03335-0.53276-0.07587-0.90108-0.14453-1.1797-0.06866-0.27861-0.17069-0.48624-0.33789-0.625-0.06087-0.05051-0.18327-0.28131-0.24805-1.0586-0.06477-0.77729-0.08594-2.0491-0.08594-4.0977 0-1.7577-0.02815-3.0456-0.08789-3.9375-0.029911-0.44593-0.067393-0.79161-0.11723-1.0566s-0.07411-0.44716-0.25195-0.625c-0.11713-0.11708-0.23969-0.16568-0.38477-0.2168s-0.31183-0.092002-0.49805-0.12695c-0.37243-0.069903-0.81989-0.11328-1.2695-0.11328-0.49338 0-0.89612-0.038068-1.1855-0.10547s-0.45404-0.17079-0.50195-0.22852c-0.097715-0.11773-0.20268-0.16275-0.31836-0.20898-0.11567-0.046237-0.24595-0.083656-0.39648-0.11719-0.30106-0.067062-0.67971-0.11987-1.1172-0.16211-0.87496-0.08447-1.9823-0.125-3.0898-0.125s-2.2129 0.04053-3.0879 0.125c-0.43748 0.042235-0.81613 0.095047-1.1172 0.16211-0.15053 0.033531-0.28081 0.070951-0.39648 0.11719-0.11567 0.046237-0.22064 0.091245-0.31836 0.20898-0.04764 0.0574-0.21392 0.16109-0.50391 0.22852-0.28998 0.067429-0.69215 0.10547-1.1855 0.10547-0.44967 0-0.89559 0.043364-1.2676 0.11328-0.18599 0.034958-0.35314 0.075819-0.49805 0.12695-0.1449 0.051134-0.26782 0.099858-0.38477 0.2168-0.17787 0.17785-0.20211 0.35995-0.25195 0.625s-0.08732 0.61071-0.11719 1.0566c-0.05973 0.89187-0.08789 2.1798-0.08789 3.9375 0 2.0486-0.02069 3.3204-0.08594 4.0977s-0.18889 1.0079-0.25 1.0586c-0.16853 0.13987-0.26963 0.35062-0.33789 0.63281-0.06826 0.28219-0.1115 0.65601-0.14453 1.1992-0.06606 1.0864-0.08378 2.8453-0.08203 5.7637l0.0039 6.9727a0.3233 0.3233 0 0 0 0.01563 0.09766l4.0645 12.963a0.3233 0.3233 0 0 0 0.28711 0.22461l2.6055 0.16797-0.09375 4.4434c-0.04995 2.3391-0.08237 3.5331-0.20312 4.2793-0.12076 0.74623-0.31224 1.0577-0.75586 1.7734-0.56723 0.91501-1.2952 1.6169-2.1094 2.0469-0.64346 0.33984-0.92719 0.48259-2.1387 0.57031-1.2115 0.08772-3.3085 0.0918-7.3867 0.0918s-6.1752-0.0041-7.3867-0.0918c-1.2115-0.08772-1.4952-0.23049-2.1387-0.57031-0.81396-0.42986-1.5401-1.1315-2.1074-2.0469-0.44358-0.71578-0.63509-1.0272-0.75586-1.7734-0.12077-0.74623-0.15317-1.9402-0.20312-4.2793l-0.09375-4.4434 2.6035-0.16797a0.3233 0.3233 0 0 0 0.28711-0.22461l4.0664-12.963a0.3233 0.3233 0 0 0 0.01563-0.09766l0.0039-6.9727c0.0019-2.9183-0.01545-4.6772-0.08203-5.7637-0.03329-0.54325-0.07799-0.91701-0.14648-1.1992-0.0685-0.28221-0.16947-0.49303-0.33789-0.63281-0.06089-0.05051-0.18328-0.28131-0.24805-1.0586-0.06477-0.77728-0.08594-2.0491-0.08594-4.0977 0-1.7577-0.02815-3.0456-0.08789-3.9375-0.029865-0.44592-0.067348-0.7916-0.11718-1.0566-0.049838-0.26504-0.074108-0.44716-0.25195-0.625-0.11714-0.11716-0.23969-0.16568-0.38477-0.2168s-0.31182-0.092002-0.49805-0.12695c-0.37244-0.069902-0.81989-0.11328-1.2695-0.11328-0.49338 0-0.89612-0.038068-1.1855-0.10547s-0.45404-0.17079-0.50195-0.22852c-0.09773-0.11775-0.20267-0.16274-0.31836-0.20898-0.11569-0.046248-0.24591-0.083633-0.39648-0.11719-0.30114-0.067109-0.67959-0.11981-1.1172-0.16211-0.8752-0.084596-1.9823-0.12695-3.0898-0.12695zm-2.541 2.8047h5.0801v5.0762l-0.54102 0.0625c-0.20386 0.023457-0.37846 0.041462-0.55469 0.11523-0.17622 0.073772-0.34054 0.22842-0.42773 0.41602-0.17439 0.37519-0.17951 0.84892-0.22266 1.7539l-0.07617 1.5742h-1.4355l-0.07617-1.5742c-0.043114-0.90491-0.048969-1.3787-0.22266-1.7539-0.086846-0.1876-0.24962-0.34021-0.42578-0.41406-0.17617-0.073852-0.3508-0.093726-0.55469-0.11719l-0.54297-0.064453zm31.656 0h5.0801v5.0742l-0.54297 0.064453c-0.20389 0.023459-0.37852 0.043327-0.55469 0.11719-0.17617 0.07386-0.33894 0.22646-0.42578 0.41406-0.17368 0.3752-0.17954 0.84904-0.22266 1.7539l-0.07617 1.5742h-1.4492v-1.4922c0-0.8897 0.02338-1.349-0.15039-1.7324-0.086886-0.1917-0.25467-0.34254-0.43164-0.42187-0.17642-0.079088-0.35957-0.11372-0.58203-0.1582h-2e-3l-0.64253-0.13086zm-35.574 0.9043h1.1602v2.7812c0 1.6567 0.033299 2.6195 0.27148 3.2637 0.11909 0.32207 0.31569 0.57622 0.58008 0.7168 0.26439 0.14058 0.56004 0.17188 0.88867 0.17188 0.12709 0 0.21459 0.01083 0.25781 0.02344 0.04323 0.01261 0.03797 0.01438 0.04492 0.02344 0.01389 0.01812 0.06641 0.17978 0.06641 0.5332v0.58008h-3.2695zm11.758 0h1.4609v8.0937h-3.2695v-0.58008c1e-6 -0.3123 0.04633-0.49069 0.07422-0.53711 0.02788-0.04642 0.0064-0.04297 0.14453-0.04297 0.2966 0 0.578-0.04474 0.82031-0.20117 0.24232-0.15643 0.41108-0.41218 0.51758-0.73437 0.213-0.64439 0.25195-1.6084 0.25195-3.2168zm19.596 0h1.4629v2.7812c0 1.6085 0.03895 2.5724 0.25195 3.2168 0.1065 0.32219 0.27526 0.57794 0.51758 0.73437s0.52371 0.20117 0.82031 0.20117c0.13817 0 0.11665-0.0035 0.14453 0.04297 0.02788 0.04642 0.07422 0.22481 0.07422 0.53711v0.58008h-3.2715zm12.059 0h1.1621v8.0937h-3.2715v-0.58008c0-0.35342 0.05251-0.51507 0.06641-0.5332 7e-3 -0.0091 0.0017-0.01083 0.04492-0.02344 0.04323-0.01261 0.13073-0.02344 0.25781-0.02344 0.32862 0 0.62429-0.03129 0.88867-0.17188 0.26438-0.14058 0.46098-0.39472 0.58008-0.7168 0.23819-0.64415 0.27148-1.607 0.27148-3.2637zm-44.617 10.854h0.69922c0.44156 0 0.60724 0.02713 0.76758 0.1582 0.16034 0.13107 0.36056 0.44944 0.67578 1.0781 1.2191 2.4313 3.4705 3.6451 5.6953 3.6035s4.4266-1.3387 5.543-3.8145c0.23697-0.52548 0.39656-0.78158 0.53125-0.88672 0.13469-0.10514 0.30655-0.13867 0.73242-0.13867h0.68555v7.1895h-2.3535c-1.0428 0-1.742 0.02653-2.248 0.10547-0.50606 0.07894-0.85254 0.22548-1.0723 0.49023-0.16724 0.2015-0.28862 0.41964-0.30859 0.66406-0.01998 0.24442 0.06713 0.47713 0.20312 0.69336 0.18328 0.29132 0.52274 0.46785 1.0254 0.56445 0.50265 0.0966 1.2149 0.14132 2.3105 0.17578l2.4434 0.07617v1.1504h-2.3516c-1.0427 0-1.7436 0.02513-2.25 0.10352-0.50642 0.07838-0.85215 0.225-1.0723 0.49023-0.16736 0.20172-0.28673 0.4195-0.30664 0.66406-0.01991 0.24457 0.06517 0.47891 0.20117 0.69531 0.17784 0.28296 0.49921 0.45632 0.94531 0.55664 0.4461 0.10032 1.052 0.14977 1.9375 0.18359 1.1759 0.04491 1.8164 0.15293 1.9492 0.24024 0.06639 0.04365 0.05471 0.01796 0.05078 0.12109-0.0039 0.10313-0.06154 0.31326-0.16992 0.5957-0.02893 0.07541-0.04918 0.11382-0.31445 0.17578-0.26528 0.06196-0.73076 0.09375-1.4355 0.09375-1.1276 0-1.9691 0.12533-2.5293 0.41797-0.28012 0.14632-0.50414 0.35116-0.5957 0.63086-0.09156 0.2797-0.02255 0.58679 0.14258 0.85742 0.16686 0.2734 0.44945 0.46902 0.81836 0.58398 0.36891 0.11496 0.83654 0.17118 1.4746 0.20508 0.44734 0.02375 0.78459 0.04821 1.0117 0.08398 0.22713 0.03577 0.32682 0.09247 0.33203 0.09766 0.0052 0.0052 0.01421-0.01246-0.0078 0.11914-0.02202 0.1316-0.0978 0.35745-0.21289 0.66016-0.12308 0.32359-0.16661 0.39667-0.32227 0.46289s-0.52059 0.10156-1.1934 0.10156c-0.55436 0-0.96759 0.03014-1.293 0.11719-0.32538 0.08704-0.60089 0.26531-0.70898 0.54687-0.18401 0.47952-4e-3 0.99187 0.36523 1.3066 0.36924 0.31477 0.90635 0.48633 1.5254 0.48633 0.2496 0 0.43322 0.0161 0.53711 0.04297 0.10389 0.02687 0.10567 0.0437 0.10742 0.04687 0.0018 0.0032 0.02159 0.05509-0.0039 0.19531-0.02549 0.14022-0.09243 0.34915-0.19727 0.61719-0.04335 0.11086-0.05767 0.1328-0.11328 0.16992-0.05562 0.03712-0.19063 0.08969-0.46289 0.12695-0.54453 0.07452-1.5936 0.09159-3.5117 0.09766-2.0359 0.0064-3.0852 0.0017-3.5898-0.07617-0.25233-0.03893-0.34418-0.0889-0.38672-0.12695-0.04254-0.03806-0.07769-0.10594-0.14062-0.27148-0.10296-0.27079-0.17083-0.47733-0.19727-0.61133-0.026433-0.134-0.00433-0.16992-0.013672-0.1543-0.00934 0.01562-0.016788-6.68e-4 0.09375-0.02344 0.11054-0.02277 0.3056-0.0332 0.56836-0.0332 0.61901 1e-6 1.1561-0.17156 1.5254-0.48633 0.36924-0.31477 0.54924-0.82712 0.36523-1.3066-0.10809-0.2816-0.3836-0.45983-0.70898-0.54687-0.32538-0.08704-0.73863-0.11719-1.293-0.11719-0.6728 0-1.0377-0.03534-1.1934-0.10156-0.15568-0.066218-0.19926-0.13931-0.32228-0.46289-0.11509-0.30271-0.19087-0.52855-0.21289-0.66016-0.022017-0.1316-0.013031-0.11395-0.0078124-0.11914 0.00522-0.0052 0.1049-0.06189 0.33203-0.09766s0.56439-0.06023 1.0117-0.08398c0.63806-0.03389 1.1057-0.09011 1.4746-0.20508 0.36892-0.11497 0.65152-0.31056 0.81836-0.58398 0.16508-0.27058 0.23423-0.57782 0.14258-0.85742-0.09165-0.2796-0.3157-0.48451-0.5957-0.63086-0.56002-0.2927-1.4012-0.41797-2.5273-0.41797-0.83615 0-1.3017-0.03048-1.4922-0.09375-0.09522-0.03164-0.11611-0.05147-0.14453-0.08984-0.028425-0.03837-0.062635-0.11789-0.099609-0.25586-0.048265-0.18017-0.092899-0.36897-0.125-0.52344-0.00862-0.04147-0.00718-0.04077-0.013672-0.07813 0.095031-0.02033 0.19953-0.04169 0.35742-0.0625 0.40215-0.053 0.97012-0.09915 1.5957-0.12305 0.8855-0.03383 1.4918-0.08325 1.9375-0.18359 0.44568-0.10034 0.76574-0.274 0.94336-0.55664 0.13604-0.21641 0.22108-0.45072 0.20117-0.69531-0.01991-0.2446-0.13923-0.46235-0.30664-0.66406-0.21992-0.26495-0.56629-0.41184-1.0723-0.49023-0.50598-0.0784-1.2054-0.10352-2.248-0.10352h-2.3516v-1.1504l2.4414-0.07617c1.0957-0.03446 1.8098-0.07918 2.3125-0.17578 0.50266-0.0966 0.84019-0.27309 1.0234-0.56445 0.13598-0.21622 0.2231-0.44894 0.20312-0.69336-0.01997-0.24442-0.14135-0.46256-0.30859-0.66406-0.21974-0.26474-0.5662-0.4113-1.0723-0.49023-0.50606-0.07894-1.2053-0.10547-2.248-0.10547h-2.3516zm7.6641 0c1.0303 0 1.9685 0.02798 2.6406 0.07422 0.30487 0.02097 0.53373 0.04684 0.70703 0.07226-0.02762 0.06287-0.02013 0.07643-0.07422 0.1582-0.12604 0.19054-0.31379 0.41768-0.53125 0.63867-0.43493 0.44199-1.0021 0.86677-1.4004 1.0332-1.1881 0.49642-1.5841 0.49421-2.7461-0.01172-0.37175-0.16187-0.92256-0.59055-1.3477-1.0332-0.21255-0.22133-0.39736-0.44732-0.52148-0.63672-0.05129-0.07826-0.04337-0.08759-0.07031-0.14844 0.17307-0.02535 0.40127-0.05135 0.70508-0.07226 0.67159-0.04624 1.6084-0.07422 2.6387-0.07422zm23.99 0h0.70898c0.43883 0 0.62443 0.03838 0.71875 0.10938 0.09432 0.071 0.20026 0.25851 0.3457 0.69922 0.26511 0.80332 0.96471 1.664 1.7793 2.3965s1.7283 1.3287 2.5371 1.4805c3.099 0.58134 5.7125-0.68659 7.0977-3.4492 0.31519-0.62858 0.51692-0.94693 0.67774-1.0781 0.16082-0.1312 0.32604-0.1582 0.76758-0.1582h0.69922v7.1895h-2.3535c-1.0428 0-1.742 0.02653-2.248 0.10547-0.50606 0.07893-0.85254 0.22547-1.0723 0.49023-0.16722 0.2015-0.28861 0.41965-0.30859 0.66406-0.01998 0.24442 0.06713 0.47713 0.20312 0.69336 0.18328 0.29132 0.52274 0.46785 1.0254 0.56445 0.50265 0.0966 1.2149 0.14132 2.3105 0.17578l2.4434 0.07617v1.1504h-2.3535c-1.0427 0-1.7421 0.02512-2.248 0.10352-0.50598 0.0784-0.85236 0.22526-1.0723 0.49023-0.16739 0.20172-0.28674 0.41949-0.30664 0.66406-0.0199 0.24457 0.06519 0.47892 0.20117 0.69531 0.1781 0.28348 0.49912 0.45808 0.94922 0.55859 0.4501 0.10052 1.0648 0.14948 1.9648 0.18359 1.1209 0.04251 1.7232 0.09383 1.8906 0.15234 0.08373 0.02926 0.01709-0.01432 0.01367-0.03125-0.0034-0.01693-6e-3 0.07395-0.04687 0.22656-0.05079 0.18934-0.09603 0.3861-0.13086 0.55469-0.01742 0.08429-0.02028 0.14053-0.03125 0.20703-0.07304 0.01729-0.1692 0.03615-0.30859 0.05273-0.32655 0.03884-0.7941 0.0625-1.3066 0.0625-1.1432 0-1.9921 0.12251-2.5566 0.41406-0.28226 0.14578-0.50942 0.35221-0.60156 0.63281-0.09215 0.2806-0.02114 0.58785 0.14453 0.85938 0.16667 0.27307 0.44985 0.46897 0.81836 0.58398 0.36851 0.11502 0.83458 0.17118 1.4727 0.20508 0.44734 0.02375 0.78437 0.04821 1.0117 0.08398 0.22734 0.03578 0.32653 0.0922 0.33203 0.09766 0.0055 0.0055 0.016-0.01231-0.0059 0.11914-0.02186 0.13145-0.09783 0.35752-0.21289 0.66016-0.12308 0.32359-0.16661 0.39667-0.32227 0.46289-0.15566 0.06622-0.52059 0.10156-1.1934 0.10156-0.55436 0-0.96721 0.0302-1.293 0.11719-0.32576 0.08699-0.60268 0.26473-0.71094 0.54687-0.18401 0.47952-4e-3 0.99187 0.36523 1.3066 0.36924 0.31477 0.90636 0.48633 1.5254 0.48633 0.2496 0 0.4349 0.01607 0.53906 0.04297 0.10417 0.0269 0.10556 0.04353 0.10742 0.04687 0.0019 0.0033 0.01946 0.05524-0.0059 0.19531-0.02533 0.14008-0.09051 0.34922-0.19531 0.61719-0.04333 0.11079-0.05767 0.13279-0.11328 0.16992-0.05561 0.03713-0.19098 0.08969-0.46289 0.12695-0.54383 0.07452-1.5909 0.09159-3.5059 0.09766-1.793 0.0057-2.8377-0.0081-3.4297-0.07422-0.29601-0.03307-0.47507-0.08226-0.56641-0.125-0.09134-0.04274-0.1031-0.06024-0.13672-0.12305-0.25504-0.47659-0.26302-0.74332-0.23047-0.80664 0.01628-0.03166 0.0426-0.06543 0.15234-0.10352 0.10974-0.03808 0.29355-0.06445 0.53906-0.06445 0.61901 1e-6 1.1561-0.17156 1.5254-0.48633 0.36925-0.31477 0.54925-0.82712 0.36523-1.3066-0.10791-0.28104-0.38193-0.45758-0.70508-0.54492-0.32315-0.08734-0.73272-0.11914-1.2793-0.11914-0.57876 0-0.94942-0.03514-1.1621-0.10352-0.21269-0.06837-0.2769-0.13258-0.37109-0.30859-0.1563-0.29206-0.25048-0.51955-0.2793-0.66016-0.02882-0.14061-0.01447-0.15732 0.01367-0.18945 0.02815-0.03214 0.1395-0.10101 0.37305-0.15234 0.23355-0.05134 0.57379-0.08788 1.0156-0.11133 0.63807-0.03389 1.1057-0.09011 1.4746-0.20508s0.65153-0.31055 0.81836-0.58398c0.16518-0.27071 0.23444-0.57773 0.14258-0.85742-0.09187-0.27969-0.31734-0.48459-0.59766-0.63086-0.56064-0.29254-1.4017-0.41797-2.5293-0.41797-0.7048 0-1.1703-0.03178-1.4355-0.09375-0.26527-0.06197-0.28552-0.10037-0.31445-0.17578-0.10833-0.28235-0.16611-0.49271-0.16992-0.5957-0.0038-0.10299-0.014-0.07728 0.05273-0.12109 0.13346-0.08762 0.77338-0.19534 1.9492-0.24024 0.8855-0.03383 1.4918-0.08325 1.9375-0.18359 0.44568-0.10034 0.76574-0.274 0.94336-0.55664 0.13601-0.2164 0.22107-0.45072 0.20117-0.69531-0.0199-0.24459-0.13923-0.46234-0.30664-0.66406-0.21992-0.26494-0.56629-0.41184-1.0723-0.49023-0.50598-0.0784-1.2054-0.10352-2.248-0.10352h-2.3535v-1.1602h2.1816c1.4406 0 2.4395-0.10231 3.084-0.375 0.32224-0.13634 0.58174-0.33324 0.6875-0.62891 0.10576-0.29567 0.02108-0.61554-0.1543-0.90234-0.1804-0.29496-0.50639-0.50542-1.0039-0.60742s-1.2087-0.14377-2.3516-0.17969l-2.4434-0.07617zm7.666 0c1.0303 0 1.9671 0.02798 2.6387 0.07422 0.30464 0.02097 0.53392 0.04684 0.70703 0.07226-0.02759 0.06288-0.0202 0.07643-0.07422 0.1582-0.12587 0.19054-0.31404 0.4177-0.53125 0.63867-0.43443 0.44195-1.0002 0.8668-1.3984 1.0332-1.1881 0.49642-1.5841 0.49421-2.7461-0.01172-0.37183-0.1619-0.92401-0.59052-1.3496-1.0332-0.2128-0.22134-0.3972-0.44732-0.52148-0.63672-0.05135-0.07826-0.04334-0.0876-0.07031-0.14844 0.17326-0.02535 0.40104-0.05135 0.70508-0.07226 0.67209-0.04624 1.6103-0.07422 2.6406-0.07422zm-32.387 25.625h1.4629v4.2949c-1e-6 3.317 0.20786 5.5025 0.9043 7.123s1.897 2.629 3.7305 3.5293l1.7266 0.84766a0.3233 0.3233 0 0 0 0.14258 0.0332h17.186a0.3233 0.3233 0 0 0 0.14258-0.0332l1.7266-0.84766c1.8335-0.90033 3.034-1.9088 3.7305-3.5293s0.9043-3.8061 0.9043-7.123v-4.2949h1.4609v3.9844c0 4.7172-0.40142 6.8762-1.5781 8.7402-0.99548 1.5769-2.9538 3.1566-4.7539 3.8301a0.3233 0.3233 0 0 0-0.01172 0.0059c-0.72223 0.26956-1.2432 0.40666-2.625 0.48438-1.3895 0.07815-3.6248 0.08535-7.6758 0.07813-5.2251-0.0093-7.9593-0.04761-9.6875-0.42188-1.7282-0.37426-2.4803-1.0487-3.9082-2.4766-1.2021-1.2021-1.8986-2.2052-2.3203-3.6641-0.42172-1.4589-0.55664-3.3943-0.55664-6.3945z"/>
</svg>
