<svg
   viewBox="0 0 11.490581 10.185479"
   height="10.185479mm"
   width="11.490581mm">
  <defs
     id="defs8" />
  <path
     style="stroke-width:0.06841684"
     d="M 3.0687462,9.6781935 C 2.722946,9.4608872 2.5446089,9.0021454 2.5362733,8.3084971 2.5323572,7.9836768 2.5532062,7.5307237 2.5825687,7.3019348 L 2.6359599,6.8859553 2.1581478,6.6984923 C 0.74370672,6.1435547 0.15463454,5.3475592 0.59823066,4.590619 0.69326973,4.4284489 0.9096378,4.1962217 1.0790495,4.074559 1.390766,3.8507019 2.2318476,3.422427 2.4948111,3.3536606 2.6266327,3.3191916 2.6336761,3.2872759 2.5835821,2.9514343 2.5536558,2.7508032 2.5298933,2.2919369 2.5307861,1.9317312 2.5321959,1.3709337 2.5567494,1.2295209 2.7018284,0.94775887 2.9282419,0.50803731 3.2260996,0.34215085 3.7076781,0.38756905 4.1533787,0.42960379 4.8088958,0.74661165 5.3383737,1.1761735 L 5.7399376,1.5019595 6.1528524,1.1684464 C 7.2178326,0.30825755 8.2813028,0.13029718 8.6839959,0.74488546 8.9046286,1.0816122 9.0152965,1.7256624 8.9593238,2.3471914 8.8657619,3.3861151 8.8334797,3.2884546 9.3366512,3.4886926 c 0.2445902,0.097335 0.6526686,0.3138022 0.9068418,0.4810381 1.33283,0.8769501 0.959754,1.9943599 -0.9109066,2.7282886 L 8.8559789,6.88501 8.9081718,7.2330454 c 0.028704,0.191419 0.050579,0.6559111 0.048614,1.0322038 C 8.9538093,8.8361745 8.9278695,8.9979897 8.8000876,9.2428728 8.3963505,10.016622 7.4990275,9.9815282 6.3578772,9.1473614 6.1059884,8.9632334 5.862631,8.7853192 5.8170843,8.7519953 5.7617977,8.7115505 5.593946,8.8044859 5.3121683,9.03154 4.4506787,9.7257373 3.5551594,9.9838652 3.0687462,9.6781935 Z M 4.3141907,9.1223928 C 4.7173561,8.9196581 5.3589673,8.4484195 5.3651946,8.3504716 5.366996,8.3220881 5.1696622,8.0616325 4.926669,7.7716853 L 4.4848625,7.2445084 3.8148952,7.1318895 C 3.4464127,7.0699456 3.1374483,7.024876 3.1283067,7.0317267 c -0.00914,0.00681 -0.047627,0.1759444 -0.085521,0.375764 -0.137402,0.7245162 -0.053556,1.5267907 0.1879619,1.7984899 0.1666955,0.1875265 0.6127266,0.1531147 1.0834428,-0.083588 z m 4.013648,-0.010808 C 8.4150378,8.9943541 8.47413,8.7764392 8.4974297,8.4861826 8.534726,8.0215441 8.4739961,7.2188662 8.3920726,7.0936698 8.3591936,7.0434192 8.1358534,7.055927 7.6651082,7.1343965 6.9877592,7.247299 6.9848739,7.2486195 6.7538637,7.5512054 6.6264038,7.718157 6.4241836,7.9576618 6.304486,8.0834386 L 6.0868523,8.3121242 6.4172819,8.6050625 C 7.1908488,9.2908576 8.0291696,9.5131114 8.3278387,9.1115848 Z M 6.0835205,7.6305881 C 6.2276103,7.4696696 6.3296144,7.3221211 6.3101971,7.3027039 6.2907814,7.2832882 6.01707,7.2764038 5.7019544,7.2874078 l -0.5729383,0.020011 0.3014581,0.327119 C 5.5962752,7.8144539 5.752093,7.9529986 5.7767351,7.9424143 5.8013826,7.9318332 5.9394315,7.7915098 6.0835205,7.6305905 Z M 6.2826337,6.8174059 6.7520819,6.7730764 6.9744932,6.4244943 C 7.0968192,6.2327745 7.3114306,5.8568429 7.4514062,5.5890917 L 7.7059078,5.1022688 7.4859033,4.6664413 C 7.3649009,4.426736 7.1440944,4.0377507 6.9952224,3.8020287 L 6.7245467,3.3734444 H 5.7434957 4.7624445 L 4.4554351,3.8694668 C 4.2865803,4.1422791 4.0642246,4.5389313 3.9613119,4.7509173 L 3.774199,5.1363462 4.0363745,5.606128 C 4.1805716,5.8645081 4.4006027,6.2358518 4.525334,6.4313372 4.7398044,6.7674686 4.7697769,6.788157 5.0774004,6.812402 5.6948593,6.86107 5.8149344,6.861564 6.2826337,6.817412 Z M 5.1355747,5.8330318 C 4.4367078,5.2194178 4.8269158,4.1260299 5.7447684,4.1260299 c 0.9178525,0 1.3080604,1.0933879 0.6091936,1.7070019 -0.2025273,0.1778209 -0.2925867,0.2086699 -0.6091936,0.2086699 -0.3166071,0 -0.4066665,-0.03085 -0.6091937,-0.2086699 z M 4.0110965,6.5035152 C 3.9357285,6.3812205 3.7982693,6.1474331 3.7056347,5.9839879 3.6129993,5.8205435 3.5223164,5.7127867 3.5041155,5.7445286 c -0.064348,0.1122211 -0.2701604,0.785253 -0.2464292,0.805849 0.026543,0.023034 0.6545107,0.1545456 0.7993445,0.1674043 0.065006,0.0058 0.051848,-0.055608 -0.045934,-0.2142667 z m 3.940115,0.1142566 c 0.1599247,-0.025423 0.290772,-0.069204 0.290772,-0.097295 0,-0.04346 -0.1120786,-0.3879672 -0.2435415,-0.7486013 C 7.961052,5.6693028 7.945967,5.6898295 7.5291199,6.4104346 L 7.3356098,6.74496 7.498025,6.704476 c 0.089328,-0.022267 0.2932626,-0.061278 0.4531865,-0.086706 z M 3.0011679,5.8175133 C 3.110246,5.5080799 3.1986074,5.1779392 3.1975258,5.0838658 3.1964293,4.9897924 3.1023724,4.6665228 2.9884768,4.3654885 2.8047873,3.8799822 2.7632843,3.8202501 2.6210766,3.8367068 2.3258278,3.8708782 1.4974224,4.3094523 1.2078793,4.5848883 0.74939829,5.0210306 0.83588474,5.3775161 1.5132385,5.8435479 1.837267,6.0664855 2.526119,6.3772653 2.7002181,6.3790604 2.7673782,6.3797504 2.871374,6.18571 3.0011679,5.8175133 Z M 9.5296726,6.099132 C 10.127063,5.814711 10.568156,5.3839611 10.568156,5.0849999 10.568156,4.7794026 10.155409,4.3881459 9.5119682,4.083804 8.739884,3.7186156 8.7534429,3.713784 8.4740619,4.4536713 L 8.2340911,5.0891892 8.4334706,5.6167585 c 0.1096592,0.2901626 0.2194782,0.584712 0.2440427,0.6545545 0.055373,0.1574474 0.23682,0.1207863 0.8521593,-0.172181 z M 3.9198114,3.8444927 4.1364473,3.4603303 3.8459385,3.5165332 c -0.1597806,0.030913 -0.3212975,0.058012 -0.3589267,0.060229 -0.037625,0.00219 -0.1074827,0.028822 -0.1552309,0.059132 -0.084639,0.05372 -0.066643,0.1397038 0.1587584,0.758516 0.041338,0.1134836 0.091165,0.049648 0.4292721,-0.5499158 z M 8.1305119,4.0275948 C 8.2424698,3.689727 8.2139337,3.589207 8.0025249,3.5767627 7.9648918,3.5745697 7.8026974,3.5473219 7.642085,3.5162599 L 7.3500615,3.4597828 7.5353088,3.7758054 c 0.1018859,0.1738125 0.2330919,0.3993527 0.2915701,0.501201 0.1260815,0.219591 0.1565044,0.1946012 0.303633,-0.2494053 z M 3.9530092,3.0202946 4.4874236,2.9379874 4.9400822,2.3908505 5.39274,1.8437128 5.0898354,1.5803116 C 4.6944214,1.2364648 3.9062822,0.84202119 3.6146534,0.84202119 c -0.4768644,0 -0.6795177,0.48060031 -0.6202563,1.47096201 0.045246,0.7561491 0.086773,0.8790712 0.2796951,0.8279269 0.079477,-0.021068 0.3849894,-0.075344 0.678917,-0.1206155 z m 4.4539624,-0.00603 C 8.4312353,2.9295984 8.4692836,2.5986323 8.4915282,2.2787829 8.5966895,0.7666461 8.0177481,0.4493179 6.7406447,1.3190924 6.531577,1.4614787 6.303796,1.6411684 6.2344657,1.718402 6.1103986,1.8566115 6.1154033,1.8672537 6.5516639,2.3930208 l 0.443253,0.5341936 0.6064288,0.1114206 c 0.3335367,0.061278 0.6413231,0.1155035 0.6839711,0.1204941 0.042646,0.00501 0.097392,-0.060197 0.1216548,-0.1448645 z M 6.2008254,2.7063883 C 6.126687,2.6029078 5.9919267,2.4491305 5.9013653,2.3646616 L 5.7367092,2.2110731 5.5319191,2.4330701 c -0.44472,0.4820891 -0.4540707,0.4614571 0.2091307,0.4614571 h 0.5945796 z"/>
</svg>
