<svg width="60mm" height="60mm" version="1.1" viewBox="0 0 60 60" xmlns="http://www.w3.org/2000/svg">
 <path transform="translate(-.0017743 -9.6383e-6)" d="m30.09 3.7422c-1.3644-1e-7 -1.9973 0.17769-2.8848 0.79297-0.74508 0.51655-1.36 1.2559-1.8125 2.1484a0.67665 0.67665 0 0 0 0 0.00195l-0.49609 0.97852-1.8535 0.62109c-5.6529 1.8937-10.069 5.5744-12.936 10.789-0.42186 0.76749-0.94477 2.0156-1.3848 3.1875-0.22 0.58594-0.41634 1.1467-0.56055 1.6152-0.10816 0.35147-0.15231 0.59625-0.18945 0.86719-0.012113 0.0091-0.00646 0.0057-0.025391 0.01758-0.10498 0.06565-0.29929 0.15644-0.50781 0.21875-0.74669 0.22312-1.5377 0.75346-2.1582 1.373-1.6192 1.6168-2.0157 4.0308-0.98438 6.0508 0.6188 1.2121 1.8763 2.2883 3.1523 2.6309 0.22637 0.06076 0.37667 0.10606 0.44531 0.13672 0.068645 0.03066 0.055464 0.02385 0.078125 0.05273 0.045323 0.05778 0.19109 0.40289 0.41992 1.1562 2.1654 7.1265 7.6316 12.71 14.742 15.061l1.7773 0.58789 0.18359 0.62305c0.37103 1.2564 1.4014 2.4298 2.5645 3.0566a0.67665 0.67665 0 0 0 0.24805 0.19336c0.61137 0.27363 1.3665 0.35588 2.1445 0.35742 0.778 0.0015 1.5423-0.08058 2.1602-0.3457 1.3082-0.5613 2.4643-1.8841 2.8711-3.2617l0.18555-0.62305 1.7773-0.58789c4.9465-1.6353 9.0155-4.7296 11.881-9.0352 1.382-2.0766 2.1557-3.707 2.8652-6.043 0.20247-0.6666 0.35107-1.0358 0.42383-1.1504 0.07276-0.11456-0.03057-0.04382 0.14844-0.08203 1.1359-0.24245 2.2379-1.0407 3.0352-2.0859 0.55594-0.72886 0.78849-1.4413 0.86328-2.6152 0.16254-2.5535-1.139-4.5685-3.502-5.3809-0.34668-0.11916-0.29674-0.060392-0.41992-0.26367-0.12318-0.20328-0.33116-0.75709-0.67774-1.8164-0.86474-2.643-1.4119-3.7739-2.8809-5.9531-2.7587-4.0919-6.8613-7.1618-11.695-8.7598l-1.8066-0.5957-0.49414-0.97656a0.67665 0.67665 0 0 0 0-0.00195c-0.45238-0.89214-1.0682-1.6305-1.8125-2.1465-0.88754-0.61528-1.5205-0.79297-2.8848-0.79297zm-0.06641 3.0508c0.2668-0.00962 0.5718 0.055759 1.0273 0.24609 1.5932 0.66565 1.6478 3.0194 0.04883 3.877-0.54845 0.29416-0.95529 0.36079-1.3359 0.28711-0.38065-0.07368-0.79106-0.31041-1.2715-0.81836-0.96686-1.0223-0.69809-2.5935 0.58789-3.2832 0.40627-0.21788 0.67627-0.29896 0.94336-0.30859zm5.0449 4.084c0.25355 0.06432 0.61676 0.17588 1.0254 0.31836 0.83136 0.28987 1.8421 0.69912 2.5254 1.043 2.4266 1.2211 3.7681 2.2239 5.6602 4.2344 1.9395 2.0609 2.7728 3.3366 3.9336 6.0215 0.01106 0.02559 0.01644 0.04101 0.02734 0.06641-2.2256-1.5374-4.4197-2.5663-6.9336-3.2188-0.43384-0.11259-0.4878-0.14975-0.51172-0.17774-0.02392-0.02798-0.14012-0.27773-0.31445-0.88281-0.28246-0.98042-0.78985-2.2146-1.291-3.2559-0.25058-0.52062-0.49887-0.98858-0.72461-1.3574-0.11287-0.18442-0.21833-0.34329-0.33008-0.48242s-0.17462-0.27462-0.49219-0.39648c-0.76997-0.29549-1.7002 0.03283-2.0039 0.82422-0.09883 0.25743-0.0671 0.39413-0.04883 0.53906s0.05212 0.2858 0.0957 0.43555c0.08717 0.29948 0.21897 0.62921 0.38281 0.95508 0.31741 0.63125 0.70758 1.5785 0.99219 2.3633 0.07763 0.21406 0.1211 0.36103 0.17969 0.54102-0.14619-0.02477-0.26163-0.03699-0.42383-0.07031-1.1967-0.24595-3.8585-0.30537-6.627-0.28711-2.7684 0.01826-5.4605 0.11586-6.6797 0.37305-0.29737 0.06273-0.44748 0.0881-0.63672 0.12305 0.05959-0.18935 0.10764-0.34625 0.21094-0.64648 0.65579-1.9062 1.6733-3.7307 3.0215-5.4844 0.06256 0.05251-0.01073 0.0013 0.06836 0.08594 2.4398 2.6119 6.6982 2.1656 8.457-0.90625 0.16442-0.28715 0.31906-0.55486 0.4375-0.75781zm-12.318 0.79102c-0.01895 0.02716-0.02764 0.04286-0.04687 0.07031-1.4252 2.0339-2.373 3.9848-3.0977 6.3711l-0.37109 1.2188-1.0449 0.30859c-0.95638 0.28174-2.0839 0.72824-3.0469 1.1758-0.48149 0.22377-0.92056 0.44589-1.2793 0.6543-0.35874 0.20841-0.61781 0.35045-0.85938 0.64453-0.16144 0.19658-0.31057 0.43505-0.3457 0.74219-0.03514 0.30714 0.07487 0.60342 0.20898 0.81641 0.2692 0.42742 0.84317 0.76906 1.4023 0.73438 0.55918-0.03469 1.1042-0.26378 1.8809-0.63477 0.75654-0.36136 1.5372-0.67735 2.127-0.87305 0.08998-0.02986 0.13274-0.03457 0.21289-0.05859-0.01689 0.09833-0.02288 0.17002-0.04492 0.27539-0.08597 0.41089-0.14827 1.0992-0.21484 2.0195-0.06657 0.92033-0.12522 2.0301-0.16211 3.1172-0.12209 3.5993-0.0373 5.0735 0.50977 8.9121 0.0099 0.06934 0.0064 0.06698 0.01367 0.12695-0.27816-0.0968-0.65224-0.24281-1.1699-0.45312-1.6447-0.66816-2.695-1.2686-4.4766-2.5625a0.67665 0.67665 0 0 0-2e-3 0l-0.44531-0.32422 0.26367-0.26953c1.1278-1.1549 1.7715-2.9067 1.502-4.3945-0.33445-1.8466-1.5438-3.4682-3.1387-4.1113-0.0032-0.03703-0.01499-0.11171 0.01953-0.30469 0.08313-0.46478 0.36415-1.2919 0.85938-2.4473v-2e-3c1.8155-4.2338 4.4778-7.3153 8.1816-9.4941 0.57374-0.33752 1.5984-0.83676 2.5078-1.2344 0.02127-0.0093 0.03549-0.01424 0.05664-0.02344zm10.365 9.4023c2.0491 0.17884 3.3908 0.34606 4.1914 0.5293 0.40032 0.09162 0.6621 0.18969 0.79102 0.26172 0.12891 0.07203 0.11031 0.08304 0.10547 0.07031 0.2448 0.64389 0.49528 2.0479 0.63672 3.7441 0.14144 1.6963 0.19421 3.7122 0.13086 5.7129-0.05578 1.7617-0.18319 3.4801-0.33594 4.7852-0.07637 0.65251-0.15977 1.2043-0.24024 1.5918-0.03271 0.15752-0.06229 0.26449-0.08984 0.35742-0.09728 0.02308-0.19648 0.04583-0.3418 0.07617-0.39052 0.08153-0.92481 0.1832-1.5 0.28125-0.90983 0.15508-3.1166 0.31726-5.2168 0.4043-2.1002 0.08704-4.2204 0.08802-4.7598 0.01367-2.2549-0.31083-4.1264-0.60616-4.4238-0.67383-1.07e-4 -0.0011-2.34e-4 0.0066-0.03125-0.07227-0.08547-0.21729-0.21362-0.75375-0.38867-1.6797-0.3331-1.7621-0.46069-5.1899-0.38477-8.2793 0.03796-1.5447 0.12566-3.014 0.25195-4.1641 0.06315-0.57502 0.1364-1.0704 0.21484-1.4453 0.07844-0.37492 0.1878-0.64559 0.19922-0.66406-0.11173 0.18063-0.04945 0.05162 0.15039-0.02539s0.51324-0.16635 0.89648-0.25c0.76649-0.1673 1.8214-0.32011 2.9902-0.43555 2.3376-0.23087 5.1493-0.31366 7.1543-0.13867zm8.4883 1.7559c0.47757 0.12384 1.3766 0.47048 2.3652 0.97266 1.071 0.54398 2.2005 1.2112 2.9375 1.7578l0.80469 0.59766-0.28125 0.28711c-1.1313 1.1586-1.7781 2.9081-1.5176 4.4004 0.26678 1.5282 1.2408 2.9788 2.5469 3.7441 0.24268 0.14221 0.45743 0.29017 0.60742 0.4043-0.02914 0.10279-0.06097 0.21459-0.10938 0.35938-0.12102 0.36196-0.29563 0.82679-0.49023 1.3164-0.3892 0.97923-0.87283 2.0718-1.1836 2.6348-1.8184 3.294-5.0343 6.3763-8.3691 8.0273-0.3975 0.19679-0.79403 0.37581-1.1699 0.54297 1.1305-1.7238 1.9408-3.3508 2.7109-5.5527l0.58203-1.6602 1.4824-0.50976c1.4078-0.48453 2.4973-0.94787 3.2891-1.4121s1.3958-0.90323 1.4863-1.6855c0.0369-0.31913 0.04274-0.6597-0.17969-0.99609-0.22242-0.3364-0.65644-0.48669-0.99609-0.48438-0.6793 0.0046-1.3685 0.30292-2.4453 0.80664-0.50817 0.23774-1.0433 0.47419-1.4902 0.6582-0.25688 0.10577-0.35427 0.13376-0.52539 0.19531 0.72277-3.7899 0.70392-9.6721-0.05469-14.404zm9.873 5.0273c0.71396 0.11953 1.3549 0.65388 1.6426 1.332 0.28772 0.67815 0.26559 1.4505-0.38086 2.2188-0.11527 0.13699-0.28282 0.29499-0.43555 0.41211-0.15273 0.11712-0.32113 0.19084-0.28906 0.18164-0.9325 0.2675-0.84162 0.27161-1.5039 0.08203-0.2083-0.05965-0.60271-0.31351-0.91797-0.65234-0.31526-0.33884-0.55896-0.76224-0.625-1.0254-0.05995-0.23893-0.01203-0.70483 0.17578-1.1426 0.18781-0.43775 0.50315-0.83918 0.78906-1.0312 0.55423-0.37233 1.0693-0.45463 1.5449-0.375zm-41.809 0.10547c0.96248 0.27068 1.709 1.0316 1.5391 2.2988-0.07524 0.56107-0.68638 1.428-1.1387 1.6602-0.937 0.48091-1.8662 0.22844-2.502-0.37305-0.6358-0.60148-0.92508-1.4889-0.48047-2.4258 0.55254-1.1644 1.6195-1.4309 2.582-1.1602zm2.4922 9.6641c1.9331 1.2765 3.29 1.9478 5.5625 2.707l1.6523 0.55273 0.57422 1.5566c0.4531 1.228 0.91399 2.2972 1.332 3.1035 0.20902 0.40317 0.40603 0.73895 0.59961 1.0098 0.19358 0.27082 0.32236 0.49919 0.72656 0.6543 0.98182 0.37677 2.047-0.36802 1.9648-1.4316-0.0155-0.20071-0.05375-0.2942-0.10352-0.45312-0.04977-0.15893-0.11554-0.34446-0.19336-0.55274-0.15565-0.41654-0.36032-0.9209-0.58398-1.4258-0.21435-0.48386-0.42619-0.99059-0.5918-1.4102-0.08201-0.20776-0.09664-0.26801-0.15039-0.41992l0.79688 0.13672c2.7282 0.46586 9.34 0.44796 12.271-0.01953 0.52066-0.08303 0.97909-0.14237 1.3535-0.18555-0.13761 0.4344-0.37664 1.0329-0.67383 1.6836-0.60069 1.3151-1.4414 2.8485-2.1094 3.7559l-0.51367 0.69922-0.04687-0.05664c-2.3423-2.7838-7.2383-2.1795-8.6055 1.1211-0.06095 0.14713-0.10848 0.20411-0.10742 0.20312 0.0011-9.88e-4 0.05208-0.01427-0.0059-0.0098-0.11588 9e-3 -0.61775-0.08547-1.4551-0.38281-3.7755-1.3408-7.1593-3.8129-9.5391-6.9648-0.43031-0.56998-1.0768-1.6536-1.625-2.6934-0.26324-0.49924-0.3367-0.74782-0.5293-1.1777zm17.93 11.303c0.83333 0 1.6241 0.40997 1.9824 1.2676 0.37463 0.89665 0.2229 1.6189-0.55274 2.3945-0.30841 0.30838-0.45135 0.4131-0.58398 0.46484-0.13264 0.05175-0.3558 0.08203-0.8457 0.08203-0.48992 0-0.71307-0.03029-0.8457-0.08203-0.13263-0.05175-0.27561-0.15647-0.58398-0.46484-0.77565-0.77566-0.92738-1.4979-0.55273-2.3945 0.35834-0.85762 1.1491-1.2676 1.9824-1.2676z"/>
</svg>
