<svg width="60mm" height="60mm" version="1.1" viewBox="0 0 60 60" xmlns="http://www.w3.org/2000/svg">
 <path d="m30.078 6.9252c-1.199 0-1.7552.15615-2.5351.69685-.65476.45394-1.1951 1.1037-1.5928 1.888a.59463.59463 0 000 .00171l-.43596.85991-1.6288.5458c-4.9677 1.6642-8.8485 4.8987-11.368 9.4812-.37072.67446-.83025 1.7713-1.2169 2.8011-.19333.51492-.36587 1.0077-.4926 1.4194-.09505.30887-.13385.52398-.16648.76207-.01065.008-.0057.005-.02231.01545-.09225.05769-.26301.13748-.44626.19223-.65618.19608-1.3513.66213-1.8966 1.2066-1.4229 1.4208-1.7714 3.5422-.86506 5.3174.54379 1.0652 1.6489 2.0109 2.7702 2.312.19893.0534.33101.0932.39133.12015.06032.02694.04874.02096.06865.04634.03983.05078.16793.35405.36902 1.0161 1.9029 6.2627 6.7065 11.169 12.955 13.235l1.5619.51663.16134.54753c.32606 1.1041 1.2315 2.1353 2.2536 2.6861a.59463.59463 0 00.21798.16992c.53726.24046 1.2009.31274 1.8846.3141.6837.0013 1.3554-.07081 1.8984-.3038 1.1496-.49326 2.1656-1.6557 2.5231-2.8663l.16306-.54753 1.5619-.51663c4.3469-1.4371 7.9227-4.1563 10.441-7.94 1.2145-1.8249 1.8944-3.2577 2.5179-5.3105.17793-.5858.30852-.91024.37246-1.011.06394-.10067-.02686-.03851.13045-.07209.99821-.21306 1.9666-.91455 2.6673-1.8331.48855-.64051.69291-1.2666.75864-2.2982.14284-2.244-1.0009-4.0147-3.0775-4.7287-.30466-.10472-.26077-.05307-.36902-.23171-.10825-.17864-.29102-.66532-.59559-1.5962-.75992-2.3226-1.2408-3.3164-2.5317-5.2315-2.4243-3.5959-6.0296-6.2937-10.277-7.698l-1.5876-.52349-.43424-.85819a.59463.59463 0 000-.00171c-.39754-.784-.93872-1.4329-1.5928-1.8863-.77996-.5407-1.3362-.69685-2.5351-.69685zm-.05836 2.681c.23446-.00845.50249.049.90278.21626 1.4001.58496 1.4481 2.6534.04291 3.407-.48197.2585-.83949.31706-1.174.25231-.33451-.06475-.69517-.27278-1.1174-.71916-.84966-.89838-.61347-2.2791.51663-2.8852.35702-.19147.5943-.26272.82901-.27118zm4.4334 3.589c.22282.05652.542.15456.90111.27977.73059.25473 1.6188.61438 2.2193.91657 2.1325 1.0731 3.3113 1.9543 4.9741 3.7211 1.7044 1.8111 2.4367 2.9322 3.4568 5.2916.0097.02249.01445.03604.02403.05836-1.9558-1.351-3.884-2.2552-6.0931-2.8286-.38125-.09894-.42867-.1316-.44969-.1562-.02102-.02459-.12314-.24406-.27633-.7758-.24822-.86158-.69411-1.9462-1.1345-2.8612-.2202-.45751-.4384-.86875-.63678-1.1929-.09919-.16207-.19186-.30168-.29007-.42394-.0982-.12226-.15345-.24133-.43253-.34842-.67664-.25967-1.4941.02885-1.761.72431-.08685.22622-.05897.34636-.04291.47372.01606.12736.0458.25116.0841.38275.0766.26318.19243.55294.33641.83931.27894.55473.62181 1.3872.87192 2.0768.06822.18811.10642.31727.15791.47544-.12847-.02177-.22992-.03251-.37246-.06179-1.0516-.21614-3.3908-.26836-5.8237-.25231-2.4328.01605-4.7986.10182-5.87.32783-.26132.05513-.39324.07742-.55954.10814.05237-.1664.09459-.30428.18537-.56812.5763-1.6751 1.4705-3.2785 2.6552-4.8196.05498.04615-.0094.0011.06007.07552 2.1441 2.2953 5.8863 1.9031 7.4319-.7964.14449-.25234.28038-.4876.38447-.66595zm-10.825.69514c-.01665.02387-.02429.03767-.04119.06179-1.2524 1.7874-2.0854 3.5018-2.7222 5.5988l-.32611 1.0711-.91824.27118c-.84045.24759-1.8313.63997-2.6776 1.0333-.42313.19665-.80897.39184-1.1242.57499-.31526.18315-.54292.30797-.75521.5664-.14187.17275-.27292.38232-.3038.65222-.03088.26991.0658.53028.18365.71745.23657.37561.74096.67584 1.2323.64536.4914-.03048.97035-.23181 1.6529-.55783.66484-.31756 1.3509-.59524 1.8692-.76722.07907-.02624.11665-.03038.18708-.05149-.01484.08641-.02011.14941-.03947.24201-.07555.36108-.1303.96596-.1888 1.7747-.0585.80877-.11004 1.784-.14246 2.7393-.10729 3.163-.03278 4.4585.44798 7.8318.0087.06094.0056.05886.01201.11156-.24444-.08507-.57318-.21338-1.0281-.39819-1.4453-.58717-2.3683-1.1148-3.934-2.2519a.59463.59463 0 00-.0018 0l-.39133-.28492.23171-.23686c.99109-1.0149 1.5568-2.5544 1.3199-3.8618-.29391-1.6228-1.3567-3.0478-2.7582-3.6129-.0028-.03254-.01317-.09817.01716-.26776.07305-.40844.32001-1.1353.75521-2.1506v-.0018c1.5954-3.7206 3.935-6.4286 7.1899-8.3433.50419-.29661 1.4046-.73533 2.2038-1.0848.01869-.0082.03119-.01251.04977-.0206zm9.1086 8.2626c1.8007.15716 2.9798.30411 3.6833.46514.3518.08051.58184.1667.69514.23.11328.0633.09694.07297.09269.06179.21513.56584.43524 1.7997.55954 3.2903.1243 1.4907.17067 3.2622.115 5.0204-.04902 1.5482-.16098 3.0583-.29522 4.2052-.06711.57342-.1404 1.0583-.21112 1.3988-.02875.13843-.05474.23243-.07895.3141-.08549.02028-.17266.04028-.30037.06694-.34318.07165-.81271.16099-1.3182.24716-.79954.13628-2.7388.2788-4.5844.35529-1.8456.07649-3.7088.07735-4.1828.01201-1.9816-.27315-3.6262-.53268-3.8876-.59215-9.4e-5-.000966-.000206.0058-.02746-.06351-.07511-.19095-.18773-.66238-.34156-1.4761-.29272-1.5485-.40485-4.5608-.33813-7.2757.03336-1.3575.11043-2.6487.22141-3.6593.0555-.50532.11987-.94065.1888-1.2701.06893-.32947.16504-.56734.17507-.58357-.09819.15874-.04346.04536.13216-.02231.17562-.06767.45103-.14618.78781-.2197.67358-.14702 1.6006-.28131 2.6277-.38275 2.0542-.20288 4.5251-.27564 6.2871-.12186zm7.4594 1.5431c.41968.10883 1.2097.41345 2.0785.85476.94118.47804 1.9338 1.0644 2.5814 1.5447l.70715.52522-.24716.25231c-.99417 1.0182-1.5626 2.5556-1.3336 3.867.23444 1.343 1.0904 2.6177 2.2382 3.2903.21326.12497.40198.255.53379.35529-.02561.09033-.05358.18858-.09612.31582-.10635.31808-.2598.72657-.43081 1.1568-.34202.86053-.76703 1.8207-1.0401 2.3154-1.598 2.8947-4.4241 5.6034-7.3546 7.0543-.34932.17294-.69778.33026-1.0281.47715.99347-1.5148 1.7055-2.9446 2.3823-4.8796l.51148-1.459 1.3027-.44797c1.2372-.4258 2.1946-.83297 2.8904-1.2409s1.2266-.79374 1.3061-1.4812c.03243-.28045.03756-.57973-.15791-.87535-.19546-.29562-.57687-.4277-.87535-.42567-.59696.004-1.2026.2662-2.1489.70886-.44657.20892-.91684.41671-1.3096.57842-.22574.09295-.31133.11755-.4617.17164.63516-3.3305.61859-8.4997-.04806-12.658zm8.6762 4.4179c.62742.10504 1.1907.57462 1.4435 1.1705.25284.59595.2334 1.2747-.33469 1.9498-.1013.12038-.24854.25923-.38275.36216-.13422.10292-.2822.16771-.25402.15962-.81947.23508-.7396.23869-1.3216.07209-.18305-.05242-.52965-.27551-.8067-.57327-.27705-.29777-.49121-.66984-.54924-.90111-.05268-.20997-.01057-.61939.15447-1.0041.16504-.38469.44216-.73746.69341-.9062.48705-.3272.93968-.39952 1.3576-.32954zm-36.741.09269c.84581.23787 1.5018.90655 1.3525 2.0202-.06612.49306-.60318 1.2549-1.0007 1.459-.82342.42262-1.64.20075-2.1987-.32783-.55873-.52858-.81295-1.3084-.42223-2.1318.48556-1.0233 1.4232-1.2575 2.269-1.0196zm2.1901 8.4927c1.6988 1.1218 2.8912 1.7117 4.8882 2.3789l1.452.48573.50462 1.3679c.39818 1.0791.8032 2.0187 1.1705 2.7273.18368.3543.35681.64938.52693.8874.17012.23799.28328.43868.63849.57499.86281.3311 1.7989-.32341 1.7266-1.2581-.01362-.17638-.04724-.25854-.09097-.3982-.04374-.13966-.10154-.30271-.16992-.48574-.13678-.36605-.31664-.80927-.51319-1.253-.18837-.42521-.37453-.87052-.52006-1.2393-.07207-.18258-.08493-.23552-.13216-.36902l.70029.12015c2.3975.40939 8.2078.39366 10.784-.01716.45755-.07297.86041-.12511 1.1894-.16306-.12093.38174-.33098.9077-.59215 1.4795-.52788 1.1557-1.2667 2.5032-1.8537 3.3006l-.4514.61446-.04119-.04977c-2.0584-2.4464-6.3609-1.9153-7.5624.98521-.05356.1293-.09533.17937-.0944.1785.000966-.000868.04577-.01254-.0052-.0086-.10183.0079-.54287-.07511-1.2787-.33641-3.3179-1.1783-6.2915-3.3507-8.3828-6.1206-.37815-.50089-.94628-1.4532-1.428-2.3669-.23133-.43872-.29589-.65717-.46514-1.0349zm15.757 9.9329c.73232 0 1.4272.36028 1.7421 1.1139.32922.78796.19588 1.4227-.48574 2.1042-.27103.271-.39664.36303-.51319.40849-.11656.04548-.31267.07209-.74319.07209-.43053 0-.62664-.02662-.74319-.07209-.11655-.04548-.2422-.1375-.51319-.40849-.68163-.68164-.81497-1.3163-.48573-2.1042.3149-.75366 1.0098-1.1139 1.7421-1.1139z"/>
</svg>
