<?xml version="1.0" encoding="UTF-8" standalone="no"?>
<!-- Created with Inkscape (http://www.inkscape.org/) -->

<svg
   width="60mm"
   height="60mm"
   viewBox="0 0 60 60"
   version="1.1"
   id="svg8">
  <ellipse
     style="opacity:0.52899996;fill:#333333;fill-opacity:1;fill-rule:nonzero;stroke:none;stroke-width:1.6507498;stroke-linecap:round;stroke-linejoin:miter;stroke-miterlimit:4;stroke-dasharray:none;stroke-dashoffset:0;stroke-opacity:0.95098039;paint-order:stroke fill markers"
     id="path837-3-6-4-6"
     cx="52.592358"
     cy="37.745407"
     rx="1.8885641"
     ry="1.8882809" />
  <ellipse
     style="opacity:0.52899996;fill:#333333;fill-opacity:1;fill-rule:nonzero;stroke:none;stroke-width:1.65074992;stroke-linecap:round;stroke-linejoin:miter;stroke-miterlimit:4;stroke-dasharray:none;stroke-dashoffset:0;stroke-opacity:0.95098039;paint-order:stroke fill markers"
     id="path837-3-6-4"
     cx="13.345712"
     cy="53.767914"
     rx="2.3683519"
     ry="2.3679969" />
  <ellipse
     style="opacity:0.52899996;fill:#333333;fill-opacity:1;fill-rule:nonzero;stroke:none;stroke-width:1.65074992;stroke-linecap:round;stroke-linejoin:miter;stroke-miterlimit:4;stroke-dasharray:none;stroke-dashoffset:0;stroke-opacity:0.95098039;paint-order:stroke fill markers"
     id="path837-3-6"
     cx="55.107914"
     cy="6.9710369"
     rx="4.191546"
     ry="4.1909175" />
  <ellipse
     style="opacity:0.52899996;fill:#333333;fill-opacity:1;fill-rule:nonzero;stroke:none;stroke-width:1.65074992;stroke-linecap:round;stroke-linejoin:miter;stroke-miterlimit:4;stroke-dasharray:none;stroke-dashoffset:0;stroke-opacity:0.95098039;paint-order:stroke fill markers"
     id="path837-3-6-8"
     cx="32.729137"
     cy="8.837512"
     rx="4.1915455"
     ry="4.190917" />
  <ellipse
     style="opacity:0.52899996;fill:#333333;fill-opacity:1;fill-rule:nonzero;stroke:none;stroke-width:1.65074992;stroke-linecap:round;stroke-linejoin:miter;stroke-miterlimit:4;stroke-dasharray:none;stroke-dashoffset:0;stroke-opacity:0.95098039;paint-order:stroke fill markers"
     id="path837-3-6-4-3"
     cx="13.393688"
     cy="18.316916"
     rx="2.8001611"
     ry="2.799741" />
  <g
     transform="matrix(0.533877,0,0,0.53321298,-26.618204,-0.98985789)"
     id="layer1-36-7"
     style="stroke-width:2.2111454">
    <g
       transform="translate(-0.44604825,-0.57778142)"
       id="g838-7-9"
       style="stroke-width:2.2111454">
      <path
        
         style="opacity:1;fill:#999999;fill-opacity:1;fill-rule:nonzero;stroke:none;stroke-width:8.32496166;stroke-linecap:round;stroke-linejoin:round;stroke-miterlimit:4;stroke-dasharray:none;stroke-dashoffset:0;stroke-opacity:1;paint-order:stroke fill markers"
         d="M 94.377818,42.273758 H 131.26101 V 79.156952 H 94.377818 Z"
         id="rect833-5-2" />
      <path
        
         style="fill:#000000;stroke-width:2.2111454"
         d="M 81.956077,90.45879 C 81.585734,90.088447 81.540303,87.943438 81.540303,70.828205 V 51.613391 l 5.357812,-5.39265 c 2.946797,-2.965957 5.679322,-5.562193 6.072278,-5.769412 1.065174,-0.561704 37.955787,-0.562931 38.724027,-0.0013 0.49891,0.364741 0.51563,0.915002 0.58497,19.247142 0.0491,12.981627 -0.0172,19.085421 -0.2123,19.556538 -0.15602,0.376682 -2.75447,3.14547 -5.77431,6.152859 l -5.49063,5.467993 H 101.587 c -17.11554,0 -19.26058,-0.04543 -19.630923,-0.415774 z m 42.377963,-7.585189 4.83126,-4.825965 V 60.648602 43.249566 H 111.77156 94.377819 l -4.831258,4.825964 -4.831258,4.825963 v 17.399035 17.399036 h 17.393747 17.39374 z m -5.2229,-0.465704 c -0.51586,-0.515855 -0.52917,-0.881943 -0.52917,-14.552082 V 53.832899 h -14.02292 c -13.670136,0 -14.036226,-0.01331 -14.55208,-0.529167 -0.673697,-0.673696 -0.673697,-1.44297 0,-2.116666 0.516266,-0.516267 0.881944,-0.529167 15.00001,-0.529167 h 14.47085 l 2.68871,-2.645833 c 2.83166,-2.7865 3.40453,-3.065065 4.35293,-2.116667 0.9484,0.948398 0.66983,1.521268 -2.11667,4.352924 l -2.64583,2.68871 v 14.47085 c 0,14.118071 -0.0129,14.483749 -0.52917,15.000014 -0.29104,0.291042 -0.76729,0.529167 -1.05833,0.529167 -0.29104,0 -0.76729,-0.238125 -1.05833,-0.529167 z"
         id="path831-3-0" />
    </g>
  </g>
  <ellipse
     style="opacity:1;fill:none;fill-opacity:1;fill-rule:nonzero;stroke:#000000;stroke-width:1.74624991;stroke-linecap:round;stroke-linejoin:miter;stroke-miterlimit:4;stroke-dasharray:none;stroke-dashoffset:0;stroke-opacity:0.95098039;paint-order:stroke fill markers"
     id="path897-2-9-3"
     cx="31.193111"
     cy="7.8939095"
     rx="4.150279"
     ry="4.1451173" />
  <path
     style="fill:none;stroke:#000000;stroke-width:1.74624991;stroke-linecap:butt;stroke-linejoin:miter;stroke-miterlimit:4;stroke-dasharray:none;stroke-opacity:1"
     d="m 31.148029,12.25149 v 9.052241"
     id="path1013-5"
    
      />
  <ellipse
     style="opacity:1;fill:none;fill-opacity:1;fill-rule:nonzero;stroke:#000000;stroke-width:1.74625063;stroke-linecap:round;stroke-linejoin:miter;stroke-miterlimit:4;stroke-dasharray:none;stroke-dashoffset:0;stroke-opacity:0.95098039;paint-order:stroke fill markers"
     id="path897-2-9-3-2"
     cx="45.852631"
     cy="-30.100555"
     transform="matrix(0.74159739,0.67084522,-0.67176315,0.74076601,0,0)"
     rx="4.147954"
     ry="4.1474442" />
  <path
     style="fill:none;stroke:#000000;stroke-width:1.74624991;stroke-linecap:butt;stroke-linejoin:miter;stroke-miterlimit:4;stroke-dasharray:none;stroke-opacity:1"
     d="m 51.09143,11.850521 -8.989388,9.91277"
     id="path1013-5-2"
    
      />
  <g
     id="g990-0-2-9-8"
     transform="matrix(-0.48140702,-0.43547835,0.43602067,-0.48080827,6.3626639,64.881546)"
     style="fill:none;stroke-width:2.69022775;stroke-miterlimit:4;stroke-dasharray:none">
    <circle
       r="3.4276392"
       cy="19.957626"
       cx="6.4830489"
       id="path897-2-9-3-2-9"
       style="opacity:1;fill:none;fill-opacity:1;fill-rule:nonzero;stroke:#000000;stroke-width:2.69022775;stroke-linecap:round;stroke-linejoin:miter;stroke-miterlimit:4;stroke-dasharray:none;stroke-dashoffset:0;stroke-opacity:0.95098039;paint-order:stroke fill markers" />
  </g>
  <path
     style="fill:none;stroke:#000000;stroke-width:1.79916656;stroke-linecap:butt;stroke-linejoin:miter;stroke-miterlimit:4;stroke-dasharray:none;stroke-opacity:1"
     d="m 13.768508,50.688694 4.602705,-5.224087"
     id="path1013-5-2-7"
    
      />
  <ellipse
     style="opacity:1;fill:none;fill-opacity:1;fill-rule:nonzero;stroke:#000000;stroke-width:1.74717224;stroke-linecap:round;stroke-linejoin:miter;stroke-miterlimit:4;stroke-dasharray:none;stroke-dashoffset:0;stroke-opacity:0.95098039;paint-order:stroke fill markers"
     id="path897-2-9-3-9"
     cx="-12.520121"
     cy="19.786356"
     transform="matrix(0.47137643,-0.88193212,0.90265236,0.43037044,0,0)"
     rx="2.2414727"
     ry="2.3187478" />
  <path
     style="fill:none;stroke:#000000;stroke-width:1.74624991;stroke-linecap:butt;stroke-linejoin:miter;stroke-miterlimit:4;stroke-dasharray:none;stroke-opacity:1"
     d="m 14.275711,20.689107 6.753166,3.219803"
     id="path1013-5-3"
    
      />
  <g
     id="g990-0-2-1"
     transform="matrix(0,-0.5313265,-0.56697214,0,62.995902,42.162031)"
     style="fill:none;stroke-width:2.84415269;stroke-miterlimit:4;stroke-dasharray:none">
    <circle
       r="3.4276392"
       cy="19.957626"
       cx="6.4830489"
       id="path897-2-9-3-94"
       style="opacity:1;fill:none;fill-opacity:1;fill-rule:nonzero;stroke:#000000;stroke-width:2.84415269;stroke-linecap:round;stroke-linejoin:miter;stroke-miterlimit:4;stroke-dasharray:none;stroke-dashoffset:0;stroke-opacity:0.95098039;paint-order:stroke fill markers" />
  </g>
  <path
     style="fill:none;stroke:#000000;stroke-width:1.56104171;stroke-linecap:butt;stroke-linejoin:miter;stroke-miterlimit:4;stroke-dasharray:none;stroke-opacity:1"
     d="M 49.518301,38.737199 H 43.247973"
     id="path1013-5-7"
    
      />
</svg>
