<svg width="20" height="20" version="1.1" viewBox="0 0 20 20" xmlns="http://www.w3.org/2000/svg">
 <circle cx="10" cy="10" r="9.0678" fill="#fff" style="paint-order:stroke fill markers"/>
 <path d="m10 0c-5.52 0-10 4.48-10 10s4.48 10 10 10 10-4.48 10-10-4.48-10-10-10zm0.16797 4.1562c0.18871 0.0087408 0.37862 0.026988 0.56836 0.056641 0.90964 0.14216 2.2667 0.74752 2.8867 1.2871l0.41602 0.36133-0.625 0.63281c-0.46551 0.4702-0.66588 0.60158-0.78516 0.51367-1.1644-0.85825-1.7483-1.0555-2.9473-0.99414-1.0313 0.052809-1.6839 0.34309-2.4648 1.0938-0.6563 0.63084-1.0937 1.4831-1.1777 2.2969l-0.066406 0.63867h0.53906c0.61589 0 0.88735 0.2151 0.70312 0.55664-0.18771 0.34798-1.9993 2.0605-2.1797 2.0605-0.090697 0-0.63653-0.47368-1.2148-1.0547-0.85908-0.86308-1.0382-1.1041-0.97266-1.3105 0.067063-0.21128 0.17515-0.25195 0.65234-0.25195h0.57031l0.14062-0.88086c0.47855-2.9665 3.1264-5.137 5.957-5.0059zm4.7559 3.2676c0.3075 0 2.0943 1.658 2.2227 2.0625 0.1025 0.32296-0.23452 0.55664-0.80273 0.55664-0.44198 0-0.44574 0.004285-0.52148 0.56445-0.35399 2.6181-2.3905 4.7391-4.9375 5.1426-0.7833 0.12409-0.84843 0.12562-1.4863 0.041016-1.0854-0.14396-2.2288-0.64559-3.0352-1.332l-0.41602-0.35547 0.625-0.63086c0.46551-0.4702 0.66588-0.60158 0.78516-0.51367 0.62425 0.46011 1.1773 0.77153 1.5879 0.89453 0.73253 0.21947 2.1342 0.10719 2.7734-0.22266 1.1624-0.59978 2.0872-1.841 2.2227-2.9844l0.06836-0.57031-0.56641-0.0625c-0.52058-0.058678-0.76689-0.21744-0.77148-0.49805-9.69e-4 -0.061244 0.44409-0.55738 0.98828-1.1016 0.66646-0.66646 1.0793-0.99023 1.2637-0.99023z" fill="#00a1ff"/>
</svg>
