<svg width="100mm" height="100mm" version="1.1" viewBox="0 0 100 100" xmlns="http://www.w3.org/2000/svg">
 <g transform="translate(-9.116 -24.3)">
  <path d="m32.397 120.09c-1.3252-0.3289-2.7508-1.2084-3.6373-2.2441-1.7354-2.0275-1.633 0.0871-1.633-33.696v-30.442l-1.6926-0.1211c-1.9526-0.13971-3.0777-0.71369-3.8228-1.9501-0.43906-0.72864-0.49787-1.3255-0.56321-5.7161-0.07007-4.7087-0.05068-4.9456 0.49025-5.9913 1.1417-2.2071 0.36387-2.0815 13.757-2.2205l11.81-0.12256 0.12256-2.9415c0.14154-3.3969 0.45812-4.1806 2.1772-5.3894l1.0507-0.73877 16.449-0.1474 1.3273 0.64938c0.8893 0.43509 1.5456 0.97897 1.9889 1.6482 0.60284 0.91007 0.67248 1.2617 0.78416 3.9592l0.12257 2.9604 11.766 0.12256c13.152 0.137 12.492 0.044 13.662 1.9251 0.52171 0.83896 0.56033 1.195 0.6288 5.7964 0.07004 4.7087 0.05068 4.9456-0.49025 5.9913-0.84479 1.633-1.6032 2.0728-3.7623 2.1819l-1.826 0.09221v30.402c0 21.885-0.07755 30.661-0.27691 31.326-0.42877 1.4311-1.8986 3.1651-3.4 4.011l-1.3482 0.75959-26.474 0.0389c-14.561 0.0214-26.805-0.0433-27.209-0.14363zm52.982-4.0955c1.8068-0.85739 1.6809 1.5466 1.6809-32.079v-30.151l-56.012-0.12463 3.92e-4 30.09c3.68e-4 28.156 0.02793 30.146 0.42897 30.948 0.91178 1.8252-0.85971 1.7151 27.601 1.7155 23.054 2.5e-4 25.536-0.0374 26.301-0.40036zm-42.583-6.1988-0.71653-0.71652v-49.346l0.71653-0.71652c0.92976-0.92977 1.8043-0.92977 2.7341 0l0.71653 0.71652v49.346l-0.71653 0.71652c-0.43196 0.43195-0.97488 0.71652-1.3671 0.71652-0.39217 0-0.9351-0.28457-1.3671-0.71652zm14.953 0-0.71653-0.71652 0.0078-24.715c0.0082-26.155-0.03613-25.152 1.1404-25.778 0.86324-0.45976 1.5376-0.33342 2.3024 0.43136l0.71653 0.71652v49.346l-0.71653 0.71652c-0.43195 0.43195-0.97488 0.71652-1.3671 0.71652-0.39217 0-0.9351-0.28457-1.3671-0.71652zm15.549 0.47347c-1.3836-0.55835-1.3131 0.83269-1.3131-25.936v-24.6l0.71653-0.71652c1.0471-1.0471 2.6025-0.83907 3.1785 0.42511 0.19362 0.42497 0.27215 7.6283 0.27215 24.964 0 17.336-0.07856 24.539-0.27215 24.964-0.26482 0.58121-1.1663 1.1575-1.7617 1.1261-0.16218-8e-3 -0.53126-0.11094-0.82018-0.22752zm19.645-64.593v-3.922l-67.778-0.1243v8.0926l67.778-0.1243zm-25.861-10.424c0-2.4389-0.0046-2.4592-0.65615-2.7068-0.40685-0.15468-3.3441-0.22223-7.7307-0.17778-5.9678 0.06047-7.1109 0.12921-7.3067 0.43938-0.1277 0.20223-0.23387 1.388-0.23594 2.6351l-0.0038 2.2674h15.933z"/>
 </g>
</svg>
