<svg width="20" height="20" version="1.1" viewBox="0 0 20 20" xmlns="http://www.w3.org/2000/svg">
 <circle cx="10" cy="10" r="9.0678" fill="#fff" style="paint-order:stroke fill markers"/>
 <g transform="translate(-2,-2)" fill-rule="evenodd">
  <circle cx="12" cy="12" r="10" fill="#8d949b"/>
  <path d="m11.023 14.043c0-0.596 0.077-1.07 0.23-1.425 0.154-0.354 0.457-0.742 0.911-1.166 0.453-0.423 0.74-0.724 0.862-0.904 0.186-0.273 0.279-0.569 0.279-0.887 0-0.42-0.108-0.742-0.325-0.964-0.216-0.222-0.533-0.333-0.952-0.333-0.4 0-0.722 0.109-0.966 0.326-0.245 0.217-0.367 0.512-0.367 0.884h-1.695c0.01-0.793 0.29-1.42 0.84-1.882 0.552-0.461 1.28-0.692 2.188-0.692 0.935 0 1.664 0.228 2.187 0.685s0.785 1.096 0.785 1.916c0 0.73-0.353 1.45-1.06 2.157l-0.859 0.813c-0.307 0.336-0.465 0.827-0.474 1.472zm-0.118 2.09c0-0.264 0.086-0.478 0.258-0.642 0.172-0.163 0.404-0.245 0.697-0.245 0.298 0 0.533 0.084 0.705 0.252a0.85 0.85 0 0 1 0.258 0.635 0.835 0.835 0 0 1-0.25 0.618c-0.168 0.166-0.406 0.249-0.713 0.249s-0.543-0.083-0.708-0.249a0.841 0.841 0 0 1-0.247-0.618z" fill="#fff"/>
 </g>
</svg>
